<svg width="198" height="48" viewBox="0 0 198 48" fill="none" xmlns="http://www.w3.org/2000/svg">
<g clip-path="url(#clip0_452_2508)">
<path d="M95.5119 29.3504C94.436 27.8109 93.4344 26.3636 92.4187 24.9264C91.5556 23.702 91.5496 23.708 92.9667 23.3427C93.2016 23.2824 93.5528 23.3788 93.5448 22.9613C93.5348 22.4996 93.1715 22.6722 92.9487 22.6722C91.0096 22.6602 89.0706 22.6622 87.1316 22.6722C86.9308 22.6722 86.6257 22.5257 86.5555 22.875C86.4792 23.2503 86.7743 23.2804 87.0372 23.3647C87.79 23.6036 88.5848 23.714 89.1168 24.4446C90.5319 26.3897 91.9711 28.3167 93.4525 30.2116C93.8479 30.7174 93.7937 31.0044 93.4083 31.4621C92.3344 32.7407 91.3007 34.0535 90.287 35.3803C89.3877 36.5586 88.5266 37.7589 86.8566 37.8713C86.6237 37.8874 86.3808 37.9777 86.4089 38.2969C86.4411 38.6642 86.7321 38.5638 86.9449 38.5658C88.1814 38.5739 89.4199 38.5959 90.6563 38.5558C91.112 38.5417 91.8687 38.8408 91.9711 38.335C92.1136 37.6304 91.2565 37.8914 90.8631 37.6826C90.5921 37.5381 90.1264 37.5461 90.4938 37.0403C91.8005 35.2358 93.1032 33.4312 94.4561 31.5564C95.5922 33.1462 96.6581 34.6396 97.726 36.131C98.6553 37.4277 98.6594 37.4337 97.2081 37.8814C96.9471 37.9616 96.6561 37.9596 96.7324 38.3531C96.8046 38.7224 97.1037 38.5638 97.3004 38.5638C99.2053 38.5759 101.112 38.5759 103.017 38.5598C103.246 38.5598 103.591 38.7365 103.674 38.329C103.768 37.8693 103.354 37.8693 103.099 37.8051C102.311 37.6104 101.578 37.3876 101.054 36.675C99.5867 34.6858 98.0973 32.7126 96.5778 30.7636C96.1844 30.2577 96.1302 29.9366 96.5738 29.4147C97.6557 28.1441 98.6895 26.8273 99.6871 25.4884C100.488 24.4125 101.357 23.4932 102.788 23.3507C103.051 23.3246 103.364 23.2925 103.292 22.897C103.23 22.5598 102.933 22.6622 102.72 22.6602C101.484 22.6521 100.245 22.624 99.0106 22.6782C98.573 22.6963 97.8364 22.335 97.744 22.9552C97.6577 23.5193 98.4526 23.3306 98.836 23.5193C99.113 23.6558 99.6028 23.6357 99.2395 24.1476C98.0251 25.8578 96.7986 27.5619 95.52 29.3484L95.5119 29.3504Z" fill="#FDFEFE"/>
<path d="M111.859 22.6542V22.6602C110.087 22.6602 108.314 22.6502 106.542 22.6722C106.297 22.6742 105.869 22.4494 105.831 22.9452C105.797 23.3929 106.235 23.2945 106.486 23.3989C106.608 23.4491 106.743 23.4872 106.873 23.4972C107.875 23.5815 108.172 24.1215 108.158 25.1071C108.108 28.8185 108.116 32.532 108.154 36.2434C108.162 37.0905 107.919 37.5863 107.048 37.6907C106.817 37.7188 106.582 37.7609 106.363 37.8372C106.134 37.9175 105.785 37.8974 105.827 38.2969C105.873 38.7425 106.233 38.5598 106.452 38.5618C108.124 38.5779 109.798 38.61 111.468 38.5478C111.962 38.5297 112.813 38.9693 112.905 38.2547C112.979 37.6827 112.082 37.791 111.606 37.7007C110.773 37.5421 110.406 37.1588 110.468 36.2735C110.538 35.2759 110.484 34.2683 110.484 33.2646C110.484 31.7578 111.228 31.0044 112.714 31.0044C114.149 31.0044 115.119 31.6622 115.625 32.9776C115.649 33.0398 115.647 33.1121 115.671 33.1723C115.769 33.4051 115.98 33.4011 116.179 33.3811C116.39 33.361 116.424 33.2024 116.424 33.0198C116.422 31.5143 116.424 30.0108 116.424 28.5054C116.424 28.2866 116.374 28.112 116.107 28.1019C115.892 28.0939 115.707 28.132 115.639 28.3729C115.567 28.6298 115.476 28.8828 115.424 29.1437C115.256 29.9707 114.754 30.2999 113.921 30.2658C113.019 30.2276 112.114 30.2276 111.213 30.2658C110.633 30.2919 110.466 30.0691 110.474 29.513C110.5 27.7406 110.496 25.9682 110.474 24.1958C110.468 23.6759 110.562 23.3929 111.179 23.4109C112.582 23.4511 113.987 23.439 115.392 23.429C115.946 23.425 116.263 23.6799 116.42 24.1917C116.614 24.8301 116.827 25.4603 117.016 26.1007C117.106 26.4038 117.182 26.7109 117.588 26.6547C118.003 26.5965 117.849 26.2452 117.853 26.0144C117.873 25.1111 117.827 24.2078 117.875 23.3065C117.905 22.7465 117.67 22.6441 117.182 22.6502C115.41 22.6702 113.638 22.6582 111.865 22.6582L111.859 22.6542Z" fill="#FDFEFE"/>
<path d="M79.7167 10.1087L79.9355 10.0665C80.1242 10.3797 80.3128 10.6928 80.4975 11.008C81.3245 12.4191 82.1656 13.8222 82.9645 15.2493C83.1993 15.6668 83.4924 15.8194 83.934 15.7511C84.4699 15.6688 84.2612 15.2433 84.2632 14.9563C84.2792 12.9851 84.2812 11.012 84.2632 9.03882C84.2612 8.73572 84.5101 8.24594 83.8637 8.22386C83.1411 8.19977 83.4081 8.74575 83.4 9.07495C83.3759 10.0425 83.4161 11.014 83.4061 11.9815C83.4 12.6138 83.5124 13.2641 83.2977 14.0149C83.117 13.786 83.0267 13.6957 82.9624 13.5873C82.013 11.9775 81.0535 10.3737 80.1322 8.74776C79.9034 8.3443 79.6484 8.14156 79.1868 8.22185C78.6348 8.32021 78.8957 8.74977 78.8917 9.02276C78.8696 10.9939 78.8676 12.9671 78.8917 14.9402C78.8957 15.2313 78.6187 15.7371 79.2811 15.7532C79.9435 15.7712 79.7026 15.2714 79.7066 14.9683C79.7267 13.3484 79.7167 11.7266 79.7167 10.1047V10.1087Z" fill="#FDFEFE"/>
<path d="M75.9249 11.1665C75.941 11.1665 75.9571 11.1665 75.9711 11.1665C75.9711 10.4319 75.9831 9.6972 75.9651 8.96254C75.9571 8.63736 76.1357 8.19375 75.4914 8.21382C74.9032 8.2339 75.0939 8.63736 75.0919 8.92239C75.0759 10.2914 75.0939 11.6603 75.0759 13.0293C75.0558 14.5006 74.4877 15.1189 73.2332 15.0908C72.0308 15.0627 71.5069 14.4464 71.5009 13.0273C71.4949 11.5921 71.4949 10.1549 71.5009 8.71966C71.5009 8.41656 71.4728 8.21583 71.0854 8.21382C70.704 8.21382 70.5555 8.32824 70.5635 8.72769C70.6016 10.4299 70.5454 12.136 70.6599 13.8322C70.7502 15.1851 71.8181 15.9238 73.3657 15.8997C74.851 15.8776 75.8105 15.1128 75.9129 13.7659C75.9791 12.9028 75.9249 12.0317 75.9249 11.1645V11.1665Z" fill="#FDFEFE"/>
<path d="M98.5911 11.9012C98.5911 12.969 98.5951 14.0369 98.5911 15.1048C98.5911 15.4541 98.565 15.7692 99.0809 15.7592C100.181 15.7391 101.283 15.7491 102.383 15.7592C102.664 15.7612 102.822 15.6829 102.816 15.3677C102.81 15.0767 102.692 14.9462 102.395 14.9502C101.761 14.9603 101.12 14.894 100.494 14.9663C99.671 15.0626 99.5044 14.7274 99.5265 13.9687C99.5787 12.2324 99.5406 12.2685 101.227 12.2003C101.658 12.1822 102.503 12.6399 102.491 11.7968C102.481 11.1203 101.686 11.4776 101.265 11.4676C99.4402 11.4234 99.4723 11.4495 99.5265 9.63296C99.5426 9.04884 99.7854 8.98661 100.245 9.00066C100.912 9.02274 101.58 9.00066 102.246 9.00669C102.564 9.00869 102.756 8.91034 102.738 8.54702C102.72 8.19976 102.481 8.21582 102.244 8.21582C101.211 8.21582 100.175 8.2379 99.1411 8.2098C98.6875 8.19775 98.5771 8.3764 98.5851 8.79391C98.6072 9.82766 98.5931 10.8634 98.5911 11.8972V11.9012Z" fill="#FDFEFE"/>
<path d="M93.5508 14.4685C93.4786 14.4745 93.4063 14.4825 93.334 14.4886C93.0089 13.517 92.6857 12.5475 92.3605 11.576C92.0333 10.5965 91.674 9.62694 91.397 8.63535C91.2625 8.15761 90.9594 8.21582 90.6323 8.22787C90.2107 8.24393 90.3673 8.50487 90.4396 8.71564C91.1983 10.9156 91.9711 13.1136 92.7138 15.3196C92.8362 15.6869 93.051 15.7451 93.3802 15.7632C93.7716 15.7853 93.9884 15.6568 94.1209 15.2734C94.9198 12.951 95.7368 10.6346 96.5457 8.3202C95.8793 8.03116 95.6123 8.32221 95.4276 8.89027C94.8194 10.753 94.1791 12.6077 93.5528 14.4645L93.5508 14.4685Z" fill="#FDFEFE"/>
<path d="M114.005 15.8977C115.436 15.9238 116.275 15.3497 116.548 14.2015C116.801 13.1377 116.299 12.2685 115.081 11.6704C114.603 11.4355 114.107 11.2328 113.644 10.9718C113.17 10.7049 112.895 10.2893 113.043 9.72129C113.188 9.16326 113.628 8.93845 114.158 8.8682C114.706 8.79593 115.227 8.8983 115.697 9.18534C115.978 9.35596 116.209 9.35195 116.368 9.06089C116.568 8.69557 116.227 8.60123 116.016 8.47477C115.581 8.21583 115.101 8.08335 114.589 8.06328C113.341 8.0131 112.447 8.56911 112.178 9.57476C111.899 10.6185 112.283 11.301 113.511 11.9413C114.013 12.2023 114.535 12.4331 115.019 12.7262C115.559 13.0534 115.783 13.5592 115.613 14.1855C115.438 14.8258 114.954 15.0647 114.334 15.1048C113.746 15.1429 113.21 14.9804 112.708 14.6953C112.449 14.5488 112.253 14.4906 112.068 14.8218C111.863 15.1931 112.13 15.3055 112.353 15.434C112.881 15.7371 113.447 15.9258 114.005 15.8997V15.8977Z" fill="#FDFEFE"/>
<path d="M131.346 11.6864C130.82 10.7049 130.32 9.84775 129.893 8.95652C129.591 8.32624 129.232 8.00307 128.493 8.3423C128.799 8.92642 129.076 9.49046 129.381 10.0405C130.24 11.5881 131.153 13.1116 130.834 15.0105C130.782 15.3256 130.667 15.7813 131.308 15.7592C131.976 15.7351 131.745 15.2353 131.713 14.9603C131.537 13.4629 131.958 12.1441 132.729 10.8815C133.227 10.0645 133.624 9.18535 134.07 8.32423C133.397 8.07132 133.034 8.25598 132.767 8.8662C132.366 9.7775 131.874 10.6507 131.344 11.6864H131.346Z" fill="#FDFEFE"/>
<path d="M124.77 8.22184C124.001 8.22184 123.232 8.22786 122.464 8.21783C122.193 8.21381 122.006 8.266 122.018 8.59319C122.028 8.86618 122.108 9.03278 122.43 9.01271C122.763 8.99264 123.102 9.04081 123.431 9.00066C124.084 8.92238 124.28 9.16928 124.262 9.82967C124.216 11.566 124.24 13.3063 124.254 15.0446C124.256 15.3256 124.049 15.7371 124.644 15.7632C125.216 15.7893 125.202 15.4601 125.2 15.0606C125.19 13.6897 125.192 12.3187 125.198 10.9497C125.2 10.3516 125.023 9.62694 125.296 9.18734C125.575 8.73771 126.348 9.07493 126.898 9.00869C126.93 9.00468 126.964 9.00869 126.998 9.00869C127.285 9.01672 127.424 8.87621 127.436 8.58917C127.448 8.25396 127.231 8.21983 126.978 8.21983C126.243 8.21983 125.507 8.21983 124.772 8.21983L124.77 8.22184Z" fill="#FDFEFE"/>
<path d="M148.46 11.9815C148.46 13.0493 148.466 14.1172 148.456 15.1831C148.454 15.5163 148.474 15.7451 148.918 15.7652C149.385 15.7873 149.383 15.5424 149.375 15.2172C149.365 14.7495 149.373 14.2838 149.371 13.8161C149.371 12.2324 149.371 12.2705 150.919 12.2043C151.372 12.1862 152.238 12.6017 152.24 11.861C152.24 11.0541 151.358 11.4917 150.891 11.4716C149.365 11.4114 149.409 11.4475 149.351 9.93606C149.323 9.18333 149.528 8.90633 150.287 8.99666C150.78 9.05687 151.286 9.01271 151.786 9.00268C152.095 8.99465 152.515 9.12713 152.495 8.57714C152.476 8.08736 152.093 8.22787 151.822 8.22386C150.921 8.21181 150.02 8.25196 149.12 8.2098C148.592 8.18572 148.424 8.34831 148.444 8.87622C148.482 9.90997 148.454 10.9437 148.456 11.9775L148.46 11.9815Z" fill="#FDFEFE"/>
<path d="M119.063 11.9694C119.063 13.0373 119.067 14.1052 119.061 15.1711C119.059 15.4962 119.063 15.7612 119.513 15.7612C119.888 15.7612 120.043 15.6528 120.039 15.2493C120.023 13.0815 120.023 10.9136 120.039 8.74375C120.041 8.36237 119.936 8.21584 119.537 8.21383C119.107 8.20982 119.057 8.41657 119.061 8.76583C119.075 9.83371 119.067 10.9016 119.065 11.9674L119.063 11.9694Z" fill="#FDFEFE"/>
<path d="M87.3504 11.9694C87.3504 13.0333 87.3544 14.0992 87.3504 15.163C87.3504 15.4741 87.3223 15.7491 87.7819 15.7612C88.2536 15.7732 88.3239 15.5444 88.3219 15.149C88.3098 13.0534 88.3138 10.9558 88.3219 8.86016C88.3219 8.50889 88.346 8.2098 87.8281 8.21382C87.3042 8.21783 87.3484 8.53699 87.3504 8.87421C87.3524 9.90595 87.3504 10.9377 87.3544 11.9694H87.3504Z" fill="#FDFEFE"/>
<path d="M28.0594 13.5291C28.0695 13.501 28.0855 13.4729 28.0855 13.4448C28.0855 13.4348 28.0414 13.4267 28.0153 13.4187C28.0052 13.4468 27.9892 13.4749 27.9892 13.503C27.9892 13.513 28.0333 13.5211 28.0594 13.5291Z" fill="#FDFEFE"/>
<path d="M154.233 37.795C153.137 37.6907 152.426 37.0945 151.8 36.2354C150.541 34.5091 149.309 32.7588 147.761 31.1068C148.53 30.8278 149.183 30.5829 149.757 30.1754C152.021 28.5716 152.123 25.4804 149.961 23.7381C149.064 23.0155 148.002 22.7204 146.884 22.7003C144.51 22.6582 142.135 22.6542 139.762 22.6762C139.359 22.6803 138.648 22.3671 138.596 22.9633C138.55 23.5072 139.307 23.4209 139.718 23.4992C140.545 23.6578 140.892 24.0372 140.882 24.9224C140.842 28.7001 140.836 32.4798 140.884 36.2595C140.896 37.1467 140.565 37.5622 139.744 37.6887C139.58 37.7147 139.399 37.7168 139.255 37.787C138.988 37.9175 138.48 37.8171 138.562 38.3189C138.634 38.7625 139.054 38.5578 139.311 38.5598C140.983 38.5779 142.655 38.5899 144.327 38.5518C144.781 38.5417 145.575 38.8348 145.632 38.3189C145.704 37.6304 144.845 37.8613 144.389 37.7067C143.829 37.518 143.183 37.4939 143.197 36.6388C143.221 35.1013 143.207 33.5617 143.205 32.0241C143.205 31.7411 143.203 31.4801 143.59 31.4661C144.612 31.43 145.594 31.444 146.264 32.4376C147.031 33.5717 148.014 34.5874 148.622 35.7958C149.809 38.1483 151.595 39.0436 154.134 38.5638C154.43 38.5076 154.895 38.7987 154.99 38.339C155.106 37.777 154.532 37.8211 154.233 37.793V37.795ZM145.955 30.6431C143.373 31.0707 143.197 30.9382 143.193 28.417C143.193 27.9514 143.193 27.4837 143.193 27.018C143.193 26.1508 143.251 25.2797 143.175 24.4206C143.096 23.5494 143.444 23.2905 144.247 23.4089C144.54 23.4531 144.845 23.431 145.144 23.429C148.097 23.4089 149.361 25.7534 148.649 28.4652C148.291 29.8262 147.278 30.4223 145.955 30.6411V30.6431Z" fill="#9FACC0"/>
<path d="M161.385 22.6562C162.914 22.7224 164.584 22.5679 166.25 22.8067C171.008 23.4852 173.404 27.6403 172.744 32.1165C172.158 36.0989 169.607 38.321 165.383 38.5157C162.549 38.6461 159.703 38.5638 156.862 38.5659C156.666 38.5659 156.367 38.7023 156.324 38.319C156.29 38.0078 156.503 37.9456 156.734 37.8593C157.338 37.6305 158.229 37.8252 158.492 37.1286C158.715 36.5405 158.585 35.8119 158.587 35.1455C158.593 31.7371 158.556 28.3267 158.613 24.9204C158.627 24.0251 158.3 23.6277 157.475 23.5213C157.342 23.5053 157.188 23.5093 157.087 23.441C156.842 23.2704 156.304 23.4912 156.346 22.9653C156.391 22.4153 156.868 22.6783 157.135 22.6722C158.504 22.6421 159.875 22.6582 161.385 22.6582V22.6562ZM163.392 23.3989V23.423C162.788 23.423 162.186 23.4491 161.585 23.4149C161.088 23.3868 160.971 23.5936 160.971 24.0553C160.985 28.3689 160.983 32.6825 160.971 36.9962C160.971 37.5321 161.128 37.7951 161.716 37.775C162.818 37.7348 163.926 37.8091 165.024 37.7248C167.505 37.5341 169.107 36.2013 169.769 33.8106C170.343 31.7371 170.345 29.6415 169.739 27.576C169.123 25.4704 167.85 23.975 165.586 23.5735C164.865 23.445 164.123 23.4531 163.388 23.4009L163.392 23.3989Z" fill="#9FACC0"/>
<path d="M136.753 30.5729C136.713 35.312 133.134 38.8509 128.401 38.8268C123.598 38.8027 120.021 35.2739 120.049 30.5909C120.077 25.928 123.78 22.3049 128.461 22.3591C133.213 22.4133 136.792 25.9601 136.753 30.5729ZM134.1 30.5789C134.092 29.0594 133.849 27.586 133.16 26.2151C132.189 24.2821 130.631 23.2222 128.453 23.2062C126.263 23.1901 124.678 24.254 123.726 26.183C122.434 28.8045 122.387 31.5404 123.343 34.2622C124.188 36.669 125.992 37.9616 128.271 37.9877C130.681 38.0158 132.382 36.8316 133.391 34.3947C133.895 33.1763 134.106 31.8957 134.1 30.5789Z" fill="#9FACC0"/>
<path d="M95.5119 29.3504C96.7906 27.564 98.017 25.8618 99.2314 24.1496C99.5947 23.6377 99.105 23.6578 98.828 23.5213C98.4446 23.3326 97.6517 23.5213 97.736 22.9573C97.8303 22.337 98.565 22.7003 99.0026 22.6803C100.237 22.6281 101.476 22.6562 102.712 22.6622C102.925 22.6622 103.222 22.5618 103.284 22.8991C103.358 23.2925 103.043 23.3266 102.78 23.3527C101.349 23.4952 100.482 24.4145 99.679 25.4904C98.6814 26.8293 97.6477 28.1461 96.5658 29.4167C96.1222 29.9366 96.1764 30.2597 96.5698 30.7656C98.0913 32.7126 99.5807 34.6878 101.046 36.677C101.572 37.3896 102.305 37.6124 103.091 37.8071C103.344 37.8693 103.758 37.8693 103.666 38.331C103.583 38.7385 103.236 38.5598 103.009 38.5618C101.104 38.5759 99.1973 38.5779 97.2924 38.5658C97.0977 38.5658 96.7986 38.7244 96.7243 38.3551C96.6461 37.9617 96.9391 37.9637 97.2001 37.8834C98.6513 37.4357 98.6473 37.4297 97.7179 36.133C96.6481 34.6416 95.5842 33.1482 94.4481 31.5584C93.0952 33.4312 91.7925 35.2378 90.4857 37.0423C90.1184 37.5502 90.5841 37.5401 90.8551 37.6847C91.2485 37.8954 92.1076 37.6345 91.9631 38.337C91.8607 38.8429 91.104 38.5418 90.6483 38.5578C89.4118 38.598 88.1753 38.5759 86.9369 38.5679C86.7261 38.5679 86.433 38.6662 86.4009 38.2989C86.3728 37.9797 86.6177 37.8874 86.8485 37.8733C88.5206 37.7609 89.3797 36.5626 90.279 35.3823C91.2926 34.0555 92.3264 32.7427 93.4003 31.4641C93.7857 31.0044 93.8399 30.7194 93.4444 30.2136C91.9631 28.3187 90.5239 26.3897 89.1087 24.4467C88.5768 23.716 87.7819 23.6076 87.0292 23.3668C86.7662 23.2824 86.4712 23.2523 86.5474 22.877C86.6197 22.5277 86.9228 22.6742 87.1235 22.6742C89.0626 22.6622 91.0016 22.6622 92.9406 22.6742C93.1634 22.6742 93.5267 22.5016 93.5368 22.9633C93.5468 23.3828 93.1955 23.2845 92.9587 23.3447C91.5415 23.71 91.5476 23.704 92.4107 24.9284C93.4264 26.3676 94.428 27.8129 95.5039 29.3524L95.5119 29.3504Z" fill="#9FACC0"/>
<path d="M111.859 22.6542C113.632 22.6542 115.404 22.6662 117.176 22.6461C117.664 22.6401 117.899 22.7425 117.869 23.3025C117.821 24.2038 117.867 25.107 117.847 26.0103C117.843 26.2412 117.997 26.5924 117.582 26.6506C117.176 26.7068 117.1 26.3997 117.01 26.0966C116.821 25.4583 116.608 24.826 116.414 24.1877C116.257 23.6759 115.942 23.4209 115.386 23.4249C113.981 23.437 112.576 23.447 111.173 23.4069C110.556 23.3888 110.462 23.6718 110.468 24.1917C110.49 25.9642 110.494 27.7366 110.468 29.509C110.46 30.063 110.625 30.2878 111.207 30.2617C112.108 30.2216 113.013 30.2216 113.915 30.2617C114.748 30.2959 115.249 29.9667 115.418 29.1397C115.472 28.8787 115.561 28.6258 115.633 28.3689C115.701 28.128 115.886 28.0899 116.101 28.0979C116.368 28.1079 116.418 28.2806 116.418 28.5014C116.418 30.0068 116.416 31.5103 116.418 33.0157C116.418 33.1984 116.384 33.357 116.173 33.377C115.974 33.3971 115.765 33.4011 115.665 33.1683C115.639 33.1081 115.641 33.0358 115.619 32.9736C115.113 31.6581 114.143 31.0004 112.708 31.0004C111.222 31.0004 110.478 31.7538 110.478 33.2606C110.478 34.2642 110.532 35.2699 110.462 36.2695C110.4 37.1547 110.767 37.5381 111.6 37.6967C112.076 37.787 112.971 37.6766 112.899 38.2507C112.807 38.9653 111.956 38.5257 111.462 38.5438C109.792 38.608 108.118 38.5759 106.446 38.5578C106.227 38.5558 105.867 38.7405 105.821 38.2928C105.779 37.8934 106.128 37.9135 106.357 37.8332C106.576 37.7569 106.811 37.7147 107.042 37.6866C107.913 37.5823 108.158 37.0865 108.148 36.2394C108.11 32.5279 108.102 28.8145 108.152 25.103C108.166 24.1175 107.869 23.5775 106.867 23.4932C106.737 23.4832 106.602 23.445 106.48 23.3948C106.227 23.2905 105.789 23.3908 105.825 22.9412C105.863 22.4474 106.291 22.6722 106.536 22.6682C108.308 22.6461 110.081 22.6562 111.853 22.6562V22.6501L111.859 22.6542Z" fill="#9FACC0"/>
<path d="M79.7167 10.1087C79.7167 11.7306 79.7267 13.3504 79.7066 14.9723C79.7026 15.2734 79.9435 15.7732 79.2811 15.7572C78.6187 15.7391 78.8957 15.2353 78.8917 14.9442C78.8676 12.9731 78.8696 10.9999 78.8917 9.02676C78.8957 8.75577 78.6327 8.32421 79.1868 8.22585C79.6484 8.14355 79.9034 8.3483 80.1322 8.75176C81.0535 10.3777 82.015 11.9815 82.9624 13.5913C83.0267 13.6997 83.117 13.79 83.2977 14.0189C83.5124 13.2661 83.4 12.6178 83.406 11.9855C83.4161 11.016 83.3759 10.0465 83.4 9.07894C83.4081 8.74975 83.1411 8.20377 83.8637 8.22786C84.5101 8.24994 84.2591 8.73971 84.2632 9.04281C84.2812 11.014 84.2792 12.9871 84.2632 14.9603C84.2612 15.2473 84.4699 15.6728 83.934 15.7551C83.4924 15.8234 83.1973 15.6728 82.9645 15.2533C82.1656 13.8262 81.3245 12.4231 80.4975 11.012C80.3128 10.6968 80.1221 10.3837 79.9355 10.0705L79.7167 10.1127V10.1087Z" fill="#9FACC0"/>
<path d="M146.001 11.9995C146.001 12.961 145.79 13.8523 145.198 14.6331C144.058 16.1365 141.808 16.3533 140.407 15.0908C138.751 13.5973 138.751 10.3154 140.447 8.8702C141.501 7.97094 142.729 7.77825 143.998 8.3724C145.525 9.08699 145.977 10.4379 146.001 12.0016V11.9995ZM140.13 11.8831C140.116 12.668 140.294 13.4087 140.726 14.067C141.635 15.448 143.683 15.4762 144.5 14.0731C145.252 12.7804 145.29 11.3954 144.58 10.0565C144.136 9.21947 143.381 8.81199 142.428 8.86619C141.511 8.91838 140.876 9.41217 140.497 10.2352C140.256 10.757 140.138 11.307 140.13 11.8831Z" fill="#9FACC0"/>
<path d="M75.9249 11.1665C75.9249 12.0337 75.9791 12.9068 75.9129 13.7679C75.8085 15.1128 74.8511 15.8796 73.3657 15.9017C71.8201 15.9238 70.7522 15.1871 70.6599 13.8342C70.5454 12.138 70.6016 10.4319 70.5635 8.72968C70.5535 8.32823 70.702 8.21381 71.0854 8.21582C71.4728 8.21582 71.5029 8.41855 71.5009 8.72165C71.4929 10.1569 71.4929 11.5941 71.5009 13.0293C71.5069 14.4484 72.0328 15.0667 73.2332 15.0927C74.4877 15.1209 75.0558 14.5006 75.0759 13.0313C75.0959 11.6623 75.0759 10.2934 75.0919 8.92439C75.0959 8.63936 74.9032 8.23389 75.4914 8.21582C76.1357 8.19374 75.9591 8.63735 75.9651 8.96453C75.9811 9.6992 75.9711 10.4339 75.9711 11.1685C75.9551 11.1685 75.939 11.1685 75.9249 11.1685V11.1665Z" fill="#9FACC0"/>
<path d="M98.5911 11.9012C98.5911 10.8674 98.6072 9.83169 98.5851 8.79794C98.575 8.38043 98.6855 8.20178 99.1411 8.21383C100.175 8.24193 101.211 8.21985 102.244 8.21985C102.483 8.21985 102.722 8.20379 102.738 8.55105C102.756 8.91236 102.564 9.01272 102.246 9.01071C101.58 9.00469 100.912 9.02677 100.245 9.00469C99.7834 8.99064 99.5426 9.05287 99.5265 9.63698C99.4743 11.4536 99.4422 11.4255 101.265 11.4716C101.686 11.4817 102.481 11.1244 102.491 11.8008C102.503 12.6419 101.658 12.1862 101.227 12.2043C99.5405 12.2725 99.5787 12.2364 99.5265 13.9727C99.5044 14.7315 99.671 15.0647 100.494 14.9703C101.12 14.8981 101.761 14.9623 102.395 14.9543C102.692 14.9502 102.81 15.0807 102.816 15.3718C102.822 15.6869 102.666 15.7652 102.383 15.7632C101.283 15.7552 100.181 15.7431 99.0809 15.7632C98.565 15.7732 98.5891 15.4561 98.5911 15.1088C98.5971 14.0409 98.5911 12.9731 98.5931 11.9052L98.5911 11.9012Z" fill="#9FACC0"/>
<path d="M93.5508 14.4685C94.1791 12.6118 94.8194 10.7591 95.4256 8.8943C95.6103 8.32624 95.8793 8.03518 96.5437 8.32423C95.7347 10.6386 94.9178 12.955 94.1189 15.2774C93.9864 15.6588 93.7696 15.7893 93.3782 15.7672C93.047 15.7491 92.8342 15.6889 92.7118 15.3236C91.9691 13.1176 91.1983 10.9216 90.4375 8.71966C90.3653 8.50689 90.2067 8.24595 90.6302 8.2319C90.9574 8.21985 91.2605 8.16164 91.395 8.63937C91.674 9.63097 92.0333 10.6005 92.3585 11.58C92.6817 12.5516 93.0069 13.5211 93.332 14.4926C93.4043 14.4866 93.4766 14.4785 93.5488 14.4725L93.5508 14.4685Z" fill="#9FACC0"/>
<path d="M114.005 15.8977C113.447 15.9238 112.881 15.7351 112.353 15.432C112.13 15.3035 111.863 15.1911 112.068 14.8198C112.251 14.4886 112.449 14.5448 112.708 14.6933C113.21 14.9803 113.746 15.1409 114.334 15.1028C114.956 15.0626 115.438 14.8238 115.613 14.1835C115.783 13.5572 115.559 13.0514 115.019 12.7242C114.535 12.4311 114.015 12.2003 113.511 11.9393C112.285 11.301 111.901 10.6185 112.178 9.57274C112.447 8.5671 113.341 8.01108 114.589 8.06126C115.101 8.08134 115.579 8.21382 116.016 8.47275C116.227 8.59721 116.568 8.69356 116.368 9.05888C116.207 9.35194 115.976 9.35395 115.697 9.18333C115.227 8.89629 114.704 8.79191 114.158 8.86618C113.628 8.93643 113.188 9.16125 113.043 9.71927C112.897 10.2873 113.17 10.7028 113.644 10.9698C114.107 11.2308 114.603 11.4335 115.081 11.6683C116.299 12.2665 116.803 13.1336 116.548 14.1995C116.275 15.3477 115.436 15.9218 114.005 15.8957V15.8977Z" fill="#9FACC0"/>
<path d="M131.346 11.6864C131.876 10.6507 132.368 9.7775 132.769 8.8662C133.038 8.25799 133.401 8.07132 134.072 8.32423C133.624 9.18535 133.229 10.0645 132.731 10.8815C131.96 12.1461 131.539 13.4629 131.715 14.9603C131.747 15.2353 131.98 15.7351 131.31 15.7592C130.669 15.7813 130.782 15.3276 130.836 15.0105C131.155 13.1116 130.24 11.5881 129.383 10.0405C129.078 9.49046 128.799 8.92642 128.495 8.3423C129.234 8.00307 129.593 8.32624 129.895 8.95652C130.32 9.84976 130.82 10.7069 131.348 11.6864H131.346Z" fill="#9FACC0"/>
<path d="M124.77 8.22185C125.505 8.22185 126.241 8.22185 126.976 8.22185C127.231 8.22185 127.448 8.25598 127.434 8.59119C127.424 8.87823 127.285 9.01874 126.996 9.01071C126.962 9.01071 126.928 9.0067 126.896 9.01071C126.344 9.07695 125.573 8.73973 125.294 9.18936C125.021 9.62896 125.198 10.3516 125.196 10.9518C125.19 12.3227 125.188 13.6937 125.198 15.0627C125.2 15.4621 125.214 15.7893 124.642 15.7652C124.047 15.7391 124.254 15.3276 124.252 15.0466C124.238 13.3083 124.212 11.57 124.26 9.83169C124.278 9.1713 124.081 8.9244 123.429 9.00269C123.1 9.04283 122.761 8.99265 122.428 9.01473C122.106 9.0348 122.028 8.87021 122.016 8.59521C122.004 8.26601 122.191 8.21583 122.462 8.21985C123.23 8.22788 123.999 8.22386 124.768 8.22386L124.77 8.22185Z" fill="#9FACC0"/>
<path d="M148.46 11.9815C148.46 10.9477 148.486 9.91196 148.448 8.88022C148.428 8.35231 148.598 8.18972 149.124 8.2138C150.024 8.25596 150.925 8.21581 151.826 8.22785C152.095 8.23187 152.48 8.09136 152.499 8.58113C152.519 9.13113 152.101 8.99865 151.79 9.00668C151.29 9.01872 150.782 9.06087 150.291 9.00066C149.532 8.91033 149.327 9.18733 149.355 9.94006C149.413 11.4515 149.369 11.4154 150.895 11.4756C151.362 11.4937 152.246 11.0581 152.244 11.865C152.244 12.6057 151.378 12.1902 150.923 12.2083C149.375 12.2725 149.375 12.2364 149.375 13.8201C149.375 14.2878 149.369 14.7535 149.379 15.2212C149.385 15.5464 149.387 15.7913 148.922 15.7692C148.476 15.7491 148.456 15.5203 148.46 15.1871C148.468 14.1192 148.464 13.0513 148.464 11.9855L148.46 11.9815Z" fill="#9FACC0"/>
<path d="M119.063 11.9694C119.063 10.9016 119.073 9.83368 119.059 8.76782C119.055 8.41654 119.105 8.2118 119.535 8.21582C119.936 8.21983 120.039 8.36436 120.037 8.74574C120.023 10.9136 120.023 13.0815 120.037 15.2513C120.039 15.6548 119.886 15.7612 119.511 15.7632C119.061 15.7632 119.057 15.5002 119.059 15.173C119.067 14.1052 119.061 13.0373 119.063 11.9714V11.9694Z" fill="#9FACC0"/>
<path d="M87.3504 11.9694C87.3504 10.9377 87.3504 9.90595 87.3484 8.87421C87.3484 8.53498 87.3022 8.21783 87.8261 8.21382C88.344 8.2098 88.3199 8.50889 88.3199 8.86016C88.3139 10.9558 88.3098 13.0534 88.3199 15.149C88.3219 15.5444 88.2536 15.7732 87.7799 15.7612C87.3182 15.7491 87.3463 15.4741 87.3484 15.163C87.3544 14.0992 87.3484 13.0333 87.3484 11.9694H87.3504Z" fill="#9FACC0"/>
<path d="M109.954 15.6267C109.25 15.8876 108.919 15.6588 108.708 15.0887C108.487 14.4986 108.2 13.9325 107.933 13.3605C107.76 12.9891 107.521 12.688 107.106 12.5475C106.116 12.2123 105.781 12.4371 105.779 13.4668C105.779 14.067 105.769 14.6672 105.789 15.2674C105.801 15.6207 105.643 15.725 105.315 15.7391C104.944 15.7551 104.87 15.5725 104.87 15.2573C104.874 13.0574 104.878 10.8554 104.862 8.65541C104.86 8.2941 105.006 8.19373 105.334 8.20176C105.966 8.21782 106.6 8.19775 107.234 8.21782C108.485 8.25596 109.121 8.71763 109.384 9.75339C109.651 10.8012 109.34 11.4395 108.186 12.1561C109.005 13.1678 109.342 14.4163 109.956 15.6267H109.954ZM106.807 8.94044C106.313 8.95851 105.558 8.73771 105.793 9.63295C105.978 10.3335 105.026 11.5057 106.446 11.6984C107.726 11.8731 108.457 11.303 108.515 10.3756C108.575 9.41215 108.065 8.98259 106.809 8.94044H106.807Z" fill="#9FACC0"/>
<path d="M84.3414 29.6294C84.2632 34.3706 80.6601 37.8794 75.9269 37.8211C71.1235 37.7609 67.5606 34.198 67.6269 29.5211C67.6931 24.8722 71.4447 21.2611 76.1136 21.3534C80.8608 21.4478 84.4157 25.0248 84.3414 29.6294ZM81.6698 29.5953C81.6798 27.863 81.3787 26.199 80.4594 24.7036C78.3818 21.3193 73.5503 21.2993 71.5812 24.7377C69.8148 27.8249 69.8389 31.0626 71.3945 34.2341C72.2737 36.0246 73.8173 36.9339 75.8366 36.9901C77.9041 37.0503 79.4377 36.1451 80.4794 34.3947C81.3566 32.9214 81.6778 31.2975 81.6698 29.5953Z" fill="#9FACC0"/>
<g clip-path="url(#clip1_452_2508)">
<path d="M47.3586 0C48.1721 0.120534 48.9893 0.21577 49.7969 0.36681C53.3876 1.03644 56.54 2.61678 59.2726 5.03787C62.3197 7.73723 64.4881 11.0318 65.4113 15.0065C67.3075 23.1693 65.0843 30.0598 58.7565 35.5746C57.7116 36.4853 56.6779 37.4198 55.5544 38.2241C53.7917 39.4867 51.7754 40.1735 49.6449 40.5284C49.5225 40.5485 49.3994 40.5715 49.2785 40.5998C49.2355 40.6095 49.197 40.6385 49.1206 40.6765C49.2518 41.0745 49.3824 41.4711 49.5144 41.8669C49.6315 42.2174 49.4083 42.5485 49.059 42.4919C48.6356 42.4227 48.2989 42.5202 48.1365 42.9264C48.0038 43.2575 48.075 43.5908 48.3931 43.7962C48.7706 44.0395 49.1325 43.9621 49.4558 43.6623C49.4995 43.6214 49.5529 43.5901 49.6427 43.5246C49.8466 44.2471 49.7428 44.8974 49.3898 45.5038C48.6527 46.7701 47.5003 47.503 46.1565 47.9754C46.0765 48.0037 45.9704 48.0104 45.8918 47.9821C44.5184 47.4955 43.3438 46.7418 42.6037 45.4368C42.2774 44.8617 42.2129 44.2404 42.3686 43.5529C42.5258 43.6578 42.646 43.8036 42.775 43.8111C43.0798 43.8282 43.4654 43.881 43.6701 43.7248C43.8473 43.5894 43.9155 43.166 43.8614 42.9056C43.7872 42.5522 43.4461 42.4659 43.0805 42.4614C42.8988 42.4592 42.6808 42.3394 42.5548 42.2032C42.4932 42.1363 42.5785 41.8974 42.6415 41.7561C42.8314 41.3297 43.0434 40.9138 43.2652 40.4547C42.5088 40.2494 41.8013 39.9905 41.0716 39.8848C40.666 39.826 40.2262 40.044 39.7969 40.1006C37.7568 40.3707 35.6574 39.0798 34.9174 37.1557C34.798 36.8454 34.5651 36.5307 34.2996 36.3335C30.0289 33.1602 27.3326 28.9661 26.3634 23.7318C25.4527 18.8167 26.2462 14.1464 28.8469 9.84806C31.8792 4.83549 36.2729 1.69194 41.9808 0.424845C42.8877 0.223211 43.8199 0.139135 44.7402 0C45.613 0 46.4858 0 47.3586 0ZM37.3178 31.0449C37.1777 30.9192 36.9886 30.7585 36.8091 30.5888C32.4909 26.5182 31.0219 21.5793 32.7023 15.8881C34.7297 9.01921 41.8317 4.89278 48.8425 6.31017C54.4302 7.43962 58.8514 11.9701 59.8355 17.6218C60.4933 21.4007 59.7332 24.8932 57.5596 28.0524C55.8043 30.6037 53.4313 32.3492 50.5214 33.3856C50.1617 33.5136 49.7865 33.7606 49.5574 34.059C49.1139 34.6379 48.9819 35.3529 48.9337 36.0939C49.0331 36.1244 49.1035 36.1535 49.1777 36.1683C51.7235 36.6907 54.2545 36.649 56.7602 35.9325C57.174 35.8142 57.6264 35.7056 57.9608 35.457C59.5003 34.3149 60.8106 32.934 61.9104 31.3634C64.609 27.5085 65.7651 23.2258 65.4217 18.5287C65.1681 15.0645 64.0246 11.9113 62.0735 9.06236C60.0357 6.08622 57.3668 3.84071 54.0883 2.33032C50.5785 0.713531 46.9085 0.214282 43.1028 0.796119C39.125 1.404 35.6597 3.11751 32.7446 5.89649C28.95 9.51399 26.8536 13.9641 26.6348 19.214C26.4064 24.6916 28.2166 29.4668 31.9541 33.4742C32.7334 34.3097 33.63 35.0344 34.4717 35.8105C34.5117 35.7844 34.551 35.7584 34.5911 35.7323C34.5911 34.8462 34.7283 33.9958 35.1487 33.2063C35.194 33.1215 35.0961 32.931 35.0219 32.8187C34.904 32.6416 34.7498 32.4891 34.6111 32.3254C34.6422 32.2956 34.6726 32.2659 34.7038 32.2354C34.9403 32.3998 35.1776 32.5642 35.3497 32.684C36.0186 32.1267 36.6586 31.5933 37.3171 31.0449H37.3178ZM45.5574 6.59662C45.0383 6.66954 44.0164 6.72162 43.042 6.96343C36.818 8.51029 32.6845 13.6345 32.6467 20.0555C32.6215 24.4044 34.4517 27.9653 37.8302 30.7012C37.9689 30.8135 38.2359 30.8448 38.422 30.8083C40.2915 30.4415 42.2997 31.3038 43.2926 32.9467C43.4454 33.1989 43.6137 33.3276 43.9022 33.3708C45.9993 33.6862 48.0683 33.5657 50.0876 32.9169C56.6356 30.8143 60.5511 24.138 59.2096 17.3963C57.9719 11.1784 52.3813 6.59067 45.5566 6.59588L45.5574 6.59662ZM56.7721 36.5545C56.534 36.588 56.4406 36.5932 56.3516 36.6148C52.4272 37.5679 48.6482 37.0441 45.0168 35.3931C43.5336 34.719 42.1291 33.87 40.6979 33.0843C39.4795 32.4154 37.894 32.7413 37.254 33.8462C38.0483 34.2085 38.8402 34.5657 39.6285 34.9318C40.0972 35.149 40.2507 35.5307 40.0364 35.9064C39.8347 36.2599 39.4342 36.3357 39.0271 36.0567C38.4235 35.6431 37.8384 35.2033 37.2451 34.7748C37.1154 34.681 36.9848 34.588 36.8417 34.4853C36.3308 35.899 36.8617 37.245 38.2804 37.9987C43.1658 40.5924 48.1899 41.0105 53.3364 38.8305C54.5696 38.3082 55.6783 37.5582 56.7728 36.5545H56.7721ZM42.8306 44.5194C43.0568 44.9361 43.1754 45.3289 43.4283 45.593C45.4179 47.6734 46.1091 47.8549 48.0824 46.195C48.3063 46.0067 48.5073 45.7746 48.6645 45.5283C48.8573 45.2262 48.9923 44.8877 49.1718 44.5261C48.1506 44.5112 47.6108 44.166 47.5106 43.448C47.4699 43.1578 47.4899 42.759 47.659 42.5626C47.9608 42.2114 48.3961 41.977 48.8254 41.6563C48.8032 41.5849 48.7127 41.3959 48.6897 41.1988C48.6378 40.7486 48.3909 40.6928 47.9867 40.7099C47.0709 40.7479 46.1528 40.7397 45.2363 40.7137C44.7757 40.701 44.3175 40.6087 43.8599 40.5529C43.6627 40.9919 43.4802 41.3989 43.2971 41.8066C44.3212 42.2307 44.6816 42.7218 44.534 43.4696C44.3961 44.1682 43.8888 44.5149 42.8314 44.5179L42.8306 44.5194ZM35.7005 33.5069C34.8536 34.9154 35.0879 36.8 36.2433 38.1891C37.1717 39.3052 39.0716 39.8446 39.8992 39.4525C39.2488 39.1251 38.5866 38.8193 37.9496 38.4674C36.4428 37.6334 35.7131 36.1825 36.1758 34.6795C36.3679 34.0553 36.1669 33.7941 35.7005 33.5077V33.5069ZM36.7275 33.5516C36.7765 33.4667 36.8106 33.3723 36.8736 33.3045C37.9155 32.1721 39.1636 31.8946 40.6 32.408C41.2681 32.6468 41.9378 32.8819 42.6067 33.1193C41.8199 31.8976 40.7001 31.2994 39.2956 31.2994C37.8873 31.2994 36.7779 31.9154 35.9274 33.0776C36.1966 33.2368 36.4213 33.37 36.7275 33.5516ZM48.8944 33.8618C47.9163 33.9526 46.9122 34.0374 45.9103 34.1423C45.5032 34.1847 45.1458 34.338 44.9129 34.7971C46.0594 35.21 47.1614 35.6066 48.2322 35.9927C48.4754 35.2108 48.6868 34.5329 48.8951 33.8618H48.8944ZM44.7149 34.0568C44.161 33.9608 43.6552 33.873 43.079 33.7733C44.1284 34.521 44.3138 34.5568 44.7149 34.0568Z" fill="#9FACC0"/>
<path d="M31.5254 24.0011C31.7909 24.3151 31.7434 24.5413 31.5091 24.8106C30.9974 25.3977 30.5221 26.016 30.0334 26.6231C30.0178 26.6425 30.0171 26.6737 29.9948 26.7511C30.7572 26.4527 31.4883 26.1655 32.2514 25.8672C32.3144 26.0323 32.3664 26.1693 32.4331 26.3456C31.346 26.7652 30.2914 27.1722 29.2288 27.5822C28.9574 27.2898 29.0108 27.0494 29.251 26.7712C29.7694 26.1715 30.2603 25.5472 30.7223 24.8471C29.9785 25.1038 29.2347 25.3605 28.4613 25.6276C28.399 25.4594 28.3478 25.3218 28.2833 25.1469C29.3771 24.7608 30.442 24.3843 31.5262 24.0011H31.5254Z" fill="#9FACC0"/>
<path d="M58.58 28.2972C59.5314 29.0598 60.4258 29.7756 61.3579 30.5226C61.0042 30.9311 60.7038 31.3284 60.3523 31.6736C59.7873 32.2272 58.9738 32.2517 58.3086 31.7785C57.5826 31.2629 57.2778 30.4646 57.6271 29.7525C57.8762 29.2443 58.2478 28.7957 58.58 28.2972ZM60.6252 30.6521C59.9942 30.1431 59.4039 29.6662 58.8114 29.1908C58.7639 29.1528 58.7098 29.1245 58.6334 29.0754C58.27 29.53 57.8258 29.9519 58.0624 30.5992C58.2626 31.1476 58.6905 31.4898 59.2741 31.5605C59.9408 31.6416 60.2441 31.1305 60.6238 30.6521H60.6252Z" fill="#9FACC0"/>
<path d="M62.646 24.3151C61.5693 24.3218 60.7558 23.6239 60.7372 22.6767C60.7194 21.7735 61.4395 21.1098 62.4502 21.0979C63.5159 21.0852 64.3501 21.7988 64.362 22.734C64.3731 23.641 63.6494 24.3084 62.646 24.3151ZM62.6282 23.7809C63.2556 23.76 63.6812 23.5041 63.8207 23.0301C63.9541 22.5763 63.788 22.0815 63.3112 21.9044C62.9078 21.7549 62.4354 21.6953 62.0068 21.7385C61.5559 21.7839 61.2682 22.138 61.2407 22.6165C61.214 23.0763 61.4573 23.3895 61.877 23.5517C62.121 23.6462 62.3776 23.7065 62.6282 23.7816V23.7809Z" fill="#9FACC0"/>
<path d="M52.4087 3.81839C52.4035 4.89055 51.6152 5.80794 50.7038 5.80274C49.834 5.79753 49.1413 5.06614 49.1458 4.15618C49.151 3.06989 49.9637 2.15696 50.907 2.17854C51.7643 2.19788 52.4131 2.9062 52.4087 3.81839ZM51.8963 3.79607C51.8584 3.2373 51.5796 2.83106 51.1184 2.71424C50.6504 2.59594 50.2114 2.80204 49.9734 3.29682C49.854 3.54533 49.7665 3.82062 49.7264 4.09294C49.6493 4.61525 49.96 5.1145 50.4005 5.24992C50.8699 5.395 51.3453 5.17849 51.5907 4.66883C51.7235 4.39279 51.7969 4.08773 51.897 3.79533L51.8963 3.79607Z" fill="#9FACC0"/>
<path d="M59.92 12.7855C59.1117 12.7915 58.4131 12.0898 58.3953 11.2573C58.3761 10.3443 59.3735 9.42246 60.4013 9.40237C61.2133 9.38675 61.9541 10.136 61.9482 10.9663C61.9408 11.9113 60.9745 12.7781 59.92 12.7855ZM58.93 11.284C58.9144 11.8145 59.3386 12.2885 59.8444 12.2528C60.4087 12.2133 60.8937 11.973 61.2304 11.5043C61.6226 10.9589 61.4024 10.2119 60.8054 9.99537C60.0691 9.729 58.953 10.4954 58.9308 11.2833L58.93 11.284Z" fill="#9FACC0"/>
<path d="M59.2422 27.3582C59.2845 26.9683 59.4521 26.7927 59.8303 26.8404C60.0446 26.8679 60.2663 26.8314 60.4836 26.8448C60.9174 26.8716 61.1495 26.6595 61.2459 26.2168C60.8255 26.0212 60.408 25.8262 59.969 25.6216C60.0453 25.4468 60.1054 25.3084 60.1855 25.1246C61.2474 25.6045 62.2878 26.074 63.3587 26.5584C63.2052 26.9051 63.0724 27.2168 62.9308 27.5249C62.7283 27.9653 62.4428 28.2897 61.9 28.2421C61.4373 28.2012 61.1859 27.9579 61.0042 27.3582H59.2422ZM61.5804 26.359C61.5804 26.8076 61.5374 27.1491 61.6049 27.4668C61.6271 27.5703 62.0149 27.7228 62.1024 27.6618C62.359 27.4825 62.5481 27.2064 62.8077 26.9207C62.3798 26.725 62.0728 26.5844 61.5796 26.359H61.5804Z" fill="#9FACC0"/>
<path d="M31.8302 11.4946C32.0074 11.4842 32.1609 11.4582 32.3115 11.4693C32.7268 11.4998 33.1413 11.5452 33.5744 11.5869C33.5239 12.0184 33.3081 12.1583 32.9151 12.0735C32.7342 12.0348 32.5443 12.037 32.3597 12.0117C31.934 11.9537 31.6277 12.0936 31.4794 12.5608C31.8702 12.7818 32.2722 13.0087 32.7134 13.258C32.6296 13.4187 32.5554 13.5608 32.4635 13.7379C31.426 13.1739 30.4212 12.627 29.3793 12.0608C29.6062 11.6724 29.8065 11.3064 30.0289 10.9537C30.2692 10.572 30.6244 10.4024 31.0679 10.5132C31.4787 10.6159 31.7405 10.8845 31.802 11.322C31.8102 11.3808 31.8213 11.4388 31.8302 11.4946ZM30.0682 11.8093C30.3975 11.9857 30.7067 12.1509 31.0115 12.3145C31.4246 11.7074 31.4386 11.3265 31.0745 11.1152C30.7075 10.9016 30.4805 11.0497 30.0675 11.8093H30.0682Z" fill="#9FACC0"/>
<path d="M30.4731 29.9571C30.3589 29.7912 30.2729 29.6647 30.1572 29.4966C30.8884 29.0167 31.587 28.5263 32.3174 28.0903C32.8276 27.7853 33.4112 27.9787 33.7842 28.5018C34.2077 29.0963 34.2129 29.7458 33.7256 30.1416C33.0745 30.6699 32.3812 31.1453 31.6722 31.6684C31.5551 31.5084 31.4579 31.376 31.34 31.2145C31.9889 30.7406 32.6311 30.3046 33.2288 29.815C33.3994 29.6751 33.5462 29.3693 33.5247 29.1573C33.4646 28.5695 32.9196 28.3344 32.4138 28.6551C31.7709 29.0628 31.1472 29.5025 30.4731 29.9571Z" fill="#9FACC0"/>
<path d="M28.0445 16.0318C28.2403 15.3651 28.4234 14.7438 28.6133 14.0973C28.7749 14.1434 28.9017 14.1798 29.0634 14.2252C28.9262 14.6984 28.7979 15.1426 28.6615 15.6158C28.97 15.7014 29.2503 15.7788 29.5706 15.8681C29.6967 15.4529 29.8183 15.0563 29.9392 14.6575C30.4383 14.6099 30.3656 14.8748 30.267 15.1761C30.1847 15.4261 30.1283 15.6843 30.0452 15.9968C30.3827 16.0905 30.703 16.1791 31.0723 16.2817C31.2162 15.8152 31.3519 15.3763 31.4958 14.9135C31.6478 14.9581 31.7753 14.9953 31.9459 15.0459C31.7731 15.6768 31.6062 16.2862 31.4231 16.9566C30.2922 16.6471 29.1917 16.3465 28.0445 16.0325V16.0318Z" fill="#9FACC0"/>
<path d="M60.7283 16.711C60.2693 15.7676 61.3119 15.5853 61.4284 14.9559C61.019 14.5578 60.078 15.0169 59.8347 14.0251C60.4102 14.1575 60.9219 14.2475 61.415 14.3986C61.7673 14.5065 61.9912 14.4335 62.207 14.1374C62.4814 13.7609 62.7988 13.4165 63.1176 13.0348C63.3564 13.3547 63.4009 13.6151 63.0961 13.8986C62.8707 14.1084 62.6868 14.3621 62.4858 14.595C62.9122 15.031 63.8347 14.5645 63.966 15.537C63.4239 15.412 62.9093 15.316 62.4102 15.1694C62.1544 15.0943 62.0127 15.1545 61.857 15.3509C61.504 15.7974 61.131 16.2282 60.7283 16.711Z" fill="#9FACC0"/>
<path d="M33.3282 7.07727C33.3645 7.22087 33.3964 7.34884 33.4157 7.42548C33.1532 7.61818 32.8943 7.74914 32.7253 7.95449C32.6207 8.08098 32.5718 8.37115 32.6481 8.49466C32.7186 8.6085 33.0004 8.65909 33.1695 8.62784C33.5009 8.56683 33.8154 8.41654 34.1431 8.32651C34.5695 8.20895 34.9047 8.37189 35.1532 8.72308C35.406 9.08022 35.3882 9.45744 35.1739 9.81904C34.9084 10.2677 34.5243 10.5512 33.9555 10.6129C33.9229 10.4582 33.8962 10.3295 33.8717 10.2134C34.115 10.0742 34.3827 9.99612 34.5251 9.81755C34.6659 9.64047 34.7698 9.3384 34.7171 9.13751C34.686 9.0192 34.3107 8.91578 34.1038 8.93736C33.8035 8.96935 33.5158 9.12188 33.2214 9.21935C32.8573 9.33988 32.548 9.23944 32.2915 8.96638C32.0289 8.68736 31.9815 8.3518 32.1246 8.01327C32.3426 7.49839 32.7082 7.14795 33.3289 7.07876L33.3282 7.07727Z" fill="#9FACC0"/>
<path d="M30.4435 19.3918C29.5758 19.0555 28.8439 18.7505 28.0964 18.4915C27.7234 18.3621 27.5899 18.1783 27.762 17.7706C28.832 18.2051 29.8984 18.6314 30.9566 19.0793C31.0449 19.1165 31.1257 19.2988 31.1176 19.406C31.1079 19.5354 31.0249 19.7393 30.9285 19.7698C29.8354 20.1158 28.7342 20.4342 27.6337 20.7608C27.4898 20.3613 27.5921 20.1746 27.9703 20.0801C28.7527 19.8851 29.5261 19.6507 30.4442 19.3926L30.4435 19.3918Z" fill="#9FACC0"/>
<path d="M54.6779 3.66885C55.2496 4.0059 55.7702 4.31319 56.3264 4.64131C56.2537 4.78044 56.1862 4.90916 56.1069 5.06094C55.7079 4.83029 55.3342 4.61527 54.9167 4.37346C54.752 4.65024 54.5985 4.90916 54.4302 5.19115C54.8025 5.41957 55.1436 5.62939 55.5151 5.85706C55.4521 5.98206 55.3935 6.09888 55.3127 6.25884C54.93 6.0401 54.5741 5.83697 54.1818 5.61302C53.9118 6.06763 53.653 6.50363 53.3824 6.95973C53.2229 6.86821 53.0917 6.79306 52.9055 6.68666C53.4958 5.68147 54.0742 4.69562 54.6771 3.66885H54.6779Z" fill="#9FACC0"/>
<path d="M64.3679 17.6723C64.4228 18.3263 64.4732 18.9283 64.5266 19.5711C64.3872 19.5934 64.2589 19.6143 64.0706 19.644C64.0238 19.1864 63.9808 18.7616 63.9326 18.2839C63.6093 18.3033 63.3105 18.3219 63.0791 18.336C62.8025 18.7906 63.418 19.4044 62.649 19.7504C62.5934 19.2579 62.5466 18.8487 62.4947 18.3911C61.9801 18.4275 61.4788 18.4632 60.9456 18.5004C60.9308 18.3063 60.9189 18.1574 60.9033 17.9566C62.0557 17.8621 63.1799 17.7698 64.3672 17.6723H64.3679Z" fill="#9FACC0"/>
<path d="M40.2233 2.5394C40.5636 2.28271 40.7995 2.35414 41.0368 2.64208C41.2911 2.95085 41.5855 3.22689 41.92 3.57808C42.0052 3.10115 42.0898 2.71053 42.1417 2.3147C42.1891 1.95161 42.3412 1.74477 42.7824 1.80281C42.6452 2.98136 42.0349 4.1547 42.7594 5.34293C42.6141 5.41064 42.5377 5.45305 42.4561 5.48206C42.3864 5.50736 42.3108 5.51778 42.1424 5.55647C42.1313 4.1428 40.9789 3.47391 40.2225 2.53866L40.2233 2.5394Z" fill="#9FACC0"/>
<path d="M37.6938 4.11972C37.3905 4.2663 37.1153 4.39874 36.8165 4.54308C36.7401 4.40692 36.6749 4.2916 36.5896 4.13981C37.3393 3.7477 38.0638 3.36825 38.8172 2.97391C38.8981 3.10114 38.9693 3.21349 39.0642 3.36304C38.7668 3.53417 38.4917 3.6919 38.1973 3.8608C38.6585 4.7529 39.1065 5.61896 39.5714 6.5185C39.409 6.60927 39.2674 6.68962 39.0901 6.78858C38.617 5.88458 38.1587 5.00885 37.693 4.11898L37.6938 4.11972Z" fill="#9FACC0"/>
<path d="M31.3089 22.5495C30.1424 22.7229 29.0286 22.8888 27.8769 23.0606C27.8465 22.8776 27.822 22.7295 27.7864 22.513C28.9173 22.3426 30.0289 22.1745 31.2095 21.9967C31.2436 22.1842 31.2725 22.3471 31.3089 22.5502V22.5495Z" fill="#9FACC0"/>
<path d="M37.2251 7.95225C37.0627 8.07725 36.944 8.16951 36.7831 8.29376C36.0779 7.36744 35.3868 6.45972 34.68 5.53116C34.8224 5.40765 34.9359 5.30869 35.1012 5.1636C35.8072 6.09142 36.4991 6.99989 37.2251 7.953V7.95225Z" fill="#9FACC0"/>
<path d="M57.3913 8.34957C57.2615 8.17472 57.0168 7.98871 57.0323 7.82874C57.0494 7.65092 57.3052 7.49616 57.4565 7.33173C57.6167 7.48351 57.8748 7.61744 57.9074 7.79303C57.9363 7.95225 57.719 8.15686 57.61 8.34138C57.5374 8.34436 57.4639 8.34659 57.3913 8.34957Z" fill="#9FACC0"/>
<path d="M46.5725 3.41364C46.3872 3.53269 46.1988 3.74846 46.0186 3.74176C45.8621 3.73581 45.5751 3.45456 45.5952 3.33775C45.6263 3.15099 45.8495 2.88612 46.0193 2.8638C46.1854 2.84148 46.3872 3.08031 46.5725 3.20457C46.5725 3.2745 46.5725 3.34444 46.5725 3.41438V3.41364Z" fill="#9FACC0"/>
<path d="M39.1984 15.3309C40.9092 15.3309 42.574 15.3011 44.2381 15.3428C45.1295 15.3651 45.3727 15.5429 45.9986 16.2364C46.5221 15.3874 47.3809 15.3197 48.2388 15.3086C49.7924 15.2877 51.3468 15.3026 52.9293 15.3026V24.2162C52.7461 24.2266 52.5674 24.2437 52.3879 24.2452C50.8314 24.2578 49.2741 24.2667 47.7175 24.2801C47.5781 24.2816 47.4372 24.2973 47.3 24.3233C46.7186 24.4349 46.31 24.7139 46.3493 25.3992H45.676C45.366 24.4163 45.2414 24.2928 44.1654 24.2675C42.7023 24.2333 41.2385 24.2511 39.7746 24.2467C39.5914 24.2467 39.4083 24.2467 39.1977 24.2467V15.3309H39.1984ZM46.2715 24.045C48.3041 23.3166 50.3538 23.8516 52.3501 23.609V15.819C50.6571 15.8703 48.996 15.9045 47.3364 15.9812C46.8632 16.0027 46.5332 16.3286 46.402 16.7862C46.3174 17.0816 46.2767 17.3993 46.2744 17.7081C46.2626 19.2244 46.2707 20.7408 46.2715 22.2579C46.2715 22.8486 46.2715 23.4386 46.2715 24.045ZM45.6708 24.0673C45.6708 21.7288 45.6945 19.4484 45.6575 17.1694C45.6456 16.4231 45.1339 15.9834 44.3775 15.9425C43.5069 15.8956 42.6348 15.8837 41.7627 15.8688C41.1131 15.8577 40.4628 15.8666 39.7946 15.8666V23.6596C40.901 23.6596 41.9733 23.6566 43.0464 23.6604C43.9281 23.6641 44.8224 23.5748 45.6708 24.0666V24.0673Z" fill="#9FACC0"/>
<path d="M37.9696 23.6417C37.7383 23.7913 37.5484 23.8813 37.4009 24.0182C37.1732 24.228 36.9099 24.3143 36.7001 24.0956C36.5696 23.9594 36.4739 23.6231 36.5532 23.4929C36.6496 23.3337 36.9581 23.199 37.1532 23.2243C37.8384 23.3114 38.0512 23.1388 37.9681 22.3382C37.7346 22.4468 37.5373 22.5815 37.3222 22.6254C37.1057 22.67 36.8261 22.6961 36.66 22.5919C36.5451 22.5197 36.4806 22.1328 36.5658 22.0294C36.6919 21.8761 36.9663 21.8062 37.1858 21.7816C37.4431 21.7534 37.7093 21.8114 37.9889 21.8337V21.0034C37.736 21.0778 37.5291 21.1715 37.3148 21.1931C37.0916 21.2154 36.7987 21.2452 36.6556 21.1269C36.5414 21.0324 36.528 20.6834 36.6081 20.5131C36.7379 20.2363 37.0093 20.2378 37.2948 20.3635C37.4935 20.4506 37.7257 20.4617 37.9845 20.5146V19.6537C37.7271 19.7028 37.4854 19.7861 37.2436 19.7854C37.0234 19.7854 36.7446 19.7556 36.6029 19.621C36.5043 19.5272 36.5139 19.1366 36.6163 19.0533C36.7698 18.9275 37.0508 18.9112 37.2711 18.9305C37.4973 18.9506 37.7145 19.0681 37.9874 19.1612V18.3263C37.7123 18.3435 37.4453 18.3948 37.188 18.365C36.967 18.3397 36.6741 18.2795 36.5666 18.1262C36.4798 18.0034 36.5599 17.6664 36.68 17.5168C36.8536 17.3011 37.1079 17.3487 37.3452 17.5265C37.5173 17.6552 37.7368 17.7192 37.9548 17.8219C38.0742 17.0451 37.8161 16.7847 37.1443 16.938C36.8358 17.0087 36.577 16.932 36.5095 16.6411C36.4672 16.4596 36.5525 16.1709 36.6867 16.0414C36.9055 15.8316 37.1673 15.9209 37.3808 16.1463C37.5759 16.3524 37.7694 16.5846 38.0809 16.2564C38.1587 16.1738 38.373 16.2215 38.577 16.2051V25.0517H39.1205C40.9441 25.0517 42.7668 25.0547 44.5903 25.048C44.8232 25.0472 44.973 25.0867 45.1094 25.321C45.4557 25.917 46.6452 25.9304 46.9908 25.3366C47.1391 25.0814 47.303 25.0472 47.5499 25.048C49.3579 25.0539 51.1651 25.0509 52.973 25.0509C53.1406 25.0509 53.3089 25.0509 53.5233 25.0509V16.2386H54.0765V25.6238H53.5618C51.6916 25.6238 49.8221 25.6268 47.9519 25.6201C47.6767 25.6194 47.4743 25.6692 47.2652 25.8962C46.7001 26.5085 45.3964 26.5063 44.8425 25.8917C44.6334 25.6596 44.4265 25.6201 44.1543 25.6209C42.2996 25.6261 40.4457 25.6238 38.5911 25.6238H38.0505C38.0275 25.4237 38.0075 25.2481 37.9741 24.9579C37.7457 25.1395 37.5514 25.2533 37.4105 25.414C37.2066 25.6469 36.9618 25.7585 36.7201 25.5762C36.5777 25.4691 36.4613 25.2094 36.4791 25.0331C36.5095 24.7332 36.7468 24.6224 37.0649 24.6484C37.7546 24.7042 38.0445 24.4133 37.9711 23.6395L37.9696 23.6417Z" fill="#9FACC0"/>
<path d="M48.5481 11.3689C48.3738 11.4775 48.2715 11.5408 48.1098 11.6412C48.4072 11.9202 48.6823 12.1784 49.0049 12.4812C49.2452 12.1271 49.4595 11.8108 49.699 11.4567C49.5203 11.3897 49.3831 11.3384 49.1643 11.2573C49.5485 10.7126 49.9192 10.1874 50.3649 9.55566C50.7876 10.1516 51.1658 10.6844 51.5752 11.261C51.3794 11.3265 51.2422 11.3719 51.0286 11.4433C51.2652 11.7922 51.4773 12.1062 51.7235 12.4701C52.0512 12.1977 52.3456 11.9529 52.6712 11.6821C52.5347 11.5698 52.4242 11.4797 52.2715 11.354C52.7587 11.0088 53.2214 10.6814 53.6842 10.354C53.7205 10.3756 53.7576 10.3979 53.7939 10.4195C53.5233 11.2617 53.2526 12.1047 52.973 12.9745C51.24 12.5705 49.5314 12.5638 47.7665 12.9753C47.4891 12.1256 47.2125 11.2796 46.9367 10.4336C46.9715 10.4054 47.0064 10.3771 47.0412 10.3488C47.5203 10.6732 48.0001 10.9976 48.5481 11.3681V11.3689Z" fill="#9FACC0"/>
<path d="M48.3619 29.196C48.207 29.0866 48.1017 29.0115 47.937 28.8947C48.4406 28.5397 48.9025 28.2146 49.3638 27.8902C49.4001 27.9125 49.4365 27.9341 49.4736 27.9564C49.1999 28.8016 48.9263 29.6461 48.6467 30.5107C46.9055 30.1037 45.1969 30.1022 43.4431 30.5107C43.165 29.6551 42.8892 28.8076 42.6133 27.9594C42.6459 27.9334 42.6786 27.9081 42.7119 27.882C43.194 28.2064 43.676 28.5301 44.2025 28.8842C44.0601 28.9944 43.9481 29.0814 43.7902 29.2034C44.0824 29.4676 44.3634 29.7205 44.6867 30.0129C44.9315 29.6484 45.1428 29.3336 45.3801 28.9795C45.1791 28.9118 45.0427 28.8656 44.8358 28.7964C45.2377 28.231 45.61 27.7072 46.0416 27.1C46.4665 27.6945 46.8403 28.2168 47.2437 28.7808C47.0575 28.8522 46.9218 28.9043 46.7149 28.9839C46.9359 29.3143 47.1465 29.629 47.3994 30.0085C47.7301 29.7295 48.0282 29.4772 48.3627 29.1945L48.3619 29.196Z" fill="#9FACC0"/>
<path d="M38.3745 10.3436C38.8558 10.6687 39.3371 10.9939 39.8658 11.351C39.7212 11.4641 39.6115 11.5497 39.4624 11.6665C39.7479 11.9314 40.0164 12.1806 40.3434 12.4842C40.5837 12.1322 40.798 11.8183 41.0434 11.4581C40.858 11.3912 40.7112 11.3376 40.5073 11.264C40.8973 10.7111 41.2696 10.1844 41.7027 9.57053C42.1306 10.1665 42.511 10.6963 42.9255 11.2736C42.7164 11.3339 42.5762 11.3741 42.3731 11.4321C42.6044 11.7818 42.8143 12.0988 43.0657 12.479C43.3957 12.2014 43.696 11.9485 44.029 11.6672C43.8829 11.5653 43.7739 11.4887 43.5974 11.3651C44.0898 11.0177 44.5607 10.6851 45.0316 10.3525C45.0679 10.3748 45.1042 10.3964 45.1406 10.4187C44.8677 11.2632 44.5948 12.1069 44.3145 12.973C42.5748 12.572 40.8662 12.5638 39.1094 12.976C38.8284 12.1151 38.5525 11.2699 38.2759 10.4239C38.3085 10.3972 38.3404 10.3704 38.373 10.3436H38.3745Z" fill="#9FACC0"/>
<path d="M48.4517 31.2614C47.6508 31.8604 44.4976 31.8671 43.6649 31.2912C44.1424 30.6431 47.6767 30.6022 48.4517 31.2614Z" fill="#9FACC0"/>
<path d="M52.7809 13.7126C52.0053 14.3324 48.7757 14.3406 47.9986 13.7461C48.4888 13.1122 51.9289 13.0697 52.7809 13.7126Z" fill="#9FACC0"/>
<path d="M39.3045 13.7245C40.0534 13.1062 43.3074 13.0965 44.0809 13.6858C43.5737 14.3242 40.1721 14.3666 39.3045 13.7245Z" fill="#9FACC0"/>
<path d="M49.3223 38.2978C49.1458 38.419 48.9545 38.6527 48.7958 38.6326C48.6185 38.6103 48.4695 38.358 48.3086 38.2055C48.4635 38.0441 48.6015 37.7814 48.778 37.7524C48.9359 37.7264 49.1361 37.9577 49.3178 38.0753C49.3193 38.1497 49.3208 38.2234 49.3223 38.2978Z" fill="#9FACC0"/>
<path d="M43.7783 37.9325C43.6641 37.7457 43.4394 37.5404 43.4661 37.3767C43.4936 37.2055 43.7672 36.9548 43.9259 36.9593C44.0787 36.9637 44.3293 37.245 44.3404 37.4168C44.3508 37.5842 44.1105 37.7665 43.98 37.9421C43.9126 37.9384 43.8458 37.9354 43.7783 37.9317V37.9325Z" fill="#9FACC0"/>
<path d="M48.4235 18.0912H48.0779C48.0905 17.8487 48.1017 17.6247 48.1135 17.4C48.0913 17.3918 48.069 17.3829 48.046 17.3747C47.9378 17.6083 47.8288 17.842 47.6953 18.1299C47.567 17.871 47.4624 17.6619 47.3586 17.4521C47.3304 17.4595 47.3023 17.4677 47.2748 17.4752C47.2956 17.6701 47.3163 17.865 47.3401 18.0875C47.3 18.0905 47.1992 18.0972 47.128 18.1016C47.148 17.7088 47.1673 17.3323 47.188 16.9223C47.6649 16.813 47.5403 17.3569 47.7976 17.5139C48.0505 17.4037 47.8673 16.8159 48.4235 16.9305V18.0905V18.0912Z" fill="#9FACC0"/>
<path d="M48.2166 22.5651C48.0883 22.2884 47.9889 22.0733 47.8406 21.7549C47.8406 22.0837 47.8406 22.2936 47.8406 22.5026C47.6612 22.4632 47.6686 22.4639 47.7027 22.0317C47.7198 21.8204 47.7057 21.6061 47.7057 21.3658C48.1906 21.2534 48.075 21.7995 48.3226 21.9573C48.5637 21.8129 48.4027 21.2564 48.9367 21.3665V22.5138H48.603C48.62 22.2809 48.6363 22.0577 48.6519 21.8345C48.6259 21.8248 48.6007 21.8151 48.5748 21.8055C48.465 22.0376 48.3553 22.269 48.2151 22.5651H48.2166Z" fill="#9FACC0"/>
<path d="M50.3709 17.5325C50.3523 17.3107 50.336 17.1113 50.3182 16.9037C50.3953 16.9082 50.4717 16.9119 50.5303 16.9149C50.5095 17.3107 50.4895 17.6924 50.4621 18.2259C50.1677 17.8866 49.9563 17.6433 49.6567 17.2981C49.6723 17.6203 49.6827 17.8397 49.6945 18.0875C49.6701 18.089 49.5833 18.0949 49.4958 18.1009V16.9186C49.966 16.8271 49.9823 17.4045 50.3709 17.5317V17.5325Z" fill="#9FACC0"/>
<path d="M50.4228 19.1292C50.8047 19.1388 50.9797 19.3635 50.9938 19.7214C51.0071 20.0674 50.7179 20.3516 50.3812 20.3509C50.029 20.3501 49.7724 20.0771 49.7843 19.7177C49.7961 19.3524 50.0386 19.1284 50.4228 19.1292ZM50.7446 19.7489C50.6096 19.5488 50.5006 19.3873 50.3916 19.2266C50.3004 19.3784 50.1254 19.5384 50.138 19.6812C50.1551 19.8769 50.3152 20.0599 50.4139 20.2489C50.5125 20.1001 50.6111 19.9513 50.7446 19.7497V19.7489Z" fill="#9FACC0"/>
<path d="M50.0549 21.5652C49.9541 21.5279 49.8532 21.4907 49.745 21.4513C49.7101 21.5101 49.6634 21.5532 49.6708 21.5823C49.6945 21.673 49.7227 21.7705 49.7791 21.8419C49.828 21.9037 49.917 21.9342 49.9875 21.9781C49.8933 21.99 49.7991 22.0019 49.6678 22.019C49.6745 22.1403 49.6812 22.2712 49.6916 22.4684C49.8747 22.4 50.0053 22.3509 50.1261 22.3062C50.0599 22.4873 49.7855 22.5517 49.303 22.4997V21.3308C49.5729 21.3598 49.8236 21.3866 50.0735 21.4134C50.0676 21.464 50.0616 21.5146 50.0549 21.5644V21.5652Z" fill="#9FACC0"/>
<path d="M50.8143 21.2087C51.0168 21.7288 51.1643 22.1098 51.3119 22.49C51.2852 22.5242 51.2585 22.5584 51.2326 22.5926C51.1228 22.4967 51.0153 22.3992 50.9033 22.3069C50.8484 22.2616 50.7802 22.1849 50.7298 22.1931C50.6578 22.205 50.5904 22.2749 50.534 22.333C50.4717 22.397 50.4242 22.4751 50.29 22.4848C50.4458 22.106 50.6015 21.7266 50.8151 21.2087H50.8143Z" fill="#9FACC0"/>
<path d="M50.686 18.121C50.8662 17.6932 51.0294 17.3048 51.2407 16.8033C51.4387 17.2877 51.5959 17.6738 51.7643 18.0853C51.6449 18.095 51.5158 18.1061 51.415 18.1143C51.3312 17.9767 51.263 17.8636 51.194 17.7505C51.1191 17.8479 51.0583 17.9625 50.9656 18.0377C50.9003 18.0912 50.7928 18.092 50.686 18.121Z" fill="#9FACC0"/>
<path d="M48.8232 19.3673C48.7401 19.3249 48.6564 19.2817 48.537 19.2214V20.3159H48.1803V19.2274C48.0624 19.281 47.9652 19.3256 47.7442 19.4268C47.8614 19.2683 47.9296 19.1277 47.966 19.1359C48.2626 19.1999 48.6237 18.9915 48.8736 19.2534C48.8566 19.2914 48.8403 19.3293 48.8232 19.3673Z" fill="#9FACC0"/>
<path d="M49.5099 19.1269V20.3085H49.125V19.1597C49.2259 19.1515 49.3638 19.1396 49.5099 19.1277V19.1269Z" fill="#9FACC0"/>
<path d="M48.7668 16.9201H49.1539V18.0897C49.0375 18.0957 48.8907 18.1031 48.7668 18.1091V16.9194V16.9201Z" fill="#9FACC0"/>
<path d="M40.1817 18.1002V16.8346C40.5317 16.9395 40.8862 16.996 41.1791 17.1612C41.2778 17.217 41.3 17.5883 41.2214 17.7482C41.0019 18.1924 40.5599 18.1106 40.1817 18.1009V18.1002ZM40.577 17.9811C40.6467 17.999 40.7171 18.0161 40.7868 18.034C40.8462 17.8219 40.9581 17.6076 40.9485 17.3985C40.9418 17.2527 40.7683 17.1151 40.6689 16.9744C40.6385 16.9975 40.6081 17.0206 40.577 17.0429V17.9811Z" fill="#9FACC0"/>
<path d="M42.0772 18.1158C41.696 18.1121 41.5106 17.8918 41.4847 17.5362C41.4587 17.182 41.7783 16.8695 42.135 16.8963C42.5021 16.9238 42.6919 17.1411 42.6927 17.5109C42.6927 17.8851 42.4539 18.1158 42.0772 18.1158ZM42.4539 17.4871C42.3108 17.3033 42.1906 17.1485 42.0705 16.9938C41.9904 17.1575 41.8332 17.3301 41.851 17.4826C41.8725 17.6694 42.0401 17.839 42.1439 18.0161C42.2359 17.8584 42.3286 17.7014 42.4539 17.4871Z" fill="#9FACC0"/>
<path d="M41.8629 19.7713C41.8391 19.5555 41.8176 19.3673 41.7946 19.1589H42.0104C41.9837 19.551 41.9585 19.9268 41.9244 20.4223C41.6382 20.0964 41.415 19.8427 41.1013 19.4856C41.1332 19.8479 41.1532 20.0793 41.1739 20.3107C41.1287 20.3204 41.0835 20.33 41.0382 20.3397C41.0145 19.9558 40.9915 19.5719 40.9656 19.1463C41.4327 19.0019 41.4609 19.6016 41.8629 19.7713Z" fill="#9FACC0"/>
<path d="M44.4042 21.3888C44.2403 21.7735 44.0772 22.1589 43.8592 22.6715C43.6493 22.173 43.4913 21.7995 43.3156 21.3814C43.4461 21.368 43.5692 21.3553 43.673 21.3442C43.7613 21.5949 43.8369 21.8099 43.9422 22.1098C44.0757 21.7973 44.1795 21.5532 44.2841 21.3092C44.3241 21.336 44.3649 21.3628 44.4049 21.3896L44.4042 21.3888Z" fill="#9FACC0"/>
<path d="M43.8028 17.2468C43.7272 17.5221 43.6515 17.7973 43.5381 18.2125C43.3816 17.8814 43.2889 17.6857 43.1962 17.4893C43.1688 17.4923 43.1406 17.4953 43.1131 17.4982C43.122 17.6932 43.1309 17.8881 43.1406 18.0935H42.9463V16.9313C43.4661 16.8137 43.3601 17.336 43.6026 17.5265C43.6701 17.4402 43.7398 17.3494 43.8102 17.2587L43.8028 17.2468Z" fill="#9FACC0"/>
<path d="M42.2381 19.1485H42.6289C42.7045 19.3836 42.7728 19.5957 42.8402 19.8077C42.8714 19.8099 42.9033 19.8122 42.9344 19.8144C42.9975 19.6031 43.0597 19.3911 43.1295 19.1559H43.3549C43.1791 19.5562 43.0086 19.9446 42.7891 20.4431C42.5829 19.9595 42.4146 19.5644 42.2374 19.1485H42.2381Z" fill="#9FACC0"/>
<path d="M43.759 19.3479C43.8836 19.4558 44.0312 19.5466 44.1246 19.6768C44.2055 19.7884 44.3019 19.9997 44.2529 20.0704C44.1625 20.2013 43.9785 20.307 43.8191 20.3345C43.7153 20.3524 43.5848 20.2132 43.4669 20.1448C43.4921 20.1076 43.518 20.0704 43.5432 20.0339C43.5937 20.0793 43.6367 20.147 43.6953 20.1641C43.7828 20.1894 43.8799 20.179 43.9734 20.1835C43.9526 20.0875 43.9452 19.9855 43.9051 19.8985C43.8829 19.8509 43.8065 19.8271 43.7531 19.7943C43.5358 19.6619 43.4142 19.4774 43.6063 19.2609C43.7917 19.0525 44.0201 19.0629 44.2114 19.3256C44.0913 19.2899 43.9719 19.2549 43.8517 19.2192C43.8206 19.2616 43.7902 19.304 43.759 19.3464V19.3479Z" fill="#9FACC0"/>
<path d="M40.8091 21.3605H41.1799V22.5101C41.0679 22.516 40.9403 22.5227 40.8091 22.5294V21.3613V21.3605Z" fill="#9FACC0"/>
<path d="M42.3412 22.3717C42.1098 22.6187 41.8124 22.5056 41.5366 22.5205V21.3687C41.6552 21.3613 41.7724 21.3538 41.8799 21.3479C41.9059 21.3933 41.9348 21.4193 41.9326 21.4431C41.9163 21.6589 41.874 21.8739 41.8784 22.0882C41.8858 22.4684 41.94 22.49 42.3412 22.3717Z" fill="#9FACC0"/>
<path d="M42.5629 21.371H42.9359C42.9226 21.5934 42.9062 21.7913 42.8988 21.9892C42.8862 22.3263 42.9129 22.6194 43.4075 22.3389C43.1458 22.6366 42.8417 22.4811 42.5629 22.5436V21.3702V21.371Z" fill="#9FACC0"/>
<path d="M44.5829 18.089V16.9216H44.9641V18.089H44.5829Z" fill="#9FACC0"/>
<path d="M43.8102 17.2587C43.7917 16.9662 43.9289 16.8695 44.1832 16.9224C44.201 17.3219 44.2181 17.6991 44.2359 18.092H43.9363C43.8903 17.7996 43.8465 17.5235 43.8028 17.2475L43.8102 17.2594V17.2587Z" fill="#9FACC0"/>
</g>
</g>
<defs>
<clipPath id="clip0_452_2508">
<rect width="146.852" height="48" fill="white" transform="translate(26)"/>
</clipPath>
<clipPath id="clip1_452_2508">
<rect width="40.0661" height="48" fill="white" transform="translate(26)"/>
</clipPath>
</defs>
</svg>
