<svg width="73" height="72" viewBox="0 0 73 72" fill="none" xmlns="http://www.w3.org/2000/svg">
<path d="M31.563 38.8571V37.4571H30.163H13.0088H11.6088V38.8571V51.7143C11.6088 54.7741 14.2378 57.4 17.2973 57.4H54.4648C57.5243 57.4 60.1533 54.7741 60.1533 51.7143V38.8571V37.4571H58.7533H41.5991H40.1991V38.8571V43.1429C40.1991 43.1495 40.198 43.1522 40.1975 43.1536C40.1965 43.1559 40.1945 43.1593 40.1909 43.1628C40.1874 43.1664 40.1838 43.1685 40.1813 43.1696C40.1797 43.1703 40.1766 43.1714 40.1696 43.1714H31.5925C31.5855 43.1714 31.5824 43.1703 31.5808 43.1696C31.5783 43.1685 31.5747 43.1664 31.5712 43.1628C31.5676 43.1593 31.5656 43.1559 31.5646 43.1536C31.5641 43.1522 31.563 43.1495 31.563 43.1429V38.8571ZM54.4648 23.1714H48.7172V20.2857C48.7172 17.2259 46.0882 14.6 43.0286 14.6H28.7335C25.6739 14.6 23.0449 17.2259 23.0449 20.2857V23.1714H17.2973C14.2378 23.1714 11.6088 25.7974 11.6088 28.8571V36V37.4H13.0088H58.7533H60.1533V36V28.8571C60.1533 25.7974 57.5243 23.1714 54.4648 23.1714ZM40.1991 23.1714H31.563V23.1143H40.1991V23.1714Z" stroke="white" stroke-width="2.8"/>
</svg>
