<svg width="73" height="72" viewBox="0 0 73 72" fill="none" xmlns="http://www.w3.org/2000/svg">
<mask id="path-1-outside-1_139_25" maskUnits="userSpaceOnUse" x="7.00684" y="9" width="57" height="54" fill="black">
<rect fill="white" x="7.00684" y="9" width="57" height="54"/>
<path d="M61.4694 22.2857V24C61.4694 24.2273 61.379 24.4454 61.2182 24.6061C61.0573 24.7669 60.8392 24.8572 60.6117 24.8572H58.0386V26.1429C58.0386 26.8529 57.4625 27.4286 56.752 27.4286H14.7242C14.0137 27.4286 13.4377 26.8529 13.4377 26.1429V24.8572H10.8645C10.6371 24.8572 10.4189 24.7669 10.2581 24.6061C10.0972 24.4454 10.0068 24.2273 10.0068 24V22.2857C10.0068 22.1162 10.0572 21.9504 10.1515 21.8094C10.2458 21.6684 10.3798 21.5586 10.5366 21.4937L35.4101 12.0652C35.6201 11.9783 35.8561 11.9783 36.0661 12.0652L60.9396 21.4937C61.0964 21.5586 61.2305 21.6684 61.3248 21.8094C61.4191 21.9504 61.4694 22.1162 61.4694 22.2857ZM58.8963 54.8571H12.58C11.1588 54.8571 10.0068 56.0084 10.0068 57.4286V59.1429C10.0068 59.3702 10.0972 59.5882 10.2581 59.749C10.4189 59.9097 10.6371 60 10.8645 60H60.6117C60.8392 60 61.0573 59.9097 61.2182 59.749C61.379 59.5882 61.4694 59.3702 61.4694 59.1429V57.4286C61.4694 56.0084 60.3174 54.8571 58.8963 54.8571ZM18.5839 29.1429V49.7143H14.7242C14.0137 49.7143 13.4377 50.29 13.4377 51V53.1429H58.0386V51C58.0386 50.29 57.4625 49.7143 56.752 49.7143H52.8923V29.1429H46.0306V49.7143H39.1689V29.1429H32.3073V49.7143H25.4456V29.1429H18.5839Z"/>
</mask>
<path d="M58.0386 24.8572V22.5572H55.7386V24.8572H58.0386ZM13.4377 24.8572H15.7377V22.5572H13.4377V24.8572ZM10.0068 24H7.70684H10.0068ZM10.0068 22.2857L7.70684 22.2857V22.2857H10.0068ZM10.5366 21.4937L9.72135 19.3431L9.68929 19.3552L9.65761 19.3683L10.5366 21.4937ZM35.4101 12.0652L36.2254 14.2158L36.2577 14.2036L36.2896 14.1904L35.4101 12.0652ZM36.0661 12.0652L35.1867 14.1904L35.2186 14.2036L35.2508 14.2158L36.0661 12.0652ZM60.9396 21.4937L61.8186 19.3683L61.7869 19.3552L61.7549 19.3431L60.9396 21.4937ZM10.0068 59.1429H7.70684H10.0068ZM18.5839 29.1429V26.8429H16.2839V29.1429H18.5839ZM18.5839 49.7143V52.0143H20.8839V49.7143H18.5839ZM13.4377 53.1429H11.1377V55.4429H13.4377V53.1429ZM58.0386 53.1429V55.4429H60.3386V53.1429H58.0386ZM52.8923 49.7143H50.5923V52.0143H52.8923V49.7143ZM52.8923 29.1429H55.1923V26.8429H52.8923V29.1429ZM46.0306 29.1429V26.8429H43.7306V29.1429H46.0306ZM46.0306 49.7143V52.0143H48.3306V49.7143H46.0306ZM39.1689 49.7143H36.8689V52.0143H39.1689V49.7143ZM39.1689 29.1429H41.469V26.8429H39.1689V29.1429ZM32.3073 29.1429V26.8429H30.0073V29.1429H32.3073ZM32.3073 49.7143V52.0143H34.6073V49.7143H32.3073ZM25.4456 49.7143H23.1456V52.0143H25.4456V49.7143ZM25.4456 29.1429H27.7456V26.8429H25.4456V29.1429ZM59.1694 22.2857V24H63.7694V22.2857H59.1694ZM59.1694 24C59.1694 23.6169 59.3217 23.2497 59.5924 22.9792L62.844 26.233C63.4363 25.641 63.7694 24.8378 63.7694 24H59.1694ZM59.5924 22.9792C59.863 22.7088 60.2297 22.5572 60.6117 22.5572V27.1572C61.4487 27.1572 62.2517 26.8249 62.844 26.233L59.5924 22.9792ZM60.6117 22.5572H58.0386V27.1572H60.6117V22.5572ZM55.7386 24.8572V26.1429H60.3386V24.8572H55.7386ZM55.7386 26.1429C55.7386 25.5812 56.1937 25.1286 56.752 25.1286V29.7286C58.7313 29.7286 60.3386 28.1246 60.3386 26.1429H55.7386ZM56.752 25.1286H14.7242V29.7286H56.752V25.1286ZM14.7242 25.1286C15.2826 25.1286 15.7377 25.5812 15.7377 26.1429H11.1377C11.1377 28.1246 12.7449 29.7286 14.7242 29.7286V25.1286ZM15.7377 26.1429V24.8572H11.1377V26.1429H15.7377ZM13.4377 22.5572H10.8645V27.1572H13.4377V22.5572ZM10.8645 22.5572C11.2466 22.5572 11.6133 22.7088 11.8839 22.9792L8.63225 26.233C9.22455 26.8249 10.0276 27.1572 10.8645 27.1572V22.5572ZM11.8839 22.9792C12.1545 23.2497 12.3068 23.6169 12.3068 24H7.70684C7.70684 24.8378 8.03989 25.641 8.63225 26.233L11.8839 22.9792ZM12.3068 24V22.2857H7.70684V24H12.3068ZM12.3068 22.2858C12.3068 22.5715 12.222 22.8508 12.0632 23.0881L8.2397 20.5307C7.89234 21.05 7.70684 21.6608 7.70684 22.2857L12.3068 22.2858ZM12.0632 23.0881C11.9045 23.3255 11.679 23.5102 11.4155 23.6192L9.65761 19.3683C9.08055 19.607 8.58704 20.0114 8.2397 20.5307L12.0632 23.0881ZM11.3518 23.6444L36.2254 14.2158L34.5949 9.9145L9.72135 19.3431L11.3518 23.6444ZM36.2896 14.1904C35.9364 14.3365 35.5398 14.3365 35.1867 14.1904L36.9455 9.93993C36.1724 9.62002 35.3039 9.62002 34.5307 9.93993L36.2896 14.1904ZM35.2508 14.2158L60.1244 23.6444L61.7549 19.3431L36.8813 9.9145L35.2508 14.2158ZM60.0607 23.6192C59.7972 23.5102 59.5717 23.3255 59.413 23.0881L63.2365 20.5307C62.8892 20.0114 62.3957 19.607 61.8186 19.3683L60.0607 23.6192ZM59.413 23.0881C59.2542 22.8508 59.1694 22.5715 59.1694 22.2858L63.7694 22.2857C63.7694 21.6608 63.5839 21.05 63.2365 20.5307L59.413 23.0881ZM58.8963 52.5571H12.58V57.1571H58.8963V52.5571ZM12.58 52.5571C9.89003 52.5571 7.70684 54.7367 7.70684 57.4286H12.3068C12.3068 57.2801 12.4277 57.1571 12.58 57.1571V52.5571ZM7.70684 57.4286V59.1429H12.3068V57.4286H7.70684ZM7.70684 59.1429C7.70684 59.9807 8.03989 60.7839 8.63225 61.3758L11.8839 58.1221C12.1545 58.3925 12.3068 58.7597 12.3068 59.1429H7.70684ZM8.63225 61.3758C9.22455 61.9677 10.0276 62.3 10.8645 62.3V57.7C11.2466 57.7 11.6133 57.8516 11.8839 58.1221L8.63225 61.3758ZM10.8645 62.3H60.6117V57.7H10.8645V62.3ZM60.6117 62.3C61.4487 62.3 62.2517 61.9677 62.844 61.3758L59.5924 58.1221C59.863 57.8516 60.2297 57.7 60.6117 57.7V62.3ZM62.844 61.3758C63.4363 60.7839 63.7694 59.9807 63.7694 59.1429H59.1694C59.1694 58.7597 59.3217 58.3925 59.5924 58.1221L62.844 61.3758ZM63.7694 59.1429V57.4286H59.1694V59.1429H63.7694ZM63.7694 57.4286C63.7694 54.7367 61.5862 52.5571 58.8963 52.5571V57.1571C59.0486 57.1571 59.1694 57.2801 59.1694 57.4286H63.7694ZM16.2839 29.1429V49.7143H20.8839V29.1429H16.2839ZM18.5839 47.4143H14.7242V52.0143H18.5839V47.4143ZM14.7242 47.4143C12.7449 47.4143 11.1377 49.0183 11.1377 51H15.7377C15.7377 51.5617 15.2826 52.0143 14.7242 52.0143V47.4143ZM11.1377 51V53.1429H15.7377V51H11.1377ZM13.4377 55.4429H58.0386V50.8429H13.4377V55.4429ZM60.3386 53.1429V51H55.7386V53.1429H60.3386ZM60.3386 51C60.3386 49.0183 58.7313 47.4143 56.752 47.4143V52.0143C56.1937 52.0143 55.7386 51.5617 55.7386 51H60.3386ZM56.752 47.4143H52.8923V52.0143H56.752V47.4143ZM55.1923 49.7143V29.1429H50.5923V49.7143H55.1923ZM52.8923 26.8429H46.0306V31.4429H52.8923V26.8429ZM43.7306 29.1429V49.7143H48.3306V29.1429H43.7306ZM46.0306 47.4143H39.1689V52.0143H46.0306V47.4143ZM41.469 49.7143V29.1429H36.8689V49.7143H41.469ZM39.1689 26.8429H32.3073V31.4429H39.1689V26.8429ZM30.0073 29.1429V49.7143H34.6073V29.1429H30.0073ZM32.3073 47.4143H25.4456V52.0143H32.3073V47.4143ZM27.7456 49.7143V29.1429H23.1456V49.7143H27.7456ZM25.4456 26.8429H18.5839V31.4429H25.4456V26.8429Z" fill="white" mask="url(#path-1-outside-1_139_25)"/>
</svg>
