<svg width="33" height="32" viewBox="0 0 33 32" fill="none" xmlns="http://www.w3.org/2000/svg">
<g clip-path="url(#clip0_146_23768)">
<mask id="mask0_146_23768" style="mask-type:alpha" maskUnits="userSpaceOnUse" x="0" y="0" width="33" height="32">
<path d="M0.333008 0H32.333V32H0.333008V0Z" fill="white"/>
</mask>
<g mask="url(#mask0_146_23768)">
<path d="M31.6662 8.67594C31.485 8.02958 31.132 7.4444 30.6449 6.98261C30.1439 6.50661 29.5299 6.16612 28.8609 5.99327C26.3569 5.33327 16.3249 5.33327 16.3249 5.33327C12.1426 5.28569 7.96143 5.49497 3.80485 5.95994C3.13577 6.14556 2.52294 6.49365 2.02085 6.97327C1.52752 7.44794 1.17019 8.03327 0.983521 8.67461C0.535111 11.0903 0.317244 13.5431 0.332854 15.9999C0.316854 18.4546 0.534187 20.9066 0.983521 23.3253C1.16619 23.9639 1.52219 24.5466 2.01685 25.0173C2.51152 25.4879 3.12752 25.8279 3.80485 26.0079C6.34219 26.6666 16.3249 26.6666 16.3249 26.6666C20.5124 26.7143 24.6989 26.505 28.8609 26.0399C29.5299 25.8671 30.1439 25.5266 30.6449 25.0506C31.1319 24.5889 31.4844 24.0036 31.6649 23.3573C32.125 20.9425 32.3487 18.4887 32.3329 16.0306C32.3675 13.5621 32.144 11.0967 31.6662 8.67461V8.67594ZM13.1355 20.5653V11.4359L21.4822 16.0013L13.1355 20.5653Z" fill="#112242" fill-opacity="0.62"/>
</g>
</g>
<defs>
<clipPath id="clip0_146_23768">
<rect width="32" height="32" fill="white" transform="translate(0.333008)"/>
</clipPath>
</defs>
</svg>
