<svg width="198" height="48" viewBox="0 0 198 48" fill="none" xmlns="http://www.w3.org/2000/svg">
<mask id="mask0_151_48470" style="mask-type:alpha" maskUnits="userSpaceOnUse" x="15" y="2" width="169" height="44">
<path d="M15 2H183.191V46H15V2Z" fill="white"/>
</mask>
<g mask="url(#mask0_151_48470)">
<path d="M83.803 31.7969C83.803 31.4573 83.5816 31.2059 83.1291 31.108V30.8883C83.3796 30.8883 84.2139 30.9218 84.4487 30.9218C84.6516 30.9218 85.4595 30.8883 85.7108 30.8883V31.108C85.2909 31.19 85.0704 31.4379 85.0704 31.7969V36.1083C85.0704 37.4736 85.8201 38.2453 87.3884 38.2453C88.7397 38.2453 89.7911 37.6386 89.7911 36.2098V31.7801C89.7911 31.4599 89.5899 31.2059 89.0837 31.108V30.8883C89.2679 30.8883 89.9577 30.9218 90.1933 30.9218C90.3944 30.9218 91.1184 30.8883 91.3036 30.8883V31.108C90.8152 31.2245 90.598 31.4431 90.598 31.7801V35.9722C90.598 37.8537 89.5034 38.9343 87.1415 38.9343C84.9425 38.9343 83.803 37.9348 83.803 36.1672V31.7969Z" fill="#9D9DAB"/>
<path d="M93.2353 38.5963C93.747 38.501 93.949 38.2419 93.949 37.9243V31.9653C93.949 31.4599 93.6799 31.2325 93.2212 31.1073V30.8875C93.4807 30.9069 93.9162 30.9183 94.1385 30.9183C94.3405 30.9183 94.6546 30.9149 94.8661 30.8875L100.035 36.9647V31.7801C100.035 31.4607 99.832 31.2067 99.3276 31.1073V30.8875C99.5128 30.8875 100.178 30.9219 100.414 30.9219C100.62 30.9219 101.332 30.8875 101.52 30.8875V31.1073C101.027 31.2235 100.789 31.4441 100.789 31.7801V38.9341H100.478C100.282 38.8892 99.9113 38.6784 99.3469 38.0593L94.7225 32.6727V37.9243C94.7225 38.2435 94.9067 38.4966 95.4113 38.5963V38.8169C95.2261 38.8169 94.5611 38.7817 94.3247 38.7817C94.121 38.7817 93.4231 38.8169 93.2353 38.8169V38.5963Z" fill="#9D9DAB"/>
<path d="M134.02 36.9893H134.239C134.354 37.4346 134.609 37.8406 134.966 38.0751C135.338 38.337 135.921 38.4623 136.392 38.4623C137.432 38.4623 138.091 37.9473 138.091 37.1322C138.091 36.2881 137.246 35.8498 136.235 35.3444C135.482 34.9678 134.004 34.3461 134.004 32.9171C134.004 31.5859 135.019 30.7579 136.643 30.7579C137.715 30.7579 138.218 31.0198 138.941 30.9862L138.927 32.6012H138.706C138.417 31.6495 137.553 31.3178 136.606 31.3178C135.548 31.3178 135.152 31.9232 135.152 32.5387C135.152 33.4199 136.014 33.8642 136.991 34.3001C138.091 34.7896 139.283 35.4079 139.283 36.7848C139.283 38.0883 138.263 39.0323 136.4 39.0323C135.291 39.0323 134.626 38.7156 134.043 38.6439L134.02 36.9893Z" fill="#9D9DAB"/>
<path d="M156.232 35.5367L154.128 32.1604C153.769 31.5677 153.493 31.2552 153.093 31.1072V30.8882C153.381 30.8882 154.16 30.9228 154.381 30.9228C154.582 30.9228 155.422 30.8882 155.726 30.8882V31.1072C155.457 31.1547 155.331 31.2896 155.331 31.4926C155.331 31.6716 155.452 31.9019 155.575 32.1021C155.695 32.3005 157.127 34.675 157.127 34.675L158.621 32.1031C158.772 31.8454 158.879 31.5897 158.879 31.421C158.879 31.2676 158.77 31.1405 158.516 31.1072V30.8882C158.769 30.8882 159.301 30.9228 159.47 30.9228C159.639 30.9228 160.251 30.8882 160.502 30.8882V31.0922C159.927 31.3277 159.568 31.8322 159.219 32.4169L157.306 35.6144M157.437 35.2112V37.9084C157.437 38.1757 157.641 38.5117 158.101 38.5962V38.817C157.844 38.817 157.007 38.7816 156.764 38.7816C156.56 38.7816 155.757 38.817 155.466 38.817V38.5962C155.929 38.5117 156.15 38.1757 156.15 37.9084V35.3295" fill="#9D9DAB"/>
<path d="M117.127 30.8883H122.062C122.215 30.8883 122.482 30.8707 122.635 30.8046H122.856L122.821 32.408H122.602C122.414 31.9036 122.219 31.4996 121.264 31.4996H119.122V34.2939H120.773C121.014 34.2939 121.306 34.2735 121.432 34.2436C121.803 34.1625 121.966 33.9559 122.041 33.6394H122.262C122.246 33.881 122.246 34.4324 122.246 34.5956C122.246 34.7596 122.262 35.3399 122.262 35.6029H122.041C121.935 35.287 121.791 35.0471 121.432 34.959C121.306 34.9254 121.009 34.898 120.773 34.898H119.122V38.1758H121.452C122.47 38.1758 122.766 37.7515 123.019 37.1517L123.236 37.2027L123.019 38.8496C122.262 38.7825 121.808 38.7825 120.948 38.7825H118.486C118.249 38.7825 117.378 38.8171 117.125 38.8171V38.5973C117.569 38.5126 117.829 38.2929 117.829 37.8669V31.8049C117.829 31.4291 117.627 31.1944 117.127 31.1107V30.8883Z" fill="#9D9DAB"/>
<path d="M104.523 31.848C104.523 31.4414 104.281 31.2175 103.805 31.115V30.8972C104.07 30.8972 104.927 30.9306 105.176 30.9306C105.385 30.9306 106.266 30.8972 106.534 30.8972V31.115C106.061 31.2175 105.813 31.4201 105.813 31.848V37.8679C105.813 38.2744 106.056 38.4958 106.534 38.5963V38.817C106.266 38.817 105.422 38.7825 105.176 38.7825C104.963 38.7825 104.07 38.817 103.805 38.817V38.5963C104.291 38.5056 104.523 38.293 104.523 37.8679V31.848Z" fill="#9D9DAB"/>
<path d="M141.959 31.848C141.959 31.4414 141.714 31.2175 141.239 31.115V30.8972C141.504 30.8972 142.361 30.9306 142.609 30.9306C142.82 30.9306 143.7 30.8972 143.968 30.8972V31.115C143.495 31.2175 143.248 31.4201 143.248 31.848V37.8679C143.248 38.2744 143.491 38.4958 143.968 38.5963V38.817C143.702 38.817 142.859 38.7825 142.609 38.7825C142.4 38.7825 141.504 38.817 141.239 38.817V38.5963C141.724 38.5056 141.959 38.293 141.959 37.8679V31.848Z" fill="#9D9DAB"/>
<path d="M148.819 30.9219C146.113 30.9219 145.68 30.8715 145.127 30.8372L145.132 32.4707H145.352C145.554 31.7466 145.957 31.5781 146.48 31.5781H148.176V37.8679C148.176 38.2929 147.944 38.5056 147.457 38.5963V38.8171C147.724 38.8171 148.625 38.7825 148.834 38.7825C149.081 38.7825 149.928 38.8171 150.192 38.8171V38.5963C149.714 38.4958 149.471 38.2745 149.471 37.8679V31.5781H151.155C151.697 31.5781 152.084 31.7625 152.286 32.4707H152.504L152.507 30.8372C151.958 30.8715 151.525 30.9219 148.819 30.9219Z" fill="#9D9DAB"/>
<path d="M127.232 37.8678C127.232 38.2744 127.49 38.4949 127.968 38.5962V38.817C127.703 38.817 126.838 38.7824 126.591 38.7824C126.379 38.7824 125.534 38.817 125.268 38.817V38.5962C125.711 38.5117 125.971 38.293 125.971 37.8678V31.7864C125.971 31.4124 125.768 31.1769 125.27 31.0922V30.8734C125.534 30.8734 126.371 30.9068 126.608 30.9068C126.995 30.9068 128.095 30.8417 128.529 30.8417C130.425 30.8417 131.481 31.6258 131.481 32.9699C131.481 34.0265 130.695 34.7411 129.485 35.033C129.485 35.033 129.761 35.1934 130.036 35.5137C130.37 35.9078 131.273 37.2038 131.648 37.6569C132.022 38.1114 132.501 38.6184 133.014 38.6414V38.8186C132.768 38.8723 132.374 38.9193 132.072 38.9193C131.429 38.9193 130.915 38.6917 130.415 38.0876C129.983 37.5618 129.25 36.4708 128.819 35.9194C128.543 35.5684 128.208 35.2941 127.596 35.1934C127.478 35.1732 127.366 35.1565 127.232 35.1407V37.8678ZM127.232 34.636C127.484 34.6704 127.856 34.6864 128.223 34.6864C129.707 34.6864 130.175 33.8325 130.175 33.0768C130.175 32.0078 129.461 31.3453 128.162 31.3453C127.893 31.3453 127.503 31.3789 127.232 31.4298V34.636Z" fill="#9D9DAB"/>
<path d="M108.435 31.8736C108.262 31.4908 107.997 31.2103 107.544 31.1108V30.8874C107.826 30.8874 108.8 30.9228 109.015 30.9228C109.212 30.9228 110.063 30.8874 110.353 30.8874V31.1044C110.096 31.1538 109.803 31.2958 109.803 31.5587C109.803 31.7465 109.917 32.0024 110.135 32.4841L112.178 37.1321L114.111 32.4761C114.264 32.1003 114.374 31.8092 114.374 31.5869C114.374 31.3409 114.147 31.1705 113.826 31.1044V30.8874C114.083 30.8874 114.713 30.9228 114.908 30.9228C115.087 30.9228 115.827 30.8874 116.109 30.8874V31.1108C115.626 31.2413 115.333 31.5068 115.062 32.1357L112.216 38.845H111.573L108.435 31.8736Z" fill="#9D9DAB"/>
<path d="M115.73 10.7139C115.402 9.98791 114.897 9.4587 114.042 9.26911V8.84658C114.574 8.84658 116.34 8.91011 116.746 8.91011C117.12 8.91011 118.83 8.84658 119.375 8.84658V9.25852C118.891 9.35301 118.336 9.62291 118.336 10.1212C118.336 10.473 118.555 10.9592 118.96 11.8702L122.835 20.679L126.502 11.8552C126.787 11.1408 127.001 10.5948 127.001 10.1723C127.001 9.70302 126.567 9.38478 125.959 9.25852V8.84658C126.444 8.84658 127.624 8.91011 127.998 8.91011C128.339 8.91011 129.74 8.84658 130.272 8.84658V9.24533C129.359 9.49326 128.799 10.0181 128.29 11.2095L122.9 23.9276H121.681L115.73 10.7139Z" fill="#9D9DAB"/>
<path d="M63.5562 23.4433C64.26 23.2826 64.7548 22.9626 64.7548 22.1653V10.5057C64.7548 9.74013 64.2944 9.42248 63.5562 9.2303V8.81656C63.9258 8.81656 65.5178 8.87929 65.905 8.87929C66.3513 8.87929 68.02 8.81656 68.387 8.81656V9.2303C67.684 9.38992 67.1628 9.70916 67.1628 10.5057V15.3763H75.8489V10.5057C75.8489 9.70916 75.3858 9.38992 74.652 9.2303V8.81656C75.0188 8.81656 76.6578 8.87929 77.1031 8.87929C77.4877 8.87929 79.1169 8.81656 79.48 8.81656V9.2303C78.7764 9.38992 78.255 9.70916 78.255 10.5057V22.1653C78.255 22.9308 78.7445 23.2519 79.48 23.4433V23.825C79.1169 23.825 77.4877 23.7935 77.1031 23.7935C76.6578 23.7935 75.0188 23.825 74.652 23.825V23.4433C75.3506 23.2826 75.8489 22.9626 75.8489 22.1653V16.655H67.1628V22.1653C67.1628 22.9626 67.6514 23.2519 68.387 23.4433V23.825C68.02 23.825 66.3513 23.7935 65.905 23.7935C65.5178 23.7935 63.9258 23.825 63.5562 23.825V23.4433Z" fill="#9D9DAB"/>
<path d="M164.027 23.4433C164.929 23.2827 165.425 22.9247 165.425 22.1018V10.5057C165.425 9.70658 164.936 9.38993 164.065 9.23031V8.81657C164.566 8.81657 166.2 8.8793 166.652 8.8793C167.383 8.8793 169.42 8.71968 171.006 8.71968C176.349 8.71968 179.593 11.7036 179.593 16.2407C179.593 20.6508 176.218 23.9187 170.709 23.9187C169.12 23.9187 167.236 23.7935 166.499 23.7935C166.051 23.7935 164.527 23.8568 164.027 23.8568V23.4433ZM167.832 22.6749C168.376 22.7738 169.381 22.8356 170.174 22.8356C174.663 22.8356 176.999 20.134 176.999 16.366C176.999 12.4595 174.534 9.71097 170.337 9.71097C169.48 9.71097 168.409 9.7753 167.832 9.869V22.6749Z" fill="#9D9DAB"/>
<path d="M103.546 22.0594C103.546 22.8321 104.036 23.2518 104.936 23.4432V23.857C104.434 23.857 102.8 23.7934 102.33 23.7934C101.933 23.7934 100.329 23.857 99.8285 23.857V23.4432C100.665 23.2828 101.158 22.8665 101.158 22.0594V10.5464C101.158 9.83799 100.775 9.39009 99.8301 9.23026V8.81653C100.332 8.81653 101.916 8.87926 102.361 8.87926C103.095 8.87926 105.179 8.75679 106.001 8.75679C109.594 8.75679 111.595 10.2429 111.595 12.7849C111.595 14.7889 110.102 16.1374 107.812 16.694C107.812 16.694 108.331 16.9966 108.854 17.6059C109.488 18.3513 111.238 20.8563 111.946 21.7144C112.653 22.5736 113.561 23.5331 114.531 23.5773V23.9153C114.066 24.0156 113.322 24.1013 112.753 24.1013C111.528 24.1013 110.555 23.6726 109.608 22.5259C108.792 21.531 107.365 19.4159 106.548 18.3717C106.026 17.7064 105.396 17.188 104.24 16.9966C104.012 16.9577 103.798 16.9277 103.546 16.8995V22.0594ZM103.546 15.9444C104.022 16.0069 104.724 16.0387 105.421 16.0387C108.231 16.0387 109.114 14.4211 109.114 12.9921C109.114 10.9627 107.763 9.71093 105.301 9.71093C104.794 9.71093 104.055 9.77546 103.546 9.86895V15.9444Z" fill="#9D9DAB"/>
<path d="M150.907 22.0594C150.907 22.8321 151.399 23.2518 152.3 23.4432V23.857C151.799 23.857 150.166 23.7934 149.696 23.7934C149.292 23.7934 147.694 23.857 147.191 23.857V23.4432C148.026 23.2828 148.52 22.8665 148.52 22.0594V10.5464C148.52 9.83799 148.133 9.39009 147.194 9.23026V8.81653C147.698 8.81653 149.276 8.87926 149.725 8.87926C150.461 8.87926 152.543 8.75679 153.36 8.75679C156.96 8.75679 158.954 10.2429 158.954 12.7849C158.954 14.7889 157.465 16.1374 155.173 16.694C155.173 16.694 155.695 16.9966 156.214 17.6059C156.854 18.3513 158.604 20.8563 159.308 21.7144C160.019 22.5736 160.926 23.5331 161.891 23.5773V23.9153C161.433 24.0156 160.684 24.1013 160.121 24.1013C158.893 24.1013 157.916 23.6726 156.972 22.5259C156.156 21.531 154.733 19.4159 153.909 18.3717C153.386 17.7064 152.759 17.188 151.605 16.9966C151.374 16.9577 151.162 16.9277 150.907 16.8995V22.0594ZM150.907 15.9444C151.389 16.0069 152.087 16.0387 152.785 16.0387C155.596 16.0387 156.476 14.4211 156.476 12.9921C156.476 10.9627 155.124 9.71093 152.667 9.71093C152.155 9.71093 151.42 9.77546 150.907 9.86895V15.9444Z" fill="#9D9DAB"/>
<path d="M81.7655 23.4405C82.7162 23.2184 83.2384 22.6027 83.5851 21.7788L88.3957 10.2041C88.6003 9.72521 88.8384 8.74071 88.8384 8.74071H90.1845C90.1845 8.74071 90.4252 9.72781 90.6254 10.2077L95.7093 21.8106C96.0719 22.6097 96.4643 23.1866 97.4752 23.4405L97.4726 23.8261C96.9222 23.8261 95.2111 23.7943 94.8219 23.7943C94.4348 23.7943 92.8004 23.8261 92.251 23.8261L92.2528 23.4405C92.9928 23.2589 93.2265 22.8824 93.2265 22.518C93.2265 22.2085 93.0987 21.8591 92.9434 21.4967L91.8504 19.0039H86.2487L85.2478 21.5107C85.1357 21.7948 85.0025 22.1961 85.0025 22.4668C85.0025 22.885 85.2212 23.2184 86.0609 23.4405L86.0591 23.8261C85.5617 23.8261 84.2483 23.7943 83.9407 23.7943L81.7647 23.8261L81.7655 23.4405ZM91.3434 17.822L88.9513 12.2486L86.7234 17.822H91.3434Z" fill="#9D9DAB"/>
<path d="M129.424 23.4405C130.374 23.2184 130.898 22.6027 131.243 21.7788L136.055 10.2041C136.26 9.72521 136.5 8.74071 136.5 8.74071H137.846C137.846 8.74071 138.085 9.72781 138.284 10.2077L143.37 21.8106C143.729 22.6097 144.125 23.1866 145.132 23.4405L145.13 23.8261C144.581 23.8261 142.869 23.7943 142.477 23.7943C142.093 23.7943 140.46 23.8261 139.909 23.8261V23.4405C140.654 23.2589 140.884 22.8824 140.884 22.518C140.884 22.2085 140.758 21.8591 140.605 21.4967L139.508 19.0039H133.906L132.904 21.5107C132.792 21.7948 132.66 22.1961 132.66 22.4668C132.66 22.885 132.879 23.2184 133.718 23.4405V23.8261C133.219 23.8261 131.908 23.7943 131.598 23.7943L129.422 23.8261L129.424 23.4405ZM139.002 17.822L136.608 12.2486L134.382 17.822H139.002Z" fill="#9D9DAB"/>
<path d="M19.1427 4.13666H52.6844V16.8069C52.6844 22.6123 50.5234 34.9236 36.0387 44.0862C36.0387 44.0862 20.344 37.5317 19.1427 16.8069L19.1427 4.13666Z" fill="#9D9DAB"/>
<path d="M19.074 4.10308H52.6482V16.7822C52.6482 22.5895 50.4846 34.9076 35.9868 44.0764C35.9868 44.0764 20.2771 37.5177 19.074 16.7822L19.074 4.10308Z" stroke="#9494A4" stroke-width="0.306667"/>
<path d="M44.53 20.418C44.53 20.418 44.231 21.3713 42.901 20.3914L38.3347 20.2811C38.3347 20.2811 37.7368 20.4735 37.6555 19.848C37.6555 19.848 37.765 18.5984 37.7094 18.4889C37.7094 18.4889 37.7368 18.1361 37.1369 18.1361C37.1369 18.1361 36.2143 18.2446 36.1869 17.4279C36.1869 17.4279 36.0257 16.5582 37.3019 16.5872C37.3019 16.5872 37.7094 16.7768 37.7368 16.2592C37.7368 16.2592 37.6831 12.7249 37.7094 12.455C37.7094 12.455 37.8187 12.1304 37.1924 12.0748C37.1924 12.0748 36.2964 12.2644 36.1869 11.6683C36.1869 11.6683 36.1332 10.7713 36.7321 10.7158C36.7321 10.7158 37.4651 10.7713 37.6007 10.5799C37.6007 10.5799 37.765 10.6874 37.7368 10.0383L37.765 8.92155C37.765 8.92155 37.8435 8.62349 38.3066 8.65265C38.3066 8.65265 39.1496 8.70639 39.2599 8.62349C39.2599 8.62349 39.4479 8.38016 39.5034 8.26968C39.5034 8.26968 39.9391 8.24331 40.0194 8.35259C40.0194 8.35259 40.6721 8.7875 43.1452 8.62349C43.1452 8.62349 43.5263 8.62349 43.6057 8.73296C43.6057 8.73296 44.0695 9.08557 44.3404 8.70639C44.3404 8.70639 44.748 8.62349 45.9704 8.65265C45.9704 8.65265 47.3039 9.00446 48.2257 8.24331L48.5256 8.29805C48.5256 8.29805 48.9058 8.92155 49.1775 8.73296C49.1775 8.73296 49.9933 8.65265 50.1282 8.81487C50.1282 8.81487 50.3991 9.21982 50.264 10.2834C50.264 10.2834 50.1028 10.7439 50.8903 10.7439C50.8903 10.7439 51.7883 10.5799 51.6779 11.4222C51.6779 11.4222 51.9222 12.3739 50.4291 12.2389C50.4291 12.2389 50.2377 12.5106 50.264 12.7011C50.264 12.7011 50.2377 15.7979 50.2103 16.1533C50.2103 16.1533 50.1837 16.643 50.8348 16.6146C50.8348 16.6146 51.7054 16.5582 51.7344 17.3476C51.7344 17.3476 51.8421 18.3804 50.5905 18.189C50.5905 18.189 50.2103 18.2446 50.1538 18.4889L50.1028 19.848C50.1028 19.848 50.1282 20.5272 49.3688 20.3632C49.2604 20.3632 45.1298 20.4471 44.7754 20.3386C44.7754 20.3386 44.583 20.3113 44.53 20.418Z" fill="white"/>
<path d="M35.7513 24.9604C35.7513 24.9604 35.9419 24.88 35.9956 24.746C35.9956 24.746 36.5672 24.6903 36.6473 24.6093L38.4423 24.746C38.4423 24.746 40.2081 24.88 40.9693 24.3341C40.9693 24.3341 41.2428 24.3341 41.4332 24.417C41.4332 24.417 41.8116 24.4999 41.92 24.6605L42.9539 24.6331C42.9539 24.6331 43.5518 24.8253 43.4963 25.2063V25.6941C43.4963 25.6941 43.387 26.6732 43.6587 26.7288H44.4488C44.4488 26.7288 45.1017 27.0271 45.0196 27.407C45.0196 27.407 45.047 27.9486 44.4772 28.0589C44.4772 28.0589 43.9038 28.2211 43.7158 28.1955C43.7158 28.1955 43.5245 28.4391 43.4963 28.7379L43.417 32.2988C43.417 32.2988 43.3614 32.679 43.933 32.625C43.933 32.625 44.7735 32.5431 45.0196 33.007C45.0196 33.007 45.2373 33.7937 44.8026 33.9296L44.4772 34.091L43.7688 34.2041C43.7688 34.2041 43.4717 34.2286 43.4433 34.7447V35.6944C43.4433 35.6944 43.4717 36.3491 42.9539 36.3491L42.1927 36.4036C42.1927 36.4036 42.0029 36.5642 41.623 36.4557C41.623 36.4557 37.0019 36.5395 36.8387 36.4841L36.2947 36.5942C36.2947 36.5942 35.6974 37.1376 35.2079 36.7282L34.8277 36.4292C34.8277 36.4292 34.5552 36.4841 34.4486 36.4557C34.3393 36.4292 29.3381 36.5113 29.3381 36.5113C29.3381 36.5113 28.2778 36.6216 28.1975 36.2662C28.1975 36.2662 28.0619 34.8813 28.1156 34.7155C28.1156 34.7155 28.1156 34.3097 27.8713 34.2834C27.8713 34.2834 26.8111 34.2286 26.7837 34.1184C26.7837 34.1184 26.2121 33.7128 26.3754 33.3059C26.3754 33.3059 26.5667 32.7601 27.1365 32.7061C27.1365 32.7061 28.0061 32.8438 28.0061 32.5986C28.0061 32.5986 28.0619 32.4354 28.0619 32.1647C28.0619 32.1647 28.1156 28.9285 28.0882 28.7116C28.0882 28.7116 28.1694 28.304 27.8157 28.304C27.8157 28.304 27.4356 28.4117 27.192 28.2495C27.192 28.2495 26.5394 28.2769 26.4035 27.7598C26.4035 27.7598 26.2942 27.4344 26.4565 27.1601C26.4565 27.1601 26.7565 26.563 27.6262 26.7542C27.6262 26.7542 28.1156 26.891 28.1694 26.539L28.1438 25.2318C28.1438 25.2318 28.0335 24.88 28.7135 24.6903C28.7135 24.6903 29.5832 24.9338 29.8541 24.4999C29.8541 24.4999 30.1539 23.8999 30.3957 24.3077C30.3957 24.3077 30.9143 24.7981 32.3273 24.746C32.3273 24.746 34.774 24.5538 34.8277 24.6605C34.8277 24.6605 35.4259 24.746 35.5881 24.9338L35.7513 24.9604Z" fill="white"/>
<path d="M28.3626 20.4179C28.3626 20.4179 28.0627 21.3713 26.731 20.3906L22.1655 20.2811C22.1655 20.2811 21.5675 20.4735 21.4854 19.8474C21.4854 19.8474 21.5949 18.5984 21.5384 18.4889C21.5384 18.4889 21.5675 18.1343 20.9686 18.1343C20.9686 18.1343 20.046 18.2454 20.0195 17.4297C20.0195 17.4297 19.8554 16.5572 21.1326 16.5872C21.1326 16.5872 21.5384 16.7768 21.5675 16.2602C21.5675 16.2602 21.5128 12.7275 21.5384 12.4542C21.5384 12.4542 21.6494 12.1314 21.0241 12.0756C21.0241 12.0756 20.1261 12.2644 20.0195 11.6665C20.0195 11.6665 19.9639 10.7713 20.5611 10.7157C20.5611 10.7157 21.295 10.7713 21.4317 10.5833C21.4317 10.5833 21.5949 10.6884 21.5675 10.0355L21.5949 8.92254C21.5949 8.92254 21.6768 8.62347 22.1363 8.65084C22.1363 8.65084 22.9814 8.70458 23.0906 8.62347C23.0906 8.62347 23.2804 8.38014 23.3324 8.26967C23.3324 8.26967 23.7699 8.24409 23.851 8.34998C23.851 8.34998 24.5019 8.78749 26.9777 8.62347C26.9777 8.62347 27.3561 8.62347 27.4382 8.73295C27.4382 8.73295 27.8995 9.08556 28.1712 8.70458C28.1712 8.70458 28.5787 8.62347 29.8028 8.65084C29.8028 8.65084 31.1321 9.00365 32.0574 8.24409L32.3555 8.29983C32.3555 8.29983 32.7357 8.92254 33.01 8.73295C33.01 8.73295 33.8241 8.65084 33.9607 8.81486C33.9607 8.81486 34.2332 9.22241 34.0948 10.2834C34.0948 10.2834 33.9334 10.7447 34.7211 10.7447C34.7211 10.7447 35.6171 10.5833 35.5096 11.4222C35.5096 11.4222 35.7547 12.3739 34.2598 12.2388C34.2598 12.2388 34.0684 12.5113 34.0948 12.7011C34.0948 12.7011 34.0684 15.7979 34.0418 16.1533C34.0418 16.1533 34.0155 16.6393 34.6673 16.6146C34.6673 16.6146 35.537 16.5572 35.5633 17.3486C35.5633 17.3486 35.6718 18.3804 34.4228 18.189C34.4228 18.189 34.0418 18.2454 33.9863 18.4889L33.9334 19.8474C33.9334 19.8474 33.9607 20.5272 33.1978 20.365C33.0893 20.365 28.9607 20.4453 28.6059 20.3386C28.6059 20.3386 28.4163 20.3113 28.3626 20.4179Z" fill="white"/>
<path d="M44.53 20.418C44.53 20.418 44.231 21.3713 42.901 20.3914L38.3347 20.2811C38.3347 20.2811 37.7368 20.4735 37.6555 19.848C37.6555 19.848 37.765 18.5984 37.7094 18.4889C37.7094 18.4889 37.7368 18.1361 37.1369 18.1361C37.1369 18.1361 36.2143 18.2446 36.1869 17.4279C36.1869 17.4279 36.0257 16.5582 37.3019 16.5872C37.3019 16.5872 37.7094 16.7768 37.7368 16.2592C37.7368 16.2592 37.6831 12.7249 37.7094 12.455C37.7094 12.455 37.8187 12.1304 37.1924 12.0748C37.1924 12.0748 36.2964 12.2644 36.1869 11.6683C36.1869 11.6683 36.1332 10.7713 36.7321 10.7158C36.7321 10.7158 37.4651 10.7713 37.6007 10.5799C37.6007 10.5799 37.765 10.6874 37.7368 10.0383L37.765 8.92155C37.765 8.92155 37.8435 8.62349 38.3066 8.65265C38.3066 8.65265 39.1496 8.70639 39.2599 8.62349C39.2599 8.62349 39.4479 8.38016 39.5034 8.26968C39.5034 8.26968 39.9391 8.24331 40.0194 8.35259C40.0194 8.35259 40.6721 8.7875 43.1452 8.62349C43.1452 8.62349 43.5263 8.62349 43.6057 8.73296C43.6057 8.73296 44.0695 9.08557 44.3404 8.70639C44.3404 8.70639 44.748 8.62349 45.9704 8.65265C45.9704 8.65265 47.3039 9.00446 48.2257 8.24331L48.5256 8.29805C48.5256 8.29805 48.9058 8.92155 49.1775 8.73296C49.1775 8.73296 49.9933 8.65265 50.1282 8.81487C50.1282 8.81487 50.3991 9.21982 50.264 10.2834C50.264 10.2834 50.1028 10.7439 50.8903 10.7439C50.8903 10.7439 51.7883 10.5799 51.6779 11.4222C51.6779 11.4222 51.9222 12.3739 50.4291 12.2389C50.4291 12.2389 50.2377 12.5106 50.264 12.7011C50.264 12.7011 50.2377 15.7979 50.2103 16.1533C50.2103 16.1533 50.1837 16.643 50.8348 16.6146C50.8348 16.6146 51.7054 16.5582 51.7344 17.3476C51.7344 17.3476 51.8421 18.3804 50.5905 18.189C50.5905 18.189 50.2103 18.2446 50.1538 18.4889L50.1028 19.848C50.1028 19.848 50.1282 20.5272 49.3688 20.3632C49.2604 20.3632 45.1298 20.4471 44.7754 20.3386C44.7754 20.3386 44.583 20.3113 44.53 20.418Z" fill="#9494A4"/>
<path d="M44.53 20.4187C44.53 20.4187 44.231 21.3723 42.901 20.3923L38.3337 20.2821C38.3337 20.2821 37.7358 20.4743 37.6547 19.8482C37.6547 19.8482 37.765 18.5983 37.7084 18.4889C37.7084 18.4889 37.7358 18.1361 37.1369 18.1361C37.1369 18.1361 36.2135 18.2455 36.1861 17.4287C36.1861 17.4287 36.0247 16.559 37.3009 16.5872C37.3009 16.5872 37.7084 16.777 37.7358 16.2602C37.7358 16.2602 37.682 12.7257 37.7084 12.455C37.7084 12.455 37.8187 12.1296 37.1924 12.0748C37.1924 12.0748 36.2954 12.2646 36.1861 11.6683C36.1861 11.6683 36.1332 10.7703 36.7311 10.7157C36.7311 10.7157 37.4641 10.7703 37.6001 10.5799C37.6001 10.5799 37.765 10.6874 37.7358 10.0373L37.765 8.92073C37.765 8.92073 37.8425 8.62266 38.3074 8.65182C38.3074 8.65182 39.1496 8.70556 39.2591 8.62266C39.2591 8.62266 39.4471 8.38013 39.5034 8.26965C39.5034 8.26965 39.9383 8.24248 40.0194 8.35196C40.0194 8.35196 40.6713 8.78667 43.1452 8.62266C43.1452 8.62266 43.5263 8.62266 43.6057 8.73194C43.6057 8.73194 44.0695 9.08474 44.3404 8.70557C44.3404 8.70557 44.748 8.62266 45.9704 8.65182C45.9704 8.65182 47.3039 9.00363 48.2265 8.24248L48.5266 8.29622C48.5266 8.29622 48.9065 8.92073 49.1774 8.73194C49.1774 8.73194 49.9933 8.65183 50.1282 8.81305C50.1282 8.81305 50.3999 9.21979 50.265 10.2816C50.265 10.2816 50.1028 10.7439 50.8911 10.7439C50.8911 10.7439 51.7883 10.5799 51.6779 11.4213C51.6779 11.4213 51.9222 12.3739 50.4291 12.238C50.4291 12.238 50.2385 12.5097 50.265 12.7011C50.265 12.7011 50.2385 15.7979 50.2111 16.1525C50.2111 16.1525 50.1837 16.6419 50.8356 16.6156C50.8356 16.6156 51.707 16.559 51.7352 17.3475C51.7352 17.3475 51.8421 18.3804 50.5913 18.189C50.5913 18.189 50.2111 18.2455 50.1548 18.4889L50.1028 19.8482C50.1028 19.8482 50.1282 20.5282 49.3698 20.3642C49.2614 20.3642 45.1298 20.4471 44.7753 20.3386C44.7753 20.3386 44.583 20.312 44.53 20.4187Z" stroke="#9494A4" stroke-width="0.0133333"/>
<path d="M39.394 9.22063C39.394 9.22063 39.4478 9.76483 39.4478 9.90247C39.4478 10.0373 39.3677 17.7551 39.3677 17.7551C39.3677 17.7551 39.4478 18.3531 38.9336 18.6529C38.9336 18.6529 38.7959 18.7059 38.7703 18.3257L38.8235 10.175C38.8235 10.175 38.878 9.16669 39.394 9.22063Z" fill="white"/>
<path d="M39.3949 9.21976C39.3949 9.21976 39.4479 9.76395 39.4479 9.9016C39.4479 10.0372 39.3685 17.7561 39.3685 17.7561C39.3685 17.7561 39.4479 18.354 38.9336 18.6529C38.9336 18.6529 38.796 18.7068 38.7686 18.3266L38.8234 10.1741C38.8234 10.1741 38.8771 9.16582 39.3949 9.21976V9.21976Z" stroke="#9494A4" stroke-width="0.016"/>
<path d="M38.4979 18.7333C38.4979 18.7333 38.5518 11.0694 38.5262 10.9336C38.4979 10.7995 38.5518 11.0446 38.5518 11.0446C38.5518 11.0446 38.4705 9.71093 38.8243 9.16593C38.8243 9.16593 38.714 8.70645 38.0895 9.27621L38.0621 10.3892C38.0621 10.3892 38.0621 11.0155 37.4924 10.9881C37.4924 10.9881 36.8397 10.9599 36.5406 11.259C36.5406 11.259 36.3776 11.8577 37.0019 11.7503C37.0019 11.7503 37.981 11.7503 38.0358 12.155L37.981 16.26C37.981 16.26 38.1988 16.9427 37.4386 16.9427C37.4386 16.9427 36.5117 16.8845 36.5406 17.4553C36.5406 17.4553 36.732 17.9438 37.5198 17.7823C37.5198 17.7823 38.0895 17.889 38.0621 18.435V19.4671C38.0621 19.4671 38.0074 19.8772 38.5518 19.9028H42.7915C42.7915 19.9028 43.0076 19.9291 43.0076 19.6574C43.0076 19.6574 42.9813 19.4407 42.6556 19.4407L39.1232 19.386C39.1232 19.386 38.5518 19.5773 38.4979 18.7333Z" fill="white"/>
<path d="M39.3138 18.7209C39.3138 18.7209 39.2045 19.1011 39.6118 19.0216H42.4115L43.1709 19.1866C43.1709 19.1866 43.9586 18.9944 43.1709 18.5603C43.1709 18.5603 40.6712 18.5851 40.4543 18.5321C40.4543 18.5321 39.9375 18.3971 39.8262 18.3699C39.8262 18.3699 39.5573 18.2614 39.3138 18.7209Z" fill="white"/>
<path d="M39.3129 18.7209C39.3129 18.7209 39.2036 19.1019 39.6109 19.0226H42.4114L43.171 19.1874C43.171 19.1874 43.9593 18.9944 43.171 18.5595C43.171 18.5595 40.6712 18.584 40.4532 18.5321C40.4532 18.5321 39.9366 18.3963 39.8263 18.3689C39.8263 18.3689 39.5564 18.2604 39.3129 18.7209Z" stroke="#9494A4" stroke-width="0.016"/>
<path d="M43.9593 19.1019C43.9593 19.1019 43.4433 19.1019 43.4699 19.7828C43.4699 19.7828 43.5244 20.297 44.0678 20.297C44.0678 20.297 44.5555 20.2169 44.5035 19.6735C44.5035 19.6735 44.2037 18.9942 43.9593 19.1019Z" fill="white"/>
<path d="M44.3404 18.8311C44.3404 18.8311 44.5847 18.5604 44.7487 18.5604C44.7487 18.5604 47.4663 18.8038 47.925 18.4783C47.925 18.4783 48.3351 18.3972 48.4444 18.4783C48.4444 18.4783 48.8511 18.8038 48.8511 18.9944C48.8511 18.9944 48.8246 19.2403 48.3351 19.101C48.3351 19.101 45.2639 19.131 45.1007 19.131C45.1007 19.131 44.2567 19.3198 44.3404 18.8311Z" fill="white"/>
<path d="M44.3395 18.8311C44.3395 18.8311 44.5838 18.5594 44.7478 18.5594C44.7478 18.5594 47.4662 18.803 47.9259 18.4773C47.9259 18.4773 48.3358 18.3962 48.4453 18.4773C48.4453 18.4773 48.8519 18.803 48.8519 18.9952C48.8519 18.9952 48.8255 19.2413 48.3358 19.1018C48.3358 19.1018 45.2631 19.1318 45.0998 19.1318C45.0998 19.1318 44.2558 19.3206 44.3395 18.8311V18.8311Z" stroke="#9494A4" stroke-width="0.016"/>
<path d="M44.6932 19.7123C44.6932 19.7123 44.6932 19.4925 45.0742 19.4925L48.8775 19.4661C48.8775 19.4661 49.2321 19.6567 49.2321 19.0057C49.2321 19.0057 49.3714 16.0432 49.3838 12.7814C49.3882 11.8103 49.4323 10.7916 49.398 9.84766C49.398 9.84766 49.3132 9.43931 49.204 9.3564C49.204 9.3564 49.204 8.92249 49.6669 9.0857C49.6669 9.0857 50.0744 9.11307 49.9659 9.74017L49.9941 10.6873C49.9941 10.6873 49.9122 11.0975 50.6442 10.9874C50.6442 10.9874 51.3771 11.0975 51.4063 11.3674C51.4063 11.3674 51.6233 11.9134 50.7552 11.8578H50.1273C50.1273 11.8578 49.8566 12.0202 49.9378 12.3475L49.8566 16.2891C49.8566 16.2891 49.8019 16.9673 50.4546 16.9418C50.4546 16.9418 51.1328 16.9136 51.2695 17.1315C51.2695 17.1315 51.7343 17.8106 50.7271 17.756C50.7271 17.756 50.1018 17.7277 49.9659 17.838C49.9659 17.838 49.8566 17.9728 49.7753 19.2518C49.7753 19.2518 49.8309 20.0129 49.2593 19.9292C49.2593 19.9292 45.4809 19.983 45.1281 19.9029C45.1281 19.9029 44.7479 20.0129 44.6932 19.7123" fill="white"/>
<path d="M39.8024 8.97365L39.7203 17.7003C39.7203 17.7003 39.6939 18.1053 40.3731 18.1872C40.3731 18.1872 41.1607 18.2683 41.3494 18.1872C41.3494 18.1872 41.8691 18.159 43.1982 18.2146C43.1982 18.2146 43.5262 18.5436 43.5536 18.1327C43.5536 18.1327 43.7688 11.0693 43.6631 9.59816C43.6631 9.59816 43.6331 8.97365 43.1726 8.94628C43.1726 8.94628 41.1069 9.1131 40.9165 8.94628L40.1006 8.73112C40.1006 8.73112 39.7742 8.75749 39.8024 8.97365Z" fill="white"/>
<path d="M44.0952 9.41028C44.0952 9.41028 44.0141 13.5143 44.0413 13.6502L43.9876 17.1007L43.8773 18.2976C43.8773 18.2976 44.0413 18.5417 44.1774 18.3795C44.1774 18.3795 45.047 18.1589 45.5902 18.2446C45.5902 18.2446 47.3314 18.4061 47.6832 18.1326C47.6832 18.1326 47.9557 18.2684 48.0353 17.8335C48.0353 17.8335 48.1427 10.2262 48.0926 10.0903C48.0926 10.0903 48.1975 9.00014 48.1427 8.89426C48.1427 8.89426 48.119 8.64993 47.6559 8.86609C47.6559 8.86609 47.7088 9.08485 45.1289 9.00014C45.1289 9.00014 44.1508 8.97357 44.0952 9.41028Z" fill="white"/>
<path d="M48.418 9.30268L48.3916 17.8891C48.3916 17.8891 48.6086 18.6529 48.9614 18.5728C48.9614 18.5728 49.0143 18.4077 49.0407 18.136L49.151 9.95455C49.151 9.95455 48.8775 8.6526 48.418 9.30268Z" fill="white"/>
<path d="M48.4171 9.3018L48.3907 17.89C48.3907 17.89 48.6085 18.654 48.9613 18.5737C48.9613 18.5737 49.0152 18.4087 49.0416 18.137L49.1509 9.95367C49.1509 9.95367 48.8776 8.65173 48.4171 9.3018Z" stroke="#9494A4" stroke-width="0.016"/>
<path d="M45.0804 11.8737C44.9993 11.6568 45.5425 11.6294 45.5425 11.6294L45.8152 11.6831C46.0057 11.6568 46.1961 11.7387 46.1961 11.7387C46.3859 12.037 46.0595 12.1992 46.0595 12.1992L45.951 12.5538C45.9228 12.8536 45.951 15.4354 45.951 15.4354C46.0057 15.5694 46.2227 15.8129 46.2227 15.8129C46.2227 16.0589 45.9228 16.0051 45.9228 16.0051L45.1359 16.0325C44.8908 16.0051 44.9719 15.7324 44.9719 15.7324C45.2436 15.5968 45.3257 15.1063 45.3257 15.1063V12.4171L45.0804 11.8737Z" fill="#9494A4"/>
<path d="M41.4121 14.4016L41.3583 15.2438L41.6009 15.6506C41.7659 15.8675 41.4932 16.0326 41.4932 16.0326L40.6236 15.9513C40.4621 15.8675 40.6236 15.5966 40.6236 15.5966C40.8415 15.4628 40.8687 15.1072 40.8687 15.1072L40.8415 13.5311L40.8687 12.3898C40.8687 12.253 40.6517 12.0104 40.6517 12.0104C40.4621 11.9831 40.5159 11.7387 40.5159 11.7387C40.5698 11.6021 41.0301 11.6832 41.0301 11.6832H42.1732C43.2608 12.037 43.0976 12.8253 43.0976 12.8253C43.1797 13.6123 42.3373 13.9403 42.3373 13.9403L42.2809 14.3752L43.0702 15.6232C43.2061 15.7325 43.1797 15.8428 43.1797 15.8428C43.0702 16.1418 42.6345 15.8428 42.6345 15.8428L41.6574 14.3197C41.5753 14.2102 41.4121 14.4016 41.4121 14.4016ZM41.4395 12.253C41.4658 12.8527 41.4658 13.6678 41.4658 13.6678C41.9836 14.0761 42.2809 13.5038 42.2809 13.5038C42.9592 12.8527 42.2809 12.253 42.1732 12.0916C42.063 11.9275 41.5198 12.0634 41.5198 12.0634L41.4395 12.253Z" fill="#9494A4"/>
<path d="M35.7513 24.9604C35.7513 24.9604 35.9419 24.88 35.9956 24.746C35.9956 24.746 36.5672 24.6903 36.6473 24.6093L38.4423 24.746C38.4423 24.746 40.2081 24.88 40.9693 24.3341C40.9693 24.3341 41.2428 24.3341 41.4332 24.417C41.4332 24.417 41.8116 24.4999 41.92 24.6605L42.9539 24.6331C42.9539 24.6331 43.5518 24.8253 43.4963 25.2063V25.6941C43.4963 25.6941 43.387 26.6732 43.6587 26.7288H44.4488C44.4488 26.7288 45.1017 27.0271 45.0196 27.407C45.0196 27.407 45.047 27.9486 44.4772 28.0589C44.4772 28.0589 43.9038 28.2211 43.7158 28.1955C43.7158 28.1955 43.5245 28.4391 43.4963 28.7379L43.417 32.2988C43.417 32.2988 43.3614 32.679 43.933 32.625C43.933 32.625 44.7735 32.5431 45.0196 33.007C45.0196 33.007 45.2373 33.7937 44.8026 33.9296L44.4772 34.091L43.7688 34.2041C43.7688 34.2041 43.4717 34.2286 43.4433 34.7447V35.6944C43.4433 35.6944 43.4717 36.3491 42.9539 36.3491L42.1927 36.4036C42.1927 36.4036 42.0029 36.5642 41.623 36.4557C41.623 36.4557 37.0019 36.5395 36.8387 36.4841L36.2947 36.5942C36.2947 36.5942 35.6974 37.1376 35.2079 36.7282L34.8277 36.4292C34.8277 36.4292 34.5552 36.4841 34.4486 36.4557C34.3393 36.4292 29.3381 36.5113 29.3381 36.5113C29.3381 36.5113 28.2778 36.6216 28.1975 36.2662C28.1975 36.2662 28.0619 34.8813 28.1156 34.7155C28.1156 34.7155 28.1156 34.3097 27.8713 34.2834C27.8713 34.2834 26.8111 34.2286 26.7837 34.1184C26.7837 34.1184 26.2121 33.7128 26.3754 33.3059C26.3754 33.3059 26.5667 32.7601 27.1365 32.7061C27.1365 32.7061 28.0061 32.8438 28.0061 32.5986C28.0061 32.5986 28.0619 32.4354 28.0619 32.1647C28.0619 32.1647 28.1156 28.9285 28.0882 28.7116C28.0882 28.7116 28.1694 28.304 27.8157 28.304C27.8157 28.304 27.4356 28.4117 27.192 28.2495C27.192 28.2495 26.5394 28.2769 26.4035 27.7598C26.4035 27.7598 26.2942 27.4344 26.4565 27.1601C26.4565 27.1601 26.7565 26.563 27.6262 26.7542C27.6262 26.7542 28.1156 26.891 28.1694 26.539L28.1438 25.2318C28.1438 25.2318 28.0335 24.88 28.7135 24.6903C28.7135 24.6903 29.5832 24.9338 29.8541 24.4999C29.8541 24.4999 30.1539 23.8999 30.3957 24.3077C30.3957 24.3077 30.9143 24.7981 32.3273 24.746C32.3273 24.746 34.774 24.5538 34.8277 24.6605C34.8277 24.6605 35.4259 24.746 35.5881 24.9338L35.7513 24.9604Z" fill="#9494A4"/>
<path d="M35.7513 24.9268C35.7513 24.9268 35.9399 24.8475 35.9956 24.7116C35.9956 24.7116 36.5662 24.6561 36.6473 24.5748L38.4415 24.7116C38.4415 24.7116 40.2082 24.8475 40.9693 24.3015C40.9693 24.3015 41.2428 24.3015 41.4332 24.3844C41.4332 24.3844 41.8126 24.4663 41.9192 24.6269L42.9547 24.6004C42.9547 24.6004 43.5518 24.7927 43.4963 25.1727V25.6616C43.4963 25.6616 43.3878 26.6405 43.6595 26.6944H44.4488C44.4488 26.6944 45.1007 26.9943 45.0204 27.3745C45.0204 27.3745 45.0478 27.9161 44.4772 28.0263C44.4772 28.0263 43.9048 28.1886 43.7168 28.162C43.7168 28.162 43.5255 28.4063 43.4963 28.7054L43.416 32.267C43.416 32.267 43.3614 32.6454 43.932 32.5924C43.932 32.5924 44.7735 32.5123 45.0204 32.9734C45.0204 32.9734 45.2384 33.7611 44.8034 33.8978L44.4772 34.0602L43.7688 34.1705C43.7688 34.1705 43.4707 34.1969 43.4443 34.7111V35.6646C43.4443 35.6646 43.4707 36.3163 42.9547 36.3163L42.1935 36.371C42.1935 36.371 42.003 36.5335 41.623 36.425C41.623 36.425 37.0019 36.5069 36.8387 36.4506L36.2937 36.5606C36.2937 36.5606 35.6974 37.1048 35.2079 36.6947L34.8269 36.3956C34.8269 36.3956 34.5552 36.4506 34.4478 36.425C34.3383 36.3956 29.3381 36.4795 29.3381 36.4795C29.3381 36.4795 28.277 36.589 28.1959 36.2344C28.1959 36.2344 28.0609 34.8477 28.1146 34.6837C28.1146 34.6837 28.1146 34.278 27.8695 34.2506C27.8695 34.2506 26.8103 34.1969 26.7821 34.0874C26.7821 34.0874 26.2113 33.6792 26.3744 33.2725C26.3744 33.2725 26.5657 32.7275 27.1365 32.6726C27.1365 32.6726 28.0053 32.8122 28.0053 32.5641C28.0053 32.5641 28.0609 32.4019 28.0609 32.132C28.0609 32.132 28.1146 28.896 28.0883 28.6788C28.0883 28.6788 28.1694 28.2697 27.8148 28.2697C27.8148 28.2697 27.4348 28.3781 27.1903 28.2167C27.1903 28.2167 26.5386 28.2433 26.4027 27.7273C26.4027 27.7273 26.2925 27.4018 26.4565 27.1283C26.4565 27.1283 26.7547 26.5302 27.6252 26.7208C27.6252 26.7208 28.1146 26.8584 28.1694 26.5056L28.142 25.1993C28.142 25.1993 28.0327 24.8475 28.7128 24.6561C28.7128 24.6561 29.5824 24.9012 29.8541 24.4663C29.8541 24.4663 30.1522 23.8676 30.3957 24.2733C30.3957 24.2733 30.9143 24.7638 32.3263 24.7116C32.3263 24.7116 34.774 24.5192 34.8269 24.6269C34.8269 24.6269 35.4259 24.7116 35.5881 24.9012L35.7513 24.9268Z" stroke="#9494A4" stroke-width="0.0133333"/>
<path d="M36.4577 35.6416C36.4577 35.6416 36.785 35.4766 37.0029 35.5331C37.2207 35.5871 40.3996 35.5066 40.3996 35.5066C40.3996 35.5066 41.7852 35.6142 42.004 35.4219L42.3276 35.3144C42.3276 35.3144 42.4643 35.1522 42.4643 34.936C42.4643 34.7164 42.4916 33.9825 42.4916 33.9825L42.5745 33.7128C42.5745 33.7128 42.5464 33.4409 42.5745 26.1827C42.5745 26.1827 42.6812 25.6148 42.3276 25.2594C42.3276 25.2594 42.3276 25.044 42.4361 25.0698C42.5464 25.0989 42.4916 25.0989 42.4916 25.0989C42.4916 25.0989 42.9803 24.9603 43.0606 25.1507C43.0606 25.1507 43.2802 25.8008 43.0888 26.1827C43.0888 26.1827 43.034 26.9721 43.4452 26.9721C43.4452 26.9721 43.6056 27.1363 43.932 27.0534C43.932 27.0534 44.6384 27.1363 44.6384 27.3514C44.6384 27.3514 44.6384 27.8427 44.149 27.7608L43.4955 27.8135C43.4955 27.8135 43.0606 27.8974 43.1161 28.4119C43.1717 28.9285 43.0888 32.625 43.0888 32.625C43.0888 32.625 43.0888 33.0617 43.7698 33.0343C43.7698 33.0343 44.6113 33.0061 44.6113 33.2495C44.6113 33.2495 44.828 33.7929 44.2311 33.8212C44.2311 33.8212 43.0888 33.7929 43.1717 34.1183C43.1717 34.1183 43.0888 34.8813 43.034 35.0153C43.034 35.0153 43.1453 35.6416 43.0069 35.7511C43.0069 35.7511 42.9265 36.1029 42.1936 36.0492C42.1936 36.0492 37.5198 36.0226 36.785 36.0765C36.785 36.0765 36.3493 36.0226 36.4577 35.6416Z" fill="white"/>
<path d="M35.6172 35.1256C35.6172 35.1256 36.0785 35.2059 36.0785 35.6416C36.0785 36.0755 36.1058 36.3207 35.8325 36.3746C35.5617 36.4291 35.2636 36.349 35.1833 35.996C35.0996 35.6416 35.2352 35.2059 35.6172 35.1256Z" fill="white"/>
<path d="M36.1596 34.9086C36.1596 34.9086 36.6483 34.5804 36.8387 34.6371C36.8387 34.6371 39.3111 34.7984 40.0741 34.6651C40.8342 34.5285 40.3722 34.6371 40.3722 34.6371C40.3722 34.6371 41.025 34.6371 41.2136 34.3908C41.2136 34.3908 41.405 34.3387 41.5135 34.5285L41.9192 34.965C41.9192 34.965 41.95 35.2341 41.4861 35.2067C41.4861 35.2067 37.0549 35.2067 36.9208 35.2341C36.9208 35.2341 36.0785 35.3681 36.1596 34.9086Z" fill="white"/>
<path d="M36.1588 34.9086C36.1588 34.9086 36.6474 34.5804 36.8378 34.6361C36.8378 34.6361 39.3121 34.7984 40.074 34.6651C40.8354 34.5277 40.3721 34.6361 40.3721 34.6361C40.3721 34.6361 41.0257 34.6361 41.2145 34.389C41.2145 34.389 41.4051 34.3381 41.5144 34.5277L41.9201 34.965C41.9201 34.965 41.9501 35.2351 41.487 35.2067C41.487 35.2067 37.0558 35.2067 36.9199 35.2351C36.9199 35.2351 36.0777 35.3691 36.1588 34.9086V34.9086Z" stroke="#9494A4" stroke-width="0.016"/>
<path d="M29.7191 25.2602C29.7191 25.2602 29.9097 25.2602 29.8822 25.5866L29.8268 33.7937C29.8268 33.7937 29.9097 34.3387 29.4475 34.6907C29.4475 34.6907 29.2013 34.9888 29.2013 34.5285L29.3124 26.1572C29.3124 26.1572 29.3382 25.5317 29.7191 25.2602Z" fill="white"/>
<path d="M29.7192 25.2594C29.7192 25.2594 29.9097 25.2594 29.884 25.5857L29.8268 33.7947C29.8268 33.7947 29.9097 34.3397 29.4467 34.6917C29.4467 34.6917 29.1995 34.9898 29.1995 34.5293L29.3108 26.1572C29.3108 26.1572 29.3372 25.5309 29.7192 25.2594Z" stroke="#9494A4" stroke-width="0.016"/>
<path d="M29.2843 25.3148C29.2843 25.3148 28.9579 25.9138 28.9852 26.0506L28.9579 27.8692C28.9579 27.8692 28.9305 29.0379 28.9579 29.1745C28.9852 29.3096 28.9305 32.7346 28.9305 32.7346C28.9305 32.7346 28.9033 33.3852 28.9305 33.604V35.071C28.9305 35.071 28.876 35.7244 29.3646 35.5586C29.3646 35.5586 34.1487 35.4511 34.4486 35.5338C34.4486 35.5338 34.8817 35.6144 34.721 35.8321C34.721 35.8321 34.721 36.0237 34.4194 35.968C34.4194 35.968 32.1641 36.1839 30.1266 36.1038C30.1266 36.1038 28.7675 36.1839 28.6846 36.0237C28.6846 36.0237 28.4684 35.9961 28.4684 35.2068C28.4684 35.2068 28.4684 34.4748 28.4155 34.3388C28.4155 34.3388 28.4684 33.9534 27.7894 33.8749C27.7894 33.8749 26.8384 34.0389 26.8111 33.4683C26.8111 33.4683 26.9461 33.0608 27.8713 33.1137C27.8713 33.1137 28.5505 33.223 28.4155 32.678L28.4958 28.6585C28.4958 28.6585 28.5795 27.9487 28.1156 27.9203C28.1156 27.9203 27.6825 27.8984 27.544 27.9487C27.544 27.9487 26.7565 27.9487 26.8111 27.49C26.8111 27.49 27.0828 26.9996 27.8713 27.1088C27.8713 27.1088 28.4684 27.2167 28.4958 26.5391C28.4958 26.5391 28.4684 25.1518 28.7938 25.0989C28.7938 25.0989 29.4749 25.1234 29.2843 25.3148Z" fill="white"/>
<path d="M30.0984 34.3097C30.0984 34.3097 30.4794 34.7154 31.1057 34.6917L34.7986 34.7446C34.7986 34.7446 35.2089 34.7736 35.1832 34.9887C35.1832 34.9887 35.125 35.3144 34.6382 35.2059L30.1803 35.1522L29.6901 35.1819C29.6901 35.1819 29.3636 35.1256 29.8823 34.5011L30.0984 34.3097Z" fill="white"/>
<path d="M30.0975 34.3089C30.0975 34.3089 30.4786 34.7155 31.1057 34.6907L34.7996 34.7446C34.7996 34.7446 35.2088 34.7728 35.1842 34.9888C35.1842 34.9888 35.1269 35.3152 34.64 35.2077L30.1796 35.1538L29.6891 35.1819C29.6891 35.1819 29.3637 35.1266 29.8813 34.5003L30.0975 34.3089Z" stroke="#9494A4" stroke-width="0.016"/>
<path d="M41.5135 33.9542C41.5135 33.9542 41.8398 34.5805 42.003 34.666C42.003 34.666 42.3021 35.0163 42.2209 34.3917L42.2747 26.5639C42.2747 26.5639 42.1926 26.2914 42.2747 25.8583L41.9492 25.2601C41.9492 25.2601 41.5946 24.9886 41.5946 25.4225L41.5409 33.7672L41.5135 33.9542Z" fill="white"/>
<path d="M41.5127 33.9552C41.5127 33.9552 41.8399 34.5805 42.0039 34.667C42.0039 34.667 42.303 35.018 42.2219 34.3919L42.2756 26.562C42.2756 26.562 42.1935 26.2913 42.2756 25.8582L41.9494 25.2595C41.9494 25.2595 41.5938 24.9886 41.5938 25.4225L41.54 33.768L41.5127 33.9552Z" stroke="#9494A4" stroke-width="0.016"/>
<path d="M35.4805 30.233C35.4805 30.233 35.5079 30.8831 35.425 31.5068C35.3808 31.8516 35.5351 33.4392 35.3976 34.2533C35.3976 34.2533 35.3728 34.5258 34.7995 34.2825C34.7995 34.2825 31.3217 34.3626 31.2133 34.2533C31.2133 34.2533 30.2625 34.2825 30.1804 33.792C30.1804 33.792 30.3163 30.069 30.2352 29.9305C30.2352 29.9305 30.1804 27.893 30.2352 27.7034C30.2352 27.7034 30.3163 25.8283 30.2625 25.6111C30.2625 25.6111 30.2899 25.1762 30.2078 24.9577C30.2078 24.9577 30.2078 24.686 30.6709 24.8484C30.6709 24.8484 30.8315 25.1482 31.7293 25.015C31.7293 25.015 32.3828 25.1227 33.0083 25.0406C33.0083 25.0406 34.3929 24.9321 34.7475 25.0406C34.7475 25.0406 35.2917 24.9321 35.4521 25.5318L35.425 27.2155L35.5872 27.7589L35.7786 27.6239L35.8589 27.2155L35.8863 25.4215C35.8863 25.4215 35.9947 25.0943 36.4313 25.0406C36.4313 25.0406 37.1105 24.9577 37.2208 25.015C37.3293 25.0671 38.7942 25.1482 39.2044 25.0671C39.6109 24.9858 39.6912 25.3386 40.9165 24.7151C40.9165 24.7151 41.2427 24.7425 41.2427 24.9577C41.2427 24.9577 41.1316 27.2713 41.2427 27.7034C41.2427 27.7034 41.2427 31.9425 41.158 32.2415L41.2135 33.6004C41.2135 33.6004 41.2675 34.1988 40.3183 34.2533C40.3183 34.2533 40.9165 34.3352 37.1634 34.2267C37.1634 34.2267 36.5663 34.1988 35.9144 34.4968C35.9144 34.4968 35.7786 34.4703 35.7786 34.1174C35.7786 34.1174 35.8863 32.8413 35.7786 31.5887L35.7258 30.2032L35.4805 30.233Z" fill="white"/>
<path d="M33.0337 28.3049C33.0337 28.3049 33.1158 30.3152 33.0337 30.5867L33.0082 31.0226C33.0082 31.0226 33.1158 31.3197 33.279 31.43C33.279 31.43 33.4157 31.8092 33.0885 31.7828C33.0885 31.7828 32.4102 31.728 32.247 31.7538C32.247 31.7538 31.865 31.7538 32.247 31.2676C32.247 31.2676 32.3828 31.0744 32.3547 30.5867C32.3547 30.5867 32.3547 28.3049 32.4102 28.17C32.4102 28.17 32.464 27.8691 32.2734 27.7872L31.9461 27.8154L31.5404 28.1956C31.5404 28.1956 31.4575 28.6049 31.2671 28.17V27.9505L31.5132 27.2986L31.6764 27.2702C31.6764 27.2702 31.9198 27.4336 32.1367 27.49H33.4157L33.877 27.2702C33.877 27.2702 34.0666 27.2986 34.0146 27.5429C34.0146 27.5429 34.0939 28.17 33.7411 28.2495C33.7411 28.2495 33.5234 28.17 33.4157 27.8691C33.4157 27.8691 33.0621 27.6806 33.0337 28.3049Z" fill="#9494A4"/>
<path d="M39.0395 27.5711C39.0395 27.5711 38.0084 27.489 37.9828 28.603C37.9828 28.603 37.8708 29.3659 39.0139 29.8556C39.0139 29.8556 39.8571 30.2613 39.8006 30.7773C39.8006 30.7773 39.6921 31.7017 38.7951 31.2402C38.7951 31.2402 38.3612 31.0215 38.3902 30.7773C38.3902 30.7773 38.2519 30.4775 38.0895 30.5328C38.0895 30.5328 37.8981 30.5859 37.9828 31.4837C37.9828 31.4837 37.9828 31.8374 38.3902 31.4837L38.6045 31.5393C38.6045 31.5393 39.3393 32.1372 39.963 31.4018C39.963 31.4018 40.6439 30.7773 40.1534 30.017C40.1534 30.017 39.8006 29.4754 39.1763 29.2029C39.1763 29.2029 38.5782 28.9286 38.4433 28.4671C38.4433 28.4671 38.6337 27.6504 39.3659 28.0853C39.3659 28.0853 39.6384 28.4118 39.8006 28.4671C39.8006 28.4671 40.0186 28.4671 39.963 27.9759L39.9117 27.5711C39.9117 27.5711 39.8571 27.2684 39.4752 27.5711C39.4752 27.5711 39.1216 27.7052 39.0395 27.5711Z" fill="#9494A4"/>
<path d="M35.7248 26.9987C35.9144 27.1371 35.9417 27.408 35.9417 27.408C36.4851 28.8474 36.9482 30.9421 36.9482 30.9421C37.0831 31.2112 37.3284 31.43 37.3284 31.43C37.7905 31.5922 37.3284 31.7272 37.3284 31.7272C37.1378 31.8101 36.5143 31.7025 36.5143 31.7025C36.1861 31.6443 36.3211 31.5384 36.3211 31.5384C36.4586 31.4026 36.3493 30.8574 36.3493 30.8574C36.3211 30.6422 36.0786 30.2878 36.0786 30.2878C35.9701 30.2329 35.7795 30.4774 35.7795 30.4774C35.7795 30.4774 35.4815 30.5867 35.4523 30.4774C35.4249 30.3669 35.2353 30.2641 35.2353 30.2641C34.9089 30.2641 34.774 31.0744 34.774 31.0744C34.9636 31.7546 34.774 31.6443 34.774 31.6443C34.6118 31.8641 34.094 31.7025 34.094 31.7025C33.8497 31.6443 34.0145 31.4547 34.0145 31.4547C34.3118 31.4026 34.3929 31.0744 34.3929 31.0744C34.5297 30.8848 35.3976 27.3525 35.3976 27.3525C35.4815 27.1883 35.5342 26.8629 35.7248 26.9987ZM35.2919 28.7919C35.2635 28.9286 35.0721 29.6897 35.0721 29.6897L35.2353 29.964C35.2353 29.964 35.671 29.9888 35.8333 29.9888C35.9947 29.9888 36.0239 29.8555 36.0239 29.7169C36.0239 29.5822 35.7248 28.7671 35.7248 28.7671L35.5873 28.6039L35.2919 28.7919Z" fill="#9494A4"/>
<path d="M28.3626 20.4179C28.3626 20.4179 28.0627 21.3713 26.731 20.3906L22.1655 20.2811C22.1655 20.2811 21.5675 20.4735 21.4854 19.8474C21.4854 19.8474 21.5949 18.5984 21.5384 18.4889C21.5384 18.4889 21.5675 18.1343 20.9686 18.1343C20.9686 18.1343 20.046 18.2454 20.0195 17.4297C20.0195 17.4297 19.8554 16.5572 21.1326 16.5872C21.1326 16.5872 21.5384 16.7768 21.5675 16.2602C21.5675 16.2602 21.5128 12.7275 21.5384 12.4542C21.5384 12.4542 21.6494 12.1314 21.0241 12.0756C21.0241 12.0756 20.1261 12.2644 20.0195 11.6665C20.0195 11.6665 19.9639 10.7713 20.5611 10.7157C20.5611 10.7157 21.295 10.7713 21.4317 10.5833C21.4317 10.5833 21.5949 10.6884 21.5675 10.0355L21.5949 8.92254C21.5949 8.92254 21.6768 8.62347 22.1363 8.65084C22.1363 8.65084 22.9814 8.70458 23.0906 8.62347C23.0906 8.62347 23.2804 8.38014 23.3324 8.26967C23.3324 8.26967 23.7699 8.24409 23.851 8.34998C23.851 8.34998 24.5019 8.78749 26.9777 8.62347C26.9777 8.62347 27.3561 8.62347 27.4382 8.73295C27.4382 8.73295 27.8995 9.08556 28.1712 8.70458C28.1712 8.70458 28.5787 8.62347 29.8028 8.65084C29.8028 8.65084 31.1321 9.00365 32.0574 8.24409L32.3555 8.29983C32.3555 8.29983 32.7357 8.92254 33.01 8.73295C33.01 8.73295 33.8241 8.65084 33.9607 8.81486C33.9607 8.81486 34.2332 9.22241 34.0948 10.2834C34.0948 10.2834 33.9334 10.7447 34.7211 10.7447C34.7211 10.7447 35.6171 10.5833 35.5096 11.4222C35.5096 11.4222 35.7547 12.3739 34.2598 12.2388C34.2598 12.2388 34.0684 12.5113 34.0948 12.7011C34.0948 12.7011 34.0684 15.7979 34.0418 16.1533C34.0418 16.1533 34.0155 16.6393 34.6673 16.6146C34.6673 16.6146 35.537 16.5572 35.5633 17.3486C35.5633 17.3486 35.6718 18.3804 34.4228 18.189C34.4228 18.189 34.0418 18.2454 33.9863 18.4889L33.9334 19.8474C33.9334 19.8474 33.9607 20.5272 33.1978 20.365C33.0893 20.365 28.9607 20.4453 28.6059 20.3386C28.6059 20.3386 28.4163 20.3113 28.3626 20.4179Z" fill="#9494A4"/>
<path d="M28.3626 20.4187C28.3626 20.4187 28.0627 21.3723 26.731 20.3913L22.1647 20.2821C22.1647 20.2821 21.5665 20.4743 21.4846 19.8474C21.4846 19.8474 21.5949 18.5983 21.5384 18.4889C21.5384 18.4889 21.5665 18.1353 20.9676 18.1353C20.9676 18.1353 20.045 18.2463 20.0187 17.4304C20.0187 17.4304 19.8554 16.5572 21.1326 16.5872C21.1326 16.5872 21.5384 16.777 21.5665 16.2609C21.5665 16.2609 21.5118 12.7267 21.5384 12.4542C21.5384 12.4542 21.6494 12.1303 21.0233 12.0756C21.0233 12.0756 20.1253 12.2646 20.0187 11.6657C20.0187 11.6657 19.9631 10.7703 20.561 10.7157C20.561 10.7157 21.294 10.7703 21.4317 10.5817C21.4317 10.5817 21.5949 10.6884 21.5665 10.0355L21.5949 8.92152C21.5949 8.92152 21.676 8.62266 22.1363 8.65082C22.1363 8.65082 22.9806 8.70376 23.0898 8.62266C23.0898 8.62266 23.2804 8.38013 23.3324 8.26965C23.3324 8.26965 23.7689 8.24328 23.851 8.34996C23.851 8.34996 24.5011 8.78667 26.9777 8.62266C26.9777 8.62266 27.3561 8.62266 27.4382 8.73193C27.4382 8.73193 27.8995 9.08474 28.1712 8.70377C28.1712 8.70377 28.5795 8.62266 29.8028 8.65082C29.8028 8.65082 31.1331 9.00183 32.0574 8.24328L32.3563 8.29882C32.3563 8.29882 32.7365 8.92152 33.01 8.73193C33.01 8.73193 33.8241 8.65082 33.9625 8.81304C33.9625 8.81304 34.2332 9.22159 34.0958 10.2816C34.0958 10.2816 33.9334 10.7447 34.7211 10.7447C34.7211 10.7447 35.6189 10.5817 35.5096 11.4213C35.5096 11.4213 35.7547 12.3739 34.2606 12.238C34.2606 12.238 34.0684 12.5105 34.0958 12.7011C34.0958 12.7011 34.0684 15.7979 34.0428 16.1525C34.0428 16.1525 34.0155 16.6401 34.6673 16.6156C34.6673 16.6156 35.537 16.5572 35.5643 17.3493C35.5643 17.3493 35.6718 18.3804 34.4228 18.189C34.4228 18.189 34.0428 18.2463 33.9873 18.4889L33.9334 19.8474C33.9334 19.8474 33.9625 20.5282 33.1988 20.3658C33.0903 20.3658 28.9607 20.4453 28.6059 20.3386C28.6059 20.3386 28.4163 20.312 28.3626 20.4187Z" stroke="#9494A4" stroke-width="0.0133333"/>
<path d="M23.2256 9.2224C23.2256 9.2224 23.2803 9.7648 23.2803 9.90064C23.2803 10.0365 23.1974 17.7551 23.1974 17.7551C23.1974 17.7551 23.2803 18.3548 22.7627 18.6521C22.7627 18.6521 22.6277 18.7076 22.5995 18.3275L22.655 10.1741C22.655 10.1741 22.7088 9.16766 23.2256 9.2224Z" fill="white"/>
<path d="M23.2266 9.22151C23.2266 9.22151 23.2811 9.7639 23.2811 9.89975C23.2811 10.0356 23.1982 17.755 23.1982 17.755C23.1982 17.755 23.2811 18.3547 22.7627 18.6538C22.7627 18.6538 22.6277 18.7085 22.5995 18.3284L22.6532 10.174C22.6532 10.174 22.708 9.16757 23.2266 9.22151V9.22151Z" stroke="#9494A4" stroke-width="0.016"/>
<path d="M22.3287 18.7333C22.3287 18.7333 22.3816 11.0694 22.356 10.9326C22.3287 10.7985 22.3816 11.0428 22.3816 11.0428C22.3816 11.0428 22.3023 9.71272 22.6549 9.16773C22.6549 9.16773 22.5456 8.70544 21.9203 9.27521L21.8955 10.3902C21.8955 10.3902 21.8955 11.0155 21.3232 10.9881C21.3232 10.9881 20.6705 10.9599 20.3706 11.2608C20.3706 11.2608 20.2082 11.8577 20.8319 11.7503C20.8319 11.7503 21.8118 11.7503 21.8656 12.155L21.8118 16.26C21.8118 16.26 22.0296 16.9393 21.2676 16.9393C21.2676 16.9393 20.3441 16.8871 20.3706 17.4579C20.3706 17.4579 20.561 17.9474 21.3506 17.7833C21.3506 17.7833 21.9203 17.8926 21.8955 18.4334V19.4689C21.8955 19.4689 21.8382 19.8772 22.3816 19.902H26.6223C26.6223 19.902 26.8394 19.9291 26.8394 19.6566C26.8394 19.6566 26.8119 19.4423 26.4874 19.4423L22.9558 19.3859C22.9558 19.3859 22.3816 19.5765 22.3287 18.7333Z" fill="white"/>
<path d="M23.0625 18.7888C23.0625 18.7888 22.9548 19.1708 23.3606 19.0869H26.1601L26.9212 19.2493C26.9212 19.2493 27.7115 19.0595 26.9212 18.6238C26.9212 18.6238 24.4208 18.6529 24.2028 18.5982C24.2028 18.5982 23.6878 18.4626 23.5785 18.435C23.5785 18.435 23.306 18.3275 23.0625 18.7888Z" fill="white"/>
<path d="M23.0616 18.7879C23.0616 18.7879 22.9539 19.1715 23.3597 19.086H26.1602L26.9223 19.25C26.9223 19.25 27.7124 19.0604 26.9223 18.6239C26.9223 18.6239 24.4207 18.6529 24.203 18.5965C24.203 18.5965 23.6869 18.4615 23.5776 18.4351C23.5776 18.4351 23.305 18.3266 23.0616 18.7879Z" stroke="#9494A4" stroke-width="0.016"/>
<path d="M27.7108 19.1707C27.7108 19.1707 27.1931 19.1707 27.2203 19.8463C27.2203 19.8463 27.275 20.3658 27.8174 20.3658C27.8174 20.3658 28.3071 20.2813 28.2542 19.7405C28.2542 19.7405 27.9541 19.0596 27.7108 19.1707Z" fill="white"/>
<path d="M28.09 18.8964C28.09 18.8964 28.3335 18.6247 28.4984 18.6247C28.4984 18.6247 31.2151 18.87 31.6772 18.5444C31.6772 18.5444 32.0864 18.4633 32.1932 18.5444C32.1932 18.5444 32.6008 18.87 32.6008 19.0596C32.6008 19.0596 32.5742 19.3065 32.0864 19.1707C32.0864 19.1707 29.0126 19.1963 28.8512 19.1963C28.8512 19.1963 28.0079 19.3859 28.09 18.8964Z" fill="white"/>
<path d="M28.0892 18.8964C28.0892 18.8964 28.3335 18.6239 28.4975 18.6239C28.4975 18.6239 31.2151 18.87 31.6772 18.5444C31.6772 18.5444 32.0873 18.4625 32.194 18.5444C32.194 18.5444 32.6015 18.87 32.6015 19.0604C32.6015 19.0604 32.5752 19.3075 32.0873 19.1707C32.0873 19.1707 29.0135 19.1973 28.8503 19.1973C28.8503 19.1973 28.007 19.3869 28.0892 18.8964V18.8964Z" stroke="#9494A4" stroke-width="0.016"/>
<path d="M28.5249 19.7123C28.5249 19.7123 28.5249 19.4961 28.9033 19.4961L32.711 19.4679C32.711 19.4679 33.0628 19.6557 33.0628 19.0057C33.0628 19.0057 33.2023 16.0422 33.2147 12.7804C33.2199 11.8103 33.2622 10.7916 33.2253 9.84766C33.2253 9.84766 33.1441 9.44111 33.0357 9.3572C33.0357 9.3572 33.0357 8.92249 33.4995 9.08731C33.4995 9.08731 33.9043 9.11308 33.7966 9.73738L33.8232 10.6891C33.8232 10.6891 33.7421 11.0967 34.4759 10.9882C34.4759 10.9882 35.2088 11.0967 35.2352 11.3684C35.2352 11.3684 35.455 11.9134 34.5861 11.8578H33.9616C33.9616 11.8578 33.6891 12.0202 33.7702 12.3475L33.6891 16.2873C33.6891 16.2873 33.6326 16.9665 34.2871 16.9418C34.2871 16.9418 34.9663 16.9136 35.1004 17.1305C35.1004 17.1305 35.5642 17.8106 34.558 17.7561C34.558 17.7561 33.9325 17.7277 33.7966 17.8362C33.7966 17.8362 33.6891 17.9746 33.607 19.2502C33.607 19.2502 33.6608 20.0113 33.0902 19.9292C33.0902 19.9292 29.3124 19.9822 28.9606 19.9019C28.9606 19.9019 28.5786 20.0113 28.5249 19.7123" fill="white"/>
<path d="M23.6314 8.97541L23.5521 17.7003C23.5521 17.7003 23.5247 18.1052 24.2038 18.1871C24.2038 18.1871 24.9933 18.2693 25.1821 18.1871C25.1821 18.1871 25.6971 18.1608 27.0298 18.2155C27.0298 18.2155 27.3563 18.54 27.3826 18.1344C27.3826 18.1344 27.6006 11.0667 27.4919 9.59991C27.4919 9.59991 27.4655 8.9754 27.0017 8.94804C27.0017 8.94804 24.9378 9.11045 24.7472 8.94804L23.9331 8.73008C23.9331 8.73008 23.605 8.75585 23.6314 8.97541Z" fill="white"/>
<path d="M32.247 9.30181L32.2204 17.8908C32.2204 17.8908 32.4384 18.654 32.793 18.5727C32.793 18.5727 32.8467 18.4087 32.8733 18.1352L32.9836 9.95368C32.9836 9.95368 32.7109 8.64894 32.247 9.30181Z" fill="white" stroke="#9494A4" stroke-width="0.016"/>
<path d="M32.247 9.30181L32.2204 17.8908C32.2204 17.8908 32.4384 18.654 32.793 18.5727C32.793 18.5727 32.8467 18.4087 32.8733 18.1352L32.9836 9.95369C32.9836 9.95369 32.7109 8.64894 32.247 9.30181Z" stroke="#9494A4" stroke-width="0.016"/>
<path d="M27.9286 9.37496C27.9286 9.37496 27.8467 13.4782 27.8722 13.6158L27.8209 17.068L27.7108 18.2605C27.7108 18.2605 27.8722 18.5084 28.0089 18.3442C28.0089 18.3442 28.8795 18.128 29.4227 18.2085C29.4227 18.2085 31.163 18.3725 31.515 18.0998C31.515 18.0998 31.7867 18.2349 31.8686 17.8C31.8686 17.8 31.9763 10.1917 31.9223 10.055C31.9223 10.055 32.0318 8.96921 31.9763 8.86173C31.9763 8.86173 31.9489 8.61461 31.4894 8.83077C31.4894 8.83077 31.5421 9.05032 28.9614 8.96921C28.9614 8.96921 27.9825 8.94105 27.9286 9.37496Z" fill="white"/>
<path d="M27.0889 11.8888L26.843 12.4074C26.843 12.4074 26.2474 15.0421 25.922 15.5845C25.922 15.5845 25.8672 16.1296 25.4052 15.6937C25.4052 15.6937 24.3441 12.3519 24.2902 12.2426L23.9366 11.998C23.9366 11.998 23.7222 11.6992 24.1006 11.6726L25.1061 11.6992C25.1061 11.6992 25.4315 11.9699 24.9976 12.2723C24.9976 12.2723 25.0516 12.7065 25.6221 14.362C25.6221 14.362 25.7843 14.9873 25.9749 14.525L26.5191 12.5952L26.3559 12.0246C26.3559 12.0246 26.1919 11.7529 26.438 11.7266C26.438 11.7266 27.0088 11.6726 27.0889 11.8888Z" fill="#9494A4"/>
<path d="M28.6668 12.3244L28.6377 15.2052L28.5583 15.4222C28.5583 15.4222 28.2858 15.7742 28.4754 15.8023C28.4754 15.8023 28.2329 15.9664 30.2139 15.9927C30.2139 15.9927 30.9769 16.1278 30.7855 15.1497C30.7855 15.1497 30.7044 14.7967 30.4309 15.3137C30.4309 15.3137 30.3498 15.7466 29.3734 15.6118C29.3734 15.6118 29.1555 15.4222 29.1555 15.2052V14.0083C29.1555 14.0083 29.1265 13.7083 29.5894 13.7392C29.5894 13.7392 30.1054 14.0639 30.1875 13.9262C30.1875 13.9262 30.3771 13.4931 30.1875 13.2206C30.1875 13.2206 29.9422 13.195 29.9158 13.3035C29.9158 13.3035 29.7526 13.628 29.2905 13.4376C29.2905 13.4376 29.0736 13.0037 29.2092 12.6499C29.2092 12.6499 29.1555 11.97 29.6178 12.0253C29.6178 12.0253 30.161 12.133 30.2139 12.298C30.2139 12.298 30.3498 12.6253 30.4874 12.2443L30.3498 11.7802C30.3498 11.7802 30.2704 11.5896 30.1336 11.6444C30.1336 11.6444 29.2092 11.7802 29.0991 11.6699L28.3652 11.7529C28.3652 11.7529 28.2577 12.0253 28.5849 12.1596C28.5849 12.1596 28.6668 12.2151 28.6668 12.3244Z" fill="#9494A4"/>
</g>
</svg>
