<svg width="32" height="32" viewBox="0 0 32 32" fill="none" xmlns="http://www.w3.org/2000/svg">
<path d="M15.9965 11.3313C13.4258 11.3313 11.3278 13.4293 11.3278 16C11.3278 18.5707 13.4258 20.6687 15.9965 20.6687C18.5672 20.6687 20.6652 18.5707 20.6652 16C20.6652 13.4293 18.5672 11.3313 15.9965 11.3313ZM29.999 16C29.999 14.0667 30.0165 12.1509 29.9079 10.2211C29.7993 7.97958 29.288 5.99024 27.6489 4.35113C26.0063 2.70852 24.0204 2.20068 21.7789 2.0921C19.8456 1.98353 17.9298 2.00104 16 2.00104C14.0667 2.00104 12.1509 1.98353 10.2211 2.0921C7.97958 2.20068 5.99024 2.71202 4.35113 4.35113C2.70852 5.99374 2.20068 7.97958 2.0921 10.2211C1.98353 12.1544 2.00104 14.0702 2.00104 16C2.00104 17.9298 1.98353 19.8491 2.0921 21.7789C2.20068 24.0204 2.71202 26.0098 4.35113 27.6489C5.99374 29.2915 7.97958 29.7993 10.2211 29.9079C12.1544 30.0165 14.0702 29.999 16 29.999C17.9333 29.999 19.8491 30.0165 21.7789 29.9079C24.0204 29.7993 26.0098 29.288 27.6489 27.6489C29.2915 26.0063 29.7993 24.0204 29.9079 21.7789C30.02 19.8491 29.999 17.9333 29.999 16ZM15.9965 23.1834C12.0213 23.1834 8.81314 19.9752 8.81314 16C8.81314 12.0248 12.0213 8.81665 15.9965 8.81665C19.9717 8.81665 23.1799 12.0248 23.1799 16C23.1799 19.9752 19.9717 23.1834 15.9965 23.1834ZM23.4741 10.2001C22.5459 10.2001 21.7964 9.45057 21.7964 8.52245C21.7964 7.59432 22.5459 6.84481 23.4741 6.84481C24.4022 6.84481 25.1517 7.59432 25.1517 8.52245C25.152 8.74284 25.1088 8.96111 25.0245 9.16478C24.9403 9.36844 24.8168 9.55349 24.6609 9.70933C24.5051 9.86517 24.32 9.98873 24.1164 10.0729C23.9127 10.1572 23.6944 10.2004 23.4741 10.2001Z" fill="#112242" fill-opacity="0.62"/>
</svg>
