<svg width="32" height="32" viewBox="0 0 32 32" fill="none" xmlns="http://www.w3.org/2000/svg">
<path d="M25.3337 5.33325H6.66699C5.60613 5.33325 4.58871 5.75468 3.83857 6.50482C3.08842 7.25497 2.66699 8.27239 2.66699 9.33325V22.6666C2.66699 23.7275 3.08842 24.7449 3.83857 25.495C4.58871 26.2452 5.60613 26.6666 6.66699 26.6666H25.3337C26.3945 26.6666 27.4119 26.2452 28.1621 25.495C28.9122 24.7449 29.3337 23.7275 29.3337 22.6666V9.33325C29.3337 8.27239 28.9122 7.25497 28.1621 6.50482C27.4119 5.75468 26.3945 5.33325 25.3337 5.33325ZM25.3337 7.99992L16.667 13.9599C16.4643 14.0769 16.2344 14.1386 16.0003 14.1386C15.7663 14.1386 15.5364 14.0769 15.3337 13.9599L6.66699 7.99992H25.3337Z" fill="#313131"/>
</svg>
