<svg width="198" height="48" viewBox="0 0 198 48" fill="none" xmlns="http://www.w3.org/2000/svg">
<g clip-path="url(#clip0_460_2891)">
<path d="M83.7264 28.7986C83.7703 28.7886 83.8122 28.7806 83.8562 28.7706C83.976 29.0182 84.1038 29.2618 84.2136 29.5114C85.763 33.0635 87.3045 36.6176 88.8679 40.1638C88.9777 40.4134 89.2393 40.5951 89.4309 40.8067C89.6246 40.5971 89.8902 40.4213 90.004 40.1738C91.6533 36.5797 93.2806 32.9777 94.9159 29.3776C95.0257 29.134 95.1435 28.8944 95.2593 28.6528C95.6387 31.8595 95.8683 35.0143 96.04 38.1731C96.1099 39.445 95.9462 39.5488 94.6643 39.7485C94.4746 39.7784 94.3149 40.004 94.1431 40.1398C94.3348 40.2436 94.5265 40.4373 94.7182 40.4393C96.641 40.4613 98.5658 40.4573 100.489 40.4393C100.662 40.4393 100.834 40.2596 101.008 40.1638C100.868 40.022 100.748 39.7884 100.584 39.7545C99.2008 39.4649 99.1429 39.3911 99.0271 37.9994C98.7355 34.5012 98.434 31.0049 98.1186 27.5087C97.9908 26.0991 98.2683 25.7636 99.6999 25.6358C99.9156 25.6159 100.115 25.4002 100.321 25.2744C100.083 25.1646 99.8497 24.9649 99.6101 24.9569C98.5978 24.927 97.5794 25.0049 96.5711 24.939C95.9641 24.899 95.6506 25.0328 95.3911 25.6218C93.9315 28.9284 92.422 32.2149 90.9265 35.5055C90.8047 35.775 90.6669 36.0406 90.4832 36.42C90.2955 36.0466 90.1617 35.803 90.0479 35.5494C88.5324 32.2109 87.0229 28.8685 85.4955 25.534C85.3896 25.3024 85.162 24.9569 84.9823 24.951C83.5347 24.903 82.0831 24.925 80.6595 24.925C80.4239 25.504 80.6595 25.6139 81.1227 25.6618C82.2408 25.7756 82.6741 26.2808 82.6941 27.3969C82.6981 27.6565 82.7041 27.918 82.6801 28.1776C82.3567 31.4901 82.0412 34.8027 81.6918 38.1132C81.57 39.2653 81.2066 39.5907 79.9846 39.7385C79.4714 39.8004 79.3736 39.9981 79.5653 40.4174H85.0422C85.1021 40.0087 84.9018 39.7844 84.4412 39.7445C83.2691 39.6426 82.9277 39.2633 83.0016 38.0932C83.0815 36.8473 83.1813 35.6033 83.2791 34.3574C83.4249 32.5025 83.5766 30.6495 83.7264 28.7946V28.7986ZM175.359 34.2136C175.293 34.1437 175.225 34.0759 175.159 34.006H169.105C168.899 34.5071 169.127 34.595 169.55 34.6489C170.728 34.8027 170.944 35.0782 170.95 36.2782C170.954 37.1368 170.988 37.9974 170.926 38.8519C170.908 39.1035 170.642 39.5009 170.429 39.5488C167.544 40.1817 164.904 39.5308 163.454 36.4659C162.464 34.3714 162.286 32.157 162.837 29.9147C163.474 27.333 165.287 25.7596 167.817 25.5679C170.127 25.3922 172.661 25.9833 173.534 28.9344C173.584 29.1021 173.927 29.182 174.253 29.3736C174.157 27.922 174.075 26.71 173.993 25.4901C172.977 25.2884 171.982 25.1107 170.998 24.8911C168.865 24.4139 166.761 24.4837 164.692 25.2025C161.204 26.4125 159.161 29.3177 159.345 32.782C159.563 36.8812 161.799 39.6726 165.581 40.5192C168.516 41.1761 171.369 40.657 174.195 39.8423C174.272 39.8203 174.326 39.7045 174.39 39.6327C174.31 39.6347 174.229 39.6366 174.149 39.6386C174.035 39.0836 173.867 38.5325 173.821 37.9714C173.763 37.2746 173.817 36.5677 173.805 35.8649C173.793 35.1561 174.093 34.7487 174.818 34.6229C175.015 34.589 175.177 34.3534 175.357 34.2116L175.359 34.2136ZM187.712 24.9709H176.537C176.487 25.0428 176.437 25.1127 176.387 25.1846C176.575 25.3403 176.748 25.6019 176.954 25.6318C178.17 25.8095 178.364 25.9952 178.366 27.2192C178.37 30.8352 178.368 34.4512 178.366 38.0672C178.366 39.423 178.236 39.5588 176.916 39.7784C176.75 39.8064 176.615 40.02 176.465 40.1478C176.629 40.2576 176.792 40.4633 176.956 40.4653C180.57 40.4832 184.186 40.4872 187.802 40.4573C188.008 40.4573 188.333 40.1777 188.395 39.9661C188.621 39.1954 188.78 38.4007 188.916 37.608C188.956 37.3784 188.828 37.1188 188.776 36.8732C188.607 37.0429 188.363 37.1807 188.277 37.3864C187.958 38.1571 187.576 38.9977 186.722 39.1015C185.218 39.2832 183.685 39.2992 182.171 39.2393C181.85 39.2273 181.303 38.6123 181.283 38.2549C181.191 36.4998 181.241 34.7348 181.241 32.8818C181.962 32.8818 182.629 32.8818 183.298 32.8818C185.129 32.8818 185.224 32.9617 185.586 34.7667C185.6 34.8386 185.65 34.9045 185.797 35.212C186.013 34.8865 186.259 34.6828 186.269 34.4672C186.301 33.8203 186.227 33.1694 186.217 32.5184C186.205 31.6159 186.213 30.7134 186.213 29.8109C186.153 29.765 186.095 29.7191 186.035 29.6731C185.865 29.8728 185.616 30.0485 185.544 30.2781C185.37 30.8432 185.206 31.5001 184.563 31.56C183.471 31.6618 182.363 31.588 181.253 31.588V25.8754C182.313 25.8754 183.322 25.8634 184.33 25.8774C186.063 25.9014 186.648 26.4026 186.967 28.0918C186.991 28.2136 187.041 28.3294 187.163 28.7047C187.415 28.3633 187.676 28.1736 187.684 27.972C187.728 26.9896 187.704 26.0052 187.704 24.9669L187.712 24.9709ZM61.8366 25.7337C60.9122 25.4721 60.0356 25.2265 59.1611 24.9789C57.366 24.4678 55.563 24.4718 53.762 24.921C50.3017 25.7836 48.0475 28.2994 47.716 31.6439C47.3526 35.3098 48.914 38.4686 51.8971 39.8443C54.9181 41.238 58.011 41.0623 61.0899 39.9881C61.2776 39.9222 61.5152 39.7145 61.5451 39.5408C61.7368 38.4486 61.8786 37.3484 62.0343 36.2542C61.4413 35.9428 61.3734 36.388 61.2296 36.7474C60.387 38.8499 58.8017 39.8723 56.5454 39.7525C54.2692 39.6307 52.6798 38.4546 51.7433 36.43C50.6731 34.1118 50.5872 31.6938 51.366 29.2778C52.1287 26.9097 53.9497 25.5799 56.2938 25.55C58.9814 25.516 60.2313 26.3946 61.2137 29.0781C61.3974 29.5813 61.619 29.5993 62.0043 29.3657C61.9484 28.1616 61.8945 26.9696 61.8366 25.7337ZM73.3955 18.5136C73.3955 15.1073 73.3935 12.0164 73.3975 8.92549C73.3975 8.45826 73.4015 7.98505 73.4694 7.52581C73.5792 6.79502 73.9266 6.26589 74.7552 6.19002C74.907 6.17604 75.0408 5.99434 75.1845 5.89052C75.0128 5.82263 74.8411 5.69684 74.6694 5.69284C73.5013 5.67487 72.3313 5.67288 71.1612 5.69284C70.9655 5.69684 70.7718 5.82662 70.5762 5.89651C70.7479 5.99834 70.9076 6.15608 71.0913 6.19601C72.0298 6.39768 72.4331 6.84893 72.457 7.89719C72.485 9.09321 72.465 10.2892 72.465 11.4853C72.465 12.4097 72.465 13.3322 72.465 14.4883C72.1456 14.1389 71.9778 13.9572 71.8121 13.7715C69.5678 11.2417 67.3335 8.70785 65.0713 6.19401C64.8556 5.95441 64.4942 5.73278 64.1847 5.70882C63.3322 5.64293 62.4716 5.67288 61.615 5.69883C61.4273 5.70482 61.2436 5.84858 61.0579 5.92845C61.2097 6.03028 61.3474 6.18203 61.5152 6.22596C62.3118 6.42962 62.833 6.89086 62.835 7.73945C62.845 10.417 62.849 13.0966 62.801 15.7742C62.7831 16.8204 62.4177 17.1579 61.3993 17.4314C61.2676 17.4673 61.1697 17.6291 61.0559 17.7309C61.1697 17.8088 61.2835 17.9545 61.3993 17.9565C62.7252 17.9725 64.051 17.9725 65.3788 17.9565C65.4866 17.9565 65.5904 17.7908 65.6982 17.703C65.5984 17.6111 65.5125 17.4634 65.3987 17.4354C63.8253 17.0421 63.7275 16.9322 63.7235 15.3149C63.7175 13.2084 63.7195 11.1019 63.7235 8.99538C63.7235 8.78373 63.7594 8.57208 63.7894 8.23264C64.1508 8.63198 64.4124 8.9195 64.6719 9.20902C67.2357 12.0783 69.7955 14.9535 72.3732 17.8128C72.6028 18.0664 72.9482 18.2161 73.3975 18.5216L73.3955 18.5136ZM133.171 40.2017L133.376 40.4793C135.425 40.4793 137.473 40.4872 139.522 40.4653C139.69 40.4653 139.857 40.2636 140.025 40.1558C139.851 40.024 139.69 39.8044 139.502 39.7784C138.352 39.6167 138.11 39.3871 138.108 38.2469C138.102 34.5571 138.102 30.8652 138.108 27.1753C138.108 26.0192 138.36 25.7756 139.49 25.6378C139.682 25.6139 139.847 25.4002 140.027 25.2744C139.841 25.1606 139.656 24.947 139.47 24.947C137.963 24.941 136.457 24.9749 134.95 24.9929C134.41 24.9989 133.871 24.9929 133.332 24.9929C133.282 25.0568 133.232 25.1207 133.183 25.1846C133.364 25.3383 133.53 25.6019 133.73 25.6298C134.996 25.8095 135.159 25.9693 135.159 27.2671C135.161 30.9051 135.161 34.5451 135.159 38.1831C135.159 39.421 134.968 39.6087 133.764 39.7824C133.55 39.8124 133.368 40.056 133.173 40.2017H133.171ZM52.6658 5.98636C52.6418 5.88652 52.6179 5.78469 52.5959 5.68486C50.8608 5.68486 49.1257 5.68086 47.3885 5.69284C47.2947 5.69284 47.2029 5.82263 47.109 5.89251C47.2029 5.98835 47.2787 6.1401 47.3925 6.17405C48.6624 6.55342 48.6684 6.54942 48.6724 7.84328C48.6784 9.84597 48.6345 11.8506 48.6904 13.8513C48.7703 16.6367 50.0881 17.9885 52.8375 18.2241C53.0971 18.2461 53.3547 18.274 53.6142 18.288C56.6213 18.4537 58.2645 17.096 58.6579 14.1149C58.7078 13.7295 58.7218 13.3382 58.7238 12.9488C58.7318 11.1278 58.7298 9.30686 58.7278 7.48787C58.7278 6.74909 58.9414 6.21198 59.812 6.17804C59.9557 6.17205 60.0915 5.98636 60.2313 5.88453L60.1474 5.68486C58.9574 5.68486 57.7674 5.67687 56.5773 5.69484C56.4036 5.69684 56.2339 5.82263 56.0622 5.89251C56.2299 5.99434 56.3936 6.17205 56.5673 6.18403C57.2462 6.22796 57.6635 6.52946 57.6655 7.23429C57.6695 9.60037 57.7154 11.9685 57.6216 14.3325C57.5717 15.5905 56.9707 16.6307 55.6888 17.1099C53.2069 18.0384 51.0724 16.6886 50.9846 14.055C50.9107 11.8467 50.9626 9.63432 50.9686 7.42398C50.9686 6.69319 51.2961 6.24792 52.0788 6.19601C52.2785 6.18203 52.4721 6.06223 52.6678 5.99235L52.6658 5.98636ZM99.041 6.45358C99.8118 6.45358 100.509 6.44759 101.203 6.45358C102.923 6.46956 103.19 6.6872 103.584 8.35843C103.594 8.39637 103.657 8.42232 103.837 8.56808C104.312 7.60568 103.995 6.66324 104.065 5.75075H95.1655C95.1415 5.81464 95.1195 5.87654 95.0956 5.94043C95.2353 6.02429 95.3631 6.15009 95.5149 6.18203C96.6929 6.43362 96.7089 6.4436 96.7089 7.66358C96.7089 10.447 96.7089 13.2284 96.7089 16.0118C96.7089 17.1639 96.649 17.2218 95.5368 17.4234C95.3971 17.4494 95.2773 17.5931 95.1475 17.681C95.2733 17.7748 95.3871 17.9086 95.5288 17.9486C95.6986 17.9965 95.8902 17.9625 96.0719 17.9625C98.464 17.9625 100.856 17.9625 103.25 17.9625C104.117 17.9625 104.65 17.5519 104.849 16.7306C104.929 16.4031 105.059 16.0816 105.099 15.7502C105.123 15.5365 105.021 15.3089 104.977 15.0873C104.835 15.235 104.632 15.3568 104.562 15.5345C104.25 16.3093 103.767 16.9382 102.915 17.0301C101.938 17.1339 100.94 17.1519 99.9655 17.064C99.636 17.0341 99.0989 16.5768 99.081 16.2893C98.9891 14.8756 99.039 13.452 99.039 11.9525C99.7139 11.9525 100.307 11.9465 100.9 11.9525C101.994 11.9645 102.2 12.1382 102.449 13.1844C102.489 13.3502 102.631 13.4899 102.727 13.6417C102.817 13.4859 102.979 13.3302 102.983 13.1725C103.004 12.1082 103 11.042 102.986 9.97775C102.984 9.824 102.871 9.67425 102.809 9.52051C102.685 9.6443 102.547 9.75811 102.439 9.89588C102.15 10.2613 101.924 10.8922 101.583 10.9581C100.772 11.1159 99.9116 11.008 99.047 11.008V6.45358H99.041ZM155.322 5.7208C155.288 5.81664 155.256 5.91248 155.222 6.00832C155.466 6.0822 155.703 6.17604 155.951 6.22596C156.39 6.31381 156.783 6.49551 156.478 6.99069C155.669 8.30053 154.801 9.57042 153.892 10.9541C152.92 9.5824 152.061 8.38039 151.213 7.1684C150.843 6.64127 150.959 6.31381 151.626 6.2C151.79 6.17205 151.929 6.00632 152.079 5.90449C152.053 5.85258 152.025 5.79867 151.999 5.74675H146.48C146.742 5.99235 146.84 6.10416 146.958 6.19202C147.435 6.55541 147.99 6.84693 148.381 7.28421C148.984 7.95909 149.4 8.81168 150.033 9.45262C151.822 11.2696 152.417 13.4041 152.119 15.8979C151.979 17.072 151.902 17.2737 150.727 17.4234C150.568 17.4434 150.424 17.6011 150.274 17.693C150.43 17.7828 150.586 17.9486 150.743 17.9505C152.383 17.9705 154.02 17.9705 155.659 17.9505C155.815 17.9505 155.971 17.7768 156.127 17.683C155.971 17.5931 155.823 17.4414 155.659 17.4214C154.651 17.2956 154.431 17.1139 154.405 16.1236C154.371 14.7718 154.371 13.4181 154.401 12.0663C154.407 11.7808 154.551 11.4653 154.717 11.2197C155.651 9.84197 156.586 8.46425 157.578 7.12847C157.854 6.75708 158.329 6.53545 158.702 6.22995C158.84 6.11814 158.948 5.96639 159.177 5.71481H155.328L155.322 5.7208ZM188.984 5.67887C186.081 5.67887 183.302 5.67487 180.522 5.69085C180.372 5.69085 180.225 5.85857 180.075 5.94842C180.211 6.03028 180.342 6.17205 180.482 6.18203C181.221 6.22796 181.64 6.54144 181.638 7.34012C181.628 10.3312 181.632 13.3202 181.634 16.3113C181.634 17.0021 181.307 17.3655 180.606 17.4234C180.42 17.4394 180.249 17.5971 180.069 17.689C180.275 17.7808 180.478 17.9525 180.684 17.9545C182.165 17.9785 183.649 17.9805 185.131 17.9545C185.354 17.9505 185.576 17.7609 185.799 17.657C185.582 17.5772 185.368 17.4434 185.146 17.4274C184.571 17.3835 183.96 17.3176 183.936 16.6068C183.883 15.0833 183.921 13.5558 183.921 11.9525C184.553 11.9525 185.121 11.9505 185.686 11.9525C186.965 11.9585 187.109 12.0783 187.453 13.3202C187.491 13.458 187.648 13.5618 187.75 13.6816C187.824 13.5379 187.958 13.3961 187.96 13.2523C187.978 12.1881 187.976 11.1239 187.96 10.0596C187.958 9.90786 187.838 9.76011 187.774 9.61036C187.66 9.74613 187.539 9.87791 187.435 10.0217C187.191 10.3551 186.989 10.9441 186.71 10.9821C185.807 11.1059 184.877 11.028 183.94 11.028V6.45358C184.843 6.45358 185.696 6.4456 186.55 6.45558C187.776 6.47155 188.134 6.77904 188.399 8.00102C188.435 8.16475 188.519 8.3165 188.579 8.47424C188.665 8.47424 188.751 8.47424 188.834 8.47424C189.154 7.60967 188.906 6.6832 188.986 5.67887H188.984ZM145.622 8.20668C146.097 7.82931 146.343 5.69484 146.115 5.30748C145.588 5.44126 145.127 5.64692 144.662 5.6589C143.076 5.70083 141.487 5.73877 139.905 5.6589C138.08 5.56505 136.206 6.07221 134.367 5.21164C134.255 6.19202 134.143 7.15442 134.031 8.11683C134.117 8.15676 134.205 8.1967 134.291 8.23663C134.408 8.03097 134.59 7.8353 134.632 7.61366C134.772 6.88088 135.193 6.53545 135.926 6.53545C136.733 6.53545 137.539 6.55741 138.342 6.50749C138.929 6.47155 139.101 6.67522 139.095 7.25625C139.069 10.1415 139.089 13.0287 139.077 15.9139C139.073 17.102 138.889 17.2737 137.711 17.4254C137.557 17.4454 137.421 17.6131 137.278 17.7129C137.414 17.7968 137.549 17.9505 137.685 17.9505C139.348 17.9665 141.014 17.9665 142.677 17.9505C142.815 17.9505 142.95 17.7948 143.088 17.7129C142.97 17.6151 142.862 17.4534 142.731 17.4274C141.525 17.1878 141.369 17.0281 141.367 15.7981C141.359 13.0686 141.365 10.3372 141.363 7.60767C141.363 7.27822 141.363 6.94876 141.363 6.51947C142.098 6.51947 142.739 6.51947 143.382 6.51947C145.077 6.51947 145.155 6.57738 145.616 8.20668H145.622ZM81.8415 5.73078C82.0372 5.9604 82.133 6.16806 82.2269 6.16806C83.2272 6.15608 83.5088 6.87688 83.8102 7.62564C85.148 10.9541 86.4978 14.2766 87.8655 17.5931C87.9774 17.8647 88.2589 18.0644 88.4625 18.298C88.6642 18.0704 88.9477 17.8767 89.0556 17.6111C90.4493 14.1948 91.803 10.7605 93.2127 7.3501C93.3924 6.91482 93.8297 6.58537 94.1531 6.21198C94.255 6.09418 94.3748 5.99235 94.4846 5.88253C94.3368 5.81664 94.1911 5.69883 94.0413 5.69684C93.1847 5.67887 92.3261 5.67487 91.4696 5.69883C91.2459 5.70482 91.0263 5.82662 90.8027 5.89651C91.0003 5.99834 91.192 6.17405 91.3977 6.19202C92.0905 6.24992 92.3022 6.61532 92.1624 7.24627C92.1005 7.52381 92.0286 7.80335 91.9268 8.06891C91.1082 10.2054 90.2835 12.3378 89.4569 14.4703C89.391 14.64 89.2832 14.7918 89.1374 15.0593C88.1011 12.3498 87.1188 9.77808 86.1304 7.20833C85.8868 6.57538 86.1224 6.28386 86.7594 6.19801C86.965 6.17005 87.1567 6.04226 87.3544 5.9624C87.3284 5.88652 87.3025 5.81065 87.2765 5.73477H81.8395L81.8415 5.73078ZM125.547 8.27856C125.627 8.21866 125.709 8.15876 125.789 8.10086C125.755 7.45592 125.755 6.805 125.665 6.16606C125.637 5.9624 125.389 5.6569 125.208 5.62895C124.413 5.51114 123.604 5.40532 122.804 5.43128C120.967 5.49118 119.663 6.5055 119.27 8.0729C118.838 9.79605 119.461 11.2716 121.063 12.258C121.572 12.5715 122.123 12.8131 122.63 13.1285C123.067 13.4021 123.532 13.6736 123.874 14.049C124.96 15.243 124.335 17.058 122.762 17.3775C121.474 17.6391 120.292 17.0101 119.797 15.7881C119.691 15.5246 119.647 15.237 119.541 14.9715C119.503 14.8756 119.371 14.8177 119.284 14.7419C119.196 14.8457 119.052 14.9375 119.03 15.0513C118.722 16.7625 119.349 17.7289 121.033 18.1422C121.31 18.2101 121.596 18.2521 121.879 18.276C124.822 18.5276 126.965 16.1056 126.202 13.3921C125.889 12.2779 125.076 11.621 124.118 11.0899C123.347 10.6626 122.54 10.2773 121.833 9.76011C121.065 9.19904 120.905 8.26059 121.254 7.28421C121.532 6.50749 122.219 6.05025 123.139 6.03028C124.082 6.00832 124.76 6.55941 125.182 7.6536C125.268 7.87523 125.423 8.06891 125.547 8.27657V8.27856ZM76.115 5.68286C76.083 5.76073 76.0511 5.8386 76.0191 5.91847C76.131 6.00832 76.2308 6.14609 76.3586 6.18004C77.5267 6.49152 77.5306 6.48753 77.5306 7.68954C77.5306 10.4709 77.5306 13.2523 77.5306 16.0357C77.5306 17.1339 77.4787 17.1818 76.4165 17.4314C76.2867 17.4614 76.1869 17.6251 76.0731 17.7269C76.1849 17.8068 76.2967 17.9525 76.4105 17.9545C77.944 17.9705 79.4774 17.9725 81.0129 17.9545C81.1387 17.9545 81.2605 17.7768 81.3843 17.681C81.2784 17.5951 81.1866 17.4614 81.0668 17.4294C79.9227 17.1399 79.8947 17.1159 79.8947 15.9219C79.8927 13.1665 79.8907 10.411 79.8947 7.6536C79.8947 6.52347 79.9526 6.46756 81.0388 6.18203C81.1686 6.14809 81.2645 5.98436 81.3783 5.88053C81.2565 5.81464 81.1367 5.69484 81.0149 5.69284C79.3836 5.68086 77.7503 5.68486 76.119 5.68486L76.115 5.68286ZM128.145 5.68286C128.113 5.77071 128.081 5.86057 128.049 5.94842C128.189 6.03028 128.321 6.15208 128.472 6.18603C129.489 6.42164 129.596 6.53944 129.598 7.59969C129.602 10.407 129.602 13.2144 129.598 16.0217C129.598 17.084 129.479 17.2118 128.472 17.4254C128.337 17.4554 128.225 17.6051 128.103 17.699C128.235 17.7868 128.364 17.9506 128.496 17.9525C130.004 17.9705 131.511 17.9705 133.019 17.9525C133.151 17.9525 133.28 17.7868 133.412 17.699C133.288 17.6051 133.167 17.4334 133.041 17.4314C132.124 17.4174 131.933 16.8723 131.939 16.0856C131.957 13.2523 131.961 10.419 131.937 7.58571C131.929 6.75908 132.134 6.20799 133.073 6.18203C133.187 6.17804 133.294 6.03627 133.406 5.9584C133.284 5.86656 133.165 5.69684 133.043 5.69484C131.411 5.67687 129.78 5.68286 128.147 5.68286H128.145Z" fill="white"/>
<path d="M83.7263 28.7986C83.5765 30.6535 83.4248 32.5064 83.279 34.3614C83.1812 35.6053 83.0813 36.8512 83.0015 38.0972C82.9256 39.2672 83.269 39.6466 84.4411 39.7484C84.903 39.7884 85.1033 40.0127 85.0421 40.4213H79.5652C79.3715 40.002 79.4693 39.8063 79.9845 39.7424C81.2065 39.5947 81.5699 39.2672 81.6916 38.1171C82.0411 34.8066 82.3566 31.4941 82.68 28.1816C82.706 27.924 82.698 27.6624 82.694 27.4009C82.676 26.2867 82.2427 25.7816 81.1226 25.6658C80.6574 25.6178 80.4238 25.506 80.6594 24.929C82.083 24.929 83.5346 24.907 84.9822 24.9549C85.1619 24.9609 85.3875 25.3044 85.4953 25.538C87.0228 28.8724 88.5323 32.2149 90.0478 35.5534C90.1636 35.807 90.2974 36.0506 90.4831 36.4239C90.6688 36.0426 90.8046 35.779 90.9264 35.5095C92.4199 32.2169 93.9314 28.9323 95.391 25.6258C95.6505 25.0368 95.964 24.903 96.571 24.943C97.5793 25.0088 98.5977 24.929 99.61 24.9609C99.8496 24.9689 100.085 25.1666 100.321 25.2784C100.115 25.4042 99.9155 25.6198 99.6998 25.6398C98.2682 25.7676 97.9907 26.103 98.1185 27.5127C98.4339 31.0089 98.7354 34.5051 99.027 38.0033C99.1428 39.395 99.2007 39.4709 100.584 39.7584C100.746 39.7924 100.868 40.026 101.008 40.1677C100.834 40.2636 100.662 40.4413 100.489 40.4433C98.5657 40.4633 96.6409 40.4672 94.7181 40.4433C94.5244 40.4413 94.3347 40.2476 94.143 40.1438C94.3167 40.008 94.4745 39.7824 94.6642 39.7524C95.946 39.5528 96.1078 39.4489 96.0399 38.177C95.8682 35.0183 95.6386 31.8635 95.2592 28.6568C95.1454 28.8984 95.0276 29.138 94.9158 29.3816C93.2825 32.9816 91.6532 36.5837 90.0039 40.1777C89.8901 40.4253 89.6245 40.601 89.4308 40.8107C89.2392 40.597 88.9776 40.4153 88.8678 40.1677C87.3044 36.6216 85.7629 33.0675 84.2135 29.5154C84.1037 29.2638 83.9759 29.0202 83.8561 28.7746C83.8121 28.7846 83.7702 28.7926 83.7263 28.8026V28.7986Z" fill="#9FACC0"/>
<path d="M175.361 34.2136C175.183 34.3574 175.019 34.591 174.821 34.6249C174.099 34.7507 173.797 35.158 173.809 35.8669C173.821 36.5697 173.767 37.2745 173.825 37.9734C173.871 38.5344 174.039 39.0855 174.153 39.6406C174.232 39.6386 174.314 39.6366 174.394 39.6346C174.33 39.7065 174.278 39.8223 174.199 39.8443C171.375 40.6589 168.52 41.1761 165.585 40.5211C161.801 39.6745 159.567 36.8832 159.349 32.784C159.165 29.3217 161.208 26.4165 164.696 25.2045C166.765 24.4877 168.867 24.4158 171.002 24.893C171.986 25.1127 172.981 25.2904 173.997 25.492C174.079 26.712 174.159 27.922 174.256 29.3756C173.931 29.1839 173.586 29.1041 173.538 28.9363C172.665 25.9852 170.131 25.3962 167.821 25.5699C165.291 25.7616 163.478 27.333 162.841 29.9167C162.288 32.159 162.466 34.3733 163.458 36.4679C164.908 39.5328 167.548 40.1837 170.433 39.5508C170.646 39.5048 170.912 39.1055 170.93 38.8539C170.992 37.9993 170.958 37.1387 170.954 36.2802C170.948 35.0802 170.732 34.8046 169.554 34.6509C169.131 34.595 168.903 34.5091 169.109 34.0079H175.163C175.229 34.0778 175.297 34.1457 175.363 34.2156L175.361 34.2136Z" fill="#9FACC0"/>
<path d="M187.714 24.9709C187.714 26.0112 187.738 26.9956 187.694 27.9759C187.686 28.1776 187.425 28.3673 187.173 28.7087C187.053 28.3333 187.001 28.2175 186.977 28.0957C186.658 26.4045 186.073 25.9054 184.34 25.8814C183.331 25.8674 182.323 25.8794 181.263 25.8794V31.592C182.373 31.592 183.481 31.6658 184.573 31.564C185.214 31.5041 185.378 30.8472 185.554 30.2821C185.626 30.0525 185.875 29.8768 186.045 29.6771C186.105 29.723 186.163 29.769 186.223 29.8149C186.223 30.7174 186.213 31.6199 186.227 32.5224C186.235 33.1733 186.31 33.8243 186.279 34.4712C186.269 34.6868 186.021 34.8925 185.807 35.216C185.66 34.9085 185.612 34.8426 185.596 34.7707C185.234 32.9677 185.138 32.8858 183.307 32.8858C182.639 32.8858 181.97 32.8858 181.251 32.8858C181.251 34.7387 181.201 36.5038 181.293 38.2589C181.313 38.6183 181.858 39.2313 182.181 39.2433C183.697 39.3012 185.228 39.2872 186.732 39.1055C187.586 39.0017 187.968 38.1591 188.287 37.3904C188.373 37.1847 188.615 37.0469 188.786 36.8772C188.838 37.1228 188.966 37.3804 188.926 37.612C188.79 38.4047 188.631 39.1994 188.405 39.9701C188.343 40.1817 188.018 40.4593 187.812 40.4613C184.198 40.4912 180.582 40.4872 176.966 40.4693C176.802 40.4693 176.638 40.2636 176.475 40.1518C176.624 40.024 176.76 39.8103 176.926 39.7824C178.246 39.5628 178.376 39.427 178.376 38.0712C178.376 34.4552 178.38 30.8392 178.376 27.2232C178.376 25.9972 178.18 25.8115 176.964 25.6358C176.758 25.6059 176.585 25.3443 176.397 25.1886C176.447 25.1167 176.497 25.0468 176.547 24.9749H187.722L187.714 24.9709Z" fill="#9FACC0"/>
<path d="M61.8385 25.7317C61.8964 26.9676 61.9503 28.1596 62.0062 29.3637C61.6209 29.5953 61.3993 29.5793 61.2156 29.0761C60.2352 26.3926 58.9833 25.514 56.2957 25.548C53.9516 25.5779 52.1326 26.9077 51.3679 29.2758C50.5891 31.6918 50.675 34.1098 51.7452 36.428C52.6797 38.4526 54.2691 39.6287 56.5473 39.7505C58.8055 39.8703 60.3889 38.8479 61.2315 36.7454C61.3753 36.386 61.4432 35.9428 62.0362 36.2522C61.8785 37.3464 61.7387 38.4466 61.547 39.5388C61.5171 39.7125 61.2775 39.9202 61.0918 39.9861C58.0129 41.0603 54.92 41.236 51.899 39.8423C48.9159 38.4666 47.3545 35.3078 47.7179 31.6419C48.0494 28.2994 50.3036 25.7836 53.7639 24.919C55.5649 24.4698 57.3679 24.4658 59.163 24.9769C60.0375 25.2265 60.9141 25.4701 61.8385 25.7317Z" fill="#9FACC0"/>
<path d="M73.3974 18.5116C72.9501 18.2081 72.6027 18.0584 72.3731 17.8028C69.7954 14.9435 67.2376 12.0703 64.6718 9.19903C64.4143 8.90951 64.1527 8.62398 63.7893 8.22264C63.7593 8.56208 63.7254 8.77373 63.7234 8.98538C63.7194 11.0919 63.7174 13.1984 63.7234 15.3049C63.7274 16.9222 63.8252 17.0321 65.3986 17.4254C65.5144 17.4534 65.5983 17.6011 65.6981 17.693C65.5923 17.7808 65.4865 17.9445 65.3787 17.9465C64.0529 17.9645 62.7271 17.9645 61.3992 17.9465C61.2834 17.9465 61.1696 17.7988 61.0558 17.7209C61.1696 17.6171 61.2675 17.4574 61.3992 17.4214C62.4176 17.1479 62.781 16.8104 62.8009 15.7642C62.8489 13.0866 62.8469 10.409 62.8349 7.72946C62.8309 6.88087 62.3117 6.41963 61.5151 6.21597C61.3493 6.17404 61.2096 6.02029 61.0578 5.91846C61.2435 5.83859 61.4272 5.69483 61.6149 5.68884C62.4715 5.66288 63.3321 5.63293 64.1846 5.69882C64.4941 5.72278 64.8535 5.94442 65.0712 6.18402C67.3314 8.69786 69.5677 11.2337 71.812 13.7615C71.9757 13.9472 72.1455 14.1289 72.4649 14.4783C72.4649 13.3222 72.4649 12.3977 72.4649 11.4753C72.4649 10.2792 72.4849 9.08322 72.4569 7.8872C72.433 6.83894 72.0297 6.38768 71.0912 6.18602C70.9075 6.14608 70.7478 5.99034 70.5761 5.88651C70.7717 5.81463 70.9654 5.68485 71.1611 5.68285C72.3292 5.66288 73.4992 5.66488 74.6693 5.68285C74.843 5.68485 75.0127 5.81064 75.1844 5.88052C75.0427 5.98435 74.9069 6.16605 74.7551 6.18003C73.9265 6.2559 73.5771 6.78503 73.4693 7.51582C73.4014 7.97505 73.3974 8.44827 73.3974 8.9155C73.3914 12.0064 73.3954 15.0973 73.3954 18.5036L73.3974 18.5116Z" fill="#9FACC0"/>
<path d="M133.172 40.2017C133.368 40.0559 133.55 39.8123 133.763 39.7824C134.967 39.6087 135.157 39.421 135.159 38.183C135.163 34.5451 135.161 30.9051 135.159 27.2671C135.159 25.9693 134.995 25.8095 133.73 25.6298C133.53 25.6019 133.364 25.3383 133.182 25.1846C133.232 25.1207 133.282 25.0568 133.332 24.9929C133.871 24.9929 134.41 24.9989 134.949 24.9929C136.457 24.9749 137.962 24.941 139.47 24.947C139.656 24.947 139.841 25.1606 140.027 25.2744C139.849 25.4002 139.682 25.6139 139.49 25.6378C138.36 25.7776 138.11 26.0212 138.108 27.1753C138.102 30.8652 138.102 34.557 138.108 38.2469C138.11 39.387 138.35 39.6167 139.502 39.7784C139.69 39.8044 139.851 40.026 140.025 40.1558C139.857 40.2636 139.692 40.4633 139.522 40.4653C137.473 40.4872 135.425 40.4792 133.376 40.4792L133.17 40.2017H133.172Z" fill="#9FACC0"/>
<path d="M52.6657 5.98635C52.47 6.05823 52.2764 6.17804 52.0767 6.19002C51.296 6.24193 50.9685 6.68719 50.9665 7.41798C50.9625 9.62832 50.9106 11.8407 50.9825 14.049C51.0704 16.6826 53.2048 18.0324 55.6867 17.1039C56.9686 16.6247 57.5696 15.5845 57.6195 14.3265C57.7114 11.9645 57.6674 9.59438 57.6634 7.2283C57.6634 6.52346 57.2461 6.22196 56.5653 6.17804C56.3915 6.16606 56.2278 5.98835 56.0601 5.88652C56.2318 5.81863 56.4035 5.69284 56.5752 5.68885C57.7653 5.67088 58.9553 5.67886 60.1453 5.67886L60.2292 5.87853C60.0894 5.98036 59.9536 6.16606 59.8099 6.17205C58.9393 6.20599 58.7257 6.7431 58.7257 7.48188C58.7277 9.30286 58.7297 11.1238 58.7217 12.9428C58.7217 13.3322 58.7057 13.7235 58.6558 14.1089C58.2624 17.092 56.6192 18.4497 53.6121 18.282C53.3526 18.268 53.093 18.2401 52.8354 18.2181C50.086 17.9845 48.7682 16.6307 48.6883 13.8453C48.6324 11.8447 48.6763 9.83997 48.6703 7.83729C48.6663 6.54343 48.6583 6.54742 47.3904 6.16805C47.2786 6.13411 47.2008 5.98236 47.1069 5.88652C47.2008 5.81663 47.2926 5.68685 47.3865 5.68685C49.1216 5.67487 50.8567 5.67886 52.5938 5.67886C52.6178 5.7787 52.6418 5.88053 52.6637 5.98036L52.6657 5.98635Z" fill="#9FACC0"/>
<path d="M99.0389 6.45356V11.01C99.9035 11.01 100.764 11.1178 101.575 10.9601C101.916 10.8942 102.142 10.2632 102.431 9.89785C102.539 9.76008 102.677 9.64827 102.801 9.52247C102.863 9.67422 102.976 9.82597 102.978 9.97972C102.994 11.044 102.998 12.1102 102.974 13.1744C102.97 13.3322 102.809 13.4879 102.719 13.6437C102.623 13.4919 102.481 13.3521 102.441 13.1864C102.19 12.1401 101.986 11.9664 100.892 11.9544C100.299 11.9485 99.7078 11.9544 99.031 11.9544C99.031 13.454 98.981 14.8776 99.0729 16.2913C99.0908 16.5808 99.628 17.036 99.9574 17.066C100.932 17.1558 101.93 17.1359 102.907 17.032C103.759 16.9422 104.244 16.3132 104.554 15.5365C104.624 15.3608 104.827 15.237 104.969 15.0893C105.015 15.3109 105.115 15.5385 105.091 15.7522C105.053 16.0836 104.921 16.4051 104.841 16.7325C104.642 17.5538 104.109 17.9645 103.242 17.9645C100.85 17.9645 98.4579 17.9645 96.0639 17.9645C95.8822 17.9645 95.6905 17.9984 95.5208 17.9505C95.379 17.9106 95.2652 17.7748 95.1394 17.683C95.2692 17.5931 95.387 17.4513 95.5287 17.4254C96.6429 17.2217 96.7008 17.1638 96.7008 16.0137C96.7008 13.2303 96.7008 10.4489 96.7008 7.66555C96.7008 6.44557 96.6848 6.43559 95.5068 6.184C95.357 6.15205 95.2272 6.02427 95.0875 5.9424C95.1114 5.87851 95.1334 5.81661 95.1574 5.75272H104.057C103.989 6.66521 104.304 7.60764 103.829 8.57005C103.649 8.42429 103.585 8.39834 103.575 8.3604C103.182 6.68917 102.915 6.47153 101.195 6.45555C100.499 6.44956 99.8037 6.45555 99.0329 6.45555L99.0389 6.45356Z" fill="#9FACC0"/>
<path d="M155.322 5.72079H159.171C158.942 5.97238 158.834 6.12213 158.696 6.23594C158.323 6.53944 157.85 6.76107 157.572 7.13445C156.58 8.47024 155.645 9.84796 154.711 11.2257C154.545 11.4693 154.401 11.7868 154.395 12.0723C154.365 13.424 154.365 14.7778 154.399 16.1296C154.423 17.1199 154.645 17.3016 155.653 17.4274C155.817 17.4474 155.967 17.5991 156.12 17.689C155.965 17.7828 155.811 17.9545 155.653 17.9565C154.016 17.9765 152.377 17.9765 150.737 17.9565C150.58 17.9565 150.424 17.7888 150.268 17.699C150.42 17.6051 150.562 17.4494 150.721 17.4294C151.895 17.2797 151.973 17.078 152.113 15.9039C152.411 13.4101 151.818 11.2736 150.027 9.45861C149.394 8.81767 148.978 7.96508 148.375 7.2902C147.984 6.85292 147.429 6.5614 146.952 6.198C146.836 6.11015 146.736 5.99834 146.474 5.75274H151.993C152.019 5.80466 152.047 5.85857 152.073 5.91048C151.923 6.01231 151.784 6.17804 151.62 6.20599C150.953 6.3218 150.837 6.64726 151.207 7.17439C152.055 8.38439 152.916 9.58839 153.886 10.9601C154.795 9.57641 155.663 8.30651 156.472 6.99668C156.777 6.49951 156.384 6.3198 155.945 6.23195C155.697 6.18203 155.46 6.08819 155.216 6.01431C155.25 5.91847 155.282 5.82263 155.316 5.72678L155.322 5.72079Z" fill="#9FACC0"/>
<path d="M188.982 5.67886C188.902 6.6832 189.15 7.60966 188.83 8.47423C188.744 8.47423 188.659 8.47423 188.575 8.47423C188.513 8.31649 188.431 8.16275 188.395 8.00101C188.129 6.77904 187.772 6.47155 186.546 6.45557C185.693 6.44559 184.839 6.45358 183.936 6.45358V11.022C184.873 11.022 185.803 11.0999 186.706 10.9761C186.985 10.9382 187.187 10.3471 187.431 10.0157C187.536 9.87192 187.656 9.74213 187.77 9.60436C187.836 9.75411 187.954 9.90386 187.956 10.0536C187.972 11.1179 187.974 12.1821 187.956 13.2463C187.954 13.3901 187.82 13.5339 187.746 13.6756C187.644 13.5558 187.487 13.452 187.449 13.3142C187.105 12.0723 186.961 11.9545 185.682 11.9465C185.116 11.9425 184.549 11.9465 183.916 11.9465C183.916 13.5498 183.878 15.0773 183.932 16.6008C183.956 17.3116 184.567 17.3775 185.142 17.4214C185.364 17.4394 185.578 17.5712 185.795 17.651C185.572 17.7549 185.352 17.9446 185.126 17.9485C183.645 17.9745 182.163 17.9725 180.68 17.9485C180.474 17.9446 180.27 17.7748 180.065 17.683C180.243 17.5911 180.416 17.4334 180.602 17.4174C181.303 17.3595 181.63 16.9981 181.63 16.3053C181.63 13.3142 181.624 10.3252 181.634 7.33412C181.636 6.53544 181.219 6.22196 180.478 6.17603C180.338 6.16805 180.207 6.02429 180.071 5.94242C180.221 5.85257 180.368 5.68485 180.518 5.68485C183.297 5.66887 186.075 5.67287 188.98 5.67287L188.982 5.67886Z" fill="#9FACC0"/>
<path d="M145.62 8.20665C145.157 6.57735 145.081 6.51944 143.386 6.51944C142.743 6.51944 142.1 6.51944 141.367 6.51944C141.367 6.94674 141.367 7.27619 141.367 7.60764C141.367 10.3371 141.363 13.0686 141.371 15.7981C141.375 17.028 141.529 17.1898 142.735 17.4274C142.868 17.4533 142.974 17.6151 143.092 17.7129C142.954 17.7968 142.818 17.9505 142.681 17.9505C141.017 17.9665 139.352 17.9665 137.689 17.9505C137.553 17.9505 137.417 17.7948 137.282 17.7129C137.425 17.6131 137.561 17.4454 137.715 17.4254C138.893 17.2736 139.077 17.1019 139.081 15.9139C139.093 13.0287 139.071 10.1414 139.099 7.25622C139.105 6.67519 138.933 6.47152 138.346 6.50746C137.543 6.55738 136.735 6.53542 135.93 6.53542C135.195 6.53542 134.774 6.88085 134.636 7.61363C134.594 7.83527 134.412 8.02894 134.295 8.2366C134.209 8.19667 134.121 8.15673 134.035 8.1168C134.147 7.15439 134.257 6.19199 134.37 5.21161C136.209 6.07218 138.084 5.56502 139.909 5.65887C141.491 5.73874 143.082 5.7008 144.665 5.65887C145.131 5.64689 145.592 5.43923 146.119 5.30745C146.347 5.69481 146.099 7.82927 145.626 8.20665H145.62Z" fill="#9FACC0"/>
<path d="M81.8414 5.73077H87.2784C87.3044 5.80665 87.3303 5.88252 87.3563 5.9584C87.1586 6.04026 86.9669 6.16805 86.7613 6.19401C86.1223 6.27986 85.8887 6.57138 86.1323 7.20433C87.1227 9.77408 88.103 12.3458 89.1393 15.0553C89.2851 14.7878 89.3929 14.634 89.4588 14.4663C90.2874 12.3338 91.1121 10.2014 91.9287 8.06491C92.0305 7.79935 92.1024 7.51981 92.1643 7.24227C92.3021 6.61131 92.0924 6.24592 91.3996 6.18802C91.1939 6.17004 91.0023 5.99633 90.8046 5.8925C91.0262 5.82262 91.2478 5.70082 91.4715 5.69483C92.3281 5.67087 93.1846 5.67486 94.0432 5.69284C94.193 5.69683 94.3387 5.81463 94.4865 5.87853C94.3747 5.98835 94.2569 6.09018 94.155 6.20798C93.8316 6.58136 93.3943 6.91082 93.2146 7.3461C91.8049 10.7565 90.4512 14.1908 89.0575 17.6071C88.9497 17.8727 88.6661 18.0663 88.4645 18.294C88.2608 18.0604 87.9793 17.8607 87.8674 17.5891C86.4997 14.2726 85.1499 10.9501 83.8122 7.62164C83.5107 6.87288 83.2291 6.15207 82.2288 6.16405C82.1349 6.16405 82.0391 5.9584 81.8434 5.72678L81.8414 5.73077Z" fill="#9FACC0"/>
<path d="M125.547 8.27854C125.423 8.07088 125.268 7.8772 125.182 7.65557C124.76 6.55938 124.081 6.01029 123.139 6.03226C122.219 6.05422 121.53 6.51146 121.254 7.28618C120.907 8.26256 121.064 9.20101 121.833 9.76208C122.54 10.2792 123.347 10.6626 124.117 11.0919C125.076 11.625 125.888 12.2799 126.202 13.3941C126.965 16.1056 124.822 18.5296 121.879 18.278C121.596 18.254 121.31 18.2121 121.033 18.1442C119.349 17.7309 118.722 16.7645 119.03 15.0533C119.05 14.9375 119.196 14.8457 119.283 14.7438C119.371 14.8197 119.503 14.8776 119.541 14.9735C119.645 15.237 119.689 15.5265 119.797 15.7901C120.292 17.0121 121.474 17.641 122.762 17.3795C124.335 17.06 124.96 15.245 123.874 14.051C123.532 13.6756 123.067 13.4041 122.63 13.1305C122.123 12.815 121.572 12.5734 121.062 12.2599C119.461 11.2736 118.838 9.80002 119.269 8.07488C119.663 6.50747 120.965 5.49515 122.804 5.43325C123.602 5.40729 124.413 5.51312 125.208 5.63092C125.389 5.65688 125.637 5.96437 125.665 6.16803C125.755 6.80498 125.755 7.4559 125.789 8.10283C125.709 8.16273 125.627 8.22263 125.547 8.28053V8.27854Z" fill="#9FACC0"/>
<path d="M76.1149 5.68284C77.7462 5.68284 79.3795 5.67885 81.0108 5.69083C81.1326 5.69083 81.2544 5.81263 81.3742 5.87852C81.2624 5.98235 81.1665 6.14608 81.0347 6.18002C79.9485 6.46555 79.8926 6.52146 79.8906 7.65158C79.8867 10.407 79.8867 13.1625 79.8906 15.9199C79.8906 17.1139 79.9186 17.1359 81.0627 17.4274C81.1825 17.4574 81.2744 17.5911 81.3802 17.679C81.2564 17.7748 81.1326 17.9505 81.0088 17.9525C79.4753 17.9705 77.9419 17.9685 76.4064 17.9525C76.2926 17.9525 76.1808 17.8048 76.069 17.7249C76.1828 17.6231 76.2826 17.4593 76.4124 17.4294C77.4766 17.1818 77.5266 17.1339 77.5266 16.0337C77.5286 13.2523 77.5266 10.4709 77.5266 7.68753C77.5266 6.48552 77.5226 6.49151 76.3545 6.17802C76.2267 6.14408 76.1269 6.00631 76.0151 5.91646C76.047 5.83859 76.079 5.76071 76.1109 5.68085L76.1149 5.68284Z" fill="#9FACC0"/>
<path d="M128.145 5.68284C129.776 5.68284 131.409 5.67685 133.041 5.69482C133.162 5.69482 133.282 5.86654 133.404 5.95839C133.292 6.03626 133.184 6.17802 133.071 6.18202C132.13 6.20797 131.926 6.75906 131.934 7.58569C131.96 10.419 131.954 13.2523 131.936 16.0856C131.93 16.8723 132.122 17.4174 133.039 17.4314C133.164 17.4334 133.286 17.6051 133.41 17.6989C133.28 17.7868 133.148 17.9505 133.017 17.9525C131.509 17.9705 130.002 17.9705 128.494 17.9525C128.362 17.9525 128.233 17.7868 128.101 17.6989C128.223 17.6051 128.334 17.4554 128.47 17.4254C129.477 17.2118 129.594 17.082 129.596 16.0217C129.6 13.2144 129.6 10.407 129.596 7.59967C129.596 6.53943 129.487 6.42162 128.47 6.18601C128.318 6.15007 128.189 6.02827 128.047 5.9484C128.079 5.86055 128.111 5.7707 128.143 5.68284H128.145Z" fill="#9FACC0"/>
<path d="M106.351 5.75872C106.752 5.71479 106.928 5.68085 107.104 5.68085C108.819 5.67486 110.534 5.66288 112.247 5.68085C112.79 5.68684 113.339 5.73276 113.87 5.83859C115.312 6.12611 116.037 6.84891 116.262 8.14876C116.5 9.5145 115.979 10.6985 114.813 11.4213C114.553 11.5831 114.28 11.7189 113.932 11.9125C115.046 13.5598 116.115 15.1831 117.247 16.7625C117.462 17.064 117.94 17.1718 118.287 17.3855C118.419 17.4673 118.523 17.5971 118.64 17.7029C118.505 17.7888 118.371 17.9445 118.233 17.9485C117.351 17.9705 116.464 17.9965 115.584 17.9386C115.332 17.9226 115.018 17.685 114.867 17.4593C113.884 15.9918 112.9 14.5222 111.997 13.0047C111.614 12.3598 111.201 12.1182 110.436 12.3778C110.436 13.7315 110.4 15.1032 110.45 16.471C110.476 17.1698 110.999 17.4034 111.652 17.4234C111.816 17.4274 111.976 17.5772 112.137 17.661C111.966 17.7608 111.794 17.9465 111.62 17.9505C110.087 17.9725 108.553 17.9705 107.02 17.9505C106.862 17.9485 106.704 17.7848 106.547 17.697C106.696 17.6011 106.836 17.4494 106.998 17.4214C107.942 17.2557 108.104 17.094 108.106 16.1655C108.11 13.3581 108.11 10.5508 108.106 7.74343C108.104 6.54741 108.028 6.47353 106.868 6.17403C106.728 6.13809 106.618 5.98035 106.349 5.76071L106.351 5.75872ZM110.446 11.5232C112.181 11.7049 113.134 11.3994 113.609 10.5508C114.152 9.58039 114.054 7.93112 113.381 7.14642C112.589 6.22395 111.566 6.18002 110.412 6.39766C110.412 7.89318 110.412 9.34478 110.412 10.7984C110.412 11.028 110.432 11.2576 110.444 11.5232H110.446Z" fill="#9FACC0"/>
<path d="M112.135 31.6299C112.866 31.8994 113.663 32.0931 114.36 32.4705C116.516 33.6426 117.009 36.1983 115.488 38.1291C114.417 39.4889 112.944 40.1019 111.261 40.1358C108.767 40.1877 106.271 40.1558 103.775 40.1338C103.595 40.1338 103.416 39.9042 103.238 39.7824C103.402 39.6666 103.553 39.4749 103.729 39.4509C105.063 39.2692 105.223 39.1075 105.223 37.7857C105.225 34.1976 105.223 30.6076 105.223 27.0195C105.223 25.6238 105.091 25.492 103.703 25.3064C103.533 25.2844 103.39 25.0767 103.232 24.9549C103.39 24.8371 103.547 24.6175 103.703 24.6175C106.275 24.6175 108.849 24.6175 111.418 24.6934C112.101 24.7133 112.804 24.927 113.451 25.1746C114.681 25.6458 115.354 26.5962 115.432 27.914C115.506 29.166 114.969 30.1463 113.904 30.7893C113.335 31.1327 112.698 31.3683 112.131 31.6339L112.135 31.6299ZM108.118 32.161C108.118 33.982 108.118 35.6412 108.118 37.2985C108.118 37.61 108.124 37.9215 108.15 38.233C108.196 38.7661 108.501 39.0716 109.012 39.2033C110.945 39.6965 112.738 38.6343 113.211 36.7095C113.717 34.6469 112.69 32.8079 110.718 32.3866C109.919 32.2169 109.078 32.2389 108.114 32.163L108.118 32.161ZM108.166 31.3244C109.591 31.3543 111.003 31.5101 111.96 30.1903C112.604 29.2997 112.567 27.4308 111.89 26.4764C110.949 25.1506 109.556 25.3862 108.166 25.4042V31.3244Z" fill="#9FACC0"/>
<path d="M71.9697 24.326C72.0895 24.6714 72.1894 24.9569 72.2912 25.2444C73.7468 29.3916 75.2004 33.5387 76.66 37.6838C76.7898 38.0512 76.9515 38.4066 77.0953 38.77C77.3109 39.3171 77.6663 39.6726 78.2833 39.7684C78.439 39.7924 78.5628 40.034 78.7006 40.1757C78.5508 40.2696 78.4031 40.4413 78.2513 40.4433C76.3046 40.4612 74.3558 40.4553 72.3771 40.4553C72.1934 40.014 72.2533 39.8043 72.7864 39.7484C73.9884 39.6206 74.0862 39.4349 73.7129 38.3228C73.3974 37.3863 73.1218 36.4339 72.7584 35.5174C72.6666 35.2838 72.3152 35.0103 72.0736 35.0003C70.7478 34.9504 69.42 34.9504 68.0942 35.0003C67.8546 35.0103 67.5011 35.2818 67.4153 35.5134C67.0778 36.412 66.8283 37.3444 66.5467 38.2649C66.2133 39.3471 66.4289 39.6606 67.593 39.7504C68.0203 39.7844 68.4895 39.7504 68.194 40.4233H63.3001C63.0984 40.0499 63.1244 39.8103 63.6675 39.7364C64.5001 39.6226 65.0133 39.0935 65.2768 38.3228C66.7045 34.1397 68.1201 29.9526 69.5557 25.7716C69.6276 25.5599 69.8073 25.3243 70.003 25.2245C70.6 24.913 71.229 24.6614 71.9737 24.328L71.9697 24.326ZM72.0836 33.6365C71.4187 31.566 70.7897 29.6052 70.1587 27.6445L69.9731 27.6804C69.3461 29.6432 68.7211 31.6079 68.0722 33.6365H72.0816H72.0836Z" fill="#9FACC0"/>
<path d="M9.01577 5H40.6374C40.6434 5.13178 40.6534 5.25558 40.6534 5.37738C40.6534 12.8131 40.6674 20.2488 40.6454 27.6824C40.6394 29.6971 39.8627 31.4802 38.7406 33.1174C37.281 35.2479 35.3202 36.8193 33.1039 38.0972C30.7039 39.4829 28.2759 40.8207 25.9118 42.2663C25.2509 42.6696 24.8116 42.6736 24.1647 42.3002C21.3913 40.7029 18.57 39.1914 15.7985 37.594C13.8617 36.4759 12.1845 35.0363 10.9026 33.1773C9.67668 31.4023 9.01178 29.4355 9.00778 27.2751C8.99381 19.9433 8.9998 12.6134 8.9998 5.28153C8.9998 5.20167 9.00978 5.1218 9.01577 5ZM21.6808 24.939V25.4122C21.6808 30.1923 21.6808 34.9704 21.6768 39.7505C21.6768 39.9861 21.7367 40.1219 21.9563 40.2397C22.9088 40.7448 23.8512 41.27 24.7917 41.7951C24.9634 41.8909 25.0892 41.8989 25.2629 41.7871C25.9877 41.3279 26.7185 40.8786 27.4612 40.4493C27.7048 40.3095 27.7867 40.1518 27.7867 39.8743C27.7787 35.0842 27.7807 30.2921 27.7807 25.5021V25.0209H39.8887V17.7888H27.7647V5.73279H21.6668V17.8008H9.75455V24.937H21.6808V24.939ZM32.0097 11.5711C32.0037 11.6091 31.9977 11.647 31.9917 11.6849C31.8 11.7009 31.6084 11.7368 31.4167 11.7269C31.2709 11.7189 31.1272 11.629 30.9814 11.623C30.612 11.6071 30.4443 11.3994 30.3764 11.066C30.3265 10.8284 30.2985 10.5788 30.2087 10.3571C29.995 9.83799 30.0709 9.32684 30.1248 8.78973C30.1688 8.35445 30.0949 7.88722 29.9711 7.46392C29.9012 7.22432 29.6256 7.04262 29.436 6.82897C28.9707 7.36009 28.9647 7.87324 29.394 8.57808C29.2143 8.53615 29.0845 8.5062 28.9667 8.47824C28.797 8.90354 28.811 9.2889 29.2363 9.56644C29.1325 9.68624 29.0586 9.7701 29.0107 9.82601C29.0766 10.0796 29.0845 10.3352 29.2063 10.5129C29.3142 10.6726 29.5478 10.7465 29.7215 10.8563C29.3122 11.3435 29.3701 11.5871 29.999 11.8826C30.1628 11.9605 30.3265 12.0324 30.5082 12.1142C30.4623 12.1861 30.4423 12.228 30.4123 12.26C30.2606 12.4237 30.0789 12.5795 30.2985 12.8191C30.4982 13.0367 30.6819 13.0866 30.9535 12.879C31.219 12.6773 31.5485 12.5635 31.8599 12.4057C31.9997 12.9029 31.9817 13.2923 31.7362 13.7156C31.4446 14.2167 31.0792 14.6161 30.604 15.0054C30.5561 14.652 30.4243 14.4743 30.0769 14.5182C29.8233 14.5502 29.6256 14.6041 29.5777 14.8916C29.4879 15.4507 30.0649 15.1592 30.2606 15.4427C30.1468 15.5485 30.015 15.6384 29.9252 15.7602C29.7355 16.0138 29.5418 16.2713 29.41 16.5549C29.3661 16.6507 29.5019 16.8324 29.5578 16.9762C29.6636 16.8723 29.7794 16.7765 29.8692 16.6587C29.9132 16.6028 29.9052 16.5089 29.9271 16.4131C30.3445 16.453 30.5022 16.1795 30.622 15.8101C30.7737 16.0158 30.8995 16.1855 31.0553 16.3951C31.6203 15.876 31.4446 15.1492 31.6663 14.5522C31.7162 14.67 31.6882 14.7898 31.7222 14.8896C31.7621 15.0114 31.852 15.1172 31.9199 15.2311C32.0397 15.1272 32.1754 15.0374 32.2693 14.9156C32.3152 14.8557 32.2932 14.7339 32.2832 14.644C32.2413 14.2766 32.1914 13.9092 32.1355 13.472C32.2932 13.6696 32.415 13.8214 32.5848 14.033C32.7345 13.442 32.5608 12.845 32.9761 12.3918C33.1698 12.9848 33.2337 12.9868 33.7229 12.5735C33.8826 12.4377 34.1202 12.3658 34.3339 12.3319C34.5934 12.2919 34.867 12.3259 35.1325 12.3219C35.442 12.3159 35.7894 12.3958 35.9492 11.9086C36.2187 12.7791 36.7658 13.3582 37.3728 13.8474C37.6943 14.1049 37.7881 14.3625 37.7801 14.7219C37.7742 15.0414 37.3788 15.4926 37.0693 15.5306C36.5642 15.5925 36.4464 15.7063 36.2986 16.3392C36.5142 16.2354 36.686 16.1515 36.8657 16.0657C36.8118 16.3292 36.7718 16.5329 36.7319 16.7286C37.5945 17.084 37.4667 16.2094 37.8081 15.9239C38.0397 16.1416 37.6963 16.7046 38.3053 16.6827C38.3053 16.5329 38.2474 16.3392 38.3153 16.2713C38.6168 15.9698 38.3812 15.7941 38.2094 15.5785C37.9918 15.3029 38.0597 15.0394 38.3652 14.8936C38.7146 14.7279 38.7426 14.5282 38.5109 14.2028C38.4251 14.083 38.3792 13.8933 38.4011 13.7475C38.4311 13.5478 38.5489 13.3622 38.6168 13.1665C38.6627 13.0347 38.6866 12.8949 38.7226 12.7572L38.6347 12.7392C38.5249 12.9029 38.4151 13.0666 38.2673 13.2903C37.852 12.5675 37.7841 11.7169 37.0414 11.2636C37.1432 11.2357 37.2331 11.2516 37.3229 11.2536C37.5525 11.2596 37.7861 11.2896 38.0078 11.2497C38.1376 11.2277 38.3053 11.1199 38.3572 11.0041C38.5748 10.5288 38.3572 9.84997 37.9439 9.54647C37.7123 9.37675 37.5086 9.24298 37.4008 9.67027C37.0573 9.13915 36.8264 8.87825 36.7079 8.88756C36.6939 8.9834 36.678 9.08124 36.648 9.27492C36.4543 9.06128 36.2826 8.92151 36.1768 8.7458C35.9372 8.34646 35.7575 8.31651 35.444 8.66992C35.444 8.39638 35.476 8.12283 35.5558 7.86326C35.5758 7.79737 35.7475 7.73747 35.8454 7.74146C36.4464 7.77141 37.0853 7.70153 37.5226 8.26659C37.5545 8.30852 37.6204 8.32649 37.6743 8.34846C38.0617 8.50819 38.6168 8.2646 38.7745 7.7774C38.1575 8.18672 37.6504 8.06493 37.1991 7.58971C37.7462 8.03098 38.2993 7.86326 38.9282 7.60169C38.8284 7.39204 38.7286 7.18638 38.6287 6.97872C38.5948 6.97872 38.5609 6.97872 38.5269 6.97872C38.491 7.38605 38.3013 7.51184 37.9339 7.37806C37.5984 7.25626 37.253 7.16442 36.9116 7.0566C36.3405 6.87689 35.7994 6.88288 35.3042 7.28022C34.867 7.63164 34.7771 8.49222 35.2024 8.84763C35.5598 9.14514 35.9791 9.38274 36.3984 9.5904C36.7878 9.78208 37.2151 9.89589 37.6244 10.0516C37.894 10.1535 37.9599 10.3951 37.876 10.6187C37.84 10.7145 37.6064 10.7645 37.4567 10.7824C37.3249 10.7984 37.1791 10.7585 37.0494 10.7145C36.2866 10.455 35.5019 10.3352 34.6973 10.3352C34.4936 10.3352 34.2839 10.2912 34.1661 10.5408C34.1382 10.5987 34.0044 10.6387 33.9225 10.6347C33.665 10.6207 33.5492 10.7784 33.5032 10.9821C33.4513 11.2197 33.3355 11.2656 33.1318 11.1758C33.06 11.1438 32.9901 11.1119 32.9162 11.0799C32.7864 11.2936 32.8144 11.6829 32.4011 11.5252C32.1714 11.4373 32.0716 10.9921 32.2214 10.7105C32.2453 10.7924 32.2573 10.8583 32.2832 10.9182C32.3531 11.0779 32.429 11.2377 32.5009 11.3954C32.5867 11.2357 32.6726 11.0759 32.7605 10.9162C32.7704 10.8982 32.7924 10.8863 32.8283 10.8563C32.9801 10.9262 33.1398 10.9981 33.2696 11.058C33.3994 10.8024 33.5072 10.5887 33.619 10.3691C33.657 10.3791 33.6889 10.3911 33.7209 10.3931C33.8427 10.3991 33.9665 10.3991 34.0883 10.4031C34.0663 10.2813 34.0763 10.1375 34.0124 10.0397C33.8846 9.84198 33.7169 9.66827 33.5651 9.48258C34.0204 9.02933 33.645 8.45628 33.8027 7.94313C33.9685 8.00502 34.1122 8.06093 34.3139 8.13681C34.2959 7.89321 34.3339 7.67557 34.256 7.51384C34.1182 7.2343 33.9086 6.9907 33.7109 6.70518C33.6989 6.70917 33.631 6.72514 33.5731 6.75709C33.2776 6.91483 33.1878 6.8709 33.1558 6.54744C33.1398 6.3917 33.1818 6.21798 32.9282 6.19802C32.6466 6.17605 32.6826 6.37572 32.6546 6.53745C32.5947 6.90085 32.4929 6.95876 32.1475 6.813C32.0656 6.77905 31.9917 6.73313 31.8819 6.67523C31.846 6.96674 31.8879 7.25027 31.5225 7.34612C31.3628 7.38805 31.3009 8.01101 31.4147 8.02499C31.5624 8.04296 31.7262 7.92715 31.8839 7.87125C31.8919 7.86725 31.9059 7.87524 31.9518 7.88722C31.9338 8.21867 31.9059 8.55611 31.9039 8.89555C31.9039 9.01136 31.9338 9.15712 32.0057 9.23898C32.1994 9.46461 32.1814 9.63433 31.9518 9.82601C31.844 9.91386 31.7681 10.0616 31.7182 10.1974C31.6603 10.3571 31.6563 10.5368 31.6104 10.7026C31.5405 10.9541 31.5165 11.1758 31.7921 11.3315C31.8819 11.3834 31.9378 11.4952 32.0097 11.5791V11.5711ZM20.2891 6.98471C20.2492 6.98471 20.2092 6.98272 20.1693 6.98072C20.1433 7.37806 19.9636 7.49786 19.6102 7.37207C19.2628 7.24828 18.9074 7.15244 18.554 7.04262C17.953 6.85493 17.3919 6.88688 16.8947 7.32415C16.5493 7.62965 16.4455 8.47425 16.7909 8.77176C17.1603 9.09123 17.5936 9.3508 18.0288 9.57243C18.4142 9.7701 18.8435 9.88192 19.2548 10.0277C19.5443 10.1315 19.6062 10.3751 19.5364 10.6127C19.5104 10.7026 19.2648 10.7505 19.1131 10.7724C18.9933 10.7884 18.8595 10.7505 18.7397 10.7125C17.9969 10.4769 17.2421 10.3212 16.4574 10.3272C16.2139 10.3292 15.9483 10.2453 15.7965 10.5468C15.7706 10.5967 15.6508 10.6287 15.5789 10.6227C15.3034 10.6027 15.1935 10.7665 15.1436 10.9941C15.0957 11.2157 14.9699 11.2477 14.7862 11.1658C14.7143 11.1338 14.6445 11.0979 14.5726 11.062C14.3769 11.5452 14.291 11.619 14.0594 11.5132C13.8318 11.4094 13.728 10.9901 13.8657 10.7165C13.9456 10.9482 14.0255 11.1818 14.1053 11.4134C14.1533 11.4114 14.1992 11.4074 14.2471 11.4054C14.315 11.2217 14.3809 11.04 14.4548 10.8383C14.6305 10.9122 14.7922 10.9801 14.926 11.036C15.0518 10.7884 15.1656 10.5648 15.2514 10.3991C15.4451 10.3991 15.6348 10.457 15.7267 10.3871C15.9084 10.2473 15.7366 10.1016 15.6408 9.97976C15.507 9.81004 15.3633 9.64631 15.2135 9.4686C15.7107 9.03532 15.2634 8.43431 15.4671 7.92715C15.6288 7.99304 15.7626 8.04895 15.9663 8.13082C15.9523 7.89321 15.9962 7.67757 15.9203 7.52182C15.7786 7.2323 15.5649 6.97872 15.3673 6.68721C15.3533 6.6932 15.2974 6.70518 15.2475 6.73313C14.92 6.91283 14.8441 6.8729 14.8042 6.49153C14.7882 6.34178 14.8042 6.19402 14.5726 6.18404C14.317 6.17406 14.333 6.35176 14.307 6.50151C14.2411 6.89287 14.1253 6.95476 13.7599 6.77905C13.692 6.74711 13.6241 6.71516 13.5702 6.6892C13.5143 6.88089 13.4983 7.18239 13.4105 7.20435C12.8874 7.34013 13.0651 7.71351 13.0351 8.13281C13.2667 8.02299 13.4265 7.94712 13.6102 7.86126C13.5882 8.21867 13.5602 8.5621 13.5543 8.90553C13.5543 9.01336 13.5822 9.14713 13.6481 9.22301C13.8617 9.4686 13.8438 9.62634 13.5902 9.82202C13.4904 9.89789 13.4265 10.0417 13.3825 10.1654C13.3326 10.3052 13.3426 10.465 13.2927 10.6027C13.1869 10.9042 13.1729 11.1618 13.4904 11.3555C13.5682 11.4034 13.6082 11.5092 13.6781 11.6071C13.5862 11.657 13.5243 11.7189 13.4664 11.7149C13.1949 11.6909 12.9273 11.627 12.6557 11.619C12.2684 11.6051 12.1027 11.3874 12.0288 11.044C11.9689 10.7605 11.925 10.4689 11.8231 10.2014C11.6674 9.79207 11.6634 9.38474 11.7732 8.97342C11.901 8.49222 11.8091 8.02699 11.6814 7.57174C11.5915 7.25027 11.3719 7.01267 11.0085 6.85493C10.685 7.42399 10.5452 7.96509 10.9885 8.57209C10.8687 8.53814 10.7489 8.5042 10.6311 8.47025C10.4514 8.89355 10.4594 9.27892 10.9366 9.57842C10.4314 9.79606 10.8148 10.0756 10.8128 10.3252C10.8088 10.7365 11.1263 10.7625 11.4418 10.7904C11.0284 11.2596 11.0045 11.4234 11.322 11.667C11.4757 11.7848 11.6614 11.8646 11.8331 11.9565C11.9369 12.0124 12.0468 12.0603 12.1785 12.1242C12.1106 12.2001 12.0807 12.232 12.0507 12.266C11.895 12.4357 11.7453 12.5974 11.9669 12.829C12.1685 13.0387 12.3403 13.0666 12.5958 12.879C12.8674 12.6813 13.1949 12.5615 13.5083 12.4017C13.7 12.9189 13.6281 13.3402 13.3706 13.7595C13.079 14.2327 12.7396 14.648 12.2764 14.9695C12.2424 14.9116 12.2225 14.8916 12.2225 14.8737C12.2045 14.5043 11.9549 14.5142 11.6794 14.5162C11.3619 14.5202 11.2361 14.7199 11.2201 14.9675C11.2002 15.283 11.4837 15.253 11.6953 15.293C11.7572 15.3049 11.8571 15.3489 11.8591 15.3828C11.8611 15.4507 11.8251 15.5366 11.7772 15.5885C11.6993 15.6723 11.5675 15.7143 11.5096 15.8061C11.3399 16.0836 11.1802 16.3712 11.0564 16.6707C11.0284 16.7366 11.1682 16.8703 11.2301 16.9742C11.32 16.8963 11.4278 16.8304 11.4917 16.7346C11.5476 16.6527 11.5536 16.5389 11.5855 16.4211C11.9948 16.457 12.1466 16.1535 12.2864 15.8201C12.4381 16.0198 12.5659 16.1895 12.7216 16.3951C13.2587 15.848 13.101 15.1392 13.3067 14.5362C13.3566 14.678 13.3526 14.8237 13.3805 14.9615C13.3985 15.0514 13.4544 15.1911 13.5123 15.2031C13.6102 15.2231 13.7519 15.1851 13.8218 15.1153C13.8917 15.0454 13.9276 14.9076 13.9216 14.8018C13.8957 14.3745 13.8478 13.9492 13.8038 13.482C13.9396 13.6557 14.0634 13.8094 14.1852 13.9652C14.2231 13.9612 14.2611 13.9572 14.297 13.9532C14.297 13.6876 14.2611 13.4141 14.307 13.1565C14.3549 12.8909 14.4827 12.6394 14.5746 12.3838C14.6764 12.4596 14.6844 12.5136 14.7044 12.5635C14.7403 12.6513 14.7742 12.8011 14.8281 12.8111C14.938 12.829 15.1137 12.8111 15.1676 12.7392C15.4811 12.3139 15.9084 12.276 16.3776 12.3119C16.5613 12.3259 16.749 12.3139 16.9347 12.3119C17.2002 12.3079 17.4857 12.3458 17.5596 11.9205C17.6315 12.0364 17.6754 12.0863 17.6974 12.1462C17.9729 12.9049 18.52 13.462 19.139 13.9272C19.4884 14.1908 19.4305 14.5043 19.4146 14.8237C19.4006 15.0853 18.9673 15.4906 18.7437 15.5166C18.2066 15.5825 18.0788 15.7063 17.967 16.3113C18.0808 16.2693 18.1726 16.2454 18.2565 16.2035C18.3383 16.1615 18.4102 16.0976 18.522 16.0198C18.4641 16.3113 18.4202 16.5249 18.3783 16.7386C18.9493 16.8604 18.9933 16.8384 19.2189 16.3532C19.2868 16.2074 19.3547 16.0597 19.4265 15.9059C19.7181 16.1156 19.3487 16.6966 19.9437 16.6707C19.9437 16.5209 19.8898 16.3412 19.9537 16.2793C20.2811 15.9559 20.0076 15.7642 19.8359 15.5306C19.6382 15.263 19.7121 15.0314 20.0196 14.8856C20.329 14.7399 20.4209 14.4923 20.1893 14.2547C19.9776 14.037 19.9876 13.8354 20.0814 13.5978C20.1453 13.436 20.2312 13.2843 20.2871 13.1206C20.327 13.0028 20.331 12.873 20.353 12.7492L20.2751 12.7452C20.1733 12.9029 20.0715 13.0607 19.9257 13.2843C19.5004 12.5595 19.4345 11.6989 18.6898 11.2497C18.7916 11.2257 18.8774 11.2277 18.9593 11.2457C19.756 11.4134 20.0116 11.2237 20.0595 10.427C20.0894 9.94182 19.7081 9.47459 19.1969 9.37675C19.147 9.46461 19.0951 9.55646 19.0352 9.66428C18.7556 9.12384 18.5294 8.86294 18.3563 8.88157C18.3423 8.97741 18.3284 9.07326 18.3004 9.26095C18.1147 9.05928 17.953 8.9275 17.8471 8.75978C17.5816 8.34047 17.4358 8.31052 17.1024 8.70986C17.1024 8.48423 17.0844 8.30453 17.1064 8.13082C17.1463 7.8393 17.2781 7.73347 17.6215 7.73547C18.2345 7.73946 18.7517 7.85328 19.2349 8.27059C19.5943 8.57808 20.2172 8.3245 20.4149 7.85927C20.1254 7.91318 19.8458 8.02899 19.5803 8.00103C19.3187 7.97308 19.0751 7.79737 18.8235 7.68555C18.8415 7.64362 18.8615 7.60369 18.8794 7.56176C18.9992 7.62166 19.131 7.66359 19.2349 7.74146C19.6701 8.07491 20.0555 7.68156 20.4668 7.66159C20.4928 7.66159 20.5467 7.51184 20.5247 7.45593C20.4648 7.29221 20.373 7.14245 20.2931 6.98671L20.2891 6.98471ZM17.1763 28.2994C17.2162 28.0498 17.2362 27.7963 17.306 27.5567C17.328 27.4828 17.4877 27.4009 17.5796 27.4069C18.1646 27.4408 18.8036 27.3011 19.2349 27.8821C19.2728 27.934 19.3507 27.96 19.4126 27.9879C19.8019 28.1696 20.365 27.942 20.5347 27.5167C20.2432 27.5746 19.9636 27.6824 19.6861 27.6725C19.3307 27.6585 19.0731 27.4508 18.9913 27.1953C19.5144 27.7004 20.0655 27.5207 20.6964 27.2631C20.5986 27.0615 20.4968 26.8498 20.3949 26.6402C20.359 26.6462 20.323 26.6522 20.2891 26.6581C20.2592 27.0495 20.0735 27.1593 19.722 27.0355C19.3746 26.9137 19.0192 26.8139 18.6658 26.7101C18.0668 26.5324 17.5017 26.5563 17.0065 26.9976C16.6691 27.2991 16.5773 28.1676 16.9187 28.4532C17.2841 28.7607 17.7054 29.0162 18.1327 29.2299C18.53 29.4296 18.9693 29.5454 19.3906 29.7011C19.6601 29.8029 19.73 30.0385 19.6522 30.2662C19.6182 30.362 19.3886 30.4199 19.2408 30.4359C19.0971 30.4499 18.9433 30.3999 18.8016 30.356C18.0568 30.1284 17.3001 29.9806 16.5154 29.9946C16.2957 29.9986 16.0501 29.9247 15.9183 30.2083C15.8944 30.2582 15.7766 30.2841 15.7007 30.2841C15.4371 30.2841 15.3133 30.4239 15.2634 30.6635C15.2155 30.8971 15.0797 30.9391 14.8821 30.8213C14.8222 30.7873 14.7583 30.7613 14.6964 30.7314C14.4867 31.2186 14.4128 31.2845 14.1892 31.1866C13.9596 31.0868 13.8498 30.6955 13.9756 30.37C14.0614 30.6176 14.1413 30.8472 14.2192 31.0768C14.2571 31.0728 14.297 31.0688 14.335 31.0648C14.4108 30.8931 14.4867 30.7214 14.5766 30.5178C14.7363 30.5856 14.9 30.6535 15.0498 30.7174C15.1716 30.4698 15.2834 30.2442 15.3752 30.0605H15.8664C15.8225 29.9088 15.7906 29.753 15.7307 29.6093C15.7027 29.5414 15.5989 29.5054 15.5689 29.4395C15.511 29.3117 15.4391 29.172 15.4431 29.0382C15.4571 28.6768 15.513 28.3154 15.545 27.954C15.5549 27.8482 15.545 27.7384 15.545 27.5926C15.7426 27.6665 15.8844 27.7184 16.12 27.8062C16.0721 27.5327 16.0661 27.3151 15.9902 27.1274C15.9064 26.9217 15.7307 26.752 15.6448 26.5463C15.5729 26.3686 15.507 26.3367 15.3413 26.4185C15.0378 26.5663 14.9559 26.5164 14.93 26.1889C14.916 26.0252 14.94 25.8555 14.6944 25.8455C14.4508 25.8355 14.4528 25.9992 14.4328 26.165C14.3809 26.5703 14.2711 26.6282 13.8917 26.4545C13.8238 26.4225 13.7579 26.3866 13.6661 26.3387C13.6122 26.6162 13.68 26.9057 13.3047 27.0156C13.2048 27.0455 13.107 27.5007 13.1968 27.6525C13.3466 27.9101 13.5123 27.6106 13.6661 27.5267C13.6741 27.5227 13.688 27.5327 13.7419 27.5467C13.734 27.6445 13.718 27.7523 13.716 27.8621C13.706 28.1736 13.6241 28.5111 13.716 28.7906C13.8258 29.1241 14.0514 29.4016 13.5503 29.5773C13.5363 29.5813 13.5303 29.6192 13.5263 29.6412C13.4724 30.0146 13.4245 30.388 13.3626 30.7574C13.3426 30.8732 13.3226 31.0329 13.2448 31.0888C12.9752 31.2765 12.2404 30.987 12.1606 30.6695C11.9629 29.8908 11.7193 29.14 11.921 28.2894C12.0527 27.7324 11.921 27.1074 11.4058 26.6761C11.2341 26.5324 11.1023 26.5224 11.0005 26.744C10.8507 27.0715 10.7749 27.3949 10.9506 27.7443C11.0344 27.9101 11.0704 28.0998 11.1482 28.3394C10.9466 28.2854 10.8308 28.2535 10.707 28.2196C10.4254 28.6808 10.7449 28.9623 11.0284 29.2658C10.5432 29.4895 10.9446 29.767 10.9366 30.0166C10.9246 30.4139 11.2521 30.4199 11.4597 30.4419C11.3858 30.6895 11.2161 30.945 11.276 31.1267C11.4138 31.5461 11.8351 31.3624 12.1745 31.3883C12.1007 31.584 11.9769 31.7577 11.9869 31.9234C11.9968 32.1031 12.0967 32.3168 12.2285 32.4366C12.2943 32.4965 12.5339 32.4126 12.6697 32.3447C12.9493 32.205 13.1968 31.9993 13.4824 31.8795C13.8697 31.7198 14.2631 31.8016 14.6045 32.0332C14.8521 32.201 14.8661 32.5164 14.6724 32.7261C14.2212 33.2133 13.7659 33.3271 13.1529 33.1035C12.9552 33.0316 12.7596 32.9477 12.53 33.2113C12.7596 33.3391 12.9652 33.4529 13.1809 33.5727C13.1489 33.6146 13.105 33.6466 13.095 33.6865C13.0671 33.8143 13.0511 33.9441 13.0311 34.0719C13.1729 34.0639 13.3246 34.0819 13.4544 34.0399C13.5563 34.006 13.6241 33.8842 13.72 33.8203C13.7998 33.7664 13.8977 33.7384 13.9875 33.7005C14.0275 33.7923 14.0814 33.8822 14.1013 33.978C14.1233 34.0898 14.0774 34.2316 14.1293 34.3195C14.1932 34.4253 14.331 34.4852 14.4348 34.5651C14.4867 34.4712 14.5826 34.3754 14.5826 34.2815C14.5826 34.0878 14.5207 33.8922 14.5047 33.6965C14.4787 33.375 14.5746 33.3051 14.8841 33.401C15.2055 33.5008 15.3633 33.403 15.4092 33.0655C15.4212 32.9737 15.4152 32.8798 15.4152 32.788C15.4152 32.4512 15.5742 32.2842 15.8924 32.2868C15.9104 32.2868 15.9283 32.2629 15.9703 32.2349C15.9703 32.159 15.9822 32.0652 15.9683 31.9773C15.9143 31.6419 16.0581 31.5041 16.3896 31.5161C16.713 31.5261 17.0485 31.4722 17.36 31.5341C17.5976 31.582 17.945 31.7238 18.0049 31.9035C18.1986 32.4745 18.6299 32.8379 18.9913 33.2652C19.3407 33.6785 19.5144 34.1697 19.3287 34.6868C19.2029 35.0323 19.0731 35.3258 19.2009 35.7092C19.2967 35.9947 19.0771 36.2363 18.8695 36.1684C18.4561 36.0306 18.1966 36.2123 18.2125 36.6576C18.2165 36.7794 18.2884 36.9651 18.3763 36.997C18.4641 37.031 18.6159 36.9211 18.7297 36.8553C18.7976 36.8153 18.8435 36.7395 18.8994 36.6815C18.9274 36.6915 18.9553 36.7015 18.9833 36.7115V37.4642C19.2508 37.3245 19.3067 37.1647 19.2828 36.9231C19.2289 36.3761 19.4046 36.1944 19.8638 36.2842C19.9976 35.8689 19.8259 35.5115 19.5743 35.0962C19.756 35.1681 19.8458 35.204 19.9337 35.2399C20.1334 34.8007 20.1314 34.6609 19.8239 34.3973C19.6002 34.2056 19.6621 33.982 19.6861 33.7604C19.6901 33.7165 19.8179 33.6506 19.8818 33.6566C19.9616 33.6645 20.0355 33.7364 20.1214 33.7863C20.2292 33.1634 20.1573 33.0016 19.6442 32.78C19.3067 32.6342 19.0831 32.4466 19.1071 32.0292C19.117 31.8635 19.0032 31.6818 18.9194 31.5201C18.8395 31.3663 18.7117 31.2386 18.6318 31.0868C18.4781 30.7953 18.5819 30.6455 18.9094 30.6595C19.175 30.6715 19.4485 30.7234 19.7061 30.6815C19.8678 30.6555 20.0894 30.5138 20.1374 30.374C20.341 29.787 19.9636 29.188 19.3327 29.0382C19.2808 29.1261 19.2269 29.2179 19.161 29.3257C18.9373 29.0382 19.0372 28.5211 18.5041 28.5171C18.4741 28.6369 18.4502 28.7387 18.4102 28.9084C18.2305 28.7087 18.0708 28.571 17.961 28.4013C17.7074 28.0019 17.5536 27.974 17.1862 28.3014L17.1763 28.2994ZM32.7984 31.7497C33.2516 32.0632 33.651 32.0812 33.9685 31.8316C34.8171 31.1647 35.9512 31.1667 36.7978 31.8356C36.9855 31.9833 37.1811 32.1331 37.0234 32.4086C36.8197 32.77 36.5182 32.8918 36.2008 32.764C35.9911 32.6802 35.7355 32.6083 35.6137 32.8459C35.468 33.1274 35.7854 33.1274 35.9292 33.2273C35.9372 33.2333 35.9412 33.2452 35.9632 33.2772C35.9252 33.379 35.8513 33.4928 35.8434 33.6126C35.8354 33.7364 35.8553 33.9041 35.9332 33.98C35.9931 34.0379 36.1948 34.0239 36.2746 33.964C36.3885 33.8782 36.4743 33.7304 36.5202 33.5927C36.5602 33.4749 36.5282 33.3331 36.5282 33.2013C36.5702 33.1873 36.6121 33.1734 36.654 33.1614C36.7558 33.3451 36.8577 33.5268 36.9575 33.7105C36.9935 33.7185 37.0274 33.7264 37.0633 33.7344C37.1472 33.4749 37.267 33.2193 37.3049 32.9537C37.3429 32.6822 37.3349 32.4066 37.6224 32.2708C37.9379 32.1211 37.89 31.9114 37.7043 31.7238C37.5026 31.5201 37.2351 31.3803 37.0374 31.1727C36.9196 31.0469 36.7778 30.8013 36.8277 30.6875C36.9395 30.4379 37.1372 30.6615 37.2989 30.7074C37.3209 30.7134 37.3389 30.7294 37.3608 30.7374C37.7941 30.8831 38.2793 30.7134 38.3692 30.384C38.5349 29.779 38.1935 29.2099 37.5465 29.0322C37.4966 29.1221 37.4427 29.2139 37.3549 29.3736C37.275 29.138 37.239 28.9563 37.1552 28.7986C37.0653 28.6309 36.9575 28.4392 36.7019 28.547C36.684 28.6508 36.666 28.7467 36.636 28.9204C36.4543 28.7227 36.2946 28.5889 36.1848 28.4212C35.9152 28.0059 35.7795 27.982 35.436 28.3274C35.436 28.0698 35.456 27.8142 35.5239 27.5706C35.5438 27.4948 35.6996 27.4069 35.7894 27.4109C36.3885 27.4388 37.0354 27.3151 37.4747 27.9001C37.4946 27.926 37.5306 27.94 37.5605 27.958C37.9638 28.1876 38.5449 27.9899 38.7625 27.5227C38.469 27.5806 38.1915 27.6844 37.9199 27.6765C37.6344 27.6665 37.3708 27.5187 37.1891 27.2392C37.7302 27.6864 38.2813 27.5387 38.9063 27.2552C38.8204 27.0675 38.7226 26.8538 38.6587 26.716C38.4351 26.8698 38.2693 27.0794 38.1256 27.0655C37.7762 27.0315 37.4387 26.8718 37.0893 26.8019C36.6979 26.724 36.2926 26.6242 35.9053 26.6601C35.5159 26.6941 35.1485 26.9117 35.0227 27.337C34.8889 27.7923 34.7991 28.2715 35.2683 28.5989C35.6257 28.8465 36.0071 29.0682 36.4004 29.2538C36.7838 29.4335 37.1951 29.5553 37.5925 29.7011C37.86 29.7989 37.9259 30.0106 37.886 30.2602C37.84 30.5417 37.6044 30.4399 37.4387 30.4439C37.3029 30.4459 37.1612 30.4139 37.0314 30.37C36.3126 30.1344 35.5758 29.9986 34.819 29.9986C34.5655 29.9986 34.2799 29.9108 34.1242 30.2242C34.1082 30.2562 34.0423 30.2821 34.0024 30.2801C33.6829 30.2602 33.5332 30.4179 33.4573 30.7174C33.4413 30.7833 33.2536 30.8292 33.1418 30.8392C33.066 30.8452 32.9841 30.7733 32.9102 30.7374C32.7664 30.9271 32.8164 31.2885 32.445 31.2006C32.1894 31.1407 32.0656 30.7434 32.1774 30.39C32.3991 30.5537 32.1654 30.971 32.5608 31.0609C32.6367 30.8792 32.7105 30.7054 32.7904 30.5178C32.9641 30.5916 33.1179 30.6575 33.2636 30.7214C33.3854 30.4758 33.4972 30.2482 33.5871 30.0645H34.0743C34.0264 29.9028 33.9864 29.737 33.9245 29.5813C33.9026 29.5254 33.8027 29.4974 33.7808 29.4415C33.7269 29.3018 33.661 29.15 33.667 29.0063C33.6769 28.7247 33.7408 28.4452 33.7668 28.1637C33.7828 27.9879 33.7708 27.8102 33.7708 27.6006C33.9585 27.6665 34.1022 27.7164 34.26 27.7703C34.274 27.6944 34.2839 27.6505 34.2919 27.6046C34.3977 27.0615 33.7708 26.8498 33.7947 26.3307C33.667 26.3806 33.6031 26.4026 33.5432 26.4325C33.2716 26.5663 33.1758 26.5124 33.1478 26.2029C33.1338 26.0452 33.1698 25.8675 32.9242 25.8475C32.6526 25.8235 32.6706 26.0172 32.6447 26.1849C32.5867 26.5623 32.5009 26.6142 32.1495 26.4744C32.0676 26.4425 31.9917 26.3966 31.8599 26.3327C31.8879 26.6761 31.7721 26.8638 31.5045 27.0355C31.3827 27.1134 31.3348 27.5267 31.4287 27.6765C31.5704 27.9021 31.7242 27.6166 31.8699 27.5327C31.8839 27.5247 31.9119 27.5387 31.9079 27.5387C31.9079 27.958 31.816 28.4013 31.9338 28.7766C32.0476 29.138 32.2313 29.4056 31.7581 29.6013C31.7501 29.6053 31.7481 29.6212 31.7461 29.6332C31.6902 30.0066 31.6383 30.38 31.5764 30.7514C31.5565 30.8692 31.5485 31.0249 31.4726 31.0908C31.2789 31.2565 30.4742 31.0069 30.4123 30.7514C30.2267 29.9986 29.9012 29.2818 30.1148 28.4472C30.2187 28.0438 30.0889 27.5487 29.9571 27.1294C29.8872 26.9057 29.5877 26.752 29.392 26.5683C29.2842 26.8099 29.1385 27.0455 29.0806 27.2991C29.0466 27.4468 29.1484 27.6265 29.1944 27.7923C29.2403 27.958 29.2922 28.1217 29.3621 28.3513C29.1584 28.2894 29.0506 28.2595 28.9348 28.2235C28.6273 28.6808 28.9667 28.9563 29.2423 29.2838C28.7172 29.4795 29.1644 29.763 29.1524 30.0146C29.1345 30.3999 29.4479 30.4399 29.6836 30.4419C29.6077 30.6815 29.43 30.9371 29.4879 31.1208C29.6177 31.5441 30.041 31.3723 30.3884 31.3883C30.3125 31.586 30.1907 31.7597 30.2007 31.9254C30.2107 32.1051 30.3085 32.3188 30.4403 32.4386C30.5062 32.5005 30.7458 32.4206 30.8796 32.3507C31.1911 32.191 31.4866 31.9993 31.854 31.7817C31.8879 32.0892 31.9238 32.3028 31.9298 32.5184C31.9358 32.6722 31.9638 32.8898 31.8779 32.9717C31.4886 33.3411 31.0633 33.6725 30.626 34.0379C30.4503 33.4649 30.2287 33.3471 29.7355 33.5387C29.6456 33.5747 29.5238 33.7823 29.5518 33.8283C29.6576 34 29.8173 34.1398 29.9571 34.2895C30.007 34.3035 30.0569 34.3175 30.1069 34.3294C29.9551 34.4452 29.7914 34.5451 29.6556 34.6769C29.5158 34.8146 29.3501 35.0263 29.5638 35.174C29.6855 35.2579 29.9671 35.22 30.1128 35.1321C30.2646 35.0403 30.3265 34.8126 30.4503 34.6629C30.5162 34.585 30.628 34.5151 30.7258 34.5071C30.7678 34.5032 30.8277 34.6569 30.8776 34.7408C30.9375 34.8426 30.9934 34.9484 31.0493 35.0522C31.1471 34.9524 31.2809 34.8666 31.3308 34.7467C31.4267 34.5251 31.4706 34.2815 31.5385 34.0479C31.5824 33.9002 31.6303 33.7524 31.6763 33.6046C31.814 33.9461 32.0017 33.972 32.2673 33.8043C32.1994 33.6006 32.1375 33.413 32.0456 33.1414C32.2313 33.2592 32.3312 33.3211 32.5268 33.4429C32.6207 32.8439 32.7046 32.3108 32.7904 31.7577L32.7984 31.7497ZM31.7082 36.4699C31.6842 36.5677 31.6483 36.6536 31.6443 36.7395C31.6363 36.9072 31.6443 37.0749 31.6443 37.2426C31.848 37.1987 32.0956 37.2107 32.2433 37.0949C32.433 36.9451 32.5408 36.6915 32.6906 36.4859C32.7625 36.388 32.8523 36.3002 32.9641 36.1744C33.018 36.2982 33.034 36.3541 33.066 36.4C33.1298 36.4919 33.2017 36.5777 33.2696 36.6676C33.3395 36.5717 33.4234 36.4799 33.4773 36.3761C33.5072 36.3201 33.4733 36.2343 33.4932 36.1704C33.5731 35.9228 33.665 35.6792 33.7708 35.3837C34.0004 35.5894 34.1442 35.7191 34.3418 35.8968C34.3718 35.6093 34.3738 35.3997 34.4197 35.202C34.4457 35.0942 34.5255 34.9464 34.6174 34.9165C35.0127 34.7807 35.2384 34.4193 35.1166 34.0299C34.877 33.2612 34.9928 32.5444 35.4141 31.8675C35.478 31.7657 35.5359 31.6639 35.5978 31.56C35.5758 31.5201 35.5538 31.4822 35.5319 31.4422C35.2004 31.5321 34.8071 31.5421 34.5515 31.7337C34.272 31.9434 34.1042 32.3128 33.9126 32.6283C33.7588 32.8818 33.7488 33.1234 33.9725 33.387C34.274 33.7404 34.2819 34.1577 34.0343 34.4752C33.7987 34.7747 33.5571 35.0762 33.2776 35.3338C32.8902 35.6892 32.4929 36.0266 31.9099 35.5914C31.7761 35.4915 31.4267 35.6193 31.211 35.7171C31.1172 35.7591 31.0493 36.0027 31.0733 36.1364C31.1232 36.406 31.3688 36.42 31.5984 36.418C31.6184 36.418 31.6383 36.436 31.7062 36.4699H31.7082ZM17.5437 12.3997C17.34 12.4217 17.1144 12.4676 16.8887 12.4616C16.6471 12.4557 16.5872 12.5535 16.6052 12.7711C16.6431 13.2324 16.739 13.6657 17.1064 13.9891C17.6175 14.4384 17.4398 15.3688 16.6691 15.6883C16.4674 15.7722 16.112 15.7742 15.9643 15.6504C15.6388 15.3768 15.3133 15.4547 14.9799 15.5106C14.898 15.5246 14.8441 15.6923 14.7782 15.7901C14.8561 15.842 14.93 15.9339 15.0098 15.9379C15.1915 15.9479 15.3772 15.9 15.5609 15.9059C15.6468 15.9099 15.7287 15.9878 15.8125 16.0317C15.7526 16.1016 15.7067 16.2015 15.6308 16.2334C15.4831 16.2933 15.3113 16.2953 15.1636 16.3572C14.9719 16.4371 14.936 16.6986 15.1037 16.7625C15.2115 16.8045 15.3812 16.7805 15.4871 16.7206C15.7546 16.5728 16.0002 16.3871 16.2917 16.1935C16.3197 16.3852 16.3416 16.5289 16.3616 16.6747C16.715 16.7745 16.8109 16.5668 16.8927 16.2953C16.9826 15.9978 17.1124 15.7123 17.2322 15.3968C17.7333 15.7861 17.9051 15.7222 17.963 15.1692C17.9849 14.9555 17.9051 14.7299 17.8691 14.4943C17.8871 14.4943 17.931 14.4823 17.9709 14.4883C18.1906 14.5202 18.4302 14.5841 18.542 14.3166C18.6558 14.047 18.7177 13.7894 18.4621 13.5239C18.1307 13.1765 17.8491 12.7811 17.5397 12.3958L17.5437 12.3997ZM36.2147 14.4983C36.2147 14.4983 36.2667 14.4883 36.3086 14.4943C36.5282 14.5282 36.7718 14.5941 36.8856 14.3325C36.9994 14.069 37.0733 13.8094 36.8157 13.5379C36.4783 13.1805 36.1928 12.7751 35.8933 12.4017C35.6896 12.4237 35.464 12.4696 35.2404 12.4656C35.0007 12.4596 34.9488 12.5575 34.9548 12.7751C34.9688 13.2463 35.0926 13.6657 35.45 13.9911C35.9671 14.4643 35.7795 15.3549 35.0127 15.6923C34.7931 15.7881 34.4976 15.902 34.268 15.6484C33.9784 15.3289 33.623 15.4687 33.2916 15.5206C33.2217 15.5326 33.1458 15.6903 33.1298 15.7901C33.1239 15.8301 33.2636 15.9339 33.3435 15.9399C33.5132 15.9539 33.6889 15.9059 33.8606 15.9199C33.9645 15.9299 34.0623 16.0098 34.1641 16.0577C34.0843 16.1236 34.0144 16.2094 33.9225 16.2514C33.8307 16.2953 33.7189 16.2933 33.619 16.3173C33.4234 16.3632 33.2716 16.479 33.3834 16.6767C33.4274 16.7545 33.653 16.7605 33.7888 16.7426C33.8926 16.7306 33.9904 16.6347 34.0863 16.5708C34.26 16.453 34.4317 16.3312 34.6433 16.1855C34.6693 16.3951 34.6873 16.5389 34.7052 16.6767C35.0666 16.7186 35.1545 16.6188 35.2483 16.2554C35.3222 15.9698 35.466 15.7023 35.5858 15.4028C36.065 15.7901 36.2307 15.7342 36.2986 15.1971C36.3266 14.9755 36.2467 14.7399 36.2147 14.4943V14.4983ZM17.0644 31.6978C17.0045 32.1131 17.0684 32.4745 17.3739 32.812C17.8971 33.389 17.7194 33.996 16.9826 34.2715C16.8907 34.3055 16.749 34.3614 16.737 34.4293C16.6791 34.7428 16.4555 34.7208 16.2318 34.7168C16.0581 34.7148 15.8804 34.6948 15.7127 34.7248C15.6308 34.7388 15.529 34.8426 15.509 34.9225C15.491 34.9983 15.5789 35.18 15.6009 35.176C15.7646 35.1521 15.9603 35.1381 16.0721 35.0383C16.2258 34.9025 16.3396 34.8446 16.6052 35.0143C16.3496 35.1701 16.138 35.2899 15.9383 35.4276C15.8624 35.4795 15.8165 35.5714 15.7566 35.6453C15.8505 35.6872 15.9443 35.7631 16.0381 35.7631C16.3357 35.7631 16.5753 35.6433 16.721 35.3677C16.7649 35.2839 16.8268 35.208 16.9187 35.0722C16.9147 35.4782 17.0065 35.6952 17.1942 35.7231C17.1942 35.5594 17.1663 35.3917 17.2042 35.2399C17.2302 35.1381 17.346 34.9864 17.4258 34.9844C17.6635 34.9784 17.7253 34.8446 17.7553 34.6609C17.7773 34.5171 17.7833 34.3714 17.7972 34.2296C18.1486 34.211 18.2931 34.0093 18.2305 33.6246C18.3363 33.5987 18.4422 33.5727 18.544 33.5467C18.564 33.2033 18.55 32.9118 18.2525 32.6882C18.1267 32.5943 18.0568 32.4046 17.9989 32.2449C17.8152 31.7397 17.6295 31.6199 17.0664 31.6958L17.0644 31.6978ZM12.1007 28.2395C12.0408 28.6488 11.9928 28.9663 11.9409 29.3217C12.3682 29.1221 12.4321 28.7267 12.1007 28.2395ZM30.3245 8.61002C30.2686 8.97741 30.2207 9.30687 30.1608 9.69622C30.612 9.41469 30.6619 9.00537 30.3245 8.61002ZM11.9789 8.58207C11.9269 8.96943 11.883 9.30088 11.8311 9.70221C12.2644 9.39472 12.3063 9.01336 11.9789 8.58207ZM30.1568 29.3557C30.612 29.0801 30.6599 28.6628 30.3245 28.2894C30.2686 28.6429 30.2187 28.9603 30.1568 29.3557Z" fill="#9FACC0"/>
<path d="M31.936 7.428C32.1657 7.72151 32.3613 7.9711 32.573 8.24065C32.7866 7.67958 32.555 7.37608 31.936 7.428ZM33.7151 7.40204C33.0202 7.45595 32.8405 7.71352 33.0981 8.22667C33.2958 7.96111 33.4855 7.70753 33.7151 7.40204Z" fill="white"/>
<path d="M15.3395 7.45194C15.3136 7.41201 15.2856 7.37407 15.2596 7.33414C15.064 7.44595 14.8224 7.52183 14.6866 7.68556C14.6007 7.79138 14.6706 8.02699 14.6706 8.2027C14.7026 8.2027 14.7325 8.20669 14.7645 8.20669C14.9561 7.95511 15.1478 7.70153 15.3395 7.44995V7.45194ZM14.1754 8.19072C14.2094 8.19871 14.2433 8.20669 14.2753 8.21268C14.2753 8.02499 14.3491 7.7814 14.2573 7.66359C14.1355 7.50585 13.8879 7.44795 13.6922 7.34811C13.6703 7.38405 13.6503 7.42199 13.6283 7.45793C13.81 7.70153 13.9917 7.94513 14.1734 8.19072H14.1754Z" fill="white"/>
<path d="M27.3716 26.2828H26.0717V24.1004H23.2863V26.2808H21.9965V24.0964H21.076V18.3918C21.094 18.3779 21.102 18.3659 21.1119 18.3639C21.6371 18.286 22.1642 18.3599 22.6993 18.2201C23.1026 18.1143 23.5799 18.3239 24.0271 18.3319C24.3446 18.3379 24.716 18.1203 24.9716 18.2241C25.3649 18.3838 25.7343 18.3239 26.1117 18.3319C26.3473 18.3379 26.5889 18.1842 26.8205 18.2001C27.3336 18.2381 27.8428 18.3399 28.3899 18.4218V24.0644H27.3716V26.2828ZM24.724 22.3333C25.1812 22.2375 25.5845 22.1616 25.906 21.8541C26.2215 21.5526 26.2215 21.1832 25.908 20.8857C25.3649 20.3646 24.1389 20.3706 23.5998 20.8977C23.2624 21.2271 23.2564 21.6464 23.6577 21.896C23.9792 22.0977 24.3646 22.1935 24.722 22.3353L24.724 22.3333ZM22.302 26.0112C22.4837 26.0112 22.6314 26.0252 22.7772 26.0052C22.8491 25.9952 22.9669 25.9194 22.9689 25.8714C22.9828 25.3244 22.9769 24.7793 22.9769 24.2401H22.304V26.0112H22.302ZM26.4012 24.2302V25.9912H27.0242V24.2302H26.4012ZM26.8704 18.3439C26.7047 18.3539 26.5769 18.3619 26.4591 18.3699V19.5978C26.6168 19.5878 26.7446 19.5819 26.8704 19.5739V18.3439ZM24.5343 18.3659V19.5699H24.9216V18.3659H24.5343ZM23.0388 19.5819V18.3759H22.6434V19.5819H23.0388ZM27.1939 23.6551H27.6531V23.2757H27.1939V23.6551ZM22.2321 23.6571C22.2201 23.4994 22.2121 23.3896 22.2041 23.2698H21.7329C21.7389 23.4175 21.7449 23.5373 21.7509 23.6571H22.2341H22.2321ZM27.6371 19.4521C27.5253 19.5559 27.4614 19.6138 27.3995 19.6717C27.4754 19.7276 27.5473 19.8195 27.6272 19.8294C27.695 19.8374 27.7729 19.7476 27.8468 19.6997C27.7889 19.6298 27.729 19.5599 27.6371 19.4521Z" fill="#9FACC0"/>
<path d="M27.0242 32.3168C26.9084 32.4485 26.7985 32.5863 26.6767 32.7121C26.5849 32.8079 26.4731 32.9577 26.3772 32.9537C26.2814 32.9497 26.1915 32.784 26.1017 32.6861C25.9879 32.5623 25.8761 32.4366 25.7622 32.3108C25.7063 32.3148 25.6504 32.3187 25.5945 32.3227C25.6724 32.155 25.7143 31.9554 25.8321 31.8236C26.2215 31.3883 26.1256 30.8692 26.1157 30.366C26.1157 30.3121 25.9579 30.2721 25.926 30.2023C25.8521 30.0385 25.7243 29.8249 25.7782 29.7011C25.8321 29.5753 26.0897 29.4475 26.2395 29.4655C26.7526 29.5294 26.8265 29.753 26.6927 30.2602C26.541 30.8332 26.4291 31.4262 26.9982 31.8915C27.1 31.9733 27.106 32.173 27.1539 32.3168C27.112 32.3168 27.0681 32.3148 27.0262 32.3128L27.0242 32.3168Z" fill="#9FACC0"/>
<path d="M23.6577 9.55248C23.5379 9.69225 23.4241 9.83801 23.2963 9.97179C23.2045 10.0656 23.0927 10.2134 22.9948 10.2094C22.899 10.2054 22.8071 10.0437 22.7173 9.94583C22.6055 9.82203 22.4976 9.69225 22.3878 9.56646C22.3319 9.57045 22.276 9.57644 22.2181 9.58043C22.294 9.41271 22.3379 9.21504 22.4537 9.08126C22.8331 8.64199 22.7492 8.12684 22.7253 7.62168C22.7233 7.56577 22.5615 7.52783 22.5296 7.45795C22.4597 7.29222 22.3399 7.07458 22.3978 6.94879C22.4537 6.825 22.7153 6.70719 22.865 6.73115C23.3902 6.81501 23.4441 7.00071 23.3023 7.52783C23.1466 8.10488 23.0547 8.6959 23.6198 9.15913C23.7196 9.241 23.7236 9.44266 23.7715 9.58842C23.7336 9.57644 23.6957 9.56246 23.6577 9.55048V9.55248Z" fill="#9FACC0"/>
<path d="M22.2141 32.3188C22.294 32.1491 22.3419 31.9534 22.4577 31.8176C22.8351 31.3783 22.7452 30.8632 22.7273 30.358C22.7273 30.3081 22.6155 30.2602 22.5516 30.2183C22.3439 30.0845 22.282 29.8928 22.3838 29.6772C22.4857 29.4615 22.6714 29.3996 22.909 29.4695C23.4022 29.6113 23.4501 29.757 23.3143 30.2442C23.1486 30.8313 23.0467 31.4303 23.6238 31.9055C23.7236 31.9873 23.7236 32.189 23.7696 32.3368C23.7336 32.3248 23.6977 32.3128 23.6617 32.3008C23.5399 32.4406 23.4221 32.5863 23.2923 32.7201C23.2005 32.814 23.0967 32.9418 22.9868 32.9577C22.913 32.9677 22.8131 32.808 22.7313 32.7161C22.6115 32.5824 22.4977 32.4426 22.3818 32.3048C22.3259 32.3108 22.27 32.3148 22.2161 32.3208L22.2141 32.3188Z" fill="#9FACC0"/>
<path d="M23.6577 15.9818C23.5419 16.1116 23.4321 16.2454 23.3123 16.3672C23.2125 16.469 23.0967 16.6367 22.9948 16.6307C22.895 16.6248 22.8031 16.4391 22.7073 16.3352C22.5995 16.2194 22.4897 16.1056 22.3818 15.9918C22.3299 15.9958 22.276 16.0018 22.2241 16.0058C22.298 15.8381 22.3379 15.6384 22.4537 15.5066C22.8371 15.0713 22.7492 14.5542 22.7353 14.053C22.7353 13.9971 22.5755 13.9572 22.5436 13.8853C22.4697 13.7216 22.3579 13.5299 22.3898 13.3761C22.4358 13.1445 22.6574 13.0846 22.891 13.1425C23.3922 13.2663 23.4521 13.436 23.3163 13.9312C23.1546 14.5182 23.0547 15.1173 23.6338 15.5865C23.7276 15.6624 23.7316 15.852 23.7775 15.9898C23.7396 15.9858 23.7017 15.9838 23.6637 15.9798L23.6577 15.9818Z" fill="#9FACC0"/>
<path d="M30.2189 19.0228C30.123 18.9669 30.0252 18.925 29.9473 18.8611C29.7596 18.7033 29.7576 18.4058 29.9393 18.2481C30.1949 18.0245 30.4505 18.1742 30.6801 18.29C30.8938 18.3978 30.9097 18.6015 30.8359 18.8311C30.6342 19.4641 30.4844 20.089 31.1054 20.6102C31.1973 20.688 31.1953 20.8777 31.2152 20.9376C31.0435 21.1034 30.9277 21.2212 30.8079 21.335C30.6901 21.4488 30.5703 21.5586 30.4505 21.6704C30.3527 21.5506 30.2508 21.4328 30.161 21.309C30.121 21.2551 30.1051 21.1832 30.0771 21.1113C29.9753 21.0974 29.8754 21.0834 29.7776 21.0714C29.6937 20.8238 29.7756 20.6621 29.9433 20.4804C30.3327 20.0631 30.2169 19.53 30.2229 19.0248L30.2189 19.0228Z" fill="#9FACC0"/>
<path d="M25.3549 12.7332C25.2551 12.821 25.1493 12.9049 25.0554 13.0008C24.9316 13.1265 24.8158 13.2623 24.696 13.3941C24.5802 13.2483 24.4644 13.1046 24.3526 12.9548C24.3246 12.9189 24.3146 12.871 24.2927 12.821C24.1928 12.8091 24.093 12.7971 23.8814 12.7711C23.9812 12.5615 24.0291 12.3678 24.1469 12.234C24.5283 11.7967 24.4344 11.2816 24.4225 10.7784C24.4225 10.7245 24.2567 10.6866 24.2268 10.6167C24.1529 10.453 24.0311 10.2373 24.085 10.1115C24.1409 9.98774 24.3985 9.86594 24.5483 9.88391C25.0594 9.9498 25.1293 10.1674 24.9975 10.6786C24.8498 11.2497 24.7399 11.8427 25.303 12.3079C25.4048 12.3918 25.4148 12.5834 25.4687 12.7252C25.4308 12.7252 25.3929 12.7272 25.3569 12.7292L25.3549 12.7332Z" fill="#9FACC0"/>
<path d="M17.6776 23.9127C17.5618 24.0425 17.45 24.1782 17.3262 24.3C17.2264 24.3999 17.1166 24.5396 16.9968 24.5536C16.9209 24.5636 16.8191 24.3779 16.7292 24.2821C16.6134 24.1583 16.4976 24.0345 16.3838 23.9107C16.3339 23.9187 16.2839 23.9267 16.234 23.9346C16.3039 23.7709 16.3398 23.5812 16.4497 23.4514C16.7452 23.102 16.9049 22.2275 16.6893 21.8082C16.5715 21.5785 16.5495 21.3629 16.7711 21.2291C16.8929 21.1572 17.1186 21.1492 17.2444 21.2151C17.474 21.3369 17.438 21.5506 17.3622 21.7902C17.1685 22.4012 17.0507 23.0122 17.6477 23.5133C17.7455 23.5952 17.7455 23.7949 17.7894 23.9406L17.6796 23.9087L17.6776 23.9127Z" fill="#9FACC0"/>
<path d="M33.4655 20.9915C33.5454 20.8318 33.6013 20.6521 33.7131 20.5183C33.9926 20.1869 34.1424 19.3043 33.9367 18.903C33.8209 18.6774 33.789 18.4577 34.0106 18.322C34.1304 18.2481 34.358 18.2401 34.4838 18.306C34.7114 18.4258 34.6815 18.6374 34.6056 18.879C34.4159 19.488 34.2921 20.101 34.8871 20.6022C34.981 20.682 34.985 20.8677 35.001 20.9157C34.8153 21.1253 34.6895 21.2791 34.5517 21.4188C34.4599 21.5127 34.3401 21.6604 34.2482 21.6504C34.1504 21.6405 34.0665 21.4727 33.9767 21.3729C33.8648 21.2491 33.755 21.1253 33.6432 21.0015C33.5833 20.9975 33.5254 20.9935 33.4655 20.9915Z" fill="#9FACC0"/>
<path d="M23.6597 38.7282C23.5439 38.858 23.4321 38.9937 23.3083 39.1155C23.2085 39.2154 23.0987 39.3551 22.9808 39.3691C22.905 39.3791 22.8051 39.1934 22.7153 39.0936C22.6095 38.9758 22.5016 38.8599 22.3958 38.7421C22.3419 38.7481 22.286 38.7541 22.2321 38.7601C22.3 38.5904 22.3319 38.3907 22.4437 38.255C22.7412 37.8935 22.893 37.035 22.6734 36.6117C22.5615 36.396 22.5356 36.1844 22.7392 36.0586C22.867 35.9807 23.1026 35.9667 23.2364 36.0326C23.4481 36.1365 23.4361 36.3481 23.3602 36.5777C23.1526 37.2007 23.0348 37.8157 23.6358 38.3308C23.7336 38.4147 23.7296 38.6164 23.7715 38.7621C23.7356 38.7501 23.6997 38.7382 23.6637 38.7262L23.6597 38.7282Z" fill="#9FACC0"/>
<path d="M36.8878 23.9167C36.772 24.0465 36.6622 24.1822 36.5384 24.304C36.4386 24.4039 36.3268 24.5416 36.2089 24.5556C36.1311 24.5636 36.0332 24.3779 35.9434 24.2821C35.8296 24.1583 35.7138 24.0345 35.598 23.9107C35.552 23.9207 35.5061 23.9287 35.4582 23.9386C35.5181 23.7809 35.5401 23.5932 35.6439 23.4734C35.9614 23.098 36.1231 22.2474 35.9035 21.8062C35.7896 21.5766 35.7677 21.3589 35.9913 21.2291C36.1131 21.1572 36.3387 21.1552 36.4625 21.2231C36.6921 21.3469 36.6442 21.5646 36.5704 21.8002C36.3807 22.4112 36.2708 23.0222 36.8639 23.5193C36.9577 23.5972 36.9597 23.7849 37.0036 23.9227C36.9637 23.9207 36.9258 23.9187 36.8858 23.9167H36.8878Z" fill="#9FACC0"/>
<path d="M13.7521 23.9267C13.6423 24.0485 13.5365 24.1723 13.4207 24.2881C13.3188 24.3899 13.207 24.5556 13.1032 24.5536C13.0034 24.5516 12.9115 24.3659 12.8117 24.2621C12.6999 24.1463 12.5861 24.0365 12.4383 23.9486C12.3265 23.7649 12.3385 23.5812 12.5421 23.4335C12.9215 23.1599 12.9215 22.1436 12.7678 21.7962C12.6719 21.5786 12.638 21.3629 12.8456 21.2431C12.9754 21.1672 13.211 21.1612 13.3448 21.2291C13.5565 21.3389 13.5245 21.5506 13.4546 21.7782C13.2709 22.3872 13.1332 22.9982 13.7222 23.5054C13.822 23.5912 13.83 23.7869 13.8799 23.9307C13.838 23.9307 13.7941 23.9267 13.7521 23.9267Z" fill="#9FACC0"/>
<path d="M32.9843 23.9027C32.8625 24.0425 32.7447 24.1862 32.6169 24.32C32.525 24.4139 32.4132 24.5616 32.3154 24.5556C32.2195 24.5516 32.1277 24.3899 32.0378 24.2921C31.924 24.1703 31.8162 24.0445 31.7064 23.9187C31.6485 23.9227 31.5926 23.9267 31.5347 23.9327C31.6126 23.7629 31.6585 23.5693 31.7723 23.4315C32.0518 23.092 32.2036 22.2115 31.9959 21.8162C31.8761 21.5905 31.8442 21.3669 32.0678 21.2371C32.1956 21.1632 32.4332 21.1632 32.567 21.2351C32.7766 21.3489 32.7407 21.5586 32.6688 21.7842C32.4731 22.3952 32.3553 23.0042 32.9424 23.5094C33.0422 23.5952 33.0442 23.7929 33.0921 23.9406C33.0562 23.9287 33.0202 23.9167 32.9843 23.9027Z" fill="#9FACC0"/>
<path d="M19.6444 20.9436C19.4667 21.1113 19.3529 21.2172 19.241 21.325C19.1232 21.4388 19.0054 21.5546 18.8876 21.6684C18.7838 21.5386 18.676 21.4128 18.5781 21.2811C18.5442 21.2371 18.5342 21.1752 18.5103 21.1113C18.4104 21.0974 18.3086 21.0814 18.1149 21.0534C18.1908 20.8657 18.2207 20.6741 18.3286 20.5463C18.6261 20.1909 18.7878 19.3263 18.5761 18.905C18.4623 18.6774 18.4264 18.4557 18.65 18.3259C18.7778 18.2521 19.0194 18.2521 19.1492 18.3259C19.3748 18.4557 19.299 18.6774 19.2331 18.909C19.0613 19.508 18.9395 20.113 19.5266 20.6002C19.6244 20.682 19.6284 20.8797 19.6484 20.9436H19.6444Z" fill="#9FACC0"/>
<path d="M25.3529 28.7427C25.2351 28.8744 25.1233 29.0102 24.9995 29.136C24.8997 29.2378 24.7939 29.3796 24.6741 29.3996C24.6022 29.4116 24.4944 29.2259 24.4045 29.128C24.2907 29.0022 24.1769 28.8744 24.0631 28.7467C24.0092 28.7527 23.9552 28.7586 23.9013 28.7626C23.9812 28.5949 24.0311 28.4032 24.1449 28.2635C24.4245 27.924 24.5742 27.0495 24.3666 26.6501C24.2508 26.4245 24.2208 26.2049 24.4404 26.0691C24.5602 25.9952 24.7859 25.9852 24.9117 26.0491C25.1433 26.1689 25.1073 26.3886 25.0335 26.6242C24.8478 27.2352 24.722 27.8442 25.313 28.3473C25.4128 28.4312 25.4148 28.6289 25.4608 28.7746C25.4248 28.7646 25.3869 28.7546 25.3509 28.7427H25.3529Z" fill="#9FACC0"/>
<path d="M14.3172 21.0075C14.3911 20.8458 14.435 20.6601 14.5468 20.5303C14.8463 20.1769 14.9921 19.3103 14.7764 18.889C14.6666 18.6753 14.6427 18.4577 14.8443 18.3339C14.9721 18.256 15.2097 18.2481 15.3435 18.3159C15.5532 18.4238 15.5272 18.6354 15.4573 18.863C15.2656 19.484 15.1358 20.105 15.7448 20.6141C15.8367 20.69 15.8287 20.8837 15.7728 20.9875C15.655 21.1173 15.5412 21.2511 15.4194 21.3769C15.3195 21.4807 15.2077 21.6504 15.1039 21.6504C15.0041 21.6504 14.9082 21.4627 14.8104 21.3589C14.7026 21.2431 14.5967 21.1273 14.4889 21.0115H14.3172V21.0075Z" fill="#9FACC0"/>
<path d="M26.8604 38.7441C26.7566 38.856 26.6548 38.9718 26.5469 39.0796C26.4391 39.1874 26.3213 39.2872 26.2075 39.3891C26.1117 39.2813 26.0198 39.1714 25.922 39.0676C25.8102 38.9518 25.6924 38.842 25.5785 38.7302L25.4328 38.7362C25.5127 38.5684 25.5646 38.3768 25.6784 38.239C25.9559 37.9015 26.1077 37.015 25.896 36.6237C25.7742 36.396 25.7523 36.1804 25.9699 36.0446C26.0897 35.9707 26.3153 35.9608 26.4411 36.0266C26.6727 36.1445 26.6388 36.3641 26.5649 36.6017C26.3752 37.2127 26.2534 37.8217 26.8444 38.3248C26.9423 38.4087 26.9463 38.6064 26.9922 38.7501C26.9483 38.7481 26.9024 38.7461 26.8584 38.7441H26.8604Z" fill="#9FACC0"/>
<path d="M25.4348 15.9878C25.5107 15.8261 25.5586 15.6424 25.6684 15.5106C25.9699 15.1512 26.1057 14.2966 25.884 13.8673C25.7722 13.6517 25.7582 13.434 25.9619 13.3162C26.0917 13.2404 26.3632 13.2264 26.4511 13.3083C26.5589 13.4101 26.6088 13.6637 26.5649 13.8194C26.3872 14.4683 26.2474 15.0853 26.8644 15.6025C26.9543 15.6763 26.9443 15.872 26.9782 16.0098C26.9463 15.9978 26.9123 15.9858 26.8804 15.9738C26.7646 16.1036 26.6528 16.2394 26.531 16.3632C26.4311 16.465 26.3153 16.6347 26.2135 16.6308C26.1117 16.6268 26.0198 16.4411 25.922 16.3352C25.8142 16.2194 25.7063 16.1056 25.5985 15.9898C25.5426 15.9898 25.4867 15.9858 25.4328 15.9838L25.4348 15.9878Z" fill="#9FACC0"/>
<path d="M23.9093 35.0562C23.9792 34.8945 24.0151 34.7028 24.123 34.575C24.4225 34.2216 24.5802 33.3551 24.3666 32.9378C24.2508 32.7121 24.2228 32.4925 24.4444 32.3587C24.5662 32.2848 24.7939 32.2788 24.9176 32.3467C25.1453 32.4705 25.0993 32.6882 25.0295 32.9238C24.8498 33.5328 24.726 34.1458 25.321 34.6449C25.4168 34.7268 25.4148 34.9265 25.4588 35.0722C25.4208 35.0622 25.3829 35.0503 25.3449 35.0403C25.2291 35.1721 25.1213 35.3078 24.9975 35.4316C24.8977 35.5315 24.7859 35.6712 24.6701 35.6832C24.5922 35.6912 24.4943 35.5075 24.4045 35.4097C24.2907 35.2859 24.1769 35.1601 24.0631 35.0363C24.0131 35.0443 23.9632 35.0523 23.9133 35.0582L23.9093 35.0562Z" fill="#9FACC0"/>
<path d="M25.8301 9.67226C25.7143 9.65828 25.6245 9.6483 25.4588 9.62833C25.5047 9.45662 25.5007 9.26294 25.5965 9.15911C26.0897 8.618 26.0378 8.019 25.8661 7.38005C25.8261 7.2323 25.8701 6.98271 25.9739 6.89885C26.0777 6.81299 26.3533 6.80501 26.4591 6.88687C26.5669 6.96874 26.6009 7.20634 26.5889 7.36807C26.5649 7.69753 26.4311 8.02499 26.4491 8.34845C26.4611 8.59005 26.6328 8.82566 26.7466 9.05728C26.8305 9.227 26.9343 9.38474 27.0302 9.54846C26.9922 9.55246 26.9543 9.55845 26.9163 9.56244C26.8005 9.66827 26.6827 9.7701 26.5709 9.87792C26.4511 9.99173 26.3373 10.1115 26.2215 10.2273C26.1157 10.1015 26.0078 9.97775 25.908 9.84597C25.8741 9.80204 25.8621 9.74015 25.8321 9.67026L25.8301 9.67226Z" fill="#9FACC0"/>
<path d="M38.7128 20.9955C38.597 21.1253 38.4872 21.2611 38.3634 21.3849C38.2636 21.4867 38.1438 21.6544 38.0439 21.6464C37.9401 21.6384 37.8522 21.4527 37.7564 21.3469C37.6486 21.2311 37.5368 21.1193 37.4289 21.0055C37.377 21.0115 37.3231 21.0155 37.2712 21.0215C37.3471 20.8537 37.393 20.6601 37.5048 20.5223C37.7863 20.1789 37.9421 19.3083 37.7364 18.909C37.6206 18.6833 37.5827 18.4617 37.8023 18.3279C37.9281 18.252 38.1717 18.2501 38.2995 18.3239C38.5251 18.4537 38.4492 18.6773 38.3854 18.909C38.2216 19.508 38.0918 20.113 38.6789 20.6022C38.7767 20.684 38.7787 20.8817 38.8266 21.0255C38.7887 21.0155 38.7507 21.0055 38.7148 20.9975L38.7128 20.9955Z" fill="#9FACC0"/>
<path d="M11.9651 20.9895C11.8453 21.1313 11.7335 21.2771 11.6057 21.4108C11.5138 21.5067 11.402 21.6544 11.3062 21.6504C11.2103 21.6464 11.1185 21.4827 11.0306 21.3849C10.9188 21.2611 10.813 21.1313 10.7052 21.0035C10.6473 21.0095 10.5914 21.0155 10.5335 21.0215C10.6093 20.8518 10.6533 20.6581 10.7671 20.5183C11.0726 20.1469 11.2004 19.3123 10.9707 18.875C10.8569 18.6594 10.8509 18.4417 11.0586 18.3259C11.1904 18.2521 11.4599 18.2421 11.5498 18.3259C11.6556 18.4278 11.6995 18.6794 11.6576 18.8371C11.4899 19.472 11.3381 20.079 11.9331 20.5982C12.033 20.684 12.037 20.8797 12.0849 21.0255C12.045 21.0135 12.007 21.0015 11.9671 20.9895H11.9651Z" fill="#9FACC0"/>
<path d="M32.3414 8.54812C32.6908 9.01934 33.0142 8.88357 33.3297 8.53015C33.3597 8.55411 33.3896 8.57608 33.4176 8.60004C33.3796 8.95545 33.3756 9.32084 33.2878 9.66427C33.2558 9.78807 33.0242 9.93782 32.8805 9.93782C32.7187 9.93782 32.4472 9.82201 32.4112 9.70021C32.3094 9.36078 32.3054 8.99338 32.2635 8.63797L32.3414 8.55012V8.54812ZM32.3773 9.00936C32.4731 9.26493 32.549 9.5285 32.6808 9.76211C32.7107 9.81403 33.0242 9.80005 33.0482 9.74814C33.162 9.48856 33.2219 9.20304 33.3018 8.92749C32.9783 8.95545 32.7367 8.97741 32.3773 9.00936Z" fill="#9FACC0"/>
<path d="M31.936 7.42796C32.555 7.37804 32.7866 7.67954 32.573 8.24061C32.3613 7.97106 32.1657 7.71948 31.936 7.42796Z" fill="#9FACC0"/>
<path d="M33.7131 7.40204C33.4835 7.70753 33.2938 7.96111 33.0961 8.22667C32.8385 7.71352 33.0182 7.45595 33.7131 7.40204Z" fill="#9FACC0"/>
<path d="M14.0057 8.56612C14.3412 8.97944 14.6586 8.92752 15.016 8.4603C15.07 8.99341 15.1159 9.40473 14.8982 9.76813C14.8284 9.88394 14.5768 9.95382 14.419 9.93585C14.2793 9.92188 14.0736 9.77811 14.0417 9.65432C13.9578 9.32886 13.9518 8.98543 13.9159 8.64799L14.0057 8.56412V8.56612ZM14.0377 9.0014C14.1235 9.243 14.1934 9.51455 14.3212 9.75415C14.3511 9.81006 14.6666 9.80607 14.6906 9.75415C14.8084 9.49059 14.8763 9.20307 14.9581 8.93351C14.6267 8.95747 14.3851 8.97345 14.0397 8.9994L14.0377 9.0014Z" fill="#9FACC0"/>
<path d="M15.3395 7.45193C15.1478 7.70351 14.9561 7.95709 14.7645 8.20868C14.7325 8.20868 14.7026 8.20468 14.6706 8.20468C14.6706 8.02698 14.6007 7.79336 14.6866 7.68754C14.8204 7.52381 15.064 7.44794 15.2596 7.33612C15.2856 7.37605 15.3136 7.41399 15.3395 7.45393V7.45193Z" fill="#9FACC0"/>
<path d="M14.1754 8.1927C13.9937 7.94911 13.812 7.70551 13.6303 7.45992C13.6523 7.42398 13.6723 7.38604 13.6942 7.3501C13.8879 7.44993 14.1375 7.50983 14.2593 7.66558C14.3492 7.78338 14.2773 8.02698 14.2773 8.21467C14.2433 8.20668 14.2094 8.19869 14.1774 8.1927H14.1754Z" fill="#9FACC0"/>
<path d="M14.1155 28.2295C14.465 28.6668 14.7904 28.551 15.1039 28.1896C15.1378 28.2156 15.1718 28.2415 15.2057 28.2655C15.1598 28.6329 15.1458 29.0083 15.048 29.3597C15.014 29.4795 14.7645 29.6172 14.6227 29.6093C14.461 29.5993 14.2114 29.4655 14.1734 29.3337C14.0776 29.0063 14.0796 28.6508 14.0417 28.3054C14.0656 28.2795 14.0916 28.2555 14.1155 28.2295ZM15.0819 28.5889C14.7465 28.6149 14.4969 28.6349 14.1595 28.6628C14.2453 28.9144 14.3132 29.18 14.437 29.4176C14.465 29.4735 14.7804 29.4715 14.8024 29.4216C14.9242 29.156 14.9941 28.8665 15.0819 28.5889Z" fill="#9FACC0"/>
<path d="M14.8563 27.9201C14.6407 27.345 14.8383 27.0834 15.4613 27.0775C15.2596 27.359 15.072 27.6206 14.8563 27.9201Z" fill="#9FACC0"/>
<path d="M14.3112 27.8781C14.1215 27.6266 13.9318 27.375 13.7402 27.1234C13.7601 27.0874 13.7801 27.0515 13.8001 27.0156C13.9877 27.1054 14.2293 27.1533 14.3472 27.3011C14.451 27.4289 14.415 27.6665 14.439 27.8562C14.3951 27.8642 14.3531 27.8701 14.3092 27.8781H14.3112Z" fill="#9FACC0"/>
<path d="M32.3394 28.2236C32.6808 28.6469 33.0083 28.593 33.3237 28.1736C33.3557 28.2056 33.3876 28.2355 33.4216 28.2675C33.3796 28.6329 33.3717 29.0083 33.2798 29.3617C33.2479 29.4815 32.9963 29.6212 32.8525 29.6133C32.6908 29.6053 32.4412 29.4675 32.4033 29.3357C32.3054 29.0043 32.3074 28.6469 32.2675 28.2974C32.2914 28.2735 32.3174 28.2495 32.3414 28.2256L32.3394 28.2236ZM32.3833 28.6668C32.4751 28.9224 32.545 29.19 32.6748 29.4216C32.7048 29.4735 33.0402 29.4535 33.0662 29.3936C33.174 29.138 33.2199 28.8545 33.2838 28.5989C32.9683 28.6229 32.7347 28.6389 32.3833 28.6668Z" fill="#9FACC0"/>
<path d="M33.735 27.0395C33.4934 27.365 33.3037 27.6226 33.1081 27.8881C32.8245 27.4169 32.9903 27.1573 33.735 27.0395Z" fill="#9FACC0"/>
<path d="M31.932 27.0754C32.5989 27.0854 32.8046 27.3749 32.565 27.9041C32.3593 27.6345 32.1637 27.3789 31.932 27.0754Z" fill="#9FACC0"/>
<path d="M24.7399 22.0478C24.4744 21.9579 24.2188 21.912 24.0032 21.7922C23.6497 21.5945 23.6477 21.2192 23.9672 20.9696C24.3386 20.6821 25.0874 20.6741 25.4767 20.9556C25.8082 21.1952 25.8241 21.5686 25.4767 21.7782C25.2591 21.91 24.9895 21.9599 24.7379 22.0478H24.7399ZM24.718 21.8142C24.9336 21.7483 25.1313 21.7163 25.301 21.6285C25.5646 21.4907 25.5646 21.289 25.325 21.1213C25.0235 20.9097 24.3825 20.9237 24.103 21.1493C23.9153 21.301 23.9033 21.4787 24.113 21.5965C24.2987 21.7004 24.5183 21.7463 24.716 21.8142H24.718Z" fill="#9FACC0"/>
<path d="M142.112 25.1187C144.943 25.1187 147.698 25.0967 150.454 25.1347C151.121 25.1446 151.798 25.3044 152.447 25.4801C156.336 26.5343 158.475 29.7131 158.015 33.7165C157.584 37.4682 154.349 40.5112 150.596 40.5951C147.918 40.655 145.24 40.607 142.563 40.5871C142.389 40.5871 142.217 40.4014 142.044 40.3016C142.209 40.1658 142.361 39.9322 142.543 39.9082C143.869 39.7345 144.022 39.5827 144.022 38.239C144.022 34.597 144.024 30.953 144.022 27.3111C144.022 26.0951 143.809 25.8495 142.589 25.7856C142.08 25.7576 141.934 25.5899 142.116 25.1207L142.112 25.1187ZM146.914 32.4446H146.922C146.922 34.3694 146.908 36.2942 146.928 38.217C146.938 39.1315 147.259 39.5109 148.034 39.6646C150.651 40.1837 153.141 38.9059 154.266 36.4559C155.068 34.7088 155.066 32.8778 154.791 31.0249C154.206 27.0715 151.44 25.546 147.579 25.8894C147.055 25.9353 146.892 26.143 146.9 26.6701C146.932 28.5949 146.912 30.5197 146.912 32.4426L146.914 32.4446Z" fill="#9FACC0"/>
<path d="M178.449 11.3115C178.439 15.2231 175.65 18.0284 171.777 18.0244C168.013 18.0204 165.193 15.3109 165.175 11.6849C165.157 7.99104 168.041 5.12578 171.769 5.13776C175.71 5.14974 178.459 7.69154 178.449 11.3115ZM167.577 11.006C167.737 12.6254 168.015 14.1449 168.935 15.4786C169.872 16.8364 171.195 17.3356 172.801 17.092C174.336 16.8584 175.243 15.896 175.652 14.4523C176.107 12.851 176.247 11.2057 175.722 9.61435C175.428 8.72582 174.989 7.80535 174.374 7.11649C172.565 5.08785 169.319 5.6569 168.278 8.16276C167.909 9.05328 167.805 10.0556 167.579 11.006H167.577Z" fill="#9FACC0"/>
<path d="M125.679 32.5005C126.452 33.6725 127.206 34.8166 127.963 35.9627C128.436 36.6795 128.842 37.4563 129.409 38.0892C129.872 38.6064 130.537 38.9418 131.096 39.3771C131.296 39.5328 131.447 39.7465 131.621 39.9322C131.567 40.006 131.515 40.0799 131.461 40.1558C130.169 40.1558 128.876 40.1778 127.586 40.1338C127.364 40.1258 127.081 39.8782 126.945 39.6666C125.689 37.7258 124.439 35.779 123.227 33.8083C122.59 32.776 122.626 32.754 121.27 32.9817C121.27 34.7328 121.238 36.4919 121.284 38.2489C121.304 39.0037 121.797 39.411 122.572 39.429C122.754 39.433 122.959 39.395 123.111 39.4669C123.257 39.5348 123.345 39.7225 123.461 39.8563C123.339 39.9561 123.219 40.1418 123.097 40.1418C122.422 40.1478 121.745 40.0839 121.07 40.0879C119.719 40.0959 118.367 40.1458 117.015 40.1398C116.8 40.1398 116.586 39.9322 116.372 39.8203C116.576 39.6906 116.766 39.4789 116.985 39.445C118.035 39.2832 118.373 38.9258 118.373 37.8496C118.377 34.3115 118.379 30.7733 118.373 27.2352C118.371 25.8055 118.169 25.5899 116.75 25.3044C116.606 25.2764 116.498 25.0668 116.374 24.943C116.508 24.8312 116.644 24.6195 116.778 24.6215C119.557 24.6435 122.346 24.5656 125.114 24.7693C127.672 24.957 128.876 26.5004 128.702 28.9384C128.6 30.372 127.741 31.3084 126.567 32.0073C126.302 32.165 126.026 32.3088 125.683 32.5005H125.679ZM121.268 25.556V32.0931C122.76 32.0692 124.293 32.3587 125.234 30.8412C125.98 29.6352 125.859 27.5946 125.046 26.5463C124.255 25.524 122.782 25.1327 121.268 25.556Z" fill="#9FACC0"/>
</g>
<defs>
<clipPath id="clip0_460_2891">
<rect width="180" height="37.5758" fill="white" transform="translate(9 5)"/>
</clipPath>
</defs>
</svg>
