<svg width="72" height="72" viewBox="0 0 72 72" fill="none" xmlns="http://www.w3.org/2000/svg">
<path d="M56.75 53.5455V53.6212L56.792 53.6842L58.292 55.9342L58.5 56.2462L58.708 55.9342L60.208 53.6842L60.25 53.6212V53.5455V24C60.25 23.5359 60.0656 23.0908 59.7374 22.7626C59.4092 22.4344 58.9641 22.25 58.5 22.25C58.0359 22.25 57.5908 22.4344 57.2626 22.7626C56.9344 23.0908 56.75 23.5359 56.75 24V53.5455ZM54.25 24C54.25 22.8728 54.6978 21.7918 55.4948 20.9948C56.2918 20.1978 57.3728 19.75 58.5 19.75C59.6272 19.75 60.7082 20.1978 61.5052 20.9948C62.3022 21.7918 62.75 22.8728 62.75 24V54.3788L58.5 60.7538L54.25 54.3788V24Z" fill="white" stroke="#6D839F" stroke-width="0.5"/>
<path d="M61.25 29.75H55.75V27.25H61.25V29.75ZM15 11.75C14.138 11.75 13.3114 12.0924 12.7019 12.7019C12.0924 13.3114 11.75 14.138 11.75 15V57C11.75 57.862 12.0924 58.6886 12.7019 59.2981C13.3114 59.9076 14.138 60.25 15 60.25H45C45.862 60.25 46.6886 59.9076 47.2981 59.2981C47.9076 58.6886 48.25 57.862 48.25 57V15C48.25 14.138 47.9076 13.3114 47.2981 12.7019C46.6886 12.0924 45.862 11.75 45 11.75H15ZM9.25 15C9.25 13.475 9.8558 12.0125 10.9341 10.9341C12.0125 9.8558 13.475 9.25 15 9.25H45C46.525 9.25 47.9875 9.8558 49.0659 10.9341C50.1442 12.0125 50.75 13.475 50.75 15V57C50.75 58.525 50.1442 59.9875 49.0659 61.0659C47.9875 62.1442 46.525 62.75 45 62.75H15C13.475 62.75 12.0125 62.1442 10.9341 61.0659C9.8558 59.9875 9.25 58.525 9.25 57V15Z" fill="white" stroke="#6D839F" stroke-width="0.5"/>
<path d="M17.9999 41.75H17.7499V42V46.5V46.75H17.9999H22.4999H22.7499V46.5V42V41.75H22.4999H17.9999ZM19.4999 30.2674L15.6162 26.3837L15.6162 26.3837L15.6131 26.3807C15.4937 26.2654 15.3984 26.1274 15.3329 25.9749C15.2674 25.8224 15.2329 25.6584 15.2315 25.4924C15.2301 25.3265 15.2617 25.1619 15.3245 25.0082C15.3874 24.8546 15.4802 24.7151 15.5976 24.5977C15.7149 24.4803 15.8545 24.3875 16.0081 24.3246C16.1617 24.2618 16.3263 24.2302 16.4923 24.2316C16.6583 24.2331 16.8223 24.2675 16.9748 24.3331C17.1273 24.3986 17.2652 24.4938 17.3806 24.6132L17.3805 24.6132L17.3836 24.6163L19.3231 26.5558L19.4999 26.7326L19.6767 26.5558L24.6161 21.6163C24.8505 21.382 25.1684 21.2503 25.4999 21.2503C25.8313 21.2503 26.1492 21.3819 26.3836 21.6163C26.6179 21.8507 26.7496 22.1685 26.7496 22.5C26.7496 22.8315 26.6179 23.1493 26.3836 23.3837L19.4999 30.2674ZM30.2499 22.5C30.2499 22.1685 30.3816 21.8505 30.616 21.6161C30.8504 21.3817 31.1684 21.25 31.4999 21.25H43.4999C43.8314 21.25 44.1493 21.3817 44.3838 21.6161C44.6182 21.8505 44.7499 22.1685 44.7499 22.5C44.7499 22.8315 44.6182 23.1495 44.3838 23.3839C44.1493 23.6183 43.8314 23.75 43.4999 23.75H31.4999C31.1684 23.75 30.8504 23.6183 30.616 23.3839C30.3816 23.1495 30.2499 22.8315 30.2499 22.5ZM30.2499 28.5C30.2499 28.1685 30.3816 27.8505 30.616 27.6161C30.8504 27.3817 31.1684 27.25 31.4999 27.25H43.4999C43.8314 27.25 44.1493 27.3817 44.3838 27.6161C44.6182 27.8505 44.7499 28.1685 44.7499 28.5C44.7499 28.8315 44.6182 29.1495 44.3838 29.3839C44.1493 29.6183 43.8314 29.75 43.4999 29.75H31.4999C31.1684 29.75 30.8504 29.6183 30.616 29.3839C30.3816 29.1495 30.2499 28.8315 30.2499 28.5ZM30.2499 42C30.2499 41.6685 30.3816 41.3505 30.616 41.1161C30.8504 40.8817 31.1684 40.75 31.4999 40.75H43.4999C43.8314 40.75 44.1493 40.8817 44.3838 41.1161C44.6182 41.3505 44.7499 41.6685 44.7499 42C44.7499 42.3315 44.6182 42.6495 44.3838 42.8839C44.1493 43.1183 43.8314 43.25 43.4999 43.25H31.4999C31.1684 43.25 30.8504 43.1183 30.616 42.8839C30.3816 42.6495 30.2499 42.3315 30.2499 42ZM30.2499 48C30.2499 47.6685 30.3816 47.3505 30.616 47.1161C30.8504 46.8817 31.1684 46.75 31.4999 46.75H43.4999C43.8314 46.75 44.1493 46.8817 44.3838 47.1161C44.6182 47.3505 44.7499 47.6685 44.7499 48C44.7499 48.3315 44.6182 48.6495 44.3838 48.8839C44.1493 49.1183 43.8314 49.25 43.4999 49.25H31.4999C31.1684 49.25 30.8504 49.1183 30.616 48.8839C30.3816 48.6495 30.2499 48.3315 30.2499 48ZM16.4999 39.25H23.9999C24.3314 39.25 24.6493 39.3817 24.8838 39.6161C25.1182 39.8505 25.2499 40.1685 25.2499 40.5V48C25.2499 48.3315 25.1182 48.6495 24.8838 48.8839C24.6493 49.1183 24.3314 49.25 23.9999 49.25H16.4999C16.1684 49.25 15.8504 49.1183 15.616 48.8839C15.3816 48.6495 15.2499 48.3315 15.2499 48V40.5C15.2499 40.1685 15.3816 39.8505 15.616 39.6161C15.8504 39.3817 16.1684 39.25 16.4999 39.25Z" fill="white" stroke="#6D839F" stroke-width="0.5"/>
</svg>
