<svg width="198" height="48" viewBox="0 0 198 48" fill="none" xmlns="http://www.w3.org/2000/svg">
<g clip-path="url(#clip0_151_48466)">
<path d="M161.735 21.47C161.758 21.4689 161.779 21.4678 161.801 21.4667V22.081L161.772 22.0866L161.743 22.0821C161.608 21.8799 161.611 21.6755 161.735 21.4689V21.47Z" fill="#9FACC0"/>
<path d="M144.82 44.3937H144.266C144.245 44.358 144.252 44.3278 144.285 44.3022C144.457 44.2273 144.627 44.2273 144.799 44.3022C144.832 44.3267 144.839 44.358 144.818 44.3937H144.82Z" fill="#9FACC0"/>
<path d="M144.264 44.3379C144.264 44.3569 144.264 44.3748 144.266 44.3937H144.081V44.3278C144.146 44.2809 144.207 44.2798 144.264 44.339V44.3379Z" fill="#9FACC0"/>
<path d="M144.82 44.3937C144.82 44.3748 144.82 44.3569 144.821 44.3379C144.878 44.2798 144.938 44.2809 145.003 44.3256C145.003 44.348 145.003 44.3703 145.004 44.3937H144.82Z" fill="#9FACC0"/>
<path d="M161.735 21.47C161.738 21.6744 161.741 21.8788 161.743 22.0832C161.264 22.1234 160.784 22.1502 160.306 22.2061C159.503 22.301 158.698 22.3926 157.923 22.6439C157.657 22.7299 157.499 22.6093 157.498 22.3278C157.497 22.0933 157.498 21.8587 157.498 21.6186C157.368 21.6074 157.303 21.699 157.222 21.7504C155.548 22.8092 153.768 22.9913 151.928 22.2999C150.3 21.6889 149.327 20.4503 148.89 18.7995C148.435 17.085 148.536 15.3772 149.207 13.7387C149.967 11.8857 151.387 10.7632 153.323 10.2829C154.249 10.0528 155.19 10.0528 156.134 10.1299C156.562 10.1645 156.984 10.2338 157.397 10.2974C157.458 10.2137 157.44 10.14 157.44 10.0696C157.437 8.85102 157.433 7.63134 157.43 6.41278C157.43 6.10451 157.402 5.79736 157.346 5.49579C157.258 5.02556 157.054 4.8368 156.574 4.74745C156.413 4.71729 156.25 4.68937 156.087 4.6849C155.931 4.68043 155.858 4.62459 155.879 4.46487C155.884 4.43471 155.879 4.40344 155.879 4.37328C155.879 4.12532 155.854 4.11974 156.119 4.1041C157.288 4.03374 158.439 3.84944 159.58 3.58697C159.699 3.55904 159.815 3.51772 159.934 3.48756C160.131 3.4373 160.255 3.53112 160.248 3.7277C160.039 8.83762 160.19 13.9498 160.152 19.0608C160.148 19.5824 160.173 20.104 160.252 20.6223C160.308 20.9897 160.521 21.2075 160.856 21.3259C161.139 21.4265 161.436 21.4488 161.733 21.47H161.735Z" fill="#9FACC0"/>
<path d="M44.0173 28.0353C43.795 28.0453 43.6263 28.0576 43.4566 28.061C43.3125 28.0643 43.1695 28.061 43.04 27.9817C42.878 27.8834 42.7942 27.7427 42.7886 27.5528C42.7864 27.4623 42.8333 27.3741 42.792 27.2814C42.6948 27.2333 42.5898 27.2568 42.4893 27.2568C41.9565 27.2546 41.4227 27.2534 40.8899 27.2568C40.7614 27.2568 40.6609 27.23 40.5637 27.1317C39.0883 25.6507 37.6106 24.1719 36.1273 22.6975C36.0089 22.5791 36.0033 22.4518 36.0033 22.3077C36.0045 20.9663 36.0033 19.6237 36.0033 18.2823C36.0033 15.1784 36.0056 12.0745 35.9989 8.97054C35.9989 8.75944 36.0558 8.61089 36.2111 8.46345C37.8798 6.87072 39.5429 5.27352 41.2026 3.67186C41.3378 3.54118 41.4707 3.48198 41.6617 3.48198C46.2142 3.48645 50.7679 3.48756 55.3205 3.48198C55.5115 3.48198 55.6455 3.54229 55.7796 3.67186C57.446 5.28134 59.1147 6.88636 60.789 8.48803C60.9174 8.61201 60.9733 8.73375 60.9722 8.91246C60.9666 11.3295 60.9688 13.7476 60.9688 16.1646C60.9688 16.4517 60.9934 16.4305 60.7052 16.4305C58.5518 16.4305 56.3984 16.4293 54.2449 16.4282C54.1343 16.4282 54.0227 16.4282 53.9054 16.4282C53.8953 16.5444 53.8953 16.6349 53.8786 16.7231C53.8071 17.0839 53.4285 17.3285 53.0867 17.1978C52.8398 17.1029 52.5908 17.076 52.3372 17.0638C51.8871 17.0414 51.4437 16.9722 50.9768 16.8649C51.0874 17.0626 51.2337 17.1911 51.3778 17.3184C51.6324 17.544 51.934 17.7004 52.2199 17.8802C52.3328 17.9506 52.4567 17.935 52.5785 17.935C53.7166 17.935 54.8548 17.9394 55.9929 17.9316C56.2029 17.9305 56.3526 17.9908 56.5022 18.1427C57.9174 19.5679 59.3392 20.9875 60.7666 22.4015C60.9185 22.5523 60.9733 22.7009 60.9733 22.9109C60.9677 27.1518 60.9677 31.3928 60.9733 35.6337C60.9733 35.8426 60.9241 35.9922 60.7678 36.1419C59.0924 37.7413 57.4237 39.3475 55.7584 40.957C55.6299 41.0809 55.5015 41.1279 55.325 41.1279C50.7724 41.1234 46.2187 41.1234 41.6661 41.129C41.474 41.129 41.3434 41.0698 41.2082 40.9391C39.544 39.3285 37.8764 37.7212 36.2033 36.1185C36.0547 35.98 36 35.8381 36 35.6393C36.0089 33.4781 36.0078 31.3168 36.01 29.1544C36.01 29.1343 36.01 29.1131 36.01 29.093C36.01 28.8116 36.0011 28.8261 36.2792 28.8261C38.4639 28.8261 40.6475 28.8238 42.8322 28.8294C43.0232 28.8294 43.1539 28.8037 43.2365 28.6038C43.3091 28.4273 43.489 28.3447 43.6587 28.2654C43.766 28.2151 43.8989 28.2051 44.0161 28.0342L44.0173 28.0353Z" fill="#9FACC0"/>
<path d="M102.369 11.516C102.369 11.3451 102.374 11.182 102.366 11.0201C102.361 10.8894 102.403 10.8403 102.543 10.8459C103.066 10.8682 103.587 10.8414 104.108 10.7755C104.861 10.6805 105.609 10.5711 106.297 10.2181C106.515 10.1065 106.67 10.2126 106.674 10.4616C106.679 10.7029 106.674 10.9441 106.674 11.2044C106.814 11.1843 106.883 11.1027 106.966 11.0514C108.437 10.1266 110.02 9.83504 111.703 10.2852C113.142 10.6705 113.967 11.6523 114.24 13.102C114.341 13.6359 114.364 14.1799 114.367 14.7227C114.37 16.1568 114.369 17.5898 114.374 19.024C114.377 19.6182 114.385 20.2113 114.477 20.7999C114.591 21.5248 114.895 21.7459 115.572 21.8945C115.602 21.9012 115.633 21.9012 115.663 21.9045C116.017 21.9503 116.081 22.0419 116.012 22.3982C115.997 22.473 115.96 22.5032 115.889 22.4998C115.818 22.4965 115.746 22.4942 115.675 22.4887C113.975 22.3758 112.275 22.349 110.574 22.4585C110.421 22.4686 110.268 22.4853 110.115 22.5043C110.006 22.5177 109.964 22.4741 109.969 22.3691C109.973 22.3077 109.976 22.2452 109.968 22.1849C109.947 22.024 110.006 21.9447 110.175 21.9257C110.367 21.9045 110.555 21.8487 110.739 21.7828C111.139 21.6387 111.379 21.365 111.477 20.9518C111.603 20.419 111.623 19.8762 111.64 19.3356C111.685 17.8925 111.699 16.4483 111.649 15.0042C111.631 14.5038 111.596 14.0023 111.472 13.5131C111.209 12.4799 110.5 11.8879 109.439 11.8142C108.59 11.755 107.762 11.8343 106.973 12.1806C106.804 12.2543 106.725 12.3392 106.726 12.5391C106.737 14.9561 106.737 17.372 106.741 19.7891C106.741 20.1375 106.775 20.4838 106.833 20.8278C106.951 21.5214 107.265 21.7571 107.957 21.8967C108.027 21.9112 108.098 21.9213 108.17 21.9224C108.312 21.9246 108.364 21.9838 108.36 22.1301C108.348 22.5635 108.397 22.5088 107.979 22.4842C106.289 22.3848 104.6 22.3323 102.909 22.4551C102.838 22.4607 102.766 22.4708 102.695 22.4764C102.576 22.4853 102.419 22.5657 102.347 22.4708C102.258 22.3513 102.318 22.1748 102.318 22.024C102.318 21.9402 102.395 21.9436 102.455 21.9335C102.615 21.9045 102.779 21.89 102.937 21.842C103.492 21.6767 103.824 21.3259 103.91 20.7418C103.983 20.2436 104.019 19.7444 104.021 19.2429C104.024 17.3385 104.023 15.4331 104.023 13.5287C104.023 13.1489 103.994 12.7725 103.937 12.3973C103.873 11.9717 103.62 11.7327 103.21 11.6243C102.941 11.5529 102.661 11.5696 102.369 11.516Z" fill="#9FACC0"/>
<path d="M79.35 7.12762C79.35 7.65034 79.35 8.17195 79.35 8.69466C79.35 8.91023 79.3478 8.91023 79.13 8.91582C79.0685 8.91693 79.006 8.91023 78.9457 8.91693C78.7871 8.93592 78.7268 8.87337 78.7279 8.71142C78.729 8.57962 78.7011 8.44671 78.6776 8.31603C78.5447 7.55764 78.1393 7.02598 77.392 6.77803C76.6526 6.5323 75.8898 6.47087 75.1169 6.50103C74.7583 6.51443 74.4032 6.55576 74.0536 6.64958C73.0182 6.92881 72.4854 7.57998 72.4083 8.64329C72.3402 9.58038 72.6373 10.3499 73.3901 10.9363C73.8268 11.277 74.287 11.583 74.7472 11.8902C75.5994 12.4587 76.4527 13.0239 77.3027 13.5946C77.6177 13.8057 77.9114 14.0458 78.1918 14.3016C78.9993 15.0366 79.4695 15.9457 79.5823 17.028C79.6572 17.744 79.6348 18.4599 79.4516 19.1636C79.1065 20.4804 78.2822 21.3896 77.0581 21.9537C76.2774 22.3144 75.4475 22.5032 74.5964 22.5579C73.0215 22.6607 71.4634 22.5434 69.9444 22.0776C69.5021 21.9425 69.5803 22.0307 69.578 21.5873C69.5736 20.6245 69.5803 19.6617 69.5088 18.7012C69.4909 18.4655 69.501 18.4644 69.7277 18.4599C70.1946 18.451 70.1901 18.451 70.2437 18.9089C70.342 19.7589 70.7497 20.3855 71.5617 20.7217C72.0867 20.9384 72.6317 21.0713 73.1991 21.1003C73.8771 21.135 74.5517 21.1115 75.2096 20.916C76.2986 20.591 76.8984 19.8304 76.9553 18.6956C76.9698 18.3985 76.9765 18.1025 76.9263 17.8076C76.8246 17.2101 76.5331 16.7164 76.102 16.2976C75.7926 15.9971 75.4486 15.738 75.0912 15.4967C74.2859 14.9517 73.4772 14.41 72.6719 13.8649C72.0766 13.4628 71.5126 13.0239 71.0077 12.5078C69.4597 10.9218 69.6183 8.23226 70.781 6.79478C71.4053 6.02299 72.2218 5.56616 73.1623 5.30816C73.7375 5.15067 74.325 5.06802 74.9214 5.0535C76.2975 5.01999 77.6657 5.11828 79.0283 5.31039C79.0585 5.31486 79.0898 5.31821 79.1188 5.32603C79.3489 5.39081 79.3467 5.31821 79.3455 5.59409C79.3433 6.10564 79.3455 6.61831 79.3455 7.12986C79.3467 7.12986 79.3478 7.12986 79.3489 7.12986L79.35 7.12762Z" fill="#9FACC0"/>
<path d="M131.548 22.7154C130.449 22.7232 129.534 22.578 128.668 22.196C127.285 21.5873 126.356 20.5452 125.893 19.1223C125.28 17.2347 125.323 15.3448 126.102 13.5086C126.925 11.5707 128.416 10.4605 130.498 10.15C131.565 9.9903 132.624 10.0316 133.665 10.3265C135.413 10.8213 136.602 11.9326 137.169 13.646C137.797 15.5503 137.747 17.4636 136.946 19.3155C136.11 21.2478 134.609 22.339 132.527 22.6461C132.149 22.702 131.772 22.7065 131.548 22.7165V22.7154Z" fill="#9FACC0"/>
<path d="M96.8745 21.3974C96.3306 21.9246 95.7241 22.2898 95.0126 22.4719C94.1481 22.6931 93.2847 22.6797 92.4347 22.4205C91.2475 22.0598 90.5918 21.2232 90.3729 20.0236C90.2813 19.5243 90.2936 19.0251 90.3964 18.528C90.5907 17.5887 91.1235 16.8985 91.95 16.4238C92.37 16.1825 92.8301 16.0395 93.2803 15.8742C94.3458 15.4833 95.4337 15.1583 96.5193 14.8254C96.8198 14.7327 96.7673 14.7696 96.7651 14.496C96.7617 14.1184 96.7885 13.7398 96.7126 13.3634C96.545 12.5324 96.058 11.9952 95.2494 11.7494C94.0777 11.3931 92.8234 11.8042 92.1622 12.7591C92.0874 12.8675 92.0215 12.9825 91.9411 13.1099C91.7758 13.0529 91.6429 12.939 91.4898 12.8664C91.3625 12.8061 91.3413 12.7346 91.3904 12.5994C91.5568 12.1404 91.8015 11.7316 92.1309 11.373C92.781 10.6671 93.6019 10.2762 94.5357 10.1176C95.4058 9.96907 96.277 9.99923 97.1247 10.2416C98.436 10.6158 99.1999 11.4926 99.411 12.8429C99.4915 13.36 99.5205 13.8816 99.5239 14.4033C99.5317 16.0005 99.4669 17.5977 99.4423 19.1949C99.4367 19.5735 99.4334 19.9544 99.5428 20.3218C99.6635 20.7273 99.9449 20.9283 100.336 20.9082C100.497 20.9004 100.635 20.8423 100.752 20.7351C100.846 20.6491 100.913 20.6524 101.006 20.7507C101.3 21.0623 101.304 21.0579 101.032 21.3851C100.808 21.6532 100.563 21.9 100.28 22.1067C99.6746 22.5501 98.9911 22.6774 98.2673 22.5546C97.643 22.4484 97.1738 22.1123 96.9393 21.4979C96.9292 21.4711 96.9069 21.4488 96.8734 21.3974H96.8745Z" fill="#9FACC0"/>
<path d="M121.871 16.0898C121.871 17.2581 121.87 18.4253 121.871 19.5936C121.871 20.0348 121.909 20.4726 121.981 20.9082C122.043 21.2913 122.26 21.5292 122.616 21.6655C122.996 21.8118 123.391 21.852 123.792 21.8554C124.031 21.8576 124.062 21.8341 124.057 22.1346C124.05 22.5423 124.111 22.5088 123.674 22.4831C122.015 22.3881 120.354 22.3423 118.694 22.4283C118.345 22.4462 117.997 22.4507 117.65 22.4965C117.454 22.5222 117.447 22.5121 117.447 22.3066C117.447 21.8587 117.417 21.957 117.783 21.8956C118.673 21.7448 118.962 21.3159 119.052 20.6926C119.123 20.2146 119.157 19.7354 119.158 19.254C119.163 16.8873 119.164 14.5216 119.165 12.1549C119.165 11.8913 119.163 11.8902 118.895 11.8891C118.525 11.8879 118.156 11.8835 117.787 11.8913C117.633 11.8946 117.573 11.8544 117.571 11.6858C117.568 11.2301 117.558 11.229 117.98 11.0458C118.309 10.9028 118.625 10.7375 118.935 10.5554C119.102 10.4572 119.174 10.3432 119.171 10.1388C119.158 9.29891 119.193 8.45898 119.284 7.62353C119.356 6.96789 119.521 6.33683 119.812 5.74151C120.254 4.83904 120.931 4.17447 121.873 3.81929C123.338 3.26641 124.812 3.23514 126.281 3.82152C126.587 3.94327 126.872 4.1041 127.133 4.30515C127.324 4.45258 127.35 4.6056 127.209 4.8033C126.876 5.27017 126.54 5.73593 126.2 6.19722C126.031 6.4273 125.855 6.40273 125.725 6.14584C125.641 5.98165 125.553 5.8197 125.453 5.66444C124.843 4.71394 123.674 4.58103 122.871 4.93063C122.444 5.11603 122.203 5.45893 122.062 5.88336C121.933 6.2754 121.887 6.68531 121.88 7.09411C121.865 8.11832 121.867 9.14254 121.865 10.1668C121.865 10.3846 121.87 10.389 122.083 10.389C122.822 10.3913 123.56 10.389 124.298 10.3901C124.567 10.3901 124.569 10.3924 124.57 10.6526C124.571 11.0011 124.563 11.3496 124.573 11.6969C124.578 11.85 124.519 11.8879 124.378 11.8868C123.629 11.8812 122.881 11.8835 122.131 11.8846C121.866 11.8846 121.863 11.8868 121.863 12.1515C121.863 13.4628 121.863 14.7741 121.863 16.0853C121.866 16.0853 121.868 16.0853 121.87 16.0853L121.871 16.0898Z" fill="#9FACC0"/>
<path d="M85.0083 15.5872C85.0083 16.5801 85.0072 17.5742 85.0083 18.5671C85.0083 19.0497 85.0508 19.5277 85.187 19.9935C85.4037 20.7351 85.903 21.1294 86.6636 21.2299C87.365 21.3226 88.0296 21.2142 88.6674 20.9171C88.8874 20.8155 88.8885 20.8177 88.9768 21.0177C89.0631 21.2128 89.0304 21.387 88.8785 21.5404C88.2787 22.1424 87.5404 22.4719 86.7128 22.6126C85.9879 22.7355 85.2608 22.7176 84.5437 22.5534C83.3207 22.2731 82.6338 21.4644 82.3724 20.2716C82.2495 19.7098 82.2451 19.1334 82.2439 18.5593C82.2406 16.5008 82.2484 14.4423 82.2886 12.385C82.2976 11.9058 82.2942 11.9058 81.8028 11.9058C81.4956 11.9058 81.1873 11.8991 80.8802 11.908C80.7272 11.9125 80.6903 11.8522 80.6903 11.7104C80.6903 11.4389 80.6814 11.4356 80.936 11.3295C81.948 10.9106 82.7533 10.2327 83.4044 9.3637C83.7607 8.88789 84.0668 8.37857 84.3628 7.86367C84.4018 7.79554 84.4242 7.69725 84.5214 7.69278C84.6643 7.68608 84.8084 7.68496 84.9491 7.70283C85.0229 7.71289 85.005 7.80001 85.005 7.85809C85.0061 8.14514 85.005 8.43107 85.005 8.71812C85.005 9.16824 85.0027 9.61947 85.005 10.0696C85.0072 10.4471 84.957 10.4002 85.3244 10.4013C86.4313 10.4036 87.5382 10.4013 88.6462 10.4013C88.7489 10.4013 88.8517 10.408 88.9533 10.4002C89.0885 10.3902 89.1309 10.4449 89.1287 10.5778C89.122 10.9363 89.1287 11.2949 89.1253 11.6534C89.1242 11.9002 89.122 11.9047 88.8684 11.9047C87.7001 11.9058 86.5307 11.9047 85.3624 11.9047C85.2909 11.9047 85.2183 11.908 85.1468 11.9047C85.0418 11.9002 84.9983 11.9494 85.0039 12.0521C85.0072 12.1236 85.0039 12.1951 85.0039 12.2677C85.0039 13.3735 85.0039 14.4792 85.0039 15.5861H85.0061L85.0083 15.5872Z" fill="#9FACC0"/>
<path d="M143.108 11.3172C143.246 11.2122 143.34 11.1385 143.435 11.067C144.48 10.2751 145.643 10.0361 146.916 10.341C147.249 10.4203 147.546 10.58 147.818 10.7867C148.036 10.952 148.109 11.1854 147.983 11.4267C147.689 11.9885 147.381 12.5436 147.073 13.0987C146.991 13.2484 146.6 13.2807 146.48 13.1556C146.452 13.1266 146.433 13.0886 146.411 13.0551C146.018 12.4844 145.458 12.2007 144.783 12.1348C144.285 12.0856 143.803 12.1549 143.352 12.3917C143.222 12.4598 143.158 12.5369 143.158 12.6977C143.166 15.022 143.163 17.3463 143.174 19.6707C143.177 20.0683 143.209 20.467 143.275 20.8624C143.342 21.269 143.57 21.5236 143.952 21.6577C144.334 21.7917 144.729 21.8319 145.13 21.8353C145.348 21.8375 145.355 21.8408 145.352 22.0531C145.346 22.568 145.437 22.5088 144.9 22.4797C143.026 22.377 141.152 22.339 139.276 22.4618C139.225 22.4652 139.175 22.473 139.123 22.4764C139.005 22.4831 138.84 22.5713 138.778 22.4708C138.69 22.3267 138.742 22.1335 138.754 21.9615C138.757 21.9034 138.825 21.9 138.876 21.8956C139.071 21.8799 139.262 21.8431 139.447 21.7828C139.926 21.6275 140.226 21.3103 140.325 20.8122C140.398 20.4503 140.437 20.0828 140.442 19.7142C140.472 17.5228 140.464 15.3314 140.45 13.14C140.449 12.9144 140.422 12.691 140.391 12.4676C140.326 11.9996 140.112 11.7606 139.652 11.6366C139.433 11.5774 139.208 11.554 138.983 11.5517C138.834 11.5495 138.783 11.487 138.796 11.344C138.812 11.182 138.733 10.9866 138.827 10.8648C138.93 10.7319 139.132 10.8257 139.291 10.8179C140.47 10.7587 141.639 10.6381 142.76 10.2349C142.997 10.15 143.105 10.2304 143.108 10.4829C143.112 10.7442 143.108 11.0056 143.108 11.3172Z" fill="#9FACC0"/>
<path d="M83.1621 29.5119C83.0749 29.5208 83.0035 29.523 82.9331 29.5353C82.4785 29.6135 82.2473 29.8335 82.1579 30.2848C82.13 30.4244 82.1177 30.5685 82.1155 30.7114C82.0809 32.6772 82.0719 34.643 82.1211 36.6099C82.1278 36.897 82.1769 37.1795 82.2339 37.461C82.4204 38.3769 82.9744 38.9197 83.8914 39.0839C84.5225 39.1978 85.1547 39.1956 85.7835 39.0493C86.5151 38.8784 86.9931 38.4338 87.2165 37.719C87.336 37.3359 87.3986 36.9394 87.4075 36.5406C87.451 34.5436 87.441 32.5477 87.4153 30.5506C87.4153 30.5305 87.4142 30.5093 87.4131 30.4892C87.3784 29.8637 87.2064 29.6604 86.5899 29.5331C86.4871 29.5119 86.3956 29.5186 86.3922 29.3667C86.3866 29.1064 86.3922 29.0807 86.6569 29.1019C87.384 29.16 88.1111 29.1656 88.8383 29.1533C89.1354 29.1477 89.4313 29.1265 89.7285 29.0997C89.9407 29.0807 89.9418 29.0874 89.9451 29.3086C89.9451 29.3689 89.9451 29.4292 89.9451 29.4962C89.7932 29.5264 89.6514 29.542 89.5185 29.5822C89.2236 29.6716 89.027 29.8637 88.9488 30.1686C88.9053 30.3384 88.8896 30.5104 88.8818 30.6846C88.836 31.6876 88.8628 32.6917 88.855 33.6947C88.8483 34.5347 88.8461 35.3746 88.8327 36.2134C88.8237 36.7372 88.759 37.2544 88.6126 37.7592C88.2653 38.9543 87.4544 39.6669 86.2626 39.9394C85.0977 40.2053 83.9227 40.212 82.7622 39.9126C81.3672 39.553 80.5697 38.6103 80.401 37.1818C80.3541 36.7841 80.3329 36.3865 80.3329 35.9867C80.3329 34.3783 80.3307 32.771 80.3307 31.1627C80.3307 30.8756 80.3161 30.5897 80.2838 30.3049C80.2357 29.8782 80.0771 29.6906 79.6594 29.5744C79.6102 29.561 79.5589 29.5521 79.5108 29.5342C79.4394 29.5063 79.3243 29.5621 79.2997 29.456C79.2774 29.3588 79.2875 29.2516 79.2975 29.1511C79.3042 29.0863 79.369 29.0908 79.4193 29.0952C79.5823 29.1075 79.7454 29.1299 79.9096 29.1343C80.8936 29.1611 81.8776 29.1924 82.8594 29.1064C83.1799 29.0785 83.1799 29.0763 83.1743 29.3935C83.1743 29.4236 83.1676 29.4527 83.1609 29.5119H83.1621Z" fill="#9FACC0"/>
<path d="M92.8882 32.8291C93.3551 32.5208 93.794 32.3075 94.2777 32.1947C94.8361 32.064 95.3968 32.0562 95.9542 32.1813C96.9963 32.4147 97.6564 33.1832 97.748 34.2532C97.7859 34.6921 97.8071 35.1311 97.806 35.5723C97.8027 36.4736 97.8083 37.375 97.8105 38.2763C97.8105 38.502 97.834 38.7253 97.8663 38.9487C97.9188 39.3184 98.1199 39.5407 98.4885 39.6111C98.5588 39.6245 98.6292 39.6524 98.6984 39.6513C98.8839 39.649 98.8414 39.7797 98.847 39.8858C98.8537 40.0288 98.7576 40.0221 98.6616 40.0143C97.7714 39.9473 96.8801 39.9406 95.9877 39.964C95.7107 39.9718 95.4337 39.973 95.1589 40.0132C95.0774 40.0243 94.9802 40.04 94.988 39.9104C94.9947 39.8121 94.9266 39.687 95.112 39.6535C95.8961 39.5105 95.9676 39.238 96.0145 38.5913C96.1061 37.3136 96.1262 36.0336 96.0257 34.7536C96.01 34.5592 95.972 34.3694 95.9151 34.1828C95.7542 33.6523 95.4002 33.3206 94.8585 33.2301C94.2631 33.1307 93.6756 33.1843 93.1083 33.4166C92.9619 33.4769 92.9117 33.5596 92.9128 33.716C92.9307 35.3243 92.886 36.9316 92.9441 38.5399C92.9496 38.693 92.9664 38.8449 92.9943 38.9968C93.0569 39.3419 93.2602 39.5374 93.5963 39.6077C93.6667 39.6222 93.7371 39.6513 93.8063 39.6502C93.9929 39.6479 93.9504 39.7786 93.9549 39.8847C93.9605 40.0243 93.8689 40.0221 93.7706 40.0143C92.8703 39.9439 91.9679 39.9406 91.0654 39.9618C90.7985 39.9674 90.5326 39.9707 90.2679 40.0132C90.1964 40.0243 90.1071 40.0333 90.1171 39.926C90.1261 39.8311 90.0311 39.6881 90.2165 39.6557C90.2266 39.6535 90.2378 39.6557 90.2467 39.6524C90.9425 39.4916 91.1101 39.3006 91.1603 38.5902C91.1793 38.3244 91.186 38.0585 91.1871 37.7916C91.1961 36.5116 91.214 35.2305 91.1737 33.9505C91.1514 33.2401 91.0084 33.0949 90.3104 33.0246C90.125 33.0056 90.1361 33.0022 90.1294 32.761C90.125 32.5879 90.2143 32.5856 90.3405 32.589C90.7616 32.6001 91.1782 32.5499 91.5948 32.4862C91.9411 32.4337 92.2761 32.3511 92.5945 32.2025C92.7977 32.1087 92.877 32.1623 92.886 32.3812C92.8916 32.5119 92.886 32.6437 92.886 32.8291H92.8882Z" fill="#9FACC0"/>
<path d="M145.003 44.3256C144.942 44.3301 144.882 44.3334 144.821 44.3379C144.635 44.3379 144.45 44.3379 144.264 44.3379C144.204 44.3234 144.145 44.3089 144.082 44.3267C143.914 44.2876 143.743 44.2541 143.575 44.2094C143.295 44.1346 143.039 44.0084 142.815 43.823C142.657 43.6923 142.635 43.5817 142.754 43.4276C142.948 43.1763 143.15 42.9306 143.359 42.6915C143.474 42.5586 143.611 42.5698 143.694 42.7362C144.002 43.3539 145.185 43.5304 145.751 42.8758C145.933 42.6647 146.084 42.4347 146.21 42.1878C146.499 41.6215 146.709 41.0229 146.945 40.4342C147.004 40.2868 146.944 40.1751 146.896 40.0545C146.173 38.2071 145.449 36.3608 144.726 34.5146C144.576 34.1337 144.411 33.7595 144.273 33.3742C144.128 32.9699 143.882 32.7096 143.423 32.7029C143.417 32.6504 143.409 32.6102 143.409 32.5711C143.409 32.2327 143.388 32.255 143.697 32.2785C144.69 32.3544 145.684 32.3254 146.677 32.2751C146.899 32.264 146.991 32.4036 146.913 32.6158C146.885 32.6917 146.823 32.6895 146.765 32.6996C146.174 32.7945 146.002 33.0994 146.225 33.6925C146.652 34.8318 147.078 35.971 147.502 37.1114C147.615 37.4152 147.72 37.7235 147.852 38.0943C147.904 37.9435 147.936 37.8553 147.966 37.7659C148.407 36.458 148.847 35.1512 149.287 33.8422C149.333 33.707 149.377 33.5696 149.408 33.43C149.476 33.1251 149.36 32.9073 149.074 32.7923C149.008 32.7655 148.937 32.7532 148.868 32.7286C148.796 32.7029 148.681 32.7498 148.654 32.6504C148.628 32.5544 148.639 32.4471 148.647 32.3455C148.654 32.2628 148.729 32.2673 148.789 32.2695C149.015 32.2774 149.241 32.2729 149.465 32.2997C150.08 32.3734 150.693 32.3075 151.307 32.2818C151.368 32.2796 151.429 32.2785 151.491 32.2707C151.619 32.2539 151.643 32.3198 151.646 32.4315C151.652 32.6627 151.655 32.6694 151.427 32.7297C151.208 32.7878 151.045 32.9207 150.918 33.1016C150.775 33.3038 150.685 33.5305 150.597 33.7617C149.558 36.5384 148.515 39.314 147.473 42.0895C147.35 42.4157 147.206 42.7318 147.023 43.0289C146.592 43.7336 145.977 44.1637 145.151 44.2809C145.101 44.2876 145.053 44.3077 145.004 44.3223L145.003 44.3256Z" fill="#9FACC0"/>
<path d="M116.062 35.7867C115.324 35.7867 114.587 35.7856 113.848 35.7867C113.632 35.7867 113.626 35.7923 113.634 36.0068C113.65 36.4267 113.703 36.8422 113.823 37.2477C114.141 38.3333 114.908 38.9275 116.051 38.9767C116.717 39.0046 117.358 38.913 117.958 38.6036C118.034 38.5645 118.114 38.512 118.162 38.6226C118.212 38.741 118.393 38.8337 118.261 38.9968C118.125 39.1643 117.963 39.305 117.787 39.4313C117.284 39.7909 116.718 39.9953 116.111 40.0679C115.413 40.1517 114.718 40.1159 114.047 39.8825C112.93 39.4927 112.296 38.674 112.048 37.5481C111.789 36.3742 111.903 35.2272 112.386 34.1248C113.024 32.6694 114.304 32.0093 115.89 32.1344C116.115 32.1523 116.337 32.1903 116.554 32.2539C117.663 32.5789 118.224 33.3653 118.427 34.4598C118.493 34.815 118.493 35.1724 118.491 35.531C118.491 35.7823 118.489 35.7845 118.246 35.7856C117.517 35.7867 116.79 35.7856 116.062 35.7856V35.7867Z" fill="#9FACC0"/>
<path d="M108 37.623C108.033 37.5571 108.063 37.5046 108.085 37.4476C108.563 36.2625 109.041 35.0775 109.517 33.8902C109.577 33.7383 109.635 33.5842 109.671 33.4256C109.749 33.0816 109.633 32.8861 109.29 32.7655C109.214 32.7387 109.133 32.7186 109.052 32.7096C108.956 32.6996 108.909 32.6661 108.9 32.5611C108.877 32.2952 108.898 32.2584 109.176 32.2774C110.016 32.3343 110.855 32.3466 111.695 32.2774C111.773 32.2707 111.885 32.2193 111.905 32.3723C111.933 32.5879 111.894 32.6951 111.749 32.7253C111.412 32.7934 111.185 32.9855 111.029 33.2904C110.655 34.0298 110.338 34.796 109.999 35.5522C109.367 36.9606 108.738 38.3713 108.12 39.7864C108.039 39.9707 107.931 40.0489 107.743 40.0791C107.24 40.1617 107.241 40.1673 107.054 39.6982C106.272 37.7313 105.49 35.7644 104.708 33.7975C104.628 33.5976 104.54 33.4021 104.454 33.2055C104.336 32.9319 104.135 32.7632 103.833 32.7174C103.667 32.6917 103.655 32.6437 103.668 32.408C103.677 32.2405 103.782 32.2718 103.881 32.2762C104.26 32.2941 104.638 32.3142 105.017 32.331C105.654 32.3578 106.287 32.2818 106.922 32.274C107.186 32.2707 107.216 32.3064 107.178 32.5722C107.166 32.656 107.136 32.6984 107.047 32.7074C106.967 32.7152 106.886 32.7308 106.808 32.7576C106.492 32.866 106.39 33.0313 106.423 33.3619C106.44 33.5261 106.493 33.6813 106.55 33.8344C107.013 35.0697 107.479 36.3028 107.944 37.537C107.954 37.5626 107.973 37.585 107.997 37.623H108Z" fill="#9FACC0"/>
<path d="M126.016 37.7335C126.063 37.69 126.116 37.6956 126.167 37.6933C126.387 37.6866 126.514 37.7953 126.549 38.0195C126.645 38.6349 127.081 39.075 127.694 39.18C128.061 39.2425 128.428 39.2492 128.794 39.171C129.16 39.0928 129.442 38.9052 129.55 38.5321C129.67 38.1211 129.619 37.7402 129.291 37.4297C129.126 37.2745 128.938 37.1505 128.747 37.031C128.339 36.7752 127.928 36.525 127.521 36.2704C127.399 36.1944 127.279 36.1151 127.165 36.0291C126.382 35.4427 126.087 34.6151 126.326 33.6679C126.503 32.9632 126.96 32.5153 127.639 32.2863C128.031 32.1545 128.442 32.1165 128.852 32.1165C129.499 32.1165 130.141 32.1724 130.78 32.2774C130.911 32.2986 130.947 32.3421 130.937 32.4751C130.897 32.9866 130.914 33.4982 130.921 34.0108C130.924 34.2733 130.924 34.2711 130.654 34.2688C130.526 34.2688 130.437 34.2767 130.411 34.0879C130.32 33.4122 130.005 33.095 129.33 32.9788C129.017 32.9252 128.701 32.9285 128.385 33.0067C127.654 33.1888 127.564 34.108 127.945 34.5168C128.079 34.6609 128.234 34.777 128.402 34.8776C128.868 35.1568 129.332 35.4349 129.799 35.7119C130.037 35.8538 130.262 36.0135 130.475 36.1911C131.53 37.0679 131.405 39.1576 129.903 39.7797C129.152 40.0902 128.372 40.1338 127.579 40.0657C127.14 40.0277 126.709 39.9383 126.289 39.7998C126.161 39.7574 126.108 39.7027 126.108 39.5653C126.109 38.9521 126.065 38.34 126.019 37.7347L126.016 37.7335Z" fill="#9FACC0"/>
<path d="M142.337 38.9309C142.505 39.2403 142.533 39.2034 142.286 39.4424C141.985 39.7339 141.621 39.9193 141.216 40.0165C140.691 40.1427 140.162 40.1416 139.631 40.0389C138.892 39.8959 138.337 39.4 138.176 38.4584C138.119 38.1245 138.111 37.786 138.114 37.4476C138.121 36.1877 138.127 34.9278 138.134 33.669C138.134 33.5875 138.13 33.5049 138.137 33.4233C138.149 33.2915 138.099 33.239 137.964 33.2435C137.738 33.2513 137.513 33.2457 137.287 33.2446C137.217 33.2446 137.131 33.2536 137.127 33.1508C137.124 33.0648 137.086 32.962 137.198 32.9062C137.226 32.8928 137.255 32.8816 137.283 32.8704C138.038 32.5566 138.603 32.0216 139.042 31.3447C139.181 31.1303 139.316 30.9125 139.444 30.6913C139.501 30.5919 139.567 30.5461 139.685 30.5428C139.834 30.5394 139.882 30.593 139.878 30.7394C139.87 31.1381 139.874 31.538 139.876 31.9378C139.878 32.3366 139.838 32.2785 140.219 32.2807C140.896 32.2841 141.573 32.2818 142.248 32.2807C142.51 32.2807 142.495 32.2684 142.494 32.5343C142.494 32.7085 142.487 32.8827 142.496 33.057C142.504 33.2066 142.444 33.2502 142.299 33.2491C141.602 33.2435 140.905 33.2446 140.208 33.2468C139.839 33.2468 139.876 33.2066 139.876 33.5719C139.875 34.7904 139.874 36.009 139.876 37.2276C139.876 37.5749 139.876 37.9234 139.954 38.2663C140.086 38.8359 140.376 39.1018 140.956 39.1866C141.441 39.2581 141.891 39.1487 142.334 38.9298L142.337 38.9309Z" fill="#9FACC0"/>
<path d="M122.125 32.8504C122.569 32.4728 123.042 32.245 123.587 32.1858C124.111 32.1299 124.61 32.197 125.052 32.5097C125.256 32.6527 125.291 32.7599 125.18 32.9777C125.012 33.3049 124.832 33.6277 124.649 33.9472C124.541 34.137 124.314 34.1493 124.182 33.9617C123.76 33.363 122.937 33.2837 122.411 33.4848C122.128 33.5931 122.119 33.6043 122.119 33.9047C122.119 35.2059 122.119 36.506 122.119 37.8073C122.119 38.1457 122.131 38.483 122.172 38.8192C122.225 39.2637 122.393 39.4514 122.838 39.5329C122.999 39.5619 123.164 39.5742 123.327 39.5887C123.527 39.6066 123.519 39.61 123.522 39.8389C123.524 40.0098 123.437 40.0143 123.308 40.0054C122.202 39.9339 121.095 39.9261 119.987 39.9685C119.813 39.9752 119.64 39.9908 119.467 40.0076C119.377 40.0165 119.291 40.0199 119.301 39.897C119.309 39.7965 119.24 39.658 119.406 39.6178C119.496 39.5966 119.589 39.5966 119.679 39.5731C120.056 39.4748 120.277 39.2313 120.324 38.8426C120.352 38.6092 120.381 38.3735 120.382 38.139C120.389 36.7875 120.387 35.4349 120.388 34.0834C120.388 33.9092 120.366 33.7372 120.34 33.5641C120.303 33.3083 120.151 33.162 119.917 33.0927C119.809 33.0603 119.695 33.0492 119.586 33.0268C119.509 33.0112 119.397 33.0614 119.36 32.9777C119.311 32.8671 119.329 32.7353 119.35 32.6158C119.368 32.5142 119.462 32.5477 119.528 32.5477C120.022 32.5532 120.51 32.4985 120.994 32.4103C121.277 32.3589 121.554 32.293 121.827 32.2003C122.026 32.1322 122.079 32.1735 122.091 32.3857C122.099 32.5264 122.07 32.6694 122.123 32.8504H122.125Z" fill="#9FACC0"/>
<path d="M102.301 35.4974C102.301 36.3977 102.299 37.299 102.301 38.1993C102.301 38.435 102.321 38.6684 102.346 38.9029C102.387 39.2704 102.586 39.4748 102.928 39.5653C103.027 39.591 103.127 39.6155 103.229 39.6245C103.366 39.6368 103.419 39.6893 103.417 39.8367C103.415 39.9986 103.348 40.0165 103.21 40.0076C102.012 39.9305 100.815 39.9216 99.6177 40.0076C99.5362 40.0132 99.4535 40.04 99.4334 39.9149C99.4077 39.7473 99.4412 39.6692 99.5775 39.6379C99.6769 39.6144 99.7808 39.6077 99.8802 39.5843C100.235 39.5005 100.454 39.2827 100.513 38.9186C100.549 38.6963 100.58 38.474 100.58 38.2473C100.58 36.8456 100.58 35.4427 100.583 34.041C100.583 33.8455 100.559 33.6534 100.522 33.4624C100.479 33.2357 100.339 33.1005 100.126 33.0402C100.009 33.0067 99.8846 32.9955 99.764 32.971C99.697 32.9576 99.6043 32.9955 99.5697 32.9162C99.525 32.8113 99.5395 32.6929 99.5607 32.5845C99.5752 32.5108 99.6579 32.5287 99.7182 32.5287C100.263 32.5343 100.799 32.4516 101.334 32.3567C101.578 32.3131 101.81 32.2416 102.041 32.1556C102.231 32.0853 102.358 32.1668 102.355 32.369C102.353 32.5633 102.323 32.7565 102.322 32.9509C102.317 33.7997 102.32 34.6497 102.32 35.4986C102.314 35.4986 102.307 35.4986 102.302 35.4986L102.301 35.4974Z" fill="#9FACC0"/>
<path d="M132.474 40.0221C132.405 39.9395 132.424 39.8646 132.418 39.7954C132.409 39.6937 132.457 39.6468 132.557 39.6345C132.658 39.6223 132.76 39.6066 132.86 39.5832C133.215 39.4994 133.434 39.2816 133.493 38.9164C133.529 38.6941 133.56 38.4707 133.56 38.244C133.56 36.8411 133.561 35.4371 133.562 34.0343C133.562 33.8489 133.538 33.6679 133.506 33.4848C133.463 33.2301 133.31 33.0883 133.07 33.0268C132.97 33.0023 132.868 32.9732 132.768 32.9732C132.501 32.9732 132.537 32.9241 132.527 32.6973C132.52 32.5633 132.567 32.5186 132.702 32.5231C133.124 32.5376 133.54 32.4751 133.956 32.4148C134.323 32.3611 134.681 32.2885 135.027 32.1523C135.22 32.0763 135.337 32.1601 135.335 32.3734C135.334 32.5365 135.307 32.7007 135.303 32.8638C135.264 34.738 135.271 36.6122 135.29 38.4875C135.291 38.6304 135.322 38.7723 135.334 38.9141C135.359 39.2693 135.56 39.4715 135.893 39.5586C136.001 39.5876 136.112 39.6133 136.224 39.6267C136.345 39.6412 136.399 39.687 136.397 39.82C136.395 39.9596 136.367 40.021 136.206 40.0087C135.183 39.9294 134.157 39.9395 133.132 39.9696C132.908 39.9763 132.683 39.9886 132.476 40.0232L132.474 40.0221Z" fill="#9FACC0"/>
<path d="M134.327 30.7517C133.73 30.7472 133.32 30.3507 133.326 29.7833C133.332 29.198 133.778 28.7825 134.387 28.7926C134.978 28.8026 135.395 29.2081 135.389 29.7688C135.384 30.3596 134.955 30.7561 134.327 30.7517Z" fill="#9FACC0"/>
<path d="M101.352 30.7516C100.754 30.7483 100.345 30.3551 100.348 29.7866C100.352 29.2002 100.795 28.7847 101.406 28.7926C101.998 28.8004 102.414 29.2047 102.411 29.7654C102.408 30.3563 101.979 30.755 101.352 30.7516Z" fill="#9FACC0"/>
<path d="M157.442 16.4204C157.442 17.6803 157.435 18.9391 157.447 20.1978C157.45 20.4179 157.372 20.5229 157.183 20.6133C156.603 20.8926 155.989 20.9663 155.359 20.9574C154.865 20.9507 154.378 20.8803 153.911 20.7105C152.924 20.3509 152.282 19.6461 151.9 18.6855C151.698 18.1773 151.58 17.6468 151.545 17.1051C151.474 16.0373 151.527 14.9774 151.829 13.942C151.921 13.627 152.044 13.3232 152.207 13.0384C152.718 12.1448 153.499 11.6701 154.516 11.5652C155.218 11.4926 155.906 11.5506 156.57 11.8075C156.81 11.9002 157.029 12.0287 157.242 12.1716C157.395 12.2744 157.445 12.3973 157.444 12.5804C157.436 13.5834 157.44 14.5875 157.44 15.5905V16.4204H157.442Z" fill="white"/>
<path d="M43.6688 29.3968C43.6141 29.3555 43.5493 29.3209 43.5057 29.2706C43.2812 29.007 43.3292 28.7267 43.6319 28.5513C43.8475 28.4262 44.0887 28.3782 44.3345 28.3469C44.7176 28.2989 45.0716 28.1749 45.3676 27.9169C45.4838 27.8153 45.5877 27.7013 45.6591 27.5628C45.7284 27.4299 45.6926 27.3473 45.5519 27.3126C45.4503 27.2881 45.352 27.2925 45.2548 27.3484C44.7399 27.6488 44.1781 27.7817 43.5884 27.8309C43.0634 27.8745 42.926 27.6969 43.1193 27.2065C43.1941 27.0167 43.3013 26.8435 43.4164 26.6726C43.3449 26.59 43.2589 26.6246 43.1852 26.6235C42.5184 26.6202 41.8527 26.6168 41.1859 26.6246C41.0284 26.6269 40.9189 26.5788 40.8095 26.4683C39.4725 25.1246 38.1311 23.7843 36.7874 22.4462C36.6847 22.3435 36.6478 22.2385 36.6478 22.0955C36.6512 17.7831 36.6512 13.4706 36.6478 9.15818C36.6478 9.00069 36.6958 8.89347 36.8086 8.78513C38.3712 7.29069 39.9316 5.79289 41.4885 4.29175C41.6081 4.17671 41.7276 4.12868 41.8929 4.12868C46.2913 4.13315 50.6909 4.13315 55.0893 4.12868C55.2557 4.12868 55.3741 4.17782 55.4925 4.29287C57.0406 5.78731 58.592 7.27952 60.1479 8.76614C60.2864 8.89905 60.3377 9.02973 60.3366 9.21849C60.3299 11.3083 60.3322 13.398 60.3322 15.4878C60.3322 15.5492 60.331 15.6106 60.3322 15.6721C60.3322 15.7637 60.2819 15.7983 60.197 15.7972C60.1155 15.7972 60.0328 15.7972 59.9513 15.7972C57.8392 15.7972 55.7271 15.7972 53.615 15.7983C53.5055 15.7983 53.3927 15.7759 53.2564 15.8296C53.3469 15.9591 53.4307 16.082 53.5178 16.2015C53.5915 16.3031 53.644 16.4115 53.6518 16.5388C53.6708 16.846 53.4229 17.0816 53.1436 16.9688C52.8063 16.8337 52.4578 16.8616 52.1161 16.8169C51.8313 16.7789 51.5476 16.7477 51.2661 16.6896C50.9947 16.6337 50.7378 16.5399 50.4608 16.4316C50.4373 16.5779 50.5122 16.6751 50.5781 16.7711C50.8528 17.1721 51.1812 17.5217 51.5967 17.7808C51.9865 18.0254 52.3841 18.26 52.7706 18.5102C52.8767 18.5783 52.9806 18.5761 53.0923 18.5761C53.9847 18.5761 54.876 18.5805 55.7684 18.5716C55.946 18.5694 56.0711 18.6219 56.1973 18.7481C57.513 20.0705 58.8332 21.3885 60.1568 22.702C60.2819 22.826 60.34 22.9488 60.34 23.1287C60.3355 27.2255 60.3355 31.3235 60.34 35.4204C60.34 35.5879 60.2908 35.703 60.1691 35.8191C58.6065 37.3147 57.0484 38.8136 55.4936 40.3159C55.3719 40.4331 55.2479 40.4722 55.0848 40.4722C50.6864 40.4689 46.2868 40.4689 41.8884 40.4722C41.722 40.4722 41.6025 40.4231 41.483 40.308C39.9371 38.8114 38.3869 37.3169 36.8343 35.8281C36.7059 35.7052 36.6512 35.5823 36.6512 35.4036C36.6579 33.5194 36.6556 31.634 36.6567 29.7498C36.6567 29.6984 36.6601 29.647 36.6567 29.5956C36.6489 29.4851 36.707 29.4527 36.8064 29.4583C36.8678 29.4616 36.9293 29.4583 36.9907 29.4583C39.1341 29.4583 41.2763 29.4583 43.4197 29.4594C43.4912 29.4594 43.5627 29.4594 43.6342 29.4594C43.6464 29.4381 43.6598 29.4158 43.6721 29.3946L43.6688 29.3968Z" fill="white"/>
<path d="M134.696 16.4629C134.688 17.305 134.611 18.1382 134.361 18.9469C134.214 19.4194 134.005 19.8594 133.712 20.2604C133.118 21.0713 132.3 21.3684 131.325 21.3114C130.416 21.2578 129.742 20.811 129.257 20.0594C128.874 19.4651 128.661 18.8039 128.538 18.1159C128.298 16.7711 128.313 15.4286 128.64 14.0972C128.775 13.5466 129.009 13.0417 129.324 12.5659C130.3 11.096 132.696 11.0815 133.699 12.5402C134.132 13.1691 134.377 13.866 134.527 14.6021C134.652 15.2153 134.699 15.8374 134.696 16.4629Z" fill="white"/>
<path d="M96.7316 16.264C96.7863 16.3679 96.7651 16.4617 96.7651 16.5511C96.7662 17.7283 96.7606 18.9056 96.7718 20.0828C96.774 20.2972 96.707 20.4179 96.5205 20.515C95.8134 20.8814 95.0707 21.0087 94.29 20.8557C93.6276 20.7273 93.2043 20.2883 93.087 19.6226C93.0156 19.2149 93.029 18.805 93.1507 18.4063C93.2836 17.9718 93.5226 17.601 93.918 17.3676C94.7959 16.8493 95.7621 16.5511 96.7304 16.264H96.7316Z" fill="white"/>
<path d="M113.656 34.9301C113.667 34.5235 113.722 34.1616 113.873 33.8198C114.246 32.9687 115.384 32.6806 116.128 33.2468C116.296 33.3742 116.416 33.5372 116.499 33.7271C116.644 34.06 116.688 34.414 116.7 34.7737C116.704 34.8965 116.654 34.9312 116.539 34.9312C115.589 34.9289 114.637 34.9301 113.656 34.9301Z" fill="white"/>
<path d="M50.2475 13.8682C50.4664 13.7755 50.6674 13.7845 50.8741 13.8191C51.1064 13.8582 51.3387 13.9006 51.5766 13.8526C51.9932 13.7677 52.1183 13.4248 51.8424 13.1009C51.6794 12.9099 51.466 12.7848 51.2438 12.6798C50.9567 12.5447 50.6641 12.4229 50.3759 12.29C50.1883 12.2029 50.0531 12.0745 50.0866 11.8388C50.2553 11.7986 50.4183 11.8511 50.5814 11.8421C50.7266 11.8343 50.8741 11.8232 50.9556 11.6757C51.0427 11.5171 50.9735 11.3786 50.8852 11.2479C50.7043 10.9799 50.4463 10.7922 50.1894 10.6057C50.1157 10.5521 50.0375 10.5052 49.9626 10.4549C50.0017 10.3377 50.1157 10.3544 50.1849 10.3019C50.3793 10.1578 50.4262 9.97353 50.3033 9.7669C50.2072 9.60495 50.062 9.48991 49.9079 9.38603C49.737 9.27211 49.5728 9.15036 49.4399 8.99176C49.3617 8.89905 49.3416 8.82199 49.46 8.74045C49.5773 8.65892 49.6856 8.56174 49.7649 8.44C49.9191 8.20321 49.842 8.00105 49.5673 7.92733C49.4589 7.89829 49.3439 7.89159 49.2378 7.8592C49.1562 7.83463 49.1216 7.77431 49.1976 7.69948C49.278 7.62018 49.3673 7.54869 49.4366 7.46157C49.6119 7.23931 49.5293 6.99358 49.2489 6.96901C48.9965 6.94556 48.9172 6.80371 48.8714 6.60154C48.8111 6.33237 48.7575 6.06095 48.6916 5.79289C48.6748 5.72253 48.6894 5.61642 48.5732 5.60413C48.447 5.59073 48.323 5.59296 48.2448 5.71582C48.1946 5.79401 48.1756 5.88448 48.1532 5.97495C48.0784 6.27205 48.0013 6.56915 47.9164 6.86402C47.8695 7.02933 47.7846 7.13655 47.5814 7.16336C47.2519 7.20692 47.1759 7.47051 47.4071 7.714C47.5188 7.83128 47.6528 7.92956 47.7835 8.04126C47.6864 8.20656 47.5333 8.31155 47.387 8.41989C47.2139 8.54834 47.0307 8.66227 46.8621 8.79406C46.7169 8.90799 46.5605 9.03197 46.6175 9.24977C46.6755 9.47204 46.8777 9.4832 47.0586 9.51783C47.1558 9.53682 47.2608 9.51224 47.3926 9.58038C46.9514 9.701 46.6096 9.93444 46.3025 10.2237C46.1819 10.3365 46.0713 10.456 46.002 10.6079C45.8859 10.8615 45.9965 11.0525 46.2768 11.086C46.4689 11.1094 46.6633 11.0525 46.8598 11.0938C46.8889 11.3205 46.7682 11.4468 46.5884 11.5294C46.3751 11.6288 46.1584 11.7204 45.944 11.8176C45.6692 11.9427 45.4291 12.1158 45.247 12.3582C45.0538 12.6162 45.1331 12.8496 45.4547 12.8898C45.8691 12.9412 46.2902 12.9814 46.6979 12.8172C46.823 12.767 47.0073 12.6586 47.0866 12.8139C47.1681 12.9736 46.976 13.0763 46.8621 13.1635C46.6744 13.3064 46.4555 13.398 46.2444 13.503C45.3911 13.9308 44.5802 14.4278 43.8386 15.0321C43.6878 15.1549 43.5448 15.289 43.432 15.4487C43.3538 15.5593 43.2957 15.6754 43.2935 15.8162C43.289 16.1211 43.5459 16.3366 43.8263 16.2182C44.1424 16.0853 44.4506 16.0965 44.7835 16.0987C45.3453 16.1021 45.9138 16.0474 46.3606 15.6263C46.3729 15.6151 46.3985 15.6173 46.4287 15.6118C46.4745 15.8229 46.3796 15.9915 46.269 16.1501C46.0623 16.4461 45.8222 16.713 45.5195 16.913C45.2124 17.1163 44.9075 17.3274 44.5802 17.496C43.728 17.9361 43.3192 18.6598 43.1863 19.5746C43.1483 19.8382 43.0936 20.0996 43.1036 20.3676C43.1103 20.5374 43.1293 20.7072 43.3125 20.7764C43.4923 20.8445 43.6263 20.7362 43.7481 20.62C43.7849 20.5854 43.8207 20.5474 43.8508 20.5061C44.1245 20.1386 44.5054 19.9957 44.9477 19.9923C45.257 19.9901 45.562 19.9655 45.8557 19.8617C46.0344 19.798 46.1874 19.6807 46.3885 19.5668C46.3226 19.8862 46.1528 20.0794 45.935 20.2381C45.7262 20.39 45.486 20.4827 45.2537 20.5877C44.9432 20.7284 44.6539 20.8982 44.4283 21.1606C44.3613 21.2388 44.2954 21.317 44.2585 21.4142C44.187 21.6052 44.2675 21.7872 44.4629 21.8151C45.0325 21.8956 45.6055 21.9626 46.1461 21.6778C46.2991 21.5973 46.4466 21.5091 46.6197 21.4119C46.6711 21.5549 46.6376 21.6733 46.5772 21.7906C46.4812 21.9749 46.355 22.1324 46.1863 22.2563C45.7485 22.5791 45.2995 22.8818 44.8125 23.1264C44.4417 23.3129 44.1178 23.5587 43.843 23.8692C43.6844 24.0479 43.5616 24.25 43.5046 24.4824C43.4398 24.746 43.5939 24.899 43.8631 24.8532C43.9033 24.8465 43.9458 24.8398 43.9815 24.8208C44.273 24.6678 44.578 24.7002 44.8818 24.7582C45.1621 24.813 45.4447 24.8576 45.7429 24.8576C45.734 24.9626 45.7206 25.052 45.7183 25.1413C45.7116 25.3502 45.6044 25.4876 45.4212 25.568C45.1409 25.692 44.8583 25.8104 44.5768 25.9332C44.4897 25.9712 44.397 25.9712 44.3054 25.9712C43.3516 25.9712 42.3977 25.9679 41.445 25.9746C41.2875 25.9746 41.178 25.9243 41.0697 25.8137C39.8701 24.6075 38.6683 23.4034 37.462 22.2038C37.3448 22.0866 37.2934 21.9693 37.2934 21.8006C37.2979 17.6825 37.2979 13.5644 37.2934 9.44635C37.2934 9.27546 37.3515 9.16153 37.4699 9.0476C38.8995 7.68049 40.3258 6.31114 41.7488 4.93621C41.8772 4.81223 42.0068 4.76421 42.1833 4.76421C46.3974 4.76867 50.6116 4.76867 54.8268 4.76421C54.9933 4.76421 55.1139 4.81112 55.2334 4.92728C56.6631 6.30891 58.0972 7.68608 59.5336 9.06101C59.6464 9.16935 59.691 9.27992 59.691 9.43518C59.6866 11.258 59.6888 13.0819 59.6877 14.9059C59.6877 15.1404 59.6843 15.1438 59.4576 15.1438C57.2226 15.1471 54.9866 15.1482 52.7516 15.1549C52.5986 15.1549 52.4824 15.1103 52.3596 15.0209C51.8212 14.6266 51.2594 14.2726 50.6116 14.0782C50.4898 14.0414 50.3569 14.0034 50.2564 13.8682H50.2475Z" fill="#9FACC0"/>
<path d="M53.376 26.1511C53.0599 25.9087 52.7013 25.8361 52.3093 25.8528C51.9642 25.8674 51.6715 25.7277 51.4269 25.4854C51.3912 25.4496 51.3554 25.4105 51.313 25.3826C51.1633 25.2821 51.0427 25.3212 50.9757 25.4898C50.8093 25.9042 51.0125 26.4079 51.4381 26.5911C51.8893 26.7855 52.3462 26.9686 52.7795 27.201C53.2162 27.4344 53.51 27.7806 53.6217 28.2911C52.9873 28.3235 52.4087 28.1805 51.8692 27.8823C51.7073 27.7929 51.5464 27.7594 51.3677 27.7896C51.0003 27.8532 50.8539 28.147 51.0394 28.4653C51.3208 28.9467 51.7609 29.207 52.2892 29.3332C52.488 29.3812 52.6913 29.4102 52.8923 29.4482C52.994 29.4672 53.09 29.5041 53.176 29.561C53.3246 29.6604 53.3514 29.7609 53.2844 29.9296C53.2386 30.0458 53.1582 30.1385 53.0766 30.2312C52.8253 30.5205 52.8409 30.8019 53.1179 31.0644C53.2162 31.1582 53.3391 31.2118 53.4553 31.2766C53.9366 31.5469 54.303 31.9077 54.465 32.4572C54.5621 32.79 54.6984 33.1117 54.7621 33.4557C54.7699 33.4959 54.7855 33.535 54.7877 33.5752C54.7956 33.6959 54.8503 33.8399 54.742 33.9237C54.618 34.0209 54.4851 33.9271 54.3745 33.8612C54.1187 33.7104 53.8685 33.5507 53.6194 33.3887C53.3101 33.1877 53.0007 32.9866 52.6634 32.8347C52.2635 32.6549 51.8536 32.5588 51.4091 32.6259C51.2181 32.6549 51.0204 32.6471 50.826 32.6482C50.5725 32.6504 50.3424 32.5722 50.1346 32.4282C50.0754 32.3868 50.0185 32.3433 49.9582 32.3042C49.6242 32.0908 49.4086 32.2025 49.3975 32.6046C49.3874 32.9833 49.3952 33.363 49.3952 33.7417C49.3952 34.4688 49.3952 35.1959 49.3952 35.923C49.3952 36.2625 49.4299 36.5976 49.5114 36.9271C49.6745 37.5828 50.0297 38.1066 50.6194 38.4473C51.0315 38.6852 51.4079 38.9599 51.7151 39.3274C51.8547 39.4949 52.0457 39.5999 52.2311 39.7094C52.3071 39.7541 52.4065 39.763 52.4612 39.8635H44.4998C44.6561 39.7328 44.7756 39.6412 44.8862 39.5407C45.1621 39.2905 45.3888 38.999 45.5731 38.6785C45.8624 38.1736 46.2276 37.7302 46.6856 37.3784C47.2373 36.9562 47.4417 36.3943 47.4965 35.7298C47.5523 35.054 47.5367 34.3794 47.5412 33.7037C47.5467 32.8738 47.5434 32.0439 47.5434 31.2152C47.5434 31.1437 47.5479 31.0711 47.5412 31.0007C47.5222 30.8164 47.4261 30.7505 47.2463 30.803C47.0732 30.8533 46.9313 30.9639 46.8196 31.0945C46.4276 31.5536 45.9071 31.7033 45.3375 31.7234C44.2496 31.7614 43.3985 32.3053 42.5988 32.9687C42.5519 33.0078 42.5195 33.0637 42.4714 33.1017C42.3586 33.1899 42.2559 33.1597 42.2112 33.0201C42.1598 32.8604 42.1732 32.694 42.2145 32.5343C42.3162 32.1378 42.4525 31.7513 42.6122 31.3749C42.7239 31.1113 42.9238 30.9214 43.1449 30.7517C43.3739 30.5752 43.6319 30.4512 43.8888 30.3228C44.3378 30.0971 44.3981 29.7487 44.053 29.3879C43.9681 29.2997 43.8654 29.2293 43.7749 29.1466C43.6051 28.9925 43.6219 28.8797 43.8307 28.7758C43.9692 28.7066 44.1189 28.6742 44.2719 28.6507C44.5657 28.606 44.8572 28.5547 45.1275 28.4173C45.4547 28.2509 45.7295 28.0286 45.9093 27.7036C46.0713 27.4132 45.9663 27.1607 45.6513 27.0558C45.4402 26.9854 45.2526 27.0323 45.0638 27.1373C44.5333 27.4333 43.9603 27.5584 43.3169 27.5561C43.4186 27.1373 43.6096 26.8056 43.9625 26.5866C44.3456 26.3487 44.7533 26.1555 45.171 25.9846C45.304 25.9299 45.438 25.8796 45.5675 25.8171C45.8289 25.6909 45.973 25.4787 45.9998 25.1916C46.0132 25.0486 46.0244 24.9046 46.0166 24.7627C46.0054 24.5606 45.9361 24.5014 45.7418 24.5494C45.5117 24.6063 45.2928 24.555 45.0728 24.5125C44.6472 24.4299 44.2261 24.3707 43.7715 24.613C43.8263 24.3707 43.9246 24.211 44.0508 24.068C44.2965 23.7876 44.5869 23.5643 44.9209 23.3956C45.4257 23.1409 45.8937 22.8282 46.3483 22.4942C46.5504 22.3457 46.7023 22.1558 46.8219 21.9369C46.9079 21.7794 46.9436 21.6108 46.9291 21.4332C46.9079 21.1874 46.728 21.0769 46.4946 21.164C46.4376 21.1852 46.384 21.2176 46.3338 21.2522C45.8401 21.5907 45.3028 21.6845 44.722 21.5516C44.6651 21.5382 44.5992 21.5638 44.54 21.4957C44.6762 21.279 44.8617 21.1093 45.0917 20.992C45.3375 20.8669 45.5899 20.753 45.8378 20.6312C46.1696 20.4681 46.4298 20.2302 46.5884 19.8907C46.6454 19.769 46.6901 19.645 46.6889 19.5076C46.6867 19.2797 46.5627 19.1904 46.3483 19.2719C46.2634 19.3043 46.183 19.3546 46.1081 19.4082C45.8323 19.6081 45.5251 19.6975 45.1878 19.7042C45.0236 19.7075 44.8605 19.722 44.6975 19.7388C44.292 19.779 43.9536 19.951 43.6867 20.2615C43.6152 20.3453 43.5616 20.4514 43.4398 20.4894C43.3348 20.4313 43.3683 20.3285 43.3773 20.247C43.4242 19.8304 43.4834 19.4149 43.6118 19.0128C43.7604 18.5459 44.034 18.1751 44.4551 17.9171C44.7958 17.7082 45.1364 17.5005 45.4782 17.2939C45.8512 17.0671 46.1584 16.7689 46.4253 16.4271C46.5661 16.2484 46.6722 16.0518 46.7102 15.8229C46.7258 15.7302 46.7247 15.6408 46.7035 15.5492C46.6253 15.2108 46.4723 15.1438 46.2221 15.3772C45.7853 15.7849 45.2526 15.8352 44.7042 15.8184C44.3937 15.8083 44.091 15.7838 43.8028 15.9334C43.7403 15.9658 43.6688 15.9971 43.6062 15.9256C43.5482 15.8608 43.5716 15.7927 43.6006 15.7246C43.6576 15.5883 43.7637 15.49 43.8687 15.3917C44.2742 15.0109 44.741 14.7126 45.2057 14.4133C45.7317 14.0749 46.2947 13.8024 46.8498 13.5164C47.0274 13.4259 47.1726 13.2975 47.2921 13.1434C47.3982 13.0071 47.4462 12.8552 47.3613 12.6854C47.2809 12.5246 47.1357 12.4911 46.976 12.4833C46.8621 12.4766 46.7526 12.4956 46.6465 12.5425C46.2634 12.71 45.868 12.6374 45.4279 12.6162C45.5821 12.3559 45.7898 12.2163 46.0166 12.1057C46.2466 11.9929 46.4845 11.898 46.7169 11.7908C46.9436 11.6858 47.0966 11.5182 47.1435 11.2636C47.2027 10.9397 47.0542 10.771 46.7269 10.7989C46.5761 10.8123 46.4253 10.8447 46.2757 10.8079C46.2388 10.6727 46.3326 10.6046 46.3997 10.5365C46.6733 10.2561 46.9738 10.0126 47.3591 9.89424C47.4753 9.8585 47.5981 9.83057 47.6953 9.75016C47.7757 9.68314 47.8505 9.60942 47.8248 9.49215C47.8025 9.39051 47.721 9.34025 47.6305 9.31344C47.473 9.26765 47.3111 9.24531 47.1458 9.23972C47.0687 9.23749 46.9782 9.25983 46.919 9.1593C46.9905 9.02081 47.1301 8.95044 47.253 8.86332C47.4708 8.7103 47.6975 8.56845 47.8863 8.37858C48.1655 8.09711 48.1577 7.98207 47.8595 7.73411C47.7679 7.65816 47.6406 7.6146 47.6015 7.46158C47.9812 7.44594 48.1231 7.18123 48.2158 6.87408C48.2873 6.63953 48.3442 6.4005 48.409 6.16372C48.4291 6.13468 48.4481 6.13468 48.4682 6.16372C48.5039 6.30222 48.5486 6.4396 48.5754 6.57921C48.6436 6.93439 48.7776 7.22703 49.2121 7.25942C49.1562 7.39122 49.0501 7.44259 48.9786 7.52301C48.7798 7.74863 48.8301 7.99435 49.1026 8.12057C49.2333 8.18088 49.3796 8.17976 49.5293 8.2155C49.5148 8.39198 49.3763 8.46681 49.2646 8.53718C49.0177 8.69355 49.0088 8.9348 49.2031 9.16489C49.3573 9.34695 49.5427 9.48991 49.7393 9.62171C49.8498 9.69543 49.9582 9.77473 50.0364 9.8853C50.0944 9.96684 50.0889 10.0372 49.9973 10.0908C49.9001 10.1478 49.7962 10.1958 49.7091 10.2651C49.5125 10.4214 49.5226 10.5823 49.7482 10.6906C50.0297 10.8269 50.2687 11.0156 50.4921 11.2278C50.5781 11.3094 50.673 11.392 50.6898 11.5529C50.511 11.5897 50.3413 11.5562 50.1737 11.5529C49.8967 11.5473 49.7839 11.6657 49.8007 11.9449C49.8186 12.2297 49.9749 12.4207 50.224 12.5369C50.5021 12.6676 50.7847 12.7871 51.0639 12.9155C51.2605 13.0049 51.4481 13.111 51.6023 13.264C51.6592 13.321 51.7251 13.3869 51.6916 13.4762C51.6604 13.5622 51.5744 13.5857 51.4906 13.5935C51.3365 13.6091 51.1857 13.5935 51.0326 13.5656C50.7277 13.5108 50.4217 13.4985 50.1212 13.6035C49.8655 13.6929 49.8197 13.8671 50.0051 14.0648C50.1492 14.219 50.3413 14.296 50.5367 14.3608C51.4079 14.6546 52.1462 15.1583 52.8019 15.7927C52.9794 15.9647 53.1369 16.1512 53.2765 16.3545C53.3235 16.4227 53.3737 16.4941 53.3748 16.5757C53.3748 16.6684 53.3156 16.7521 53.2196 16.7097C52.7538 16.5031 52.249 16.5857 51.7665 16.502C51.351 16.4294 50.9433 16.3467 50.5602 16.1635C50.2821 16.0306 50.1168 16.1512 50.1503 16.4539C50.1693 16.6293 50.2374 16.789 50.339 16.9353C50.6406 17.3687 50.9958 17.7473 51.4459 18.0299C51.7408 18.2142 52.0368 18.3985 52.3372 18.5738C52.8867 18.8944 53.2598 19.3434 53.3916 19.9756C53.4374 20.1956 53.4899 20.4157 53.5178 20.6379C53.5424 20.8289 53.4821 20.8781 53.2888 20.8457C53.1894 20.8289 53.0856 20.8021 52.9984 20.7518C52.765 20.6167 52.5092 20.5486 52.2579 20.4626C51.8514 20.3252 51.4537 20.1588 51.0516 20.008C50.9567 19.9722 50.8595 19.932 50.759 19.9175C50.3737 19.8605 50.1492 20.1442 50.291 20.5028C50.4362 20.868 50.6764 21.1539 51.0271 21.3371C51.2449 21.4499 51.4705 21.5493 51.6905 21.6566C52.0055 21.8107 52.297 21.9994 52.5472 22.2452C52.5975 22.2954 52.6433 22.3524 52.6823 22.4116C52.7404 22.5009 52.6768 22.578 52.6064 22.549C52.2166 22.3837 51.8391 22.5311 51.456 22.5624C51.2259 22.5814 51.0125 22.5009 50.8037 22.4116C50.644 22.3435 50.4876 22.2619 50.3122 22.2418C50.0967 22.2161 49.9973 22.3256 50.0632 22.5333C50.1514 22.8148 50.329 23.0393 50.5635 23.2158C51.0215 23.5631 51.4951 23.8882 52.0133 24.1372C52.8119 24.5226 53.2654 25.1637 53.4642 26.007C53.4876 26.0863 53.4988 26.1578 53.3782 26.1522L53.376 26.1511Z" fill="#9FACC0"/>
<path d="M50.4362 22.5713C50.5613 22.5847 50.6674 22.6517 50.778 22.7009C51.1108 22.8461 51.4537 22.8628 51.8022 22.7925C52.0278 22.7467 52.2445 22.721 52.4657 22.807C52.5293 22.8316 52.6075 22.8282 52.6779 22.8204C52.9381 22.7947 53.0655 22.5769 52.9649 22.3345C52.9001 22.1782 52.784 22.0631 52.6611 21.9537C52.3763 21.7001 52.0546 21.5024 51.7084 21.3416C51.514 21.2511 51.3197 21.1595 51.1298 21.059C50.8562 20.9138 50.6741 20.6837 50.5568 20.4C50.4965 20.2526 50.5635 20.1599 50.7177 20.1811C50.7769 20.19 50.835 20.2168 50.8919 20.2403C51.4247 20.4492 51.953 20.6714 52.5059 20.8267C52.612 20.8568 52.7103 20.9183 52.8097 20.9696C52.9471 21.04 53.0889 21.0959 53.2419 21.1215C53.6317 21.1852 53.8629 20.9674 53.8015 20.5776C53.7378 20.1733 53.6541 19.7723 53.4988 19.3914C53.4809 19.3468 53.4407 19.3043 53.472 19.2384C53.5368 19.1882 53.6206 19.2161 53.6976 19.215C54.2918 19.2116 54.8872 19.2183 55.4814 19.2105C55.6567 19.2083 55.7885 19.2518 55.9158 19.3803C57.1143 20.5865 58.3183 21.7884 59.5257 22.9857C59.6374 23.0963 59.6799 23.2068 59.6799 23.3632C59.6765 27.2959 59.6754 31.2286 59.6799 35.1602C59.6799 35.3288 59.6274 35.4438 59.5079 35.5589C58.0793 36.926 56.6541 38.2965 55.2323 39.6714C55.1038 39.7954 54.9754 39.8512 54.7978 39.8412C54.3276 39.8144 53.8551 39.8792 53.3871 39.792C52.7382 39.6714 52.1507 39.4424 51.7151 38.9108C51.5062 38.6561 51.2359 38.4618 50.9433 38.3099C50.1145 37.8787 49.7236 37.1661 49.7013 36.2659C49.67 35.0373 49.689 33.8087 49.6879 32.5801C49.6879 32.5622 49.7013 32.5432 49.708 32.5242C49.794 32.4952 49.842 32.5622 49.8945 32.6035C50.1905 32.8336 50.5278 32.9308 50.8986 32.9196C51.103 32.914 51.3097 32.914 51.5129 32.895C51.9262 32.8559 52.3037 32.9598 52.6667 33.143C53.0063 33.3139 53.319 33.5261 53.6362 33.735C53.8585 33.8813 54.0774 34.0332 54.3198 34.146C54.5085 34.2342 54.704 34.318 54.8994 34.1761C55.0904 34.0376 55.0893 33.8288 55.0714 33.6188C55.0502 33.3619 54.9799 33.1162 54.905 32.8716C54.8514 32.6962 54.7788 32.5253 54.7274 32.3489C54.5554 31.7491 54.1522 31.3481 53.6273 31.0465C53.5301 30.9907 53.4262 30.9415 53.3391 30.8723C53.1503 30.7248 53.1414 30.5897 53.2911 30.4065C53.3559 30.3272 53.4251 30.2502 53.4776 30.163C53.7166 29.7688 53.6049 29.418 53.1838 29.2382C52.985 29.1533 52.7739 29.1142 52.5595 29.0874C52.1842 29.0405 51.8447 28.9099 51.561 28.6552C51.4783 28.5804 51.4012 28.4955 51.3376 28.4028C51.2851 28.3257 51.1801 28.2419 51.2694 28.1336C51.3487 28.0364 51.466 28.0275 51.5811 28.0554C51.6391 28.0699 51.6928 28.1057 51.7464 28.1347C52.268 28.424 52.8343 28.5446 53.4218 28.5871C53.4832 28.5915 53.5457 28.5926 53.606 28.5848C53.8629 28.5502 53.9556 28.4072 53.8864 28.1548C53.739 27.612 53.4139 27.2088 52.9158 26.9474C52.5628 26.762 52.2021 26.5911 51.8301 26.4459C51.7441 26.4124 51.6592 26.3767 51.5755 26.3398C51.2694 26.2024 51.2136 26.0997 51.2471 25.7367C51.2761 25.7501 51.3063 25.7579 51.3275 25.7758C51.6492 26.0472 52.0245 26.1589 52.4389 26.1376C52.6823 26.1254 52.9046 26.1611 53.099 26.3231C53.2107 26.4158 53.348 26.4638 53.4977 26.4582C53.6652 26.4526 53.7423 26.3867 53.7635 26.2225C53.7781 26.1097 53.7635 25.9969 53.7334 25.8875C53.4843 24.9861 52.9962 24.2791 52.1228 23.8703C51.6391 23.6436 51.2035 23.3353 50.7735 23.0203C50.6306 22.9153 50.5122 22.7913 50.4206 22.6406C50.4038 22.6149 50.4072 22.5925 50.4306 22.5724L50.4362 22.5713Z" fill="#9FACC0"/>
<path d="M43.5214 30.1597C43.3538 30.2691 43.1829 30.373 43.0187 30.4881C42.6647 30.7349 42.4055 31.0555 42.2626 31.4687C42.1364 31.8362 41.9956 32.1992 41.9152 32.5801C41.8828 32.7331 41.8828 32.8839 41.9242 33.0358C42.0392 33.4602 42.4089 33.5741 42.7093 33.258C42.9741 32.9788 43.2834 32.7666 43.6107 32.5722C44.2004 32.2215 44.8181 31.9713 45.5206 31.9803C45.7362 31.9836 45.9462 31.9267 46.1528 31.8641C46.4231 31.7826 46.6577 31.6441 46.8587 31.4464C46.9671 31.3403 47.0665 31.2219 47.2016 31.1459C47.2876 31.1761 47.2575 31.2487 47.2575 31.3023C47.2541 32.6337 47.2496 33.965 47.2418 35.2964C47.2396 35.6248 47.196 35.9487 47.1223 36.2692C47.0609 36.5362 46.9414 36.7663 46.728 36.9461C46.5795 37.0723 46.4388 37.2075 46.2947 37.3381C45.9585 37.6419 45.6647 37.9804 45.4313 38.3713C45.3006 38.5902 45.1509 38.7991 44.9979 39.0046C44.5746 39.5709 43.9972 39.8289 43.2969 39.8322C42.9283 39.8333 42.5586 39.8222 42.19 39.8367C42.0001 39.8445 41.8661 39.7842 41.7298 39.6513C40.5537 38.5098 39.3698 37.375 38.188 36.238C37.9446 36.0034 37.7044 35.7644 37.4553 35.5365C37.3425 35.4327 37.2867 35.3254 37.2867 35.1657C37.2934 33.5574 37.2912 31.949 37.2934 30.3417C37.2934 30.1184 37.299 30.1117 37.5101 30.1117C39.468 30.1094 41.4271 30.1083 43.3851 30.1083C43.4298 30.1083 43.4867 30.0893 43.5225 30.1608L43.5214 30.1597Z" fill="#9FACC0"/>
<path d="M53.376 26.151C53.4407 26.1242 53.443 26.0606 53.462 26.0058C53.5078 26.0528 53.5312 26.112 53.4955 26.1667C53.4575 26.2236 53.4117 26.1913 53.3771 26.1499L53.376 26.151Z" fill="#9FACC0"/>
<path d="M50.4362 22.5713C50.4329 22.5936 50.4295 22.616 50.4262 22.6394C50.3759 22.6227 50.3625 22.5869 50.3927 22.5467C50.4061 22.53 50.4306 22.5467 50.4362 22.5713Z" fill="#9FACC0"/>
<path d="M48.466 6.16259L48.4358 6.16036L48.4057 6.16259C48.3956 6.1235 48.4034 6.06877 48.4358 6.06877C48.4682 6.06877 48.4749 6.1235 48.4648 6.16259H48.466Z" fill="#9FACC0"/>
</g>
<defs>
<clipPath id="clip0_151_48466">
<rect width="125.801" height="41" fill="white" transform="translate(36 3.39374)"/>
</clipPath>
</defs>
</svg>
