<svg width="33" height="32" viewBox="0 0 33 32" fill="none" xmlns="http://www.w3.org/2000/svg">
<g clip-path="url(#clip0_146_23784)">
<path d="M33.4431 5.32131C32.1764 5.88257 30.8158 6.2618 29.3853 6.43321C30.8613 5.55005 31.9655 4.16006 32.492 2.5226C31.1053 3.34627 29.5876 3.92605 28.0049 4.23672C26.9406 3.10034 25.5309 2.34714 23.9947 2.09404C22.4585 1.84094 20.8816 2.1021 19.509 2.83699C18.1364 3.57188 17.0449 4.73937 16.4038 6.1582C15.7627 7.57703 15.608 9.16783 15.9637 10.6836C13.1539 10.5425 10.4051 9.81221 7.89583 8.54006C5.38654 7.26791 3.17279 5.48235 1.39824 3.29927C0.791476 4.34594 0.442585 5.55947 0.442585 6.85188C0.441908 8.01534 0.728422 9.16099 1.2767 10.1872C1.82499 11.2133 2.61809 12.0883 3.58563 12.7345C2.46353 12.6988 1.36619 12.3956 0.384943 11.8501V11.9411C0.38483 13.5729 0.949284 15.1545 1.98253 16.4175C3.01578 17.6805 4.45417 18.5472 6.05365 18.8704C5.01272 19.1521 3.92138 19.1936 2.86206 18.9917C3.31334 20.3958 4.19239 21.6236 5.37615 22.5033C6.5599 23.3829 7.98911 23.8704 9.46367 23.8974C6.96051 25.8625 3.86912 26.9284 0.686809 26.9237C0.123095 26.9238 -0.440143 26.8909 -1 26.8251C2.23023 28.902 5.99046 30.0043 9.83077 30C22.8307 30 29.9375 19.2329 29.9375 9.89481C29.9375 9.59142 29.9299 9.28501 29.9162 8.98162C31.2986 7.98194 32.4918 6.74402 33.44 5.32586L33.4431 5.32131Z" fill="#112242" fill-opacity="0.62"/>
</g>
<defs>
<clipPath id="clip0_146_23784">
<rect width="32" height="32" fill="white" transform="translate(0.333008)"/>
</clipPath>
</defs>
</svg>
