<svg width="34" height="32" viewBox="0 0 34 32" fill="none" xmlns="http://www.w3.org/2000/svg">
<path d="M31.0068 15.6893V15.7236C31.0068 16.3431 30.8288 16.9216 30.5219 17.4111L30.5299 17.3974C30.2229 17.8956 29.7837 18.2988 29.2612 18.5623L29.2429 18.5703C29.3661 19.0301 29.4369 19.5572 29.4369 20.1026V20.1231V20.122C29.4285 21.8298 28.8148 23.4792 27.7049 24.7771L27.7129 24.7669C26.4731 26.2492 24.8844 27.4003 23.0897 28.1168L23.0109 28.1441C21.1455 28.9268 18.9776 29.3821 16.7025 29.3821L16.528 29.3809H16.5371L16.3705 29.3821C14.0988 29.3821 11.9344 28.9268 9.96169 28.1031L10.0712 28.1441C8.2561 27.4316 6.64771 26.277 5.39211 24.7851L5.37728 24.7669C4.27228 23.4716 3.66188 21.8268 3.65442 20.1243V20.1163C3.65442 19.58 3.71831 19.0575 3.83811 18.5577L3.82898 18.6034C3.28985 18.3406 2.83352 17.9344 2.51003 17.4293L2.50204 17.4168C2.17252 16.9018 1.99823 16.3029 2.00001 15.6916C2.00001 14.8051 2.35828 14.0018 2.93903 13.4199C3.22727 13.1201 3.57315 12.8817 3.95588 12.7189C4.33861 12.5562 4.7503 12.4725 5.1662 12.4729H5.22325H5.21982H5.26432C6.17596 12.4729 6.99745 12.8643 7.56794 13.4873L7.57022 13.4895C10.0235 11.8092 12.9212 10.8965 15.8947 10.8676H15.9038L17.7819 2.43585C17.8145 2.29596 17.901 2.1746 18.0226 2.09812L18.0249 2.09698C18.0858 2.05413 18.1552 2.02474 18.2284 2.01077C18.3016 1.9968 18.3769 1.99858 18.4493 2.01597L18.4459 2.01483L24.4177 3.3258C24.6163 2.92304 24.9141 2.59673 25.2815 2.36967L25.2917 2.36397C25.6557 2.13578 26.0984 2 26.573 2C27.2405 2 27.8464 2.26813 28.2856 2.70398C28.7249 3.12499 28.9976 3.71716 28.9976 4.37321V4.41429V4.41201V4.44623C28.9976 5.10571 28.7249 5.7013 28.2856 6.12574L28.2845 6.12688C28.0597 6.3531 27.7923 6.5325 27.4978 6.65471C27.2032 6.77692 26.8874 6.8395 26.5685 6.83884C25.9284 6.83941 25.3142 6.58627 24.8604 6.13487C24.6373 5.9184 24.4601 5.65927 24.3391 5.37291C24.2182 5.08654 24.1561 4.77877 24.1565 4.46791V4.42456V4.42684L18.7506 3.22882L17.0676 10.8665C20.2019 10.8893 23.1068 11.8534 25.5188 13.4907L25.4652 13.4565C25.7647 13.1439 26.1245 12.8953 26.5228 12.7257C26.921 12.5561 27.3496 12.4689 27.7825 12.4695C28.6724 12.4695 29.4779 12.8312 30.061 13.4165C30.6417 13.9824 31.0023 14.7731 31.0023 15.6471V15.6916V15.6893H31.0068ZM8.77052 18.9091V18.9457C8.77052 19.6029 9.03978 20.1973 9.47449 20.624C9.69007 20.8495 9.94916 21.0288 10.2361 21.1512C10.523 21.2736 10.8318 21.3364 11.1437 21.336H11.1848H11.1825C11.8263 21.3354 12.4435 21.0794 12.8987 20.6242C13.3539 20.169 13.6099 19.5518 13.6105 18.908V18.8692C13.6105 18.2132 13.3378 17.621 12.8985 17.2011L12.8974 17.2C12.6787 16.9767 12.4175 16.7994 12.1293 16.6785C11.8411 16.5576 11.5316 16.4955 11.219 16.496H11.1802H11.1825C10.5447 16.5014 9.93445 16.757 9.4833 17.208C9.03215 17.6589 8.77618 18.269 8.77052 18.9069V18.908V18.9091ZM21.8791 24.6551C21.9356 24.6005 21.9806 24.5351 22.0113 24.4627C22.042 24.3904 22.0578 24.3126 22.0578 24.234C22.0578 24.1555 22.042 24.0777 22.0113 24.0054C21.9806 23.933 21.9356 23.8676 21.8791 23.813C21.8283 23.7615 21.7677 23.7206 21.7009 23.6927C21.6341 23.6649 21.5624 23.6507 21.49 23.651H21.4741H21.4752H21.4661C21.3132 23.6508 21.1659 23.7087 21.0542 23.813C20.5134 24.3167 19.8449 24.6624 19.1214 24.8125L19.0951 24.8171C17.3707 25.2543 15.5638 25.2488 13.8421 24.8011L13.9151 24.8171C13.1801 24.6698 12.5003 24.3214 11.9515 23.8107L11.9538 23.813C11.8422 23.7085 11.6949 23.6506 11.5419 23.651H11.5202C11.4479 23.6509 11.3762 23.6651 11.3094 23.6929C11.2426 23.7207 11.182 23.7616 11.1312 23.813C11.0739 23.8631 11.028 23.9248 10.9965 23.9941C10.965 24.0634 10.9487 24.1386 10.9486 24.2146V24.2306C10.9486 24.3972 11.0182 24.5478 11.1312 24.6551C11.6663 25.1591 12.3105 25.5328 13.0138 25.747L13.048 25.7561C13.6736 25.9832 14.3221 26.1416 14.9819 26.2285L15.031 26.2342C15.5376 26.2828 16.0282 26.3072 16.5029 26.3072C16.9775 26.3072 17.4681 26.2828 17.9747 26.2342C18.6741 26.144 19.3613 25.9768 20.0239 25.7356L19.9577 25.7572C20.6756 25.5445 21.334 25.1671 21.8802 24.6551L21.878 24.6573L21.8791 24.6551ZM21.8312 21.3371H21.87C22.526 21.3371 23.1182 21.0644 23.5381 20.6252L23.5392 20.624C23.9739 20.1973 24.2432 19.6029 24.2432 18.9457V18.9069V18.9091C24.2378 18.2713 23.9821 17.6611 23.5312 17.2099C23.0803 16.7588 22.4702 16.5028 21.8323 16.4971H21.7947C21.1375 16.4971 20.543 16.7664 20.1163 17.2011C19.8908 17.4167 19.7115 17.6758 19.5891 17.9627C19.4667 18.2496 19.4039 18.5584 19.4043 18.8704V18.9114V18.9091C19.4049 19.5529 19.6609 20.1701 20.1161 20.6253C20.5713 21.0805 21.1886 21.3365 21.8323 21.3371H21.8312Z" fill="#112242" fill-opacity="0.62"/>
</svg>
