<svg width="73" height="72" viewBox="0 0 73 72" fill="none" xmlns="http://www.w3.org/2000/svg">
<path d="M48.8288 48.6495V48.6483C48.8288 45.4378 46.2222 42.834 43.0113 42.834H28.3423C25.1315 42.834 22.5249 45.4378 22.5249 48.6483V51.3137C22.5249 54.5408 23.7825 57.0821 26.1963 58.7676C28.5447 60.4075 31.8612 61.15 35.8555 61.15C39.8623 61.15 43.1786 60.397 45.4801 58.7256C47.8474 57.0063 48.9911 54.4248 48.8261 51.183L48.8288 48.6495ZM26.4583 30.9437L26.8276 29.5073H25.3445H13.6733C10.4625 29.5073 7.85586 32.1111 7.85586 35.3217V37.987C7.85586 41.2141 9.11345 43.7554 11.5273 45.441C13.8757 47.0808 17.1922 47.8233 21.1865 47.8233H21.2034L21.2203 47.8228L21.311 47.8202L22.1562 47.7953L22.3845 46.9811C22.7486 45.6826 23.5278 44.5387 24.6034 43.7239C25.6777 42.9101 26.9887 42.4693 28.3368 42.4687L28.6114 42.4713L31.5744 42.4995L29.4062 40.4799L28.9863 40.0888C27.8043 38.9197 26.9487 37.4621 26.5046 35.8605C26.059 34.2538 26.043 32.5585 26.4583 30.9437ZM57.6804 29.5073H57.6801L46.0089 29.51L44.5225 29.5103L44.8961 30.949C45.3375 32.6489 45.2979 34.4379 44.7818 36.1166C44.2656 37.7953 43.2932 39.298 41.9727 40.4571L39.6443 42.5008L42.7422 42.4713L42.9964 42.4689L43.4734 42.4858C44.736 42.5825 45.9388 43.0631 46.9201 43.8633C47.9066 44.6678 48.6213 45.7562 48.9671 46.9806L49.2007 47.8078L50.0602 47.8179L50.5109 47.8232V47.8233H50.5246C54.5313 47.8233 57.8476 47.0704 60.1491 45.3989C62.5164 43.6797 63.6601 41.0981 63.4952 37.8563L63.4978 35.3229V35.3217C63.4978 32.1111 60.8912 29.5073 57.6804 29.5073ZM39.1786 24.8728C38.0684 24.4132 36.8785 24.1767 35.6768 24.1767C33.25 24.1767 30.9224 25.1401 29.2062 26.8552C27.4899 28.5704 26.5255 30.8968 26.5255 33.3227C26.5255 35.7486 27.4899 38.075 29.2062 39.7901C30.9224 41.5053 33.25 42.4687 35.6768 42.4687C36.8785 42.4687 38.0684 42.2321 39.1786 41.7726C40.2889 41.313 41.2977 40.6394 42.1475 39.7901C42.9973 38.9409 43.6715 37.9326 44.1314 36.8229C44.5914 35.7132 44.8281 34.5238 44.8281 33.3227C44.8281 32.1215 44.5914 30.9321 44.1314 29.8224C43.6715 28.7127 42.9973 27.7045 42.1475 26.8552C41.2977 26.006 40.2889 25.3323 39.1786 24.8728ZM27.4785 13.5285C25.7622 11.8134 23.4346 10.85 21.0078 10.85C18.581 10.85 16.2534 11.8134 14.5371 13.5285C12.8208 15.2437 11.8565 17.5701 11.8565 19.996C11.8565 22.4219 12.8208 24.7483 14.5371 26.4635C16.2534 28.1786 18.581 29.142 21.0078 29.142C23.4346 29.142 25.7622 28.1786 27.4785 26.4635C29.1947 24.7483 30.1591 22.4219 30.1591 19.996C30.1591 17.5701 29.1947 15.2437 27.4785 13.5285ZM56.8165 13.5285C55.1003 11.8134 52.7727 10.85 50.3459 10.85C47.919 10.85 45.5914 11.8134 43.8752 13.5285C42.1589 15.2437 41.1946 17.5701 41.1946 19.996C41.1946 22.4219 42.1589 24.7483 43.8752 26.4635C45.5914 28.1786 47.919 29.142 50.3459 29.142C52.7727 29.142 55.1003 28.1786 56.8165 26.4635C58.5328 24.7483 59.4972 22.4219 59.4972 19.996C59.4972 17.5701 58.5328 15.2437 56.8165 13.5285Z" stroke="white" stroke-width="2.3"/>
</svg>
