<svg width="1643" height="286" viewBox="0 0 1643 286" fill="none" xmlns="http://www.w3.org/2000/svg">
<g clip-path="url(#clip0_115_23938)">
<path fill-rule="evenodd" clip-rule="evenodd" d="M143.498 3.18378C136.655 -0.5676 128.366 -0.547636 121.541 3.23667L12.0414 63.9491C9.55985 65.3251 8.21297 67.7149 8.01297 70.1877L7.87158 70.1882V214.501L8.13653 214.499C8.54447 216.575 9.78479 218.511 11.8648 219.736L118.363 282.43C125.439 286.595 134.212 286.623 141.314 282.501L252.061 218.228C255.187 216.414 256.437 212.997 255.835 209.894L256.264 69.3136L255.98 69.3146C255.916 66.6722 254.55 64.0591 251.894 62.6034L143.498 3.18378Z" fill="url(#paint0_angular_115_23938)"/>
<path fill-rule="evenodd" clip-rule="evenodd" d="M143.498 3.18378C136.655 -0.5676 128.366 -0.547636 121.541 3.23667L12.0414 63.9491C9.55985 65.3251 8.21297 67.7149 8.01297 70.1877L7.87158 70.1882V214.501L8.13653 214.499C8.54447 216.575 9.78479 218.511 11.8648 219.736L118.363 282.43C125.439 286.595 134.212 286.623 141.314 282.501L252.061 218.228C255.187 216.414 256.437 212.997 255.835 209.894L256.264 69.3136L255.98 69.3146C255.916 66.6722 254.55 64.0591 251.894 62.6034L143.498 3.18378Z" fill="url(#paint1_angular_115_23938)" fill-opacity="0.3"/>
<path fill-rule="evenodd" clip-rule="evenodd" d="M143.498 3.18378C136.655 -0.5676 128.366 -0.547636 121.541 3.23667L12.0414 63.9491C9.55985 65.3251 8.21297 67.7149 8.01297 70.1877L7.87158 70.1882V214.501L8.13653 214.499C8.54447 216.575 9.78479 218.511 11.8648 219.736L118.363 282.43C125.439 286.595 134.212 286.623 141.314 282.501L252.061 218.228C255.187 216.414 256.437 212.997 255.835 209.894L256.264 69.3136L255.98 69.3146C255.916 66.6722 254.55 64.0591 251.894 62.6034L143.498 3.18378Z" fill="url(#paint2_angular_115_23938)" fill-opacity="0.2"/>
<path d="M121.541 3.2371C128.366 -0.547214 136.655 -0.56718 143.498 3.1842L251.894 62.6039C257.27 65.5509 257.363 73.2409 252.059 76.3161L141.38 140.488C134.276 144.607 125.504 144.576 118.43 140.408L11.8624 77.6156C6.61611 74.5244 6.71597 66.9023 12.0414 63.9496L121.541 3.2371Z" fill="url(#paint3_linear_115_23938)"/>
<path fill-rule="evenodd" clip-rule="evenodd" d="M124.59 32.5577C129.212 29.8681 134.923 29.8681 139.545 32.5577L229.02 84.6198L233.289 87.1068L190.547 112.179L186.604 109.765L139.541 82.4041C134.921 79.7183 129.215 79.7183 124.595 82.4041L84.9274 105.465C80.3488 108.127 77.5317 113.023 77.5317 118.319V164.62C77.5317 169.916 80.3488 174.812 84.9274 177.474L124.595 200.535C129.215 203.221 134.921 203.221 139.541 200.535L181.956 175.877C182.6 175.502 183.211 175.082 183.786 174.621L225.388 198.632C224.331 199.853 223.067 200.91 221.63 201.746L139.545 249.508C134.923 252.197 129.212 252.197 124.59 249.508L42.5057 201.746C37.9299 199.084 35.1149 194.189 35.1149 188.895V93.1707C35.1149 87.8766 37.9299 82.9818 42.5057 80.3193L124.59 32.5577Z" fill="white"/>
<g filter="url(#filter0_d_115_23938)">
<path fill-rule="evenodd" clip-rule="evenodd" d="M131.44 251.512C129.067 251.412 126.714 250.744 124.59 249.508L42.5057 201.746C37.9299 199.084 35.1149 194.189 35.1149 188.895V93.1706C35.1149 92.5736 35.1507 91.9817 35.2207 91.3975L78.0895 114.284C77.7239 115.58 77.5317 116.936 77.5317 118.319V164.62C77.5317 169.916 80.3488 174.812 84.9274 177.474L124.595 200.535C127.284 202.099 130.341 202.752 133.338 202.495L131.44 251.512Z" fill="url(#paint4_linear_115_23938)"/>
</g>
<path fill-rule="evenodd" clip-rule="evenodd" d="M232.711 86.7705L189.436 111.499L190.547 112.179L233.289 87.1072L232.711 86.7705ZM131.63 202.544C134.357 202.624 137.1 201.954 139.541 200.536L181.956 175.877C182.6 175.503 183.211 175.083 183.786 174.621L225.388 198.633C224.331 199.853 223.067 200.91 221.63 201.747L139.545 249.508C137.104 250.929 134.358 251.599 131.63 251.519L131.63 202.544Z" fill="#C1D5E3"/>
<path d="M183.67 174.268L226.527 148.904V199.632L182.796 224.122L183.67 174.268Z" fill="#C1D5E3"/>
</g>
<path d="M445.469 185.113C441.27 198.816 433.461 209.756 422.042 217.933C410.696 226.111 397.62 230.199 382.812 230.199C364.395 230.199 348.703 223.716 335.737 210.75C322.845 197.711 316.398 181.908 316.398 163.343C316.398 144.778 322.845 128.976 335.737 115.937C348.703 102.823 364.395 96.2666 382.812 96.2666C397.767 96.2666 410.991 100.429 422.484 108.754C433.976 117.005 441.859 128.055 446.132 141.905H412.538C409.665 136.012 405.65 131.518 400.493 128.424C395.41 125.33 389.406 123.782 382.481 123.782C372.535 123.782 364.063 127.54 357.064 135.054C350.139 142.568 346.677 151.703 346.677 162.459C346.677 173.878 350.25 183.455 357.396 191.191C364.542 198.852 373.382 202.683 383.917 202.683C389.737 202.683 395.152 201.099 400.162 197.932C405.245 194.764 409.149 190.491 411.875 185.113H445.469ZM529.891 230.199C511.399 230.199 495.634 223.716 482.594 210.75C469.628 197.711 463.145 181.908 463.145 163.343C463.145 144.778 469.628 128.976 482.594 115.937C495.634 102.823 511.399 96.2666 529.891 96.2666C548.455 96.2666 564.221 102.823 577.187 115.937C590.227 128.976 596.746 144.778 596.746 163.343C596.746 181.908 590.227 197.711 577.187 210.75C564.221 223.716 548.455 230.199 529.891 230.199ZM529.891 202.683C540.278 202.683 548.971 198.926 555.97 191.412C562.969 183.897 566.468 174.541 566.468 163.343C566.468 152.146 562.969 142.753 555.97 135.164C548.971 127.576 540.278 123.782 529.891 123.782C519.577 123.782 510.92 127.576 503.922 135.164C496.923 142.753 493.424 152.146 493.424 163.343C493.424 174.541 496.923 183.897 503.922 191.412C510.92 198.926 519.577 202.683 529.891 202.683ZM675.422 230.199C658.183 230.199 643.486 223.716 631.33 210.75C619.175 197.711 613.097 181.908 613.097 163.343C613.097 144.778 619.175 128.976 631.33 115.937C643.486 102.823 658.22 96.2666 675.532 96.2666C692.256 96.2666 706.437 102.271 718.077 114.279V100.466H745.814V226H732.001H718.077V212.297C706.29 224.158 692.071 230.126 675.422 230.199ZM680.395 123.561C669.86 123.561 661.056 127.392 653.984 135.054C646.911 142.642 643.375 152.072 643.375 163.343C643.375 174.541 646.911 183.934 653.984 191.522C661.056 199.11 669.823 202.904 680.284 202.904C690.819 202.904 699.623 199.11 706.695 191.522C713.841 183.934 717.414 174.504 717.414 163.233C717.414 151.961 713.878 142.532 706.805 134.943C699.733 127.355 690.929 123.561 680.395 123.561ZM898.418 185.113C894.218 198.816 886.409 209.756 874.99 217.933C863.645 226.111 850.569 230.199 835.761 230.199C817.343 230.199 801.652 223.716 788.686 210.75C775.793 197.711 769.347 181.908 769.347 163.343C769.347 144.778 775.793 128.976 788.686 115.937C801.652 102.823 817.343 96.2666 835.761 96.2666C850.716 96.2666 863.94 100.429 875.432 108.754C886.925 117.005 894.808 128.055 899.081 141.905H865.487C862.614 136.012 858.599 131.518 853.442 128.424C848.359 125.33 842.354 123.782 835.429 123.782C825.484 123.782 817.012 127.54 810.013 135.054C803.088 142.568 799.626 151.703 799.626 162.459C799.626 173.878 803.199 183.455 810.345 191.191C817.491 198.852 826.331 202.683 836.866 202.683C842.686 202.683 848.101 201.099 853.11 197.932C858.194 194.764 862.098 190.491 864.824 185.113H898.418ZM922.724 226V58.5842H937.753H952.892V109.306C962.248 100.466 973.152 96.1192 985.602 96.2666C1000.41 96.2666 1012.16 101.276 1020.85 111.295C1029.62 121.314 1034 134.87 1034 151.961V226H1018.97H1003.84V158.592C1003.84 147.173 1001.7 138.516 997.426 132.623C993.227 126.656 987.038 123.672 978.861 123.672C970.168 123.672 963.648 126.692 959.302 132.733C955.029 138.774 952.892 147.836 952.892 159.918V226H937.864H922.724Z" fill="#152743"/>
<path d="M445.469 185.113L448.56 186.06L449.841 181.88H445.469V185.113ZM422.042 217.933L420.159 215.305L420.151 215.31L422.042 217.933ZM335.737 210.75L333.438 213.023L333.444 213.03L333.451 213.036L335.737 210.75ZM335.737 115.937L333.438 113.663L333.438 113.663L335.737 115.937ZM422.484 108.754L420.587 111.372L420.598 111.38L422.484 108.754ZM446.132 141.905V145.138H450.513L449.221 140.952L446.132 141.905ZM412.538 141.905L409.632 143.322L410.518 145.138H412.538V141.905ZM400.493 128.424L398.812 131.185L398.821 131.191L398.83 131.196L400.493 128.424ZM357.064 135.054L354.699 132.85L354.693 132.857L354.687 132.863L357.064 135.054ZM357.396 191.191L355.021 193.385L355.026 193.39L355.032 193.396L357.396 191.191ZM400.162 197.932L398.452 195.188L398.443 195.193L398.434 195.199L400.162 197.932ZM411.875 185.113V181.88H409.889L408.991 183.651L411.875 185.113ZM442.378 184.166C438.382 197.206 430.989 207.549 420.159 215.305L423.924 220.562C435.932 211.963 444.158 200.426 448.56 186.06L442.378 184.166ZM420.151 215.31C409.39 223.067 396.984 226.966 382.812 226.966V233.432C398.256 233.432 412.003 229.154 423.932 220.556L420.151 215.31ZM382.812 226.966C365.248 226.966 350.38 220.821 338.023 208.464L333.451 213.036C347.026 226.612 363.541 233.432 382.812 233.432V226.966ZM338.036 208.477C325.75 196.051 319.631 181.069 319.631 163.343H313.165C313.165 182.748 319.939 199.37 333.438 213.023L338.036 208.477ZM319.631 163.343C319.631 145.618 325.75 130.636 338.036 118.21L333.438 113.663C319.939 127.317 313.165 143.939 313.165 163.343H319.631ZM338.036 118.21C350.395 105.71 365.26 99.4996 382.812 99.4996V93.0335C363.53 93.0335 347.01 99.9367 333.438 113.663L338.036 118.21ZM382.812 99.4996C397.125 99.4996 409.677 103.469 420.587 111.372L424.38 106.135C412.305 97.3887 398.409 93.0335 382.812 93.0335V99.4996ZM420.598 111.38C431.503 119.209 438.972 129.665 443.042 142.858L449.221 140.952C444.746 126.446 436.45 114.801 424.369 106.127L420.598 111.38ZM446.132 138.672H412.538V145.138H446.132V138.672ZM415.444 140.489C412.323 134.085 407.898 129.097 402.156 125.651L398.83 131.196C403.402 133.939 407.007 137.938 409.632 143.322L415.444 140.489ZM402.174 125.662C396.506 122.212 389.9 120.549 382.481 120.549V127.016C388.911 127.016 394.313 128.447 398.812 131.185L402.174 125.662ZM382.481 120.549C371.605 120.549 362.286 124.704 354.699 132.85L359.43 137.257C365.84 130.376 373.465 127.016 382.481 127.016V120.549ZM354.687 132.863C347.181 141.008 343.444 150.939 343.444 162.459H349.91C349.91 152.468 353.098 144.129 359.442 137.245L354.687 132.863ZM343.444 162.459C343.444 174.617 347.275 184.999 355.021 193.385L359.771 188.997C353.225 181.912 349.91 173.14 349.91 162.459H343.444ZM355.032 193.396C362.793 201.717 372.492 205.916 383.917 205.916V199.45C374.273 199.45 366.291 195.988 359.76 188.986L355.032 193.396ZM383.917 205.916C390.361 205.916 396.373 204.153 401.89 200.664L398.434 195.199C393.931 198.046 389.114 199.45 383.917 199.45V205.916ZM401.872 200.675C407.459 197.193 411.768 192.475 414.759 186.575L408.991 183.651C406.531 188.506 403.03 192.334 398.452 195.188L401.872 200.675ZM411.875 188.346H445.469V181.88H411.875V188.346ZM482.594 210.75L480.302 213.03L480.308 213.036L480.315 213.043L482.594 210.75ZM482.594 115.937L480.302 113.657L480.302 113.657L482.594 115.937ZM577.187 115.937L574.888 118.21L574.894 118.216L574.901 118.223L577.187 115.937ZM529.891 226.966C512.248 226.966 497.304 220.818 484.874 208.458L480.315 213.043C493.964 226.615 510.55 233.432 529.891 233.432V226.966ZM484.887 208.471C472.53 196.043 466.378 181.063 466.378 163.343H459.912C459.912 182.753 466.727 199.378 480.302 213.03L484.887 208.471ZM466.378 163.343C466.378 145.624 472.53 130.644 484.887 118.216L480.302 113.657C466.727 127.309 459.912 143.933 459.912 163.343H466.378ZM484.887 118.216C497.32 105.713 512.26 99.4996 529.891 99.4996V93.0335C510.539 93.0335 493.948 99.9333 480.302 113.657L484.887 118.216ZM529.891 99.4996C547.598 99.4996 562.534 105.715 574.888 118.21L579.486 113.663C565.908 99.9312 549.313 93.0335 529.891 93.0335V99.4996ZM574.901 118.223C587.33 130.651 593.513 145.629 593.513 163.343H599.979C599.979 143.928 593.124 127.301 579.473 113.65L574.901 118.223ZM593.513 163.343C593.513 181.057 587.33 196.035 574.901 208.464L579.473 213.036C593.124 199.386 599.979 182.759 599.979 163.343H593.513ZM574.901 208.464C562.55 220.815 547.61 226.966 529.891 226.966V233.432C549.301 233.432 565.892 226.617 579.473 213.036L574.901 208.464ZM529.891 205.916C541.164 205.916 550.717 201.795 558.336 193.615L553.604 189.208C547.225 196.057 539.393 199.45 529.891 199.45V205.916ZM558.336 193.615C565.944 185.446 569.701 175.278 569.701 163.343H563.235C563.235 173.804 559.993 182.349 553.604 189.208L558.336 193.615ZM569.701 163.343C569.701 151.408 565.945 141.211 558.346 132.973L553.593 137.356C559.992 144.294 563.235 152.883 563.235 163.343H569.701ZM558.346 132.973C550.731 124.716 541.174 120.549 529.891 120.549V127.016C539.382 127.016 547.211 130.437 553.593 137.356L558.346 132.973ZM529.891 120.549C518.673 120.549 509.155 124.722 501.545 132.973L506.298 137.356C512.686 130.431 520.48 127.016 529.891 127.016V120.549ZM501.545 132.973C493.947 141.211 490.191 151.408 490.191 163.343H496.657C496.657 152.883 499.899 144.294 506.298 137.356L501.545 132.973ZM490.191 163.343C490.191 175.278 493.947 185.446 501.556 193.615L506.288 189.208C499.899 182.349 496.657 173.804 496.657 163.343H490.191ZM501.556 193.615C509.169 201.79 518.684 205.916 529.891 205.916V199.45C520.47 199.45 512.672 196.063 506.288 189.208L501.556 193.615ZM675.422 230.199V233.432H675.429L675.436 233.432L675.422 230.199ZM631.33 210.75L628.965 212.955L628.972 212.961L631.33 210.75ZM631.33 115.937L633.695 118.141L633.701 118.134L631.33 115.937ZM718.077 114.279L715.756 116.529L721.31 122.26V114.279H718.077ZM718.077 100.466V97.2327H714.844V100.466H718.077ZM745.814 100.466H749.047V97.2327H745.814V100.466ZM745.814 226V229.233H749.047V226H745.814ZM718.077 226H714.844V229.233H718.077V226ZM718.077 212.297H721.31V204.457L715.784 210.018L718.077 212.297ZM653.984 135.054L656.349 137.258L656.354 137.253L656.359 137.247L653.984 135.054ZM653.984 191.522L651.619 193.727L653.984 191.522ZM706.695 191.522L704.341 189.306L704.336 189.312L704.33 189.318L706.695 191.522ZM675.422 226.966C659.107 226.966 645.255 220.876 633.689 208.539L628.972 212.961C641.717 226.557 657.259 233.432 675.422 233.432V226.966ZM633.695 208.546C622.122 196.131 616.33 181.127 616.33 163.343H609.864C609.864 182.689 616.227 199.29 628.965 212.955L633.695 208.546ZM616.33 163.343C616.33 145.559 622.122 130.555 633.695 118.141L628.965 113.732C616.227 127.397 609.864 143.998 609.864 163.343H616.33ZM633.701 118.134C645.268 105.657 659.153 99.4996 675.532 99.4996V93.0335C657.287 93.0335 641.704 99.9898 628.959 113.739L633.701 118.134ZM675.532 99.4996C691.381 99.4996 704.725 105.149 715.756 116.529L720.398 112.029C708.15 99.3923 693.13 93.0335 675.532 93.0335V99.4996ZM721.31 114.279V100.466H714.844V114.279H721.31ZM718.077 103.699H745.814V97.2327H718.077V103.699ZM742.581 100.466V226H749.047V100.466H742.581ZM745.814 222.767H732.001V229.233H745.814V222.767ZM732.001 222.767H718.077V229.233H732.001V222.767ZM721.31 226V212.297H714.844V226H721.31ZM715.784 210.018C704.597 221.275 691.197 226.896 675.408 226.966L675.436 233.432C692.946 233.355 707.983 227.041 720.37 214.576L715.784 210.018ZM680.395 120.328C668.968 120.328 659.3 124.529 651.608 132.861L656.359 137.247C662.813 130.256 670.751 126.794 680.395 126.794V120.328ZM651.619 132.85C643.938 141.09 640.142 151.331 640.142 163.343H646.608C646.608 152.813 649.885 144.194 656.349 137.258L651.619 132.85ZM640.142 163.343C640.142 175.288 643.942 185.49 651.619 193.727L656.349 189.318C649.881 182.378 646.608 173.794 646.608 163.343H640.142ZM651.619 193.727C659.309 201.977 668.935 206.137 680.284 206.137V199.671C670.711 199.671 662.804 196.244 656.349 189.318L651.619 193.727ZM680.284 206.137C691.7 206.137 701.365 201.982 709.06 193.727L704.33 189.318C697.88 196.238 689.938 199.671 680.284 199.671V206.137ZM709.049 193.739C716.808 185.5 720.647 175.255 720.647 163.233H714.181C714.181 173.754 710.874 182.369 704.341 189.306L709.049 193.739ZM720.647 163.233C720.647 151.221 716.851 140.98 709.171 132.739L704.44 137.148C710.904 144.083 714.181 152.702 714.181 163.233H720.647ZM709.171 132.739C701.476 124.483 691.81 120.328 680.395 120.328V126.794C690.048 126.794 697.99 130.227 704.44 137.148L709.171 132.739ZM898.418 185.113L901.509 186.06L902.79 181.88H898.418V185.113ZM874.99 217.933L873.108 215.305L873.1 215.31L874.99 217.933ZM788.686 210.75L786.387 213.023L786.393 213.03L786.399 213.036L788.686 210.75ZM788.686 115.937L786.387 113.663L786.387 113.663L788.686 115.937ZM875.432 108.754L873.536 111.372L873.547 111.38L875.432 108.754ZM899.081 141.905V145.138H903.461L902.17 140.952L899.081 141.905ZM865.487 141.905L862.581 143.322L863.466 145.138H865.487V141.905ZM853.442 128.424L851.761 131.185L851.77 131.191L851.778 131.196L853.442 128.424ZM810.013 135.054L807.647 132.85L807.641 132.857L807.636 132.863L810.013 135.054ZM810.345 191.191L807.97 193.385L807.975 193.39L807.98 193.396L810.345 191.191ZM853.11 197.932L851.4 195.188L851.391 195.193L851.382 195.199L853.11 197.932ZM864.824 185.113V181.88H862.838L861.94 183.651L864.824 185.113ZM895.326 184.166C891.33 197.206 883.938 207.549 873.108 215.305L876.873 220.562C888.881 211.963 897.106 200.426 901.509 186.06L895.326 184.166ZM873.1 215.31C862.339 223.067 849.932 226.966 835.761 226.966V233.432C851.205 233.432 864.952 229.154 876.881 220.556L873.1 215.31ZM835.761 226.966C818.197 226.966 803.328 220.821 790.972 208.464L786.399 213.036C799.975 226.612 816.49 233.432 835.761 233.432V226.966ZM790.985 208.477C778.699 196.051 772.58 181.069 772.58 163.343H766.114C766.114 182.748 772.888 199.37 786.387 213.023L790.985 208.477ZM772.58 163.343C772.58 145.618 778.699 130.636 790.985 118.21L786.387 113.663C772.888 127.317 766.114 143.939 766.114 163.343H772.58ZM790.985 118.21C803.344 105.71 818.208 99.4996 835.761 99.4996V93.0335C816.478 93.0335 799.959 99.9367 786.387 113.663L790.985 118.21ZM835.761 99.4996C850.074 99.4996 862.626 103.469 873.536 111.372L877.329 106.135C865.254 97.3887 851.358 93.0335 835.761 93.0335V99.4996ZM873.547 111.38C884.451 119.209 891.921 129.665 895.991 142.858L902.17 140.952C897.695 126.446 889.398 114.801 877.318 106.127L873.547 111.38ZM899.081 138.672H865.487V145.138H899.081V138.672ZM868.393 140.489C865.271 134.085 860.847 129.097 855.105 125.651L851.778 131.196C856.35 133.939 859.956 137.938 862.581 143.322L868.393 140.489ZM855.123 125.662C849.455 122.212 842.849 120.549 835.429 120.549V127.016C841.86 127.016 847.262 128.447 851.761 131.185L855.123 125.662ZM835.429 120.549C824.554 120.549 815.235 124.704 807.647 132.85L812.379 137.257C818.789 130.376 826.414 127.016 835.429 127.016V120.549ZM807.636 132.863C800.13 141.008 796.393 150.939 796.393 162.459H802.859C802.859 152.468 806.047 144.129 812.391 137.245L807.636 132.863ZM796.393 162.459C796.393 174.617 800.223 184.999 807.97 193.385L812.719 188.997C806.174 181.912 802.859 173.14 802.859 162.459H796.393ZM807.98 193.396C815.742 201.717 825.44 205.916 836.866 205.916V199.45C827.222 199.45 819.24 195.988 812.709 188.986L807.98 193.396ZM836.866 205.916C843.309 205.916 849.322 204.153 854.838 200.664L851.382 195.199C846.88 198.046 842.062 199.45 836.866 199.45V205.916ZM854.82 200.675C860.408 197.193 864.717 192.475 867.708 186.575L861.94 183.651C859.479 188.506 855.979 192.334 851.4 195.188L854.82 200.675ZM864.824 188.346H898.418V181.88H864.824V188.346ZM922.724 226H919.491V229.233H922.724V226ZM922.724 58.5842V55.3511H919.491V58.5842H922.724ZM952.892 58.5842H956.125V55.3511H952.892V58.5842ZM952.892 109.306H949.659V116.809L955.113 111.656L952.892 109.306ZM985.602 96.2666L985.564 99.4994L985.583 99.4996H985.602V96.2666ZM1020.85 111.295L1018.41 113.414L1018.42 113.424L1020.85 111.295ZM1034 226V229.233H1037.24V226H1034ZM1003.84 226H1000.6V229.233H1003.84V226ZM997.426 132.623L994.782 134.483L994.795 134.502L994.808 134.521L997.426 132.623ZM959.302 132.733L956.677 130.845L956.67 130.856L956.662 130.866L959.302 132.733ZM952.892 226V229.233H956.125V226H952.892ZM925.957 226V58.5842H919.491V226H925.957ZM922.724 61.8173H937.753V55.3511H922.724V61.8173ZM937.753 61.8173H952.892V55.3511H937.753V61.8173ZM949.659 58.5842V109.306H956.125V58.5842H949.659ZM955.113 111.656C963.882 103.37 973.983 99.3624 985.564 99.4994L985.64 93.0337C972.32 92.8761 960.615 97.5612 950.672 106.956L955.113 111.656ZM985.602 99.4996C999.595 99.4996 1010.41 104.19 1018.41 113.414L1023.3 109.177C1013.91 98.3623 1001.22 93.0335 985.602 93.0335V99.4996ZM1018.42 113.424C1026.54 122.703 1030.77 135.425 1030.77 151.961H1037.24C1037.24 134.315 1032.7 119.926 1023.29 109.166L1018.42 113.424ZM1030.77 151.961V226H1037.24V151.961H1030.77ZM1034 222.767H1018.97V229.233H1034V222.767ZM1018.97 222.767H1003.84V229.233H1018.97V222.767ZM1007.07 226V158.592H1000.6V226H1007.07ZM1007.07 158.592C1007.07 146.852 1004.89 137.404 1000.04 130.725L994.808 134.521C998.512 139.629 1000.6 147.494 1000.6 158.592H1007.07ZM1000.07 130.762C995.185 123.821 987.943 120.439 978.861 120.439V126.905C986.134 126.905 991.268 129.491 994.782 134.483L1000.07 130.762ZM978.861 120.439C969.328 120.439 961.739 123.81 956.677 130.845L961.926 134.622C965.557 129.575 971.008 126.905 978.861 126.905V120.439ZM956.662 130.866C951.828 137.701 949.659 147.553 949.659 159.918H956.125C956.125 148.119 958.23 139.848 961.941 134.6L956.662 130.866ZM949.659 159.918V226H956.125V159.918H949.659ZM952.892 222.767H937.864V229.233H952.892V222.767ZM937.864 222.767H922.724V229.233H937.864V222.767Z" fill="black"/>
<path d="M1191.13 185.113C1186.93 198.816 1179.12 209.756 1167.7 217.933C1156.36 226.111 1143.28 230.199 1128.47 230.199C1110.06 230.199 1094.36 223.716 1081.4 210.75C1068.51 197.711 1062.06 181.908 1062.06 163.343C1062.06 144.778 1068.51 128.976 1081.4 115.937C1094.36 102.823 1110.06 96.2666 1128.47 96.2666C1143.43 96.2666 1156.65 100.429 1168.14 108.754C1179.64 117.005 1187.52 128.055 1191.79 141.905H1158.2C1155.33 136.012 1151.31 131.518 1146.15 128.424C1141.07 125.33 1135.07 123.782 1128.14 123.782C1118.2 123.782 1109.72 127.54 1102.73 135.054C1095.8 142.568 1092.34 151.703 1092.34 162.459C1092.34 173.878 1095.91 183.455 1103.06 191.191C1110.2 198.852 1119.04 202.683 1129.58 202.683C1135.4 202.683 1140.81 201.099 1145.82 197.932C1150.91 194.764 1154.81 190.491 1157.54 185.113H1191.13ZM1244.61 100.466V167.543C1244.61 179.035 1246.75 187.802 1251.02 193.843C1255.29 199.81 1261.55 202.794 1269.81 202.794C1278.57 202.794 1285.13 199.773 1289.48 193.732C1293.9 187.691 1296.11 178.63 1296.11 166.548V100.466H1311.13H1326.27V226H1312.24H1298.21V214.839C1288.7 225.079 1276.99 230.199 1263.06 230.199C1248.18 230.199 1236.36 225.19 1227.59 215.17C1218.83 205.078 1214.44 191.449 1214.44 174.283V100.466H1229.47H1244.61ZM1354.23 58.5842H1369.26H1384.4V111.406C1395.89 101.313 1409.19 96.2666 1424.29 96.2666C1441.6 96.2666 1456.33 102.823 1468.49 115.937C1480.65 128.976 1486.72 144.778 1486.72 163.343C1486.72 181.908 1480.65 197.711 1468.49 210.75C1456.33 223.716 1441.56 230.199 1424.18 230.199C1407.82 230.126 1393.75 224.306 1381.96 212.739V226H1354.23V58.5842ZM1419.43 202.904C1429.96 202.904 1438.76 199.11 1445.84 191.522C1452.91 183.934 1456.44 174.541 1456.44 163.343C1456.44 152.072 1452.91 142.642 1445.84 135.054C1438.76 127.392 1430 123.561 1419.54 123.561C1409.07 123.561 1400.31 127.355 1393.24 134.943C1386.16 142.532 1382.63 151.961 1382.63 163.233C1382.63 174.504 1386.16 183.934 1393.24 191.522C1400.23 199.11 1408.96 202.904 1419.43 202.904ZM1570.04 230.199C1551.92 230.199 1536.45 223.716 1523.63 210.75C1510.88 197.711 1504.51 181.908 1504.51 163.343C1504.51 144.778 1510.88 128.976 1523.63 115.937C1536.45 102.823 1551.92 96.2666 1570.04 96.2666C1588.24 96.2666 1603.71 102.823 1616.45 115.937C1629.27 128.976 1635.68 144.778 1635.68 163.343C1635.68 167.837 1635.31 172.258 1634.58 176.604H1536.67C1538.36 182.056 1541.2 186.992 1545.18 191.412C1552.03 198.926 1560.57 202.683 1570.81 202.683C1577.15 202.683 1582.93 201.21 1588.16 198.263C1593.47 195.316 1597.37 191.375 1599.88 186.439H1631.7C1627.65 199.773 1620.03 210.419 1608.83 218.375C1597.63 226.258 1584.7 230.199 1570.04 230.199ZM1604.19 152.514C1602.71 145.884 1599.73 140.1 1595.24 135.164C1588.46 127.576 1580.06 123.782 1570.04 123.782C1560.02 123.782 1551.62 127.576 1544.84 135.164C1540.5 140.174 1537.48 145.957 1535.78 152.514H1604.19Z" fill="#6794B0"/>
<path d="M1191.13 185.113L1194.22 186.06L1195.5 181.88H1191.13V185.113ZM1167.7 217.933L1165.82 215.305L1165.81 215.31L1167.7 217.933ZM1081.4 210.75L1079.1 213.023L1079.11 213.03L1079.11 213.036L1081.4 210.75ZM1081.4 115.937L1079.1 113.663L1079.1 113.663L1081.4 115.937ZM1168.14 108.754L1166.25 111.372L1166.26 111.38L1168.14 108.754ZM1191.79 141.905V145.138H1196.17L1194.88 140.952L1191.79 141.905ZM1158.2 141.905L1155.29 143.322L1156.18 145.138H1158.2V141.905ZM1146.15 128.424L1144.47 131.185L1144.48 131.191L1144.49 131.196L1146.15 128.424ZM1102.73 135.054L1100.36 132.85L1100.35 132.857L1100.35 132.863L1102.73 135.054ZM1103.06 191.191L1100.68 193.385L1100.69 193.39L1100.69 193.396L1103.06 191.191ZM1145.82 197.932L1144.11 195.188L1144.1 195.193L1144.09 195.199L1145.82 197.932ZM1157.54 185.113V181.88H1155.55L1154.65 183.651L1157.54 185.113ZM1188.04 184.166C1184.04 197.206 1176.65 207.549 1165.82 215.305L1169.59 220.562C1181.59 211.963 1189.82 200.426 1194.22 186.06L1188.04 184.166ZM1165.81 215.31C1155.05 223.067 1142.64 226.966 1128.47 226.966V233.432C1143.92 233.432 1157.66 229.154 1169.59 220.556L1165.81 215.31ZM1128.47 226.966C1110.91 226.966 1096.04 220.821 1083.68 208.464L1079.11 213.036C1092.69 226.612 1109.2 233.432 1128.47 233.432V226.966ZM1083.7 208.477C1071.41 196.051 1065.29 181.069 1065.29 163.343H1058.83C1058.83 182.748 1065.6 199.37 1079.1 213.023L1083.7 208.477ZM1065.29 163.343C1065.29 145.618 1071.41 130.636 1083.7 118.21L1079.1 113.663C1065.6 127.317 1058.83 143.939 1058.83 163.343H1065.29ZM1083.7 118.21C1096.06 105.71 1110.92 99.4996 1128.47 99.4996V93.0335C1109.19 93.0335 1092.67 99.9367 1079.1 113.663L1083.7 118.21ZM1128.47 99.4996C1142.79 99.4996 1155.34 103.469 1166.25 111.372L1170.04 106.135C1157.97 97.3887 1144.07 93.0335 1128.47 93.0335V99.4996ZM1166.26 111.38C1177.16 119.209 1184.63 129.665 1188.7 142.858L1194.88 140.952C1190.41 126.446 1182.11 114.801 1170.03 106.127L1166.26 111.38ZM1191.79 138.672H1158.2V145.138H1191.79V138.672ZM1161.11 140.489C1157.98 134.085 1153.56 129.097 1147.82 125.651L1144.49 131.196C1149.06 133.939 1152.67 137.938 1155.29 143.322L1161.11 140.489ZM1147.84 125.662C1142.17 122.212 1135.56 120.549 1128.14 120.549V127.016C1134.57 127.016 1139.97 128.447 1144.47 131.185L1147.84 125.662ZM1128.14 120.549C1117.27 120.549 1107.95 124.704 1100.36 132.85L1105.09 137.257C1111.5 130.376 1119.13 127.016 1128.14 127.016V120.549ZM1100.35 132.863C1092.84 141.008 1089.1 150.939 1089.1 162.459H1095.57C1095.57 152.468 1098.76 144.129 1105.1 137.245L1100.35 132.863ZM1089.1 162.459C1089.1 174.617 1092.94 184.999 1100.68 193.385L1105.43 188.997C1098.89 181.912 1095.57 173.14 1095.57 162.459H1089.1ZM1100.69 193.396C1108.45 201.717 1118.15 205.916 1129.58 205.916V199.45C1119.93 199.45 1111.95 195.988 1105.42 188.986L1100.69 193.396ZM1129.58 205.916C1136.02 205.916 1142.03 204.153 1147.55 200.664L1144.09 195.199C1139.59 198.046 1134.77 199.45 1129.58 199.45V205.916ZM1147.53 200.675C1153.12 197.193 1157.43 192.475 1160.42 186.575L1154.65 183.651C1152.19 188.506 1148.69 192.334 1144.11 195.188L1147.53 200.675ZM1157.54 188.346H1191.13V181.88H1157.54V188.346ZM1244.61 100.466H1247.84V97.2327H1244.61V100.466ZM1251.02 193.843L1248.38 195.71L1248.39 195.718L1248.39 195.725L1251.02 193.843ZM1289.48 193.732L1286.87 191.823L1286.86 191.834L1286.85 191.844L1289.48 193.732ZM1296.11 100.466V97.2327H1292.87V100.466H1296.11ZM1326.27 100.466H1329.51V97.2327H1326.27V100.466ZM1326.27 226V229.233H1329.51V226H1326.27ZM1298.21 226H1294.97V229.233H1298.21V226ZM1298.21 214.839H1301.44V206.602L1295.84 212.64L1298.21 214.839ZM1227.59 215.17L1225.15 217.291L1225.16 217.299L1227.59 215.17ZM1214.44 100.466V97.2327H1211.21V100.466H1214.44ZM1241.38 100.466V167.543H1247.84V100.466H1241.38ZM1241.38 167.543C1241.38 179.359 1243.56 188.897 1248.38 195.71L1253.66 191.976C1249.93 186.707 1247.84 178.711 1247.84 167.543H1241.38ZM1248.39 195.725C1253.35 202.655 1260.66 206.027 1269.81 206.027V199.561C1262.45 199.561 1257.23 196.965 1253.65 191.961L1248.39 195.725ZM1269.81 206.027C1279.4 206.027 1287.03 202.664 1292.1 195.621L1286.85 191.844C1283.23 196.883 1277.74 199.561 1269.81 199.561V206.027ZM1292.08 195.642C1297.09 188.799 1299.34 178.929 1299.34 166.548H1292.87C1292.87 178.331 1290.7 186.584 1286.87 191.823L1292.08 195.642ZM1299.34 166.548V100.466H1292.87V166.548H1299.34ZM1296.11 103.699H1311.13V97.2327H1296.11V103.699ZM1311.13 103.699H1326.27V97.2327H1311.13V103.699ZM1323.04 100.466V226H1329.51V100.466H1323.04ZM1326.27 222.767H1312.24V229.233H1326.27V222.767ZM1312.24 222.767H1298.21V229.233H1312.24V222.767ZM1301.44 226V214.839H1294.97V226H1301.44ZM1295.84 212.64C1286.94 222.223 1276.09 226.966 1263.06 226.966V233.432C1277.89 233.432 1290.46 227.935 1300.57 217.038L1295.84 212.64ZM1263.06 226.966C1248.99 226.966 1238.1 222.272 1230.03 213.041L1225.16 217.299C1234.62 228.108 1247.37 233.432 1263.06 233.432V226.966ZM1230.03 213.05C1221.91 203.697 1217.68 190.896 1217.68 174.283H1211.21C1211.21 192.001 1215.74 206.458 1225.15 217.291L1230.03 213.05ZM1217.68 174.283V100.466H1211.21V174.283H1217.68ZM1214.44 103.699H1229.47V97.2327H1214.44V103.699ZM1229.47 103.699H1244.61V97.2327H1229.47V103.699ZM1354.23 58.5842V55.3511H1350.99V58.5842H1354.23ZM1384.4 58.5842H1387.63V55.3511H1384.4V58.5842ZM1384.4 111.406H1381.16V118.548L1386.53 113.835L1384.4 111.406ZM1468.49 115.937L1466.12 118.134L1466.12 118.141L1468.49 115.937ZM1468.49 210.75L1470.85 212.961L1470.85 212.955L1468.49 210.75ZM1424.18 230.199L1424.16 233.432L1424.17 233.432H1424.18V230.199ZM1381.96 212.739L1384.23 210.432L1378.73 205.037V212.739H1381.96ZM1381.96 226V229.233H1385.2V226H1381.96ZM1354.23 226H1350.99V229.233H1354.23V226ZM1445.84 135.054L1443.46 137.247L1443.47 137.253L1443.47 137.258L1445.84 135.054ZM1393.24 191.522L1395.61 189.33L1395.61 189.324L1395.6 189.318L1393.24 191.522ZM1354.23 61.8173H1369.26V55.3511H1354.23V61.8173ZM1369.26 61.8173H1384.4V55.3511H1369.26V61.8173ZM1381.16 58.5842V111.406H1387.63V58.5842H1381.16ZM1386.53 113.835C1397.44 104.253 1409.98 99.4996 1424.29 99.4996V93.0335C1408.39 93.0335 1394.34 98.3729 1382.26 108.977L1386.53 113.835ZM1424.29 99.4996C1440.67 99.4996 1454.55 105.657 1466.12 118.134L1470.86 113.739C1458.12 99.9898 1442.53 93.0335 1424.29 93.0335V99.4996ZM1466.12 118.141C1477.7 130.555 1483.49 145.559 1483.49 163.343H1489.96C1489.96 143.998 1483.59 127.397 1470.85 113.732L1466.12 118.141ZM1483.49 163.343C1483.49 181.127 1477.7 196.131 1466.12 208.546L1470.85 212.955C1483.59 199.29 1489.96 182.689 1489.96 163.343H1483.49ZM1466.13 208.539C1454.57 220.869 1440.65 226.966 1424.18 226.966V233.432C1442.48 233.432 1458.1 226.563 1470.85 212.961L1466.13 208.539ZM1424.19 226.966C1408.69 226.896 1395.42 221.415 1384.23 210.432L1379.7 215.047C1392.08 227.196 1406.96 233.355 1424.16 233.432L1424.19 226.966ZM1378.73 212.739V226H1385.2V212.739H1378.73ZM1381.96 222.767H1354.23V229.233H1381.96V222.767ZM1357.46 226V58.5842H1350.99V226H1357.46ZM1419.43 206.137C1430.84 206.137 1440.51 201.982 1448.2 193.727L1443.47 189.318C1437.02 196.238 1429.08 199.671 1419.43 199.671V206.137ZM1448.2 193.727C1455.88 185.49 1459.68 175.288 1459.68 163.343H1453.21C1453.21 173.794 1449.94 182.378 1443.47 189.318L1448.2 193.727ZM1459.68 163.343C1459.68 151.331 1455.88 141.09 1448.2 132.85L1443.47 137.258C1449.93 144.194 1453.21 152.813 1453.21 163.343H1459.68ZM1448.21 132.861C1440.53 124.534 1430.9 120.328 1419.54 120.328V126.794C1429.1 126.794 1437 130.251 1443.46 137.247L1448.21 132.861ZM1419.54 120.328C1408.19 120.328 1398.56 124.489 1390.87 132.739L1395.6 137.148C1402.06 130.222 1409.96 126.794 1419.54 126.794V120.328ZM1390.87 132.739C1383.19 140.98 1379.39 151.221 1379.39 163.233H1385.86C1385.86 152.702 1389.14 144.083 1395.6 137.148L1390.87 132.739ZM1379.39 163.233C1379.39 175.245 1383.19 185.486 1390.87 193.727L1395.6 189.318C1389.14 182.383 1385.86 173.764 1385.86 163.233H1379.39ZM1390.86 193.714C1398.48 201.976 1408.08 206.137 1419.43 206.137V199.671C1409.85 199.671 1401.99 196.245 1395.61 189.33L1390.86 193.714ZM1523.63 210.75L1521.32 213.01L1521.32 213.017L1521.33 213.023L1523.63 210.75ZM1523.63 115.937L1521.32 113.677L1521.32 113.677L1523.63 115.937ZM1616.45 115.937L1614.13 118.19L1614.14 118.196L1614.15 118.203L1616.45 115.937ZM1634.58 176.604V179.837H1637.31L1637.76 177.144L1634.58 176.604ZM1536.67 176.604V173.371H1532.28L1533.58 177.564L1536.67 176.604ZM1545.18 191.412L1542.77 193.575L1542.78 193.582L1542.79 193.59L1545.18 191.412ZM1588.16 198.263L1586.59 195.437L1586.58 195.442L1586.58 195.446L1588.16 198.263ZM1599.88 186.439V183.206H1597.89L1596.99 184.976L1599.88 186.439ZM1631.7 186.439L1634.8 187.379L1636.06 183.206H1631.7V186.439ZM1608.83 218.375L1610.69 221.019L1610.69 221.015L1610.7 221.011L1608.83 218.375ZM1604.19 152.514V155.747H1608.22L1607.34 151.812L1604.19 152.514ZM1595.24 135.165L1592.82 137.318L1592.83 137.33L1592.84 137.341L1595.24 135.165ZM1544.84 135.165L1542.43 133.011L1542.42 133.028L1542.4 133.046L1544.84 135.165ZM1535.78 152.514L1532.65 151.705L1531.61 155.747H1535.78V152.514ZM1570.04 226.966C1552.79 226.966 1538.14 220.833 1525.93 208.477L1521.33 213.023C1534.75 226.599 1551.05 233.432 1570.04 233.432V226.966ZM1525.94 208.49C1513.8 196.067 1507.74 181.081 1507.74 163.343H1501.28C1501.28 182.736 1507.97 199.354 1521.32 213.01L1525.94 208.49ZM1507.74 163.343C1507.74 145.606 1513.8 130.62 1525.94 118.196L1521.32 113.677C1507.97 127.333 1501.28 143.951 1501.28 163.343H1507.74ZM1525.94 118.197C1538.16 105.697 1552.8 99.4996 1570.04 99.4996V93.0335C1551.04 93.0335 1534.73 99.9493 1521.32 113.677L1525.94 118.197ZM1570.04 99.4996C1587.36 99.4996 1601.99 105.699 1614.13 118.19L1618.77 113.683C1605.42 99.947 1589.11 93.0335 1570.04 93.0335V99.4996ZM1614.15 118.203C1626.36 130.628 1632.45 145.612 1632.45 163.343H1638.91C1638.91 143.945 1632.18 127.325 1618.76 113.67L1614.15 118.203ZM1632.45 163.343C1632.45 167.66 1632.09 171.899 1631.39 176.064L1637.76 177.144C1638.53 172.616 1638.91 168.015 1638.91 163.343H1632.45ZM1634.58 173.371H1536.67V179.837H1634.58V173.371ZM1533.58 177.564C1535.42 183.48 1538.5 188.822 1542.77 193.575L1547.58 189.249C1543.9 185.161 1541.3 180.632 1539.75 175.644L1533.58 177.564ZM1542.79 193.59C1550.26 201.782 1559.67 205.916 1570.81 205.916V199.45C1561.48 199.45 1553.8 196.071 1547.57 189.233L1542.79 193.59ZM1570.81 205.916C1577.67 205.916 1584.01 204.315 1589.75 201.08L1586.58 195.446C1581.86 198.105 1576.62 199.45 1570.81 199.45V205.916ZM1589.73 201.089C1595.54 197.861 1599.93 193.468 1602.76 187.902L1596.99 184.976C1594.81 189.282 1591.39 192.772 1586.59 195.437L1589.73 201.089ZM1599.88 189.672H1631.7V183.206H1599.88V189.672ZM1628.61 185.499C1624.76 198.159 1617.56 208.204 1606.95 215.74L1610.7 221.011C1622.49 212.633 1630.54 201.387 1634.8 187.379L1628.61 185.499ZM1606.97 215.731C1596.35 223.203 1584.08 226.966 1570.04 226.966V233.432C1585.32 233.432 1598.91 229.313 1610.69 221.019L1606.97 215.731ZM1607.34 151.812C1605.75 144.642 1602.51 138.348 1597.63 132.988L1592.84 137.341C1596.95 141.853 1599.68 147.125 1601.03 153.215L1607.34 151.812ZM1597.65 133.011C1590.27 124.748 1581 120.549 1570.04 120.549V127.016C1579.12 127.016 1586.65 130.405 1592.82 137.318L1597.65 133.011ZM1570.04 120.549C1559.08 120.549 1549.81 124.748 1542.43 133.011L1547.26 137.318C1553.43 130.405 1560.96 127.016 1570.04 127.016V120.549ZM1542.4 133.046C1537.72 138.441 1534.47 144.675 1532.65 151.705L1538.91 153.323C1540.49 147.24 1543.27 141.907 1547.29 137.283L1542.4 133.046ZM1535.78 155.747H1604.19V149.281H1535.78V155.747Z" fill="#6794B0"/>
<defs>
<filter id="filter0_d_115_23938" x="31.1149" y="91.3975" width="106.223" height="168.114" filterUnits="userSpaceOnUse" color-interpolation-filters="sRGB">
<feFlood flood-opacity="0" result="BackgroundImageFix"/>
<feColorMatrix in="SourceAlpha" type="matrix" values="0 0 0 0 0 0 0 0 0 0 0 0 0 0 0 0 0 0 127 0" result="hardAlpha"/>
<feOffset dy="4"/>
<feGaussianBlur stdDeviation="2"/>
<feComposite in2="hardAlpha" operator="out"/>
<feColorMatrix type="matrix" values="0 0 0 0 0 0 0 0 0 0 0 0 0 0 0 0 0 0 0.25 0"/>
<feBlend mode="normal" in2="BackgroundImageFix" result="effect1_dropShadow_115_23938"/>
<feBlend mode="normal" in="SourceGraphic" in2="effect1_dropShadow_115_23938" result="shape"/>
</filter>
<radialGradient id="paint0_angular_115_23938" cx="0" cy="0" r="1" gradientUnits="userSpaceOnUse" gradientTransform="translate(262.693 65.1033) rotate(175.968) scale(241.214 108.841)">
<stop offset="0.22" stop-color="#A8C7E9"/>
<stop offset="0.307292" stop-color="#14345A"/>
<stop offset="0.796875" stop-color="#2E4569"/>
<stop offset="0.895833" stop-color="#578AA6"/>
</radialGradient>
<radialGradient id="paint1_angular_115_23938" cx="0" cy="0" r="1" gradientUnits="userSpaceOnUse" gradientTransform="translate(0.984525 67.335) rotate(52.9523) scale(148.773 67.9977)">
<stop offset="0.524035"/>
<stop offset="1" stop-color="#364E6F"/>
</radialGradient>
<radialGradient id="paint2_angular_115_23938" cx="0" cy="0" r="1" gradientUnits="userSpaceOnUse" gradientTransform="translate(132.068 142.979) rotate(-90.092) scale(142.595 138.886)">
<stop offset="0.000890043" stop-color="#829FBD"/>
<stop offset="0.160111" stop-color="#3B5373"/>
<stop offset="0.495864" stop-color="#355473"/>
<stop offset="0.828585" stop-color="#6F95B0"/>
</radialGradient>
<linearGradient id="paint3_linear_115_23938" x1="117.199" y1="-29.9554" x2="245.11" y2="134.07" gradientUnits="userSpaceOnUse">
<stop stop-color="#6B9BB6"/>
<stop offset="1" stop-color="#455F85"/>
</linearGradient>
<linearGradient id="paint4_linear_115_23938" x1="53.3518" y1="99.0508" x2="130.319" y2="220.186" gradientUnits="userSpaceOnUse">
<stop stop-color="#E2EFF8"/>
<stop offset="1" stop-color="#E2EFF8"/>
</linearGradient>
<clipPath id="clip0_115_23938">
<rect width="264.135" height="286.001" fill="white"/>
</clipPath>
</defs>
</svg>
