<svg width="60" height="64" viewBox="0 0 60 64" fill="none" xmlns="http://www.w3.org/2000/svg">
<g clip-path="url(#clip0_151_32049)">
<path fill-rule="evenodd" clip-rule="evenodd" d="M32.1117 0.712398C30.5803 -0.127069 28.7254 -0.122602 27.1981 0.724234L2.69485 14.3102C2.13955 14.6181 1.83815 15.1529 1.79338 15.7062L1.76172 15.7063V47.9999L1.821 47.9995C1.91229 48.464 2.18984 48.8974 2.65529 49.1714L26.487 63.2007C28.0705 64.1329 30.0335 64.139 31.6228 63.2167L56.4054 48.834C57.1048 48.428 57.3846 47.6635 57.2499 46.9692L57.3458 15.5106L57.2823 15.5108C57.268 14.9195 56.9623 14.3348 56.368 14.0091L32.1117 0.712398Z" fill="url(#paint0_angular_151_32049)"/>
<path fill-rule="evenodd" clip-rule="evenodd" d="M32.1117 0.712398C30.5803 -0.127069 28.7254 -0.122602 27.1981 0.724234L2.69485 14.3102C2.13955 14.6181 1.83815 15.1529 1.79338 15.7062L1.76172 15.7063V47.9999L1.821 47.9995C1.91229 48.464 2.18984 48.8974 2.65529 49.1714L26.487 63.2007C28.0705 64.1329 30.0335 64.139 31.6228 63.2167L56.4054 48.834C57.1048 48.428 57.3846 47.6635 57.2499 46.9692L57.3458 15.5106L57.2823 15.5108C57.268 14.9195 56.9623 14.3348 56.368 14.0091L32.1117 0.712398Z" fill="url(#paint1_angular_151_32049)" fill-opacity="0.3"/>
<path fill-rule="evenodd" clip-rule="evenodd" d="M32.1117 0.712398C30.5803 -0.127069 28.7254 -0.122602 27.1981 0.724234L2.69485 14.3102C2.13955 14.6181 1.83815 15.1529 1.79338 15.7062L1.76172 15.7063V47.9999L1.821 47.9995C1.91229 48.464 2.18984 48.8974 2.65529 49.1714L26.487 63.2007C28.0705 64.1329 30.0335 64.139 31.6228 63.2167L56.4054 48.834C57.1048 48.428 57.3846 47.6635 57.2499 46.9692L57.3458 15.5106L57.2823 15.5108C57.268 14.9195 56.9623 14.3348 56.368 14.0091L32.1117 0.712398Z" fill="url(#paint2_angular_151_32049)" fill-opacity="0.2"/>
<path d="M27.1982 0.724321C28.7255 -0.122515 30.5804 -0.126982 32.1118 0.712486L56.3682 14.0091C57.5712 14.6686 57.5918 16.3895 56.405 17.0776L31.6377 31.4378C30.0481 32.3595 28.0851 32.3526 26.502 31.4198L2.65489 17.3684C1.4809 16.6767 1.50325 14.971 2.69496 14.3103L27.1982 0.724321Z" fill="url(#paint3_linear_151_32049)"/>
<path fill-rule="evenodd" clip-rule="evenodd" d="M27.8807 7.28562C28.9151 6.68376 30.193 6.68376 31.2274 7.28562L51.2497 18.9358L52.2051 19.4925L42.6405 25.1029L41.7579 24.5627L31.2263 18.44C30.1925 17.839 28.9156 17.839 27.8818 18.44L19.0052 23.6005C17.9806 24.1962 17.3502 25.2918 17.3502 26.477V36.8379C17.3502 38.0231 17.9806 39.1187 19.0052 39.7144L27.8818 44.8749C28.9156 45.4759 30.1925 45.4759 31.2263 44.8749L40.7178 39.3569C40.8619 39.2731 40.9988 39.1791 41.1275 39.0758L50.4371 44.449C50.2004 44.7221 49.9176 44.9587 49.5958 45.1459L31.2274 55.8338C30.193 56.4356 28.9151 56.4356 27.8807 55.8338L9.51229 45.1459C8.48832 44.5501 7.8584 43.4547 7.8584 42.2701V20.8493C7.8584 19.6646 8.48832 18.5693 9.51229 17.9735L27.8807 7.28562Z" fill="white"/>
<g filter="url(#filter0_d_151_32049)">
<path fill-rule="evenodd" clip-rule="evenodd" d="M29.4134 56.2823C28.8826 56.2598 28.356 56.1104 27.8807 55.8339L9.51229 45.146C8.48832 44.5502 7.8584 43.4548 7.8584 42.2702V20.8494C7.8584 20.7158 7.86641 20.5834 7.88209 20.4526L17.4751 25.574C17.3933 25.864 17.3502 26.1675 17.3502 26.4771V36.838C17.3502 38.0232 17.9806 39.1188 19.0052 39.7145L27.8818 44.875C28.4836 45.2248 29.1677 45.371 29.8382 45.3136L29.4134 56.2823Z" fill="url(#paint4_linear_151_32049)"/>
</g>
<path fill-rule="evenodd" clip-rule="evenodd" d="M52.0757 19.4172L42.3917 24.9509L42.6403 25.103L52.2049 19.4926L52.0757 19.4172ZM29.4565 45.3244C30.0665 45.3422 30.6802 45.1924 31.2262 44.875L40.7176 39.3571C40.8618 39.2733 40.9987 39.1792 41.1274 39.0759L50.4369 44.449C50.2003 44.7222 49.9174 44.9587 49.5957 45.1459L31.2272 55.8338C30.681 56.1516 30.0669 56.3016 29.4565 56.2838V45.3244Z" fill="#C1D5E3"/>
<path d="M41.101 38.9969L50.6912 33.321V44.6727L40.9053 50.1529L41.101 38.9969Z" fill="#C1D5E3"/>
</g>
<defs>
<filter id="filter0_d_151_32049" x="6.9633" y="20.4526" width="23.7702" height="37.6198" filterUnits="userSpaceOnUse" color-interpolation-filters="sRGB">
<feFlood flood-opacity="0" result="BackgroundImageFix"/>
<feColorMatrix in="SourceAlpha" type="matrix" values="0 0 0 0 0 0 0 0 0 0 0 0 0 0 0 0 0 0 127 0" result="hardAlpha"/>
<feOffset dy="0.895102"/>
<feGaussianBlur stdDeviation="0.447551"/>
<feComposite in2="hardAlpha" operator="out"/>
<feColorMatrix type="matrix" values="0 0 0 0 0 0 0 0 0 0 0 0 0 0 0 0 0 0 0.25 0"/>
<feBlend mode="normal" in2="BackgroundImageFix" result="effect1_dropShadow_151_32049"/>
<feBlend mode="normal" in="SourceGraphic" in2="effect1_dropShadow_151_32049" result="shape"/>
</filter>
<radialGradient id="paint0_angular_151_32049" cx="0" cy="0" r="1" gradientUnits="userSpaceOnUse" gradientTransform="translate(58.7845 14.5685) rotate(175.968) scale(53.9777 24.3559)">
<stop offset="0.22" stop-color="#A8C7E9"/>
<stop offset="0.307292" stop-color="#14345A"/>
<stop offset="0.796875" stop-color="#2E4569"/>
<stop offset="0.895833" stop-color="#578AA6"/>
</radialGradient>
<radialGradient id="paint1_angular_151_32049" cx="0" cy="0" r="1" gradientUnits="userSpaceOnUse" gradientTransform="translate(0.220564 15.0679) rotate(52.9523) scale(33.2916 15.2162)">
<stop offset="0.524035"/>
<stop offset="1" stop-color="#364E6F"/>
</radialGradient>
<radialGradient id="paint2_angular_151_32049" cx="0" cy="0" r="1" gradientUnits="userSpaceOnUse" gradientTransform="translate(29.5538 31.9951) rotate(-90.092) scale(31.9092 31.0792)">
<stop offset="0.000890043" stop-color="#829FBD"/>
<stop offset="0.160111" stop-color="#3B5373"/>
<stop offset="0.495864" stop-color="#355473"/>
<stop offset="0.828585" stop-color="#6F95B0"/>
</radialGradient>
<linearGradient id="paint3_linear_151_32049" x1="26.2267" y1="-6.70334" x2="54.8501" y2="30.0015" gradientUnits="userSpaceOnUse">
<stop stop-color="#6B9BB6"/>
<stop offset="1" stop-color="#455F85"/>
</linearGradient>
<linearGradient id="paint4_linear_151_32049" x1="11.9394" y1="22.1653" x2="29.1627" y2="49.2723" gradientUnits="userSpaceOnUse">
<stop stop-color="#E2EFF8"/>
<stop offset="1" stop-color="#E2EFF8"/>
</linearGradient>
<clipPath id="clip0_151_32049">
<rect width="59.107" height="64" fill="white"/>
</clipPath>
</defs>
</svg>
