<svg width="60" height="64" viewBox="0 0 60 64" fill="none" xmlns="http://www.w3.org/2000/svg">
<g clip-path="url(#clip0_151_31928)">
<path fill-rule="evenodd" clip-rule="evenodd" d="M32.1117 0.712398C30.5803 -0.127069 28.7254 -0.122602 27.1981 0.724234L2.69485 14.3102C2.13955 14.6181 1.83815 15.1529 1.79338 15.7062L1.76172 15.7063V47.9999L1.821 47.9995C1.91229 48.464 2.18984 48.8974 2.65529 49.1714L26.487 63.2007C28.0705 64.1329 30.0335 64.139 31.6228 63.2167L56.4054 48.834C57.1048 48.428 57.3846 47.6635 57.2499 46.9692L57.3458 15.5106L57.2823 15.5108C57.268 14.9195 56.9623 14.3348 56.368 14.0091L32.1117 0.712398Z" fill="url(#paint0_angular_151_31928)"/>
<path fill-rule="evenodd" clip-rule="evenodd" d="M32.1117 0.712398C30.5803 -0.127069 28.7254 -0.122602 27.1981 0.724234L2.69485 14.3102C2.13955 14.6181 1.83815 15.1529 1.79338 15.7062L1.76172 15.7063V47.9999L1.821 47.9995C1.91229 48.464 2.18984 48.8974 2.65529 49.1714L26.487 63.2007C28.0705 64.1329 30.0335 64.139 31.6228 63.2167L56.4054 48.834C57.1048 48.428 57.3846 47.6635 57.2499 46.9692L57.3458 15.5106L57.2823 15.5108C57.268 14.9195 56.9623 14.3348 56.368 14.0091L32.1117 0.712398Z" fill="url(#paint1_angular_151_31928)" fill-opacity="0.3"/>
<path fill-rule="evenodd" clip-rule="evenodd" d="M32.1117 0.712398C30.5803 -0.127069 28.7254 -0.122602 27.1981 0.724234L2.69485 14.3102C2.13955 14.6181 1.83815 15.1529 1.79338 15.7062L1.76172 15.7063V47.9999L1.821 47.9995C1.91229 48.464 2.18984 48.8974 2.65529 49.1714L26.487 63.2007C28.0705 64.1329 30.0335 64.139 31.6228 63.2167L56.4054 48.834C57.1048 48.428 57.3846 47.6635 57.2499 46.9692L57.3458 15.5106L57.2823 15.5108C57.268 14.9195 56.9623 14.3348 56.368 14.0091L32.1117 0.712398Z" fill="url(#paint2_angular_151_31928)" fill-opacity="0.2"/>
<path d="M27.1982 0.724321C28.7255 -0.122515 30.5804 -0.126982 32.1118 0.712486L56.3682 14.0091C57.5712 14.6686 57.5918 16.3895 56.405 17.0776L31.6377 31.4378C30.0481 32.3595 28.0851 32.3526 26.502 31.4198L2.65489 17.3684C1.4809 16.6767 1.50325 14.971 2.69496 14.3103L27.1982 0.724321Z" fill="url(#paint3_linear_151_31928)"/>
<path fill-rule="evenodd" clip-rule="evenodd" d="M27.8805 7.28538C28.9149 6.68352 30.1928 6.68352 31.2271 7.28538L51.2495 18.9356L52.2049 19.4923L42.6403 25.1027L41.7576 24.5624L31.2261 18.4398C30.1922 17.8388 28.9154 17.8388 27.8816 18.4398L19.005 23.6003C17.9804 24.1959 17.35 25.2916 17.35 26.4767V36.8377C17.35 38.0228 17.9804 39.1185 19.005 39.7141L27.8816 44.8746C28.9154 45.4757 30.1922 45.4757 31.2261 44.8746L40.7175 39.3567C40.8617 39.2729 40.9985 39.1788 41.1272 39.0756L50.4368 44.4487C50.2002 44.7219 49.9173 44.9584 49.5956 45.1456L31.2271 55.8335C30.1928 56.4354 28.9149 56.4354 27.8805 55.8335L9.51204 45.1456C8.48808 44.5498 7.85815 43.4545 7.85815 42.2698V20.8491C7.85815 19.6644 8.48808 18.5691 9.51204 17.9733L27.8805 7.28538Z" fill="white"/>
<g filter="url(#filter0_d_151_31928)">
<path fill-rule="evenodd" clip-rule="evenodd" d="M29.4131 56.2823C28.8823 56.2598 28.3557 56.1104 27.8805 55.8339L9.51204 45.146C8.48808 44.5502 7.85815 43.4548 7.85815 42.2702V20.8494C7.85815 20.7158 7.86616 20.5834 7.88185 20.4526L17.4748 25.574C17.393 25.864 17.35 26.1675 17.35 26.4771V36.838C17.35 38.0232 17.9804 39.1188 19.005 39.7145L27.8816 44.875C28.4833 45.2248 29.1674 45.371 29.838 45.3136L29.4131 56.2823Z" fill="url(#paint4_linear_151_31928)"/>
</g>
<path fill-rule="evenodd" clip-rule="evenodd" d="M52.0757 19.417L42.3917 24.9506L42.6403 25.1028L52.2049 19.4923L52.0757 19.417ZM29.4565 45.3241C30.0665 45.342 30.6802 45.1922 31.2262 44.8748L40.7176 39.3568C40.8618 39.273 40.9987 39.179 41.1274 39.0757L50.4369 44.4488C50.2003 44.7219 49.9174 44.9585 49.5957 45.1457L31.2272 55.8336C30.681 56.1514 30.0669 56.3014 29.4565 56.2836V45.3241Z" fill="#C1D5E3"/>
<path d="M41.1007 38.9971L50.691 33.3213V44.673L40.905 50.1531L41.1007 38.9971Z" fill="#C1D5E3"/>
</g>
<defs>
<filter id="filter0_d_151_31928" x="6.96305" y="20.4526" width="23.7699" height="37.6198" filterUnits="userSpaceOnUse" color-interpolation-filters="sRGB">
<feFlood flood-opacity="0" result="BackgroundImageFix"/>
<feColorMatrix in="SourceAlpha" type="matrix" values="0 0 0 0 0 0 0 0 0 0 0 0 0 0 0 0 0 0 127 0" result="hardAlpha"/>
<feOffset dy="0.895102"/>
<feGaussianBlur stdDeviation="0.447551"/>
<feComposite in2="hardAlpha" operator="out"/>
<feColorMatrix type="matrix" values="0 0 0 0 0 0 0 0 0 0 0 0 0 0 0 0 0 0 0.25 0"/>
<feBlend mode="normal" in2="BackgroundImageFix" result="effect1_dropShadow_151_31928"/>
<feBlend mode="normal" in="SourceGraphic" in2="effect1_dropShadow_151_31928" result="shape"/>
</filter>
<radialGradient id="paint0_angular_151_31928" cx="0" cy="0" r="1" gradientUnits="userSpaceOnUse" gradientTransform="translate(58.7845 14.5685) rotate(175.968) scale(53.9777 24.3559)">
<stop offset="0.22" stop-color="#A8C7E9"/>
<stop offset="0.307292" stop-color="#14345A"/>
<stop offset="0.796875" stop-color="#2E4569"/>
<stop offset="0.895833" stop-color="#578AA6"/>
</radialGradient>
<radialGradient id="paint1_angular_151_31928" cx="0" cy="0" r="1" gradientUnits="userSpaceOnUse" gradientTransform="translate(0.220564 15.0679) rotate(52.9523) scale(33.2916 15.2162)">
<stop offset="0.524035"/>
<stop offset="1" stop-color="#364E6F"/>
</radialGradient>
<radialGradient id="paint2_angular_151_31928" cx="0" cy="0" r="1" gradientUnits="userSpaceOnUse" gradientTransform="translate(29.5538 31.9951) rotate(-90.092) scale(31.9092 31.0792)">
<stop offset="0.000890043" stop-color="#829FBD"/>
<stop offset="0.160111" stop-color="#3B5373"/>
<stop offset="0.495864" stop-color="#355473"/>
<stop offset="0.828585" stop-color="#6F95B0"/>
</radialGradient>
<linearGradient id="paint3_linear_151_31928" x1="26.2267" y1="-6.70334" x2="54.8501" y2="30.0015" gradientUnits="userSpaceOnUse">
<stop stop-color="#6B9BB6"/>
<stop offset="1" stop-color="#455F85"/>
</linearGradient>
<linearGradient id="paint4_linear_151_31928" x1="11.9391" y1="22.1653" x2="29.1624" y2="49.2723" gradientUnits="userSpaceOnUse">
<stop stop-color="#E2EFF8"/>
<stop offset="1" stop-color="#E2EFF8"/>
</linearGradient>
<clipPath id="clip0_151_31928">
<rect width="59.107" height="64" fill="white"/>
</clipPath>
</defs>
</svg>
